<svg viewBox="0 0 32 32" fill="none"><path d="M16.12 9.28085C14.6422 7.39997 12.3641 5.51908 6.71828 5.38106C6.34744 5.372 6.04502 5.67322 6.04502 6.04417L6.04502 22.2949C6.04502 22.6658 6.34746 22.9571 6.71821 22.9693C12.3641 23.1538 14.6422 25.6571 16.12 27.538M16.12 9.28085C17.5979 7.39997 19.8759 5.51908 25.5218 5.38106C25.8926 5.372 26.195 5.66645 26.195 6.0374V22.294C26.195 22.665 25.8926 22.9571 25.5218 22.9693C19.8759 23.1538 17.5979 25.6571 16.12 27.538M16.12 9.28085L16.12 27.538M25.8394 8.05974H28.8817C29.2526 8.05974 29.5534 8.36045 29.5534 8.73141V26.2471C29.5534 26.7907 28.913 27.1517 28.4163 26.931C27.3482 26.4564 25.5657 25.8766 23.2318 25.8766C19.2808 25.8766 16.12 28.2097 16.12 28.2097C16.12 28.2097 12.9592 25.8766 9.00826 25.8766C6.67431 25.8766 4.89186 26.4564 3.82378 26.931C3.32703 27.1517 2.68669 26.7907 2.68669 26.2471V8.73141C2.68669 8.36045 2.98741 8.05974 3.35836 8.05974H6.40061" stroke="currentColor" stroke-width="1.34333" stroke-linejoin="round"/></svg>