<svg viewBox="0 0 24 24" fill="none"><path d="M10.075 6.04489C10.075 6.3231 9.84947 6.54864 9.57125 6.54864C9.29304 6.54864 9.0675 6.3231 9.0675 6.04489C9.0675 5.76667 9.29304 5.54114 9.57125 5.54114C9.84947 5.54114 10.075 5.76667 10.075 6.04489Z" stroke="currentColor" stroke-width="1.0075" stroke-linecap="round" stroke-linejoin="round"/><path d="M10.075 10.0741C10.075 10.3523 9.84948 10.5778 9.57127 10.5778C9.29306 10.5778 9.06752 10.3523 9.06752 10.0741C9.06752 9.79585 9.29306 9.57031 9.57127 9.57031C9.84948 9.57031 10.075 9.79585 10.075 10.0741Z" stroke="currentColor" stroke-width="1.0075" stroke-linecap="round" stroke-linejoin="round"/><path d="M10.075 14.106C10.075 14.3843 9.84948 14.6098 9.57127 14.6098C9.29306 14.6098 9.06752 14.3843 9.06752 14.106C9.06752 13.8278 9.29306 13.6023 9.57127 13.6023C9.84948 13.6023 10.075 13.8278 10.075 14.106Z" stroke="currentColor" stroke-width="1.0075" stroke-linecap="round" stroke-linejoin="round"/><path d="M10.075 18.1351C10.075 18.4133 9.84948 18.6388 9.57127 18.6388C9.29306 18.6388 9.06752 18.4133 9.06752 18.1351C9.06752 17.8569 9.29306 17.6313 9.57127 17.6313C9.84948 17.6313 10.075 17.8569 10.075 18.1351Z" stroke="currentColor" stroke-width="1.0075" stroke-linecap="round" stroke-linejoin="round"/><path d="M15.1125 6.04501C15.1125 6.32322 14.887 6.54876 14.6088 6.54876C14.3305 6.54876 14.105 6.32322 14.105 6.04501C14.105 5.7668 14.3305 5.54126 14.6088 5.54126C14.887 5.54126 15.1125 5.7668 15.1125 6.04501Z" stroke="currentColor" stroke-width="1.0075" stroke-linecap="round" stroke-linejoin="round"/><path d="M15.1125 10.0741C15.1125 10.3523 14.887 10.5778 14.6088 10.5778C14.3305 10.5778 14.105 10.3523 14.105 10.0741C14.105 9.79585 14.3305 9.57031 14.6088 9.57031C14.887 9.57031 15.1125 9.79585 15.1125 10.0741Z" stroke="currentColor" stroke-width="1.0075" stroke-linecap="round" stroke-linejoin="round"/><path d="M15.1125 14.106C15.1125 14.3843 14.887 14.6098 14.6088 14.6098C14.3305 14.6098 14.105 14.3843 14.105 14.106C14.105 13.8278 14.3305 13.6023 14.6088 13.6023C14.887 13.6023 15.1125 13.8278 15.1125 14.106Z" stroke="currentColor" stroke-width="1.0075" stroke-linecap="round" stroke-linejoin="round"/><path d="M15.1125 18.1351C15.1125 18.4133 14.887 18.6388 14.6088 18.6388C14.3305 18.6388 14.105 18.4133 14.105 18.1351C14.105 17.8569 14.3305 17.6313 14.6088 17.6313C14.887 17.6313 15.1125 17.8569 15.1125 18.1351Z" stroke="currentColor" stroke-width="1.0075" stroke-linecap="round" stroke-linejoin="round"/></svg>