<svg viewBox="0 0 8 8" fill="none"><g clip-path="url(#a)"><path d="M3 7.00011H1.33333C1.14924 7.00011 1 6.85087 1 6.66678V4.13818C1 4.04978 1.03512 3.96499 1.09763 3.90248L3.7643 1.23581C3.89447 1.10564 4.10553 1.10564 4.2357 1.23581L6.90237 3.90248C6.96488 3.96499 7 4.04978 7 4.13818V6.66678C7 6.85087 6.85076 7.00011 6.66667 7.00011H5M3 7.00011H5M3 7.00011V5.00011C3 4.81602 3.14924 4.66678 3.33333 4.66678H4.66667C4.85076 4.66678 5 4.81602 5 5.00011V7.00011" stroke="currentColor" stroke-width="0.333333" stroke-linejoin="round"/></g><defs><clipPath id="a"><rect width="8" height="8" fill="currentColor"/></clipPath></defs></svg>