<svg viewBox="0 0 8 8" fill="none"><path d="M2.66667 6.16667V4.16667M2.66667 6.16667C2.66667 6.53486 2.36819 6.83333 2 6.83333H1.66667C1.29848 6.83333 1 6.53486 1 6.16667V4.16667C1 3.79848 1.29848 3.5 1.66667 3.5H2C2.36819 3.5 2.66667 3.79848 2.66667 4.16667M2.66667 6.16667L3.24444 6.60009C3.30214 6.64336 3.37232 6.66675 3.44444 6.66675H5.70062C5.89105 6.66675 6.07238 6.58532 6.19889 6.443L7.16494 5.35619C7.27341 5.23416 7.33333 5.07656 7.33333 4.91328V3.83342C7.33333 3.64932 7.18409 3.50008 7 3.50008H5C5.33333 2.66675 5.33333 2.33342 5.33333 1.66675C5.33333 1.00008 4.33333 1.00008 4.33333 1.66675C4.33333 3.33342 3 4.16667 2.66667 4.16667" stroke="currentColor" stroke-width="0.333333" stroke-linecap="round" stroke-linejoin="round"/></svg>