<svg width="16" height="16" viewBox="0 0 24 24" xmlns="http://www.w3.org/2000/svg">
    <path d="M12 1C 7.5509152 1 3.539916 3.6800642 1.8373251 7.7904825C 0.1347351 11.900901 1.0758476 16.632196 4.2218256 19.778175C 7.3678036 22.924152 12.099099 23.865265 16.209518 22.162674C 20.319935 20.460083 23 16.449085 23 12C 23 5.9248676 18.075132 1 12 1zM12 20C 8.764302 20 5.847212 18.050861 4.608964 15.061467C 3.370716 12.072072 4.055162 8.63113 6.343146 6.343146C 8.63113 4.055162 12.072072 3.370716 15.061467 4.608964C 18.050861 5.847212 20 8.764302 20 12C 20 16.418278 16.418278 20 12 20z" opacity=".25"/>
    <path d="M10.14 1.16C 5.556731 1.9332418 1.954133 5.503817 1.1400003 10.08C 1.043536 10.511397 1.1310192 10.963481 1.3814541 11.32775C 1.6318891 11.692019 2.0226665 11.935588 2.46 12C 3.2691214 12.077543 3.9960613 11.504803 4.11 10.7C 4.669103 7.289356 7.355242 4.6233845 10.77 4.0899997C 11.471705 3.9952667 11.996392 3.3980622 12 2.69C 11.996158 2.2251062 11.786472 1.7858226 11.427427 1.4904794C 11.068383 1.195136 10.596907 1.0741091 10.14 1.16z"/>
</svg>
