<svg viewBox="0 0 8 8" fill="none"><path d="M2.66666 4.00016C2.66666 4.36835 2.36818 4.66683 1.99999 4.66683C1.63181 4.66683 1.33333 4.36835 1.33333 4.00016C1.33333 3.63197 1.63181 3.3335 1.99999 3.3335C2.36818 3.3335 2.66666 3.63197 2.66666 4.00016Z" stroke="currentColor" stroke-width="0.333333" stroke-linejoin="round"/><path d="M4.66667 3.99992C4.66667 4.36811 4.36819 4.66659 4 4.66659C3.63181 4.66659 3.33334 4.36811 3.33334 3.99992C3.33334 3.63173 3.63181 3.33325 4 3.33325C4.36819 3.33325 4.66667 3.63173 4.66667 3.99992Z" stroke="currentColor" stroke-width="0.333333" stroke-linejoin="round"/><path d="M6.66667 3.99992C6.66667 4.36811 6.36819 4.66659 6 4.66659C5.63181 4.66659 5.33334 4.36811 5.33334 3.99992C5.33334 3.63173 5.63181 3.33325 6 3.33325C6.36819 3.33325 6.66667 3.63173 6.66667 3.99992Z" stroke="currentColor" stroke-width="0.333333" stroke-linejoin="round"/></svg>