<svg viewBox="0 0 48 48" fill="none"><path d="M19.1425 38.2852H11.3185C9.82059 38.2852 8.84816 36.7088 9.51804 35.3691L11.2391 31.927C11.7986 30.8079 12.09 29.5752 12.09 28.3239V22.1652C12.09 18.1352 14.105 10.0752 24.18 10.0752C34.255 10.0752 36.27 18.1352 36.27 22.1652V28.3239C36.27 29.5752 36.5613 30.8079 37.1209 31.927L38.8419 35.3691C39.5118 36.7088 38.5376 38.2852 37.0396 38.2852H29.2175M19.1425 38.2852C19.1425 42.3152 21.1575 44.3302 24.18 44.3302C27.2025 44.3302 29.2175 42.3152 29.2175 38.2852M19.1425 38.2852H29.2175M24.18 10.0764V6.04639" stroke="currentColor" stroke-width="2.015" stroke-linecap="round" stroke-linejoin="round"/></svg>