<svg viewBox="0 0 8 8" fill="none"><g clip-path="url(#a)"><path d="M0.833326 3.99945C0.833326 4.0915 0.907945 4.16612 0.999992 4.16612C1.09204 4.16612 1.16666 4.0915 1.16666 3.99945H0.833326ZM6.82385 2.69226V2.85893C6.91589 2.85893 6.99051 2.78431 6.99051 2.69226H6.82385ZM6.99051 0.806641C6.99051 0.714593 6.91589 0.639974 6.82385 0.639974C6.7318 0.639974 6.65718 0.714593 6.65718 0.806641H6.99051ZM4.93823 2.52559C4.84618 2.52559 4.77156 2.60021 4.77156 2.69226C4.77156 2.78431 4.84618 2.85893 4.93823 2.85893V2.52559ZM7.16666 3.99994C7.16666 3.90789 7.09204 3.83327 6.99999 3.83327C6.90795 3.83327 6.83333 3.90789 6.83333 3.99994L7.16666 3.99994ZM3.99999 6.99994L3.99999 7.1666L3.99999 6.99994ZM1.17615 5.30713V5.14046C1.0841 5.14046 1.00948 5.21508 1.00948 5.30713L1.17615 5.30713ZM1.00948 7.19275C1.00948 7.28479 1.0841 7.35941 1.17615 7.35941C1.26819 7.35941 1.34281 7.28479 1.34281 7.19275L1.00948 7.19275ZM3.06176 5.4738C3.15381 5.4738 3.22843 5.39918 3.22843 5.30713C3.22843 5.21508 3.15381 5.14046 3.06176 5.14046V5.4738ZM1.16666 3.99945C1.16666 2.43464 2.43519 1.16612 3.99999 1.16612V0.832783C2.25109 0.832783 0.833326 2.25055 0.833326 3.99945H1.16666ZM3.99999 1.16612C5.11222 1.16612 6.07507 1.80695 6.5389 2.74029L6.8374 2.59194C6.31943 1.54966 5.24358 0.832783 3.99999 0.832783V1.16612ZM6.99051 2.69226V0.806641H6.65718V2.69226H6.99051ZM4.93823 2.85893H6.82385V2.52559H4.93823V2.85893ZM6.83333 3.99994C6.83333 5.56474 5.5648 6.83327 3.99999 6.83327L3.99999 7.1666C5.74889 7.1666 7.16666 5.74884 7.16666 3.99994L6.83333 3.99994ZM3.99999 6.83327C2.88777 6.83327 1.92491 6.19244 1.46109 5.2591L1.16258 5.40744C1.68055 6.44973 2.7564 7.1666 3.99999 7.1666L3.99999 6.83327ZM1.00948 5.30713L1.00948 7.19275L1.34281 7.19275L1.34281 5.30713L1.00948 5.30713ZM3.06176 5.14046H1.17615V5.4738H3.06176V5.14046Z" fill="currentColor"/></g><defs><clipPath id="a"><rect width="8" height="8" fill="currentColor"/></clipPath></defs></svg>