<svg viewBox="0 0 24 24" fill="none"><path d="M5.73031 13.6216C4.76655 14.178 3.5342 13.8478 2.97777 12.8841C2.42134 11.9203 2.75155 10.6879 3.71531 10.1315C4.67907 9.5751 5.91142 9.9053 6.46785 10.8691C7.02428 11.8328 6.69407 13.0652 5.73031 13.6216ZM5.73031 13.6216L21.2019 8.1786M10.4732 18.3642C9.91679 19.3279 10.247 20.5603 11.2108 21.1167C12.1745 21.6731 13.4069 21.3429 13.9633 20.3792C14.5197 19.4154 14.1895 18.1831 13.2258 17.6266C12.262 17.0702 11.0296 17.4004 10.4732 18.3642ZM10.4732 18.3642L15.9156 2.89209" stroke="currentColor" stroke-width="1.0075" stroke-linecap="round" stroke-linejoin="round"/></svg>