<svg viewBox="0 0 8 8" fill="none"><path d="M6.54882 6.78501C6.61391 6.85009 6.71944 6.85009 6.78453 6.78501C6.84961 6.71992 6.84961 6.61439 6.78453 6.5493L6.54882 6.78501ZM5.50001 3.50065C5.50001 4.60522 4.60458 5.50065 3.50001 5.50065V5.83398C4.78867 5.83398 5.83334 4.78932 5.83334 3.50065H5.50001ZM3.50001 5.50065C2.39544 5.50065 1.50001 4.60522 1.50001 3.50065H1.16668C1.16668 4.78932 2.21135 5.83398 3.50001 5.83398V5.50065ZM1.50001 3.50065C1.50001 2.39608 2.39544 1.50065 3.50001 1.50065V1.16732C2.21135 1.16732 1.16668 2.21199 1.16668 3.50065H1.50001ZM3.50001 1.50065C4.60458 1.50065 5.50001 2.39608 5.50001 3.50065H5.83334C5.83334 2.21199 4.78867 1.16732 3.50001 1.16732V1.50065ZM6.78453 6.5493L5.11786 4.88264L4.88216 5.11834L6.54882 6.78501L6.78453 6.5493Z" fill="currentColor"/></svg>