<svg viewBox="0 0 32 32" fill="none"><path d="M14.105 2.68555V2.01388C13.7663 2.01388 13.4805 2.26612 13.4385 2.60224L14.105 2.68555ZM18.135 2.68555L18.8015 2.60224C18.7595 2.26612 18.4737 2.01388 18.135 2.01388V2.68555ZM18.8067 8.05888V8.73055C18.9993 8.73055 19.1827 8.64782 19.3102 8.50339C19.4377 8.35896 19.4971 8.16674 19.4732 7.97557L18.8067 8.05888ZM13.4333 8.05888L12.7669 7.97557C12.743 8.16674 12.8023 8.35896 12.9298 8.50339C13.0573 8.64782 13.2407 8.73055 13.4333 8.73055V8.05888ZM18.135 29.5527V30.2244C18.4738 30.2244 18.7595 29.9722 18.8015 29.636L18.135 29.5527ZM14.105 29.5527L13.4385 29.636C13.4806 29.9722 13.7663 30.2244 14.105 30.2244V29.5527ZM13.4334 24.1794V23.5077C13.2407 23.5077 13.0573 23.5905 12.9298 23.7349C12.8023 23.8793 12.743 24.0715 12.7669 24.2627L13.4334 24.1794ZM18.8067 24.1794L19.4732 24.2627C19.4971 24.0715 19.4377 23.8793 19.3102 23.7349C19.1827 23.5905 18.9994 23.5077 18.8067 23.5077V24.1794ZM29.5534 14.1043H30.225C30.225 13.7655 29.9728 13.4798 29.6367 13.4378L29.5534 14.1043ZM29.5534 18.1343L29.6367 18.8008C29.9728 18.7587 30.225 18.473 30.225 18.1343H29.5534ZM24.18 18.806H23.5084C23.5084 18.9986 23.5911 19.182 23.7355 19.3095C23.8799 19.437 24.0722 19.4963 24.2633 19.4724L24.18 18.806ZM24.18 13.4326L24.2633 12.7661C24.0722 12.7422 23.8799 12.8016 23.7355 12.9291C23.5911 13.0566 23.5084 13.24 23.5084 13.4326H24.18ZM2.68669 18.135L2.01502 18.135C2.01502 18.4737 2.26725 18.7594 2.60338 18.8015L2.68669 18.135ZM2.68669 14.105L2.60338 13.4385C2.26726 13.4805 2.01502 13.7662 2.01502 14.105L2.68669 14.105ZM8.06002 13.4333L8.73169 13.4333C8.73169 13.2407 8.64896 13.0573 8.50453 12.9298C8.3601 12.8023 8.16788 12.7429 7.97671 12.7668L8.06002 13.4333ZM8.06002 18.8066L7.97671 19.4731C8.16788 19.497 8.3601 19.4377 8.50453 19.3102C8.64896 19.1827 8.73169 18.9993 8.73169 18.8066L8.06002 18.8066ZM27.0437 24.1947L27.5186 24.6696C27.7581 24.4301 27.7818 24.0497 27.5738 23.7823L27.0437 24.1947ZM24.194 27.0443L23.7817 27.5745C24.049 27.7825 24.4294 27.7588 24.669 27.5192L24.194 27.0443ZM19.9196 23.7197L19.4446 23.2448C19.3084 23.381 19.2372 23.5692 19.2492 23.7615C19.2612 23.9537 19.3551 24.1316 19.5072 24.2499L19.9196 23.7197ZM23.7191 19.9202L24.2493 19.5078C24.131 19.3558 23.9531 19.2618 23.7608 19.2498C23.5685 19.2379 23.3804 19.309 23.2441 19.4453L23.7191 19.9202ZM5.19637 8.04361L4.72143 7.56867C4.48191 7.8082 4.45822 8.1886 4.66619 8.45598L5.19637 8.04361ZM8.04601 5.19397L8.45837 4.66379C8.19099 4.45583 7.81059 4.47951 7.57107 4.71903L8.04601 5.19397ZM12.3205 8.51856L12.7954 8.9935C12.9316 8.85727 13.0028 8.6691 12.9908 8.47682C12.9789 8.28454 12.8849 8.10665 12.7328 7.98837L12.3205 8.51856ZM8.52095 12.3181L7.99077 12.7304C8.10905 12.8825 8.28693 12.9765 8.47921 12.9884C8.6715 13.0004 8.85966 12.9292 8.99589 12.793L8.52095 12.3181ZM8.04604 27.0426L7.5711 27.5176C7.81062 27.7571 8.19102 27.7808 8.4584 27.5728L8.04604 27.0426ZM5.1964 24.193L4.66621 23.7806C4.45825 24.048 4.48193 24.4284 4.72146 24.6679L5.1964 24.193ZM8.52097 19.9185L8.99591 19.4436C8.85969 19.3074 8.67152 19.2362 8.47924 19.2482C8.28696 19.2601 8.10907 19.3541 7.99079 19.5062L8.52097 19.9185ZM12.3205 23.7181L12.7329 24.2482C12.8849 24.13 12.9789 23.9521 12.9909 23.7598C13.0028 23.5675 12.9317 23.3793 12.7954 23.2431L12.3205 23.7181ZM24.194 5.19467L24.6689 4.71973C24.4294 4.4802 24.049 4.45652 23.7816 4.66449L24.194 5.19467ZM27.0436 8.04431L27.5738 8.45667C27.7818 8.18929 27.7581 7.80889 27.5186 7.56937L27.0436 8.04431ZM23.7191 12.3188L23.2441 12.7937C23.3804 12.9299 23.5685 13.0011 23.7608 12.9891C23.9531 12.9772 24.131 12.8832 24.2492 12.7311L23.7191 12.3188ZM19.9195 8.51925L19.5072 7.98907C19.3551 8.10734 19.2611 8.28523 19.2492 8.47751C19.2372 8.66979 19.3084 8.85796 19.4446 8.99419L19.9195 8.51925ZM26.195 16.1197C26.195 21.684 21.6843 26.1947 16.12 26.1947V27.538C22.4262 27.538 27.5383 22.4259 27.5383 16.1197H26.195ZM16.12 26.1947C10.5557 26.1947 6.04501 21.684 6.04501 16.1197H4.70168C4.70168 22.4259 9.81384 27.538 16.12 27.538V26.1947ZM6.04501 16.1197C6.04501 10.5554 10.5557 6.04471 16.12 6.04471V4.70138C9.81384 4.70138 4.70168 9.81354 4.70168 16.1197H6.04501ZM16.12 6.04471C21.6843 6.04471 26.195 10.5554 26.195 16.1197H27.5383C27.5383 9.81354 22.4262 4.70138 16.12 4.70138V6.04471ZM14.105 3.35721H18.135V2.01388H14.105V3.35721ZM17.4685 2.76886L18.1402 8.14219L19.4732 7.97557L18.8015 2.60224L17.4685 2.76886ZM18.8067 7.38721H13.4333V8.73055H18.8067V7.38721ZM14.0998 8.14219L14.7715 2.76886L13.4385 2.60224L12.7669 7.97557L14.0998 8.14219ZM18.135 28.8811H14.105V30.2244H18.135V28.8811ZM14.7715 29.4694L14.0998 24.0961L12.7669 24.2627L13.4385 29.636L14.7715 29.4694ZM13.4334 24.8511H18.8067V23.5077H13.4334V24.8511ZM18.1402 24.0961L17.4685 29.4694L18.8015 29.636L19.4732 24.2627L18.1402 24.0961ZM28.8817 14.1043V18.1343H30.225V14.1043H28.8817ZM29.47 17.4678L24.0967 18.1395L24.2633 19.4724L29.6367 18.8008L29.47 17.4678ZM24.8517 18.806V13.4326H23.5084V18.806H24.8517ZM24.0967 14.0991L29.47 14.7708L29.6367 13.4378L24.2633 12.7661L24.0967 14.0991ZM3.35835 18.135L3.35835 14.105L2.01502 14.105L2.01502 18.135L3.35835 18.135ZM2.77 14.7715L8.14333 14.0998L7.97671 12.7668L2.60338 13.4385L2.77 14.7715ZM7.38835 13.4333L7.38835 18.8066L8.73169 18.8066L8.73169 13.4333L7.38835 13.4333ZM8.14333 18.1402L2.77 17.4685L2.60338 18.8015L7.97671 19.4731L8.14333 18.1402ZM26.5687 23.7197L23.7191 26.5694L24.669 27.5192L27.5186 24.6696L26.5687 23.7197ZM24.6064 26.5141L20.3319 23.1895L19.5072 24.2499L23.7817 27.5745L24.6064 26.5141ZM20.3945 24.1947L24.194 20.3951L23.2441 19.4453L19.4446 23.2448L20.3945 24.1947ZM23.1889 20.3326L26.5135 24.607L27.5738 23.7823L24.2493 19.5078L23.1889 20.3326ZM5.67131 8.51855L8.52095 5.66891L7.57107 4.71903L4.72143 7.56867L5.67131 8.51855ZM7.63365 5.72416L11.9081 9.04874L12.7328 7.98837L8.45837 4.66379L7.63365 5.72416ZM11.8455 8.04362L8.04601 11.8431L8.99589 12.793L12.7954 8.9935L11.8455 8.04362ZM9.05113 11.9057L5.72655 7.63125L4.66619 8.45598L7.99077 12.7304L9.05113 11.9057ZM8.52098 26.5677L5.67134 23.7181L4.72146 24.6679L7.5711 27.5176L8.52098 26.5677ZM5.72658 24.6054L9.05116 20.3309L7.99079 19.5062L4.66621 23.7806L5.72658 24.6054ZM8.04603 20.3935L11.8456 24.193L12.7954 23.2431L8.99591 19.4436L8.04603 20.3935ZM11.9081 23.1879L7.63367 26.5125L8.4584 27.5728L12.7329 24.2482L11.9081 23.1879ZM23.7191 5.66961L26.5687 8.51925L27.5186 7.56937L24.6689 4.71973L23.7191 5.66961ZM26.5135 7.63194L23.1889 11.9064L24.2492 12.7311L27.5738 8.45667L26.5135 7.63194ZM24.194 11.8438L20.3945 8.04431L19.4446 8.99419L23.2441 12.7937L24.194 11.8438ZM20.3319 9.04943L24.6064 5.72485L23.7816 4.66449L19.5072 7.98907L20.3319 9.04943Z" fill="currentColor"/><path d="M21.4933 16.1194C21.4933 19.087 19.0876 21.4928 16.12 21.4928C13.1524 21.4928 10.7467 19.087 10.7467 16.1194C10.7467 13.1518 13.1524 10.7461 16.12 10.7461C19.0876 10.7461 21.4933 13.1518 21.4933 16.1194Z" stroke="currentColor" stroke-width="1.34333" stroke-linejoin="round"/></svg>