<svg viewBox="0 0 8 8" fill="none"><g clip-path="url(#a)"><path d="M3.49999 0.666341V0.499675C3.41594 0.499675 3.34504 0.562264 3.33461 0.645669L3.49999 0.666341ZM4.49999 0.666341L4.66537 0.645669C4.65495 0.562264 4.58405 0.499675 4.49999 0.499675V0.666341ZM4.66666 1.99967V2.16634C4.71446 2.16634 4.75997 2.14581 4.79161 2.10997C4.82324 2.07414 4.83797 2.02644 4.83204 1.979L4.66666 1.99967ZM3.33333 1.99967L3.16795 1.979C3.16202 2.02644 3.17674 2.07414 3.20838 2.10997C3.24002 2.14581 3.28552 2.16634 3.33333 2.16634V1.99967ZM4.49999 7.33285V7.49951C4.58405 7.49951 4.65495 7.43692 4.66537 7.35352L4.49999 7.33285ZM3.49999 7.33285L3.33462 7.35352C3.34504 7.43692 3.41594 7.49951 3.49999 7.49951V7.33285ZM3.33333 5.99951V5.83284C3.28552 5.83284 3.24002 5.85337 3.20838 5.88921C3.17674 5.92505 3.16202 5.97275 3.16795 6.02018L3.33333 5.99951ZM4.66666 5.99951L4.83204 6.02018C4.83797 5.97275 4.82325 5.92505 4.79161 5.88921C4.75997 5.85337 4.71447 5.83284 4.66666 5.83284V5.99951ZM7.33333 3.49951H7.49999C7.49999 3.41546 7.4374 3.34456 7.354 3.33413L7.33333 3.49951ZM7.33333 4.49951L7.354 4.66489C7.4374 4.65447 7.49999 4.58357 7.49999 4.49951H7.33333ZM5.99999 4.66618H5.83333C5.83333 4.71398 5.85385 4.75949 5.88969 4.79112C5.92553 4.82276 5.97323 4.83749 6.02066 4.83156L5.99999 4.66618ZM5.99999 3.33285L6.02066 3.16747C5.97323 3.16154 5.92553 3.17626 5.88969 3.2079C5.85385 3.23954 5.83333 3.28504 5.83333 3.33285H5.99999ZM0.666662 4.49967L0.499995 4.49967C0.499995 4.58373 0.562584 4.65463 0.645989 4.66505L0.666662 4.49967ZM0.666662 3.49967L0.645989 3.33429C0.562585 3.34472 0.499995 3.41562 0.499995 3.49967L0.666662 3.49967ZM2 3.33301L2.16666 3.33301C2.16666 3.2852 2.14613 3.2397 2.1103 3.20806C2.07446 3.17642 2.02676 3.1617 1.97932 3.16763L2 3.33301ZM2 4.66634L1.97932 4.83172C2.02676 4.83765 2.07446 4.82293 2.1103 4.79129C2.14613 4.75965 2.16666 4.71415 2.16666 4.66634L2 4.66634ZM6.71058 6.00294L6.82843 6.12079C6.88786 6.06136 6.89374 5.96697 6.84214 5.90062L6.71058 6.00294ZM6.00347 6.71005L5.90115 6.84161C5.96749 6.89321 6.06189 6.88734 6.12132 6.8279L6.00347 6.71005ZM4.94281 5.88509L4.82496 5.76724C4.79115 5.80104 4.77349 5.84773 4.77646 5.89545C4.77944 5.94316 4.80275 5.9873 4.84049 6.01665L4.94281 5.88509ZM5.88562 4.94228L6.01718 4.83996C5.98783 4.80222 5.94369 4.77891 5.89597 4.77594C5.84826 4.77297 5.80157 4.79063 5.76777 4.82443L5.88562 4.94228ZM1.28942 1.99624L1.17157 1.87839C1.11213 1.93783 1.10626 2.03222 1.15786 2.09857L1.28942 1.99624ZM1.99653 1.28914L2.09885 1.15758C2.0325 1.10597 1.93811 1.11185 1.87867 1.17129L1.99653 1.28914ZM3.05719 2.1141L3.17504 2.23195C3.20884 2.19814 3.2265 2.15145 3.22353 2.10374C3.22056 2.05603 3.19724 2.01189 3.15951 1.98254L3.05719 2.1141ZM2.11438 3.0569L1.98282 3.15923C2.01217 3.19696 2.05631 3.22028 2.10402 3.22325C2.15173 3.22622 2.19842 3.20856 2.23223 3.17476L2.11438 3.0569ZM1.99653 6.71011L1.87868 6.82796C1.93811 6.8874 2.0325 6.89327 2.09885 6.84167L1.99653 6.71011ZM1.28942 6.003L1.15786 5.90068C1.10626 5.96703 1.11213 6.06142 1.17157 6.12086L1.28942 6.003ZM2.11438 4.94234L2.23223 4.82449C2.19842 4.79069 2.15173 4.77303 2.10402 4.776C2.05631 4.77897 2.01217 4.80229 1.98282 4.84002L2.11438 4.94234ZM3.05719 5.88515L3.15951 6.01671C3.19724 5.98736 3.22056 5.94322 3.22353 5.89551C3.2265 5.8478 3.20884 5.80111 3.17504 5.7673L3.05719 5.88515ZM6.00347 1.28956L6.12132 1.17171C6.06188 1.11228 5.96749 1.1064 5.90115 1.158L6.00347 1.28956ZM6.71058 1.99667L6.84213 2.09899C6.89374 2.03265 6.88786 1.93825 6.82843 1.87882L6.71058 1.99667ZM5.88562 3.05733L5.76777 3.17518C5.80157 3.20898 5.84826 3.22665 5.89597 3.22368C5.94369 3.2207 5.98783 3.19739 6.01718 3.15965L5.88562 3.05733ZM4.94281 2.11452L4.84049 1.98296C4.80275 2.01231 4.77943 2.05645 4.77646 2.10417C4.77349 2.15188 4.79115 2.19857 4.82496 2.23237L4.94281 2.11452ZM6.49999 3.99951C6.49999 5.38022 5.3807 6.49951 3.99999 6.49951V6.83285C5.5648 6.83285 6.83333 5.56432 6.83333 3.99951H6.49999ZM3.99999 6.49951C2.61928 6.49951 1.49999 5.38022 1.49999 3.99951H1.16666C1.16666 5.56432 2.43519 6.83285 3.99999 6.83285V6.49951ZM1.49999 3.99951C1.49999 2.6188 2.61928 1.49951 3.99999 1.49951V1.16618C2.43519 1.16618 1.16666 2.43471 1.16666 3.99951H1.49999ZM3.99999 1.49951C5.3807 1.49951 6.49999 2.6188 6.49999 3.99951H6.83333C6.83333 2.43471 5.5648 1.16618 3.99999 1.16618V1.49951ZM3.49999 0.833008H4.49999V0.499675H3.49999V0.833008ZM4.33461 0.687014L4.50128 2.02035L4.83204 1.979L4.66537 0.645669L4.33461 0.687014ZM4.66666 1.83301H3.33333V2.16634H4.66666V1.83301ZM3.49871 2.02035L3.66537 0.687014L3.33461 0.645669L3.16795 1.979L3.49871 2.02035ZM4.49999 7.16618H3.49999V7.49951H4.49999V7.16618ZM3.66537 7.31217L3.49871 5.97884L3.16795 6.02018L3.33462 7.35352L3.66537 7.31217ZM3.33333 6.16618H4.66666V5.83284H3.33333V6.16618ZM4.50128 5.97884L4.33462 7.31217L4.66537 7.35352L4.83204 6.02018L4.50128 5.97884ZM7.16666 3.49951V4.49951H7.49999V3.49951H7.16666ZM7.31265 4.33413L5.97932 4.5008L6.02066 4.83156L7.354 4.66489L7.31265 4.33413ZM6.16666 4.66618V3.33285H5.83333V4.66618H6.16666ZM5.97932 3.49822L7.31265 3.66489L7.354 3.33413L6.02066 3.16747L5.97932 3.49822ZM0.833328 4.49967L0.833328 3.49967L0.499995 3.49967L0.499995 4.49967L0.833328 4.49967ZM0.687334 3.66505L2.02067 3.49839L1.97932 3.16763L0.645989 3.33429L0.687334 3.66505ZM1.83333 3.33301L1.83333 4.66634L2.16666 4.66634L2.16666 3.33301L1.83333 3.33301ZM2.02067 4.50096L0.687334 4.33429L0.645989 4.66505L1.97932 4.83172L2.02067 4.50096ZM6.59273 5.88509L5.88562 6.5922L6.12132 6.8279L6.82843 6.12079L6.59273 5.88509ZM6.10579 6.57849L5.04513 5.75353L4.84049 6.01665L5.90115 6.84161L6.10579 6.57849ZM5.06066 6.00294L6.00347 5.06013L5.76777 4.82443L4.82496 5.76724L5.06066 6.00294ZM5.75406 5.04461L6.57902 6.10527L6.84214 5.90062L6.01718 4.83996L5.75406 5.04461ZM1.40727 2.1141L2.11438 1.40699L1.87867 1.17129L1.17157 1.87839L1.40727 2.1141ZM1.8942 1.4207L2.95486 2.24565L3.15951 1.98254L2.09885 1.15758L1.8942 1.4207ZM2.93933 1.99624L1.99653 2.93905L2.23223 3.17476L3.17504 2.23195L2.93933 1.99624ZM2.24594 2.95458L1.42098 1.89392L1.15786 2.09857L1.98282 3.15923L2.24594 2.95458ZM2.11438 6.59226L1.40727 5.88515L1.17157 6.12086L1.87868 6.82796L2.11438 6.59226ZM1.42098 6.10533L2.24594 5.04467L1.98282 4.84002L1.15786 5.90068L1.42098 6.10533ZM1.99653 5.0602L2.93934 6.003L3.17504 5.7673L2.23223 4.82449L1.99653 5.0602ZM2.95486 5.75359L1.8942 6.57855L2.09885 6.84167L3.15951 6.01671L2.95486 5.75359ZM5.88562 1.40741L6.59272 2.11452L6.82843 1.87882L6.12132 1.17171L5.88562 1.40741ZM6.57902 1.89435L5.75406 2.95501L6.01718 3.15965L6.84213 2.09899L6.57902 1.89435ZM6.00347 2.93948L5.06066 1.99667L4.82496 2.23237L5.76777 3.17518L6.00347 2.93948ZM5.04513 2.24608L6.10579 1.42112L5.90115 1.158L4.84049 1.98296L5.04513 2.24608Z" fill="currentColor"/><path d="M5.33333 3.99984C5.33333 4.73622 4.73638 5.33317 4 5.33317C3.26362 5.33317 2.66666 4.73622 2.66666 3.99984C2.66666 3.26346 3.26362 2.6665 4 2.6665C4.73638 2.6665 5.33333 3.26346 5.33333 3.99984Z" stroke="currentColor" stroke-width="0.333333" stroke-linejoin="round"/></g><defs><clipPath id="a"><rect width="8" height="8" fill="currentColor"/></clipPath></defs></svg>