<svg viewBox="0 0 8 8" fill="none"><path d="M4.99999 2.33398L2.83332 3.66732M2.83334 4.5L5 5.66667M2.99999 4.00065C2.99999 4.36884 2.70151 4.66732 2.33332 4.66732C1.96513 4.66732 1.66666 4.36884 1.66666 4.00065C1.66666 3.63246 1.96513 3.33398 2.33332 3.33398C2.70151 3.33398 2.99999 3.63246 2.99999 4.00065ZM6.33333 2.00065C6.33333 2.36884 6.03485 2.66732 5.66666 2.66732C5.29847 2.66732 4.99999 2.36884 4.99999 2.00065C4.99999 1.63246 5.29847 1.33398 5.66666 1.33398C6.03485 1.33398 6.33333 1.63246 6.33333 2.00065ZM6.33333 6.00065C6.33333 6.36884 6.03485 6.66732 5.66666 6.66732C5.29847 6.66732 4.99999 6.36884 4.99999 6.00065C4.99999 5.63246 5.29847 5.33398 5.66666 5.33398C6.03485 5.33398 6.33333 5.63246 6.33333 6.00065Z" stroke="currentColor" stroke-width="0.333333" stroke-linejoin="round"/></svg>