<svg viewBox="0 0 24 25" fill="none"><path d="M17.1275 10.8565L21.1575 7.83398V17.909L17.1275 14.8865M15.1125 18.9152H5.03752C3.92467 18.9152 3.02252 18.0131 3.02252 16.9002V8.8402C3.02252 7.72734 3.92467 6.8252 5.03752 6.8252H15.1125C16.2254 6.8252 17.1275 7.72734 17.1275 8.8402V16.9002C17.1275 18.0131 16.2254 18.9152 15.1125 18.9152ZM7.05254 10.3514C7.05254 10.6296 6.82701 10.8552 6.54879 10.8552C6.27058 10.8552 6.04504 10.6296 6.04504 10.3514C6.04504 10.0732 6.27058 9.84766 6.54879 9.84766C6.82701 9.84766 7.05254 10.0732 7.05254 10.3514Z" stroke="currentColor" stroke-width="1.0075" stroke-linejoin="round"/></svg>