<svg width="48" height="48" viewBox="0 0 48 48" fill="none" xmlns="http://www.w3.org/2000/svg">
<path d="M30.2249 14.105L17.1274 22.165M17.1275 27.2036L30.225 34.2561M18.135 24.1789C18.135 26.4046 16.3307 28.2089 14.105 28.2089C11.8792 28.2089 10.075 26.4046 10.075 24.1789C10.075 21.9532 11.8792 20.1489 14.105 20.1489C16.3307 20.1489 18.135 21.9532 18.135 24.1789ZM38.285 12.0896C38.285 14.3153 36.4807 16.1196 34.255 16.1196C32.0293 16.1196 30.225 14.3153 30.225 12.0896C30.225 9.86386 32.0293 8.05957 34.255 8.05957C36.4807 8.05957 38.285 9.86386 38.285 12.0896ZM38.285 36.2683C38.285 38.494 36.4807 40.2983 34.255 40.2983C32.0293 40.2983 30.225 38.494 30.225 36.2683C30.225 34.0426 32.0293 32.2383 34.255 32.2383C36.4807 32.2383 38.285 34.0426 38.285 36.2683Z" stroke="black" stroke-width="2.015" stroke-linejoin="round"/>
</svg>
