<svg width="16" height="16" viewBox="0 0 16 16" fill="none" xmlns="http://www.w3.org/2000/svg">
<path d="M6.04498 14.105H2.68665C2.3157 14.105 2.01498 13.8043 2.01498 13.4333V8.33821C2.01498 8.16008 2.08575 7.98923 2.21171 7.86327L7.58504 2.48994C7.84735 2.22764 8.27262 2.22764 8.53492 2.48994L13.9083 7.86327C14.0342 7.98923 14.105 8.16008 14.105 8.33821V13.4333C14.105 13.8043 13.8043 14.105 13.4333 14.105H10.075M6.04498 14.105H10.075M6.04498 14.105V10.075C6.04498 9.70405 6.3457 9.40333 6.71665 9.40333H9.40332C9.77427 9.40333 10.075 9.70405 10.075 10.075V14.105" stroke="black" stroke-width="0.671667" stroke-linejoin="round"/>
</svg>
