<svg width="12" height="12" viewBox="0 0 12 12" fill="none" xmlns="http://www.w3.org/2000/svg">
<path d="M4.5 10.4999H2C1.72386 10.4999 1.5 10.2761 1.5 9.99992V6.20703C1.5 6.07442 1.55268 5.94725 1.64645 5.85348L5.64645 1.85348C5.84171 1.65822 6.15829 1.65822 6.35355 1.85348L10.3536 5.85348C10.4473 5.94725 10.5 6.07442 10.5 6.20703V9.99992C10.5 10.2761 10.2761 10.4999 10 10.4999H7.5M4.5 10.4999H7.5M4.5 10.4999V7.49992C4.5 7.22378 4.72386 6.99992 5 6.99992H7C7.27614 6.99992 7.5 7.22378 7.5 7.49992V10.4999" stroke="black" stroke-width="0.5" stroke-linejoin="round"/>
</svg>
