<svg width="12" height="12" viewBox="0 0 12 12" fill="none" xmlns="http://www.w3.org/2000/svg">
<g clip-path="url(#clip0_1_2599)">
<path d="M9.5 5V0.5M9.5 0.5L7.5 2.5M9.5 0.5L11.5 2.5M3.50733 8.50736C1.92981 6.92984 0.673715 5.03092 1.00694 3.43567C1.28099 2.12373 1.97982 1.45397 2.57531 1.07703C2.78079 0.946972 3.0475 1.01262 3.19289 1.20755L4.56985 3.05355C4.71832 3.2526 4.69821 3.53046 4.52262 3.70605L3.54279 4.68587C3.54279 4.68587 3.85238 5.63829 5.11439 6.9003C6.3764 8.1623 7.32883 8.47191 7.32883 8.47191L8.30865 7.49209C8.48425 7.31649 8.7621 7.29638 8.96116 7.44485L10.8071 8.8218C11.0021 8.96719 11.0677 9.23391 10.9377 9.43938C10.5607 10.0349 9.89095 10.7337 8.57902 11.0078C6.98378 11.341 5.08485 10.0849 3.50733 8.50736Z" stroke="black" stroke-width="0.5" stroke-linecap="round" stroke-linejoin="round"/>
</g>
<defs>
<clipPath id="clip0_1_2599">
<rect width="12" height="12" fill="white"/>
</clipPath>
</defs>
</svg>
