<svg width="8" height="8" viewBox="0 0 8 8" fill="none" xmlns="http://www.w3.org/2000/svg">
<path d="M1 2.66683C1 2.48274 1.14924 2.3335 1.33333 2.3335H2.83333L3.16667 1.3335H4.83333L5.16667 2.3335H6.66667C6.85076 2.3335 7 2.48273 7 2.66683V6.3335C7 6.51759 6.85076 6.66683 6.66667 6.66683H1.33333C1.14924 6.66683 1 6.51759 1 6.3335V2.66683Z" stroke="black" stroke-width="0.333333" stroke-linejoin="round"/>
<path d="M5 4.3335C5 4.88578 4.55228 5.3335 4 5.3335C3.44772 5.3335 3 4.88578 3 4.3335C3 3.78121 3.44772 3.3335 4 3.3335C4.55228 3.3335 5 3.78121 5 4.3335Z" stroke="black" stroke-width="0.333333" stroke-linejoin="round"/>
</svg>
