<svg width="32" height="32" viewBox="0 0 32 32" fill="none" xmlns="http://www.w3.org/2000/svg">
<path d="M27.0138 17.6295L27.6802 17.7128L27.6802 17.7128L27.0138 17.6295ZM28.0213 9.56952L27.3548 9.48621L27.3548 9.48621L28.0213 9.56952ZM2.68668 4.70138C2.31572 4.70138 2.01501 5.0021 2.01501 5.37305C2.01501 5.744 2.31572 6.04471 2.68668 6.04471V4.70138ZM6.98432 6.36715L7.63289 6.19253L7.63289 6.19253L6.98432 6.36715ZM11.1507 21.8423L11.7993 21.6677L11.7993 21.6677L11.1507 21.8423ZM25.5233 23.508C25.8943 23.508 26.195 23.2073 26.195 22.8364C26.195 22.4654 25.8943 22.1647 25.5233 22.1647V23.508ZM27.6802 17.7128L28.6877 9.65283L27.3548 9.48621L26.3473 17.5462L27.6802 17.7128ZM26.6883 7.3879H7.16444V8.73124H26.6883V7.3879ZM28.6877 9.65283C28.8381 8.45018 27.9003 7.3879 26.6883 7.3879V8.73124C27.0923 8.73124 27.4049 9.08533 27.3548 9.48621L28.6877 9.65283ZM26.3473 17.5462C26.3053 17.8823 26.0195 18.1346 25.6808 18.1346V19.4779C26.697 19.4779 27.5542 18.7212 27.6802 17.7128L26.3473 17.5462ZM2.68668 6.04471H5.68717V4.70138H2.68668V6.04471ZM6.33575 6.54176L10.5021 22.0169L11.7993 21.6677L7.63289 6.19253L6.33575 6.54176ZM12.4478 23.508H25.5233V22.1647H12.4478V23.508ZM10.5021 22.0169C10.739 22.8967 11.5367 23.508 12.4478 23.508V22.1647C12.1441 22.1647 11.8782 21.9609 11.7993 21.6677L10.5021 22.0169ZM5.68717 6.04471C5.99088 6.04471 6.25679 6.24851 6.33575 6.54176L7.63289 6.19253C7.39603 5.31276 6.59828 4.70138 5.68717 4.70138V6.04471ZM14.105 26.8668C14.105 27.2377 13.8043 27.5384 13.4334 27.5384V28.8818C14.5462 28.8818 15.4484 27.9796 15.4484 26.8668H14.105ZM13.4334 27.5384C13.0624 27.5384 12.7617 27.2377 12.7617 26.8668H11.4184C11.4184 27.9796 12.3205 28.8818 13.4334 28.8818V27.5384ZM12.7617 26.8668C12.7617 26.4958 13.0624 26.1951 13.4334 26.1951V24.8518C12.3205 24.8518 11.4184 25.7539 11.4184 26.8668H12.7617ZM13.4334 26.1951C13.8043 26.1951 14.105 26.4958 14.105 26.8668H15.4484C15.4484 25.7539 14.5462 24.8518 13.4334 24.8518V26.1951ZM24.18 26.8668C24.18 27.2377 23.8793 27.5384 23.5084 27.5384V28.8818C24.6212 28.8818 25.5234 27.9796 25.5234 26.8668H24.18ZM23.5084 27.5384C23.1374 27.5384 22.8367 27.2377 22.8367 26.8668H21.4934C21.4934 27.9796 22.3955 28.8818 23.5084 28.8818V27.5384ZM22.8367 26.8668C22.8367 26.4958 23.1374 26.1951 23.5084 26.1951V24.8518C22.3955 24.8518 21.4934 25.7539 21.4934 26.8668H22.8367ZM23.5084 26.1951C23.8793 26.1951 24.18 26.4958 24.18 26.8668H25.5234C25.5234 25.7539 24.6212 24.8518 23.5084 24.8518V26.1951ZM10.7467 19.4779H25.6808V18.1346H10.7467V19.4779Z" fill="black"/>
</svg>
