<svg width="8" height="8" viewBox="0 0 8 8" fill="none" xmlns="http://www.w3.org/2000/svg">
<path d="M5 6H6.33334C6.8987 5.9191 7.33334 5.42107 7.33334 4.83333C7.33334 4.23653 6.8852 3.74437 6.30707 3.67503C6.15184 2.725 5.32727 2 4.33334 2C3.57061 2 2.90759 2.42697 2.57028 3.05493C2.44186 3.01913 2.3065 3 2.16667 3C1.33825 3 0.666672 3.67157 0.666672 4.5C0.666672 5.32843 1.33825 6 2.16667 6H3.00001M4 6.66667L4 3.66667M4 3.66667L2.66666 5M4 3.66667L5.33333 5" stroke="black" stroke-width="0.333333" stroke-linecap="round" stroke-linejoin="round"/>
</svg>
