<svg width="24" height="24" viewBox="0 0 24 24" fill="none" xmlns="http://www.w3.org/2000/svg">
<path d="M17.1275 5.54106V11.5861M17.1275 5.54106C17.1275 4.4282 18.0296 3.52606 19.1425 3.52606L20.15 3.52606C21.2628 3.52606 22.165 4.42821 22.165 5.54106V11.5861C22.165 12.6989 21.2628 13.6011 20.15 13.6011L19.1425 13.6011C18.0296 13.6011 17.1275 12.6989 17.1275 11.5861M17.1275 5.54106L15.3812 4.23165C15.2068 4.10086 14.9947 4.03015 14.7767 4.03015L7.95738 4.03015C7.38182 4.03015 6.83373 4.27628 6.45135 4.70646L3.53148 7.99132C3.20361 8.36017 3.02251 8.83651 3.02251 9.33001L3.02251 12.5939C3.02251 13.1503 3.47358 13.6014 4.03001 13.6014L10.075 13.6014C9.06751 16.1202 9.06751 17.1277 9.06751 19.1427C9.06751 21.1577 12.09 21.1577 12.09 19.1427C12.09 14.1052 16.12 11.5861 17.1275 11.5861" stroke="black" stroke-width="1.0075" stroke-linecap="round" stroke-linejoin="round"/>
</svg>
