<svg width="48" height="48" viewBox="0 0 48 48" fill="none" xmlns="http://www.w3.org/2000/svg">
<path d="M20.15 12.09C20.15 12.6464 19.699 13.0975 19.1425 13.0975C18.5861 13.0975 18.135 12.6464 18.135 12.09C18.135 11.5336 18.5861 11.0825 19.1425 11.0825C19.699 11.0825 20.15 11.5336 20.15 12.09Z" stroke="black" stroke-width="2.015" stroke-linecap="round" stroke-linejoin="round"/>
<path d="M20.15 20.1481C20.15 20.7046 19.699 21.1556 19.1425 21.1556C18.5861 21.1556 18.135 20.7046 18.135 20.1481C18.135 19.5917 18.5861 19.1406 19.1425 19.1406C19.699 19.1406 20.15 19.5917 20.15 20.1481Z" stroke="black" stroke-width="2.015" stroke-linecap="round" stroke-linejoin="round"/>
<path d="M20.15 28.2121C20.15 28.7685 19.699 29.2196 19.1425 29.2196C18.5861 29.2196 18.135 28.7685 18.135 28.2121C18.135 27.6557 18.5861 27.2046 19.1425 27.2046C19.699 27.2046 20.15 27.6557 20.15 28.2121Z" stroke="black" stroke-width="2.015" stroke-linecap="round" stroke-linejoin="round"/>
<path d="M20.15 36.2702C20.15 36.8266 19.699 37.2777 19.1425 37.2777C18.5861 37.2777 18.135 36.8266 18.135 36.2702C18.135 35.7138 18.5861 35.2627 19.1425 35.2627C19.699 35.2627 20.15 35.7138 20.15 36.2702Z" stroke="black" stroke-width="2.015" stroke-linecap="round" stroke-linejoin="round"/>
<path d="M30.2251 12.09C30.2251 12.6464 29.774 13.0975 29.2176 13.0975C28.6611 13.0975 28.2101 12.6464 28.2101 12.09C28.2101 11.5336 28.6611 11.0825 29.2176 11.0825C29.774 11.0825 30.2251 11.5336 30.2251 12.09Z" stroke="black" stroke-width="2.015" stroke-linecap="round" stroke-linejoin="round"/>
<path d="M30.2251 20.1481C30.2251 20.7046 29.774 21.1556 29.2176 21.1556C28.6611 21.1556 28.2101 20.7046 28.2101 20.1481C28.2101 19.5917 28.6611 19.1406 29.2176 19.1406C29.774 19.1406 30.2251 19.5917 30.2251 20.1481Z" stroke="black" stroke-width="2.015" stroke-linecap="round" stroke-linejoin="round"/>
<path d="M30.2251 28.2121C30.2251 28.7685 29.774 29.2196 29.2176 29.2196C28.6611 29.2196 28.2101 28.7685 28.2101 28.2121C28.2101 27.6557 28.6611 27.2046 29.2176 27.2046C29.774 27.2046 30.2251 27.6557 30.2251 28.2121Z" stroke="black" stroke-width="2.015" stroke-linecap="round" stroke-linejoin="round"/>
<path d="M30.2251 36.2702C30.2251 36.8266 29.774 37.2777 29.2176 37.2777C28.6611 37.2777 28.2101 36.8266 28.2101 36.2702C28.2101 35.7138 28.6611 35.2627 29.2176 35.2627C29.774 35.2627 30.2251 35.7138 30.2251 36.2702Z" stroke="black" stroke-width="2.015" stroke-linecap="round" stroke-linejoin="round"/>
</svg>
