<svg width="16" height="16" viewBox="0 0 16 16" fill="none" xmlns="http://www.w3.org/2000/svg">
<path fill-rule="evenodd" clip-rule="evenodd" d="M8.00001 1.59985C4.46538 1.59985 1.60001 4.46523 1.60001 7.99985C1.60001 11.5345 4.46538 14.3999 8.00001 14.3999C11.5346 14.3999 14.4 11.5345 14.4 7.99985C14.4 4.46523 11.5346 1.59985 8.00001 1.59985ZM7.50533 4.44178C7.50533 4.28469 7.63267 4.15734 7.78977 4.15734H8.21025C8.36734 4.15734 8.49469 4.28469 8.49469 4.44178V8.5477C8.49469 8.70479 8.36734 8.83214 8.21025 8.83214H7.78977C7.63268 8.83214 7.50533 8.70479 7.50533 8.5477V4.44178ZM7.42698 10.6909C7.42698 10.5338 7.55433 10.4065 7.71142 10.4065H8.27002C8.42711 10.4065 8.55446 10.5338 8.55446 10.6909V11.3212C8.55446 11.4783 8.42711 11.6057 8.27002 11.6057H7.71142C7.55433 11.6057 7.42698 11.4783 7.42698 11.3212V10.6909Z" fill="black"/>
</svg>
