<svg viewBox="0 0 12 12" fill="none"><path fill-rule="evenodd" clip-rule="evenodd" d="M6 1.5C3.51472 1.5 1.5 3.51472 1.5 6C1.5 8.48528 3.51472 10.5 6 10.5C8.48528 10.5 10.5 8.48528 10.5 6C10.5 3.51472 8.48528 1.5 6 1.5ZM5.65217 3.49815C5.65217 3.3877 5.74172 3.29815 5.85217 3.29815H6.14782C6.25828 3.29815 6.34782 3.3877 6.34782 3.49815L6.34782 6.38513C6.34782 6.49558 6.25828 6.58512 6.14782 6.58512H5.85217C5.74172 6.58512 5.65217 6.49558 5.65217 6.38513V3.49815ZM5.59708 7.89208C5.59708 7.78162 5.68663 7.69208 5.79708 7.69208H6.18985C6.30031 7.69208 6.38985 7.78162 6.38985 7.89208V8.33525C6.38985 8.44571 6.30031 8.53525 6.18985 8.53525H5.79708C5.68663 8.53525 5.59708 8.44571 5.59708 8.33525V7.89208Z" fill="currentColor"/></svg>