<svg width="32" height="32" viewBox="0 0 32 32" fill="none" xmlns="http://www.w3.org/2000/svg">
<path fill-rule="evenodd" clip-rule="evenodd" d="M16 3C8.8203 3 3 8.8203 3 16C3 23.1797 8.8203 29 16 29C23.1797 29 29 23.1797 29 16C29 8.8203 23.1797 3 16 3ZM14.9952 8.77269C14.9952 8.45359 15.2538 8.19491 15.5729 8.19491H16.427C16.7461 8.19491 17.0048 8.45359 17.0048 8.77269V18.3108C17.0048 18.6299 16.7461 18.8886 16.427 18.8886H15.5729C15.2538 18.8886 14.9952 18.6299 14.9952 18.3108V8.77269ZM14.7829 21.4885C14.7829 21.1694 15.0416 20.9107 15.3607 20.9107H16.6548C16.9739 20.9107 17.2326 21.1694 17.2326 21.4885V22.7256C17.2326 23.0447 16.9739 23.3034 16.6548 23.3034L15.3607 23.3034C15.0416 23.3034 14.7829 23.0447 14.7829 22.7256V21.4885Z" fill="black"/>
</svg>
