<svg width="8" height="8" viewBox="0 0 8 8" fill="none" xmlns="http://www.w3.org/2000/svg">
<g clip-path="url(#clip0_15_31)">
<path fill-rule="evenodd" clip-rule="evenodd" d="M4 0.75C2.20507 0.75 0.75 2.20507 0.75 4C0.75 5.79493 2.20507 7.25 4 7.25C5.79493 7.25 7.25 5.79493 7.25 4C7.25 2.20507 5.79493 0.75 4 0.75ZM3.74879 2.19311C3.74879 2.11334 3.81346 2.04867 3.89324 2.04867H4.10676C4.18654 2.04867 4.25121 2.11334 4.25121 2.19311V4.27815C4.25121 4.35792 4.18654 4.42259 4.10676 4.42259H3.89324C3.81346 4.42259 3.74879 4.35792 3.74879 4.27815V2.19311ZM3.70901 5.3665C3.70901 5.28673 3.77368 5.22206 3.85345 5.22206H4.13711C4.21689 5.22206 4.28156 5.28673 4.28156 5.3665V5.68657C4.28156 5.76635 4.21689 5.83102 4.13711 5.83102H3.85345C3.77368 5.83102 3.70901 5.76635 3.70901 5.68657V5.3665Z" fill="black"/>
</g>
<defs>
<clipPath id="clip0_15_31">
<rect width="8" height="8" fill="white"/>
</clipPath>
</defs>
</svg>
