<svg width="16" height="16" viewBox="0 0 16 16" fill="none" xmlns="http://www.w3.org/2000/svg">
<path d="M9.40332 8.73139C9.40332 9.4733 8.80189 10.0747 8.05999 10.0747C7.31809 10.0747 6.71666 9.4733 6.71666 8.73139C6.71666 7.98949 7.31809 7.38806 8.05999 7.38806C8.80189 7.38806 9.40332 7.98949 9.40332 8.73139Z" stroke="currentColor" stroke-width="0.671667" stroke-linecap="round" stroke-linejoin="round"/>
<path d="M8.06 5.03735C5.16858 5.03735 3.00649 7.44411 2.28013 8.37236C2.11303 8.58591 2.11303 8.87713 2.28013 9.09068C3.00649 10.0189 5.16858 12.4257 8.06 12.4257C10.9514 12.4257 13.1135 10.0189 13.8399 9.09068C14.007 8.87713 14.007 8.58591 13.8399 8.37236C13.1135 7.44411 10.9514 5.03735 8.06 5.03735Z" stroke="currentColor" stroke-width="0.671667" stroke-linecap="round" stroke-linejoin="round"/>
</svg>
