<svg xmlns="http://www.w3.org/2000/svg" width="32" height="32" fill="none" viewBox="0 0 32 32">
  <g class="Size=lg">
    <path stroke="#000" stroke-linecap="round" stroke-linejoin="round" stroke-width="1.34" d="M23.174 7.5 8.794 27.816m4.771-3.26c.814.2 1.667.313 2.555.313 5.782 0 10.106-4.813 11.559-6.67a1.154 1.154 0 0 0 0-1.436c-1.453-1.857-5.777-6.67-11.56-6.67-5.782 0-10.106 4.813-11.559 6.67a1.154 1.154 0 0 0 0 1.436c1.014 1.296 3.427 4.032 6.757 5.566m7.49-6.285a2.687 2.687 0 1 1-5.374 0 2.687 2.687 0 0 1 5.373 0Z" class="vector"/>
  </g>
</svg>
