<svg width="8" height="8" viewBox="0 0 8 8" fill="none" xmlns="http://www.w3.org/2000/svg">
<path d="M4.66667 4.33329C4.66667 4.70148 4.36819 4.99996 4 4.99996C3.63181 4.99996 3.33334 4.70148 3.33334 4.33329C3.33334 3.9651 3.63181 3.66663 4 3.66663C4.36819 3.66663 4.66667 3.9651 4.66667 4.33329Z" stroke="black" stroke-width="0.333333" stroke-linecap="round" stroke-linejoin="round"/>
<path d="M4 2.5C2.56506 2.5 1.49206 3.69442 1.13158 4.15509C1.04865 4.26107 1.04865 4.4056 1.13158 4.51158C1.49206 4.97225 2.56506 6.16667 4 6.16667C5.43494 6.16667 6.50794 4.97225 6.86842 4.51158C6.95135 4.4056 6.95135 4.26107 6.86842 4.15509C6.50794 3.69442 5.43494 2.5 4 2.5Z" stroke="black" stroke-width="0.333333" stroke-linecap="round" stroke-linejoin="round"/>
</svg>
