<svg xmlns="http://www.w3.org/2000/svg" width="16" height="16" fill="none" viewBox="0 0 16 16">
  <g class="Size=sm">
    <path stroke="#000" stroke-linecap="round" stroke-linejoin="round" stroke-width=".67" d="m11.587 3.746-7.19 10.158m2.386-1.63c.407.1.833.157 1.277.157 2.891 0 5.053-2.407 5.78-3.335a.577.577 0 0 0 0-.718c-.726-.929-2.889-3.335-5.78-3.335-2.891 0-5.053 2.406-5.78 3.335a.577.577 0 0 0 0 .718c.507.648 1.714 2.016 3.379 2.783m3.744-3.143a1.343 1.343 0 1 1-2.686 0 1.343 1.343 0 0 1 2.686 0Z" class="vector"/>
  </g>
</svg>
