<svg xmlns="http://www.w3.org/2000/svg" width="8" height="8" fill="none" viewBox="0 0 8 8">
  <g class="Size=xxs">
    <path stroke="currentColor" stroke-linecap="round" stroke-linejoin="round" stroke-width=".33" d="M5.75 1.86 2.183 6.9m1.183-.808c.202.049.414.077.634.077 1.435 0 2.507-1.194 2.868-1.655a.286.286 0 0 0 0-.356C6.508 3.698 5.435 2.503 4 2.503c-1.435 0-2.507 1.194-2.868 1.655a.286.286 0 0 0 0 .356c.252.322.85 1 1.677 1.381m1.858-1.56a.667.667 0 1 1-1.334 0 .667.667 0 0 1 1.334 0Z" class="vector"/>
  </g>
</svg>
