<svg width="16" height="16" viewBox="0 0 16 16" fill="none" xmlns="http://www.w3.org/2000/svg">
<path d="M14.105 8.06014C14.105 11.3987 11.3985 14.1051 8.05998 14.1051M14.105 8.06014C14.105 4.72158 11.3985 2.01514 8.05998 2.01514M14.105 8.06014H2.01498M8.05998 14.1051C4.72142 14.1051 2.01498 11.3987 2.01498 8.06014M8.05998 14.1051C8.05998 14.1051 5.70914 12.0899 5.70914 8.05989C5.70914 4.02989 8.05998 2.01514 8.05998 2.01514M8.05998 14.1051C8.05998 14.1051 10.4108 12.0899 10.4108 8.05989C10.4108 4.02989 8.05998 2.01514 8.05998 2.01514M2.01498 8.06014C2.01498 4.72158 4.72142 2.01514 8.05998 2.01514M13.0975 5.03735H3.02249M13.0975 11.0823H3.02249" stroke="black" stroke-width="0.671667" stroke-linejoin="round"/>
</svg>
