<svg width="24" height="24" viewBox="0 0 24 24" fill="none" xmlns="http://www.w3.org/2000/svg">
<path d="M9.06749 21.1571H4.02999C3.47356 21.1571 3.02249 20.7061 3.02249 20.1496V12.507C3.02249 12.2397 3.12864 11.9835 3.31758 11.7945L11.3776 3.73454C11.771 3.34109 12.4089 3.34109 12.8024 3.73454L20.8624 11.7945C21.0513 11.9835 21.1575 12.2397 21.1575 12.507V20.1496C21.1575 20.7061 20.7064 21.1571 20.15 21.1571H15.1125M9.06749 21.1571H15.1125M9.06749 21.1571V15.1121C9.06749 14.5557 9.51856 14.1046 10.075 14.1046H14.105C14.6614 14.1046 15.1125 14.5557 15.1125 15.1121V21.1571" stroke="black" stroke-width="1.0075" stroke-linejoin="round"/>
</svg>
