<svg width="24" height="24" viewBox="0 0 24 24" fill="none" xmlns="http://www.w3.org/2000/svg">
<path d="M8.05999 18.6381V12.5931M8.05999 18.6381C8.05999 19.751 7.15785 20.6531 6.04499 20.6531H5.03749C3.92464 20.6531 3.02249 19.751 3.02249 18.6381V12.5931C3.02249 11.4803 3.92464 10.5781 5.03749 10.5781H6.04499C7.15785 10.5781 8.05999 11.4803 8.05999 12.5931M8.05999 18.6381L9.80633 19.9484C9.98073 20.0792 10.1928 20.1499 10.4108 20.1499H17.2301C17.8057 20.1499 18.3538 19.9038 18.7362 19.4736L21.656 16.1887C21.9839 15.8199 22.165 15.3435 22.165 14.85V11.5861C22.165 11.0297 21.7139 10.5786 21.1575 10.5786H15.1125C16.12 8.05988 16.12 7.05238 16.12 5.03738C16.12 3.02237 13.0975 3.02237 13.0975 5.03738C13.0975 10.0749 9.06749 12.5931 8.05999 12.5931" stroke="black" stroke-width="1.0075" stroke-linecap="round" stroke-linejoin="round"/>
</svg>
