<svg width="12" height="12" viewBox="0 0 12 12" fill="none" xmlns="http://www.w3.org/2000/svg">
<path d="M5.99999 3.75C5.86192 3.75 5.74999 3.63807 5.74999 3.5C5.74999 3.36193 5.86192 3.25 5.99999 3.25C6.13806 3.25 6.24999 3.36193 6.24999 3.5C6.24999 3.63807 6.13806 3.75 5.99999 3.75Z" stroke="black" stroke-width="0.5" stroke-linecap="round" stroke-linejoin="round"/>
<path d="M5.99999 6.25C5.86192 6.25 5.74999 6.13807 5.74999 6C5.74999 5.86193 5.86192 5.75 5.99999 5.75C6.13806 5.75 6.24999 5.86193 6.24999 6C6.24999 6.13807 6.13806 6.25 5.99999 6.25Z" stroke="black" stroke-width="0.5" stroke-linecap="round" stroke-linejoin="round"/>
<path d="M5.99999 8.75C5.86192 8.75 5.74999 8.63807 5.74999 8.5C5.74999 8.36193 5.86192 8.25 5.99999 8.25C6.13806 8.25 6.24999 8.36193 6.24999 8.5C6.24999 8.63807 6.13806 8.75 5.99999 8.75Z" stroke="black" stroke-width="0.5" stroke-linecap="round" stroke-linejoin="round"/>
</svg>
