<svg width="12" height="12" viewBox="0 0 12 12" fill="none" xmlns="http://www.w3.org/2000/svg">
<path d="M4.00001 5.99976C4.00001 6.55204 3.55229 6.99976 3.00001 6.99976C2.44772 6.99976 2.00001 6.55204 2.00001 5.99976C2.00001 5.44747 2.44772 4.99976 3.00001 4.99976C3.55229 4.99976 4.00001 5.44747 4.00001 5.99976Z" stroke="black" stroke-width="0.5" stroke-linejoin="round"/>
<path d="M7.00001 5.99976C7.00001 6.55204 6.55229 6.99976 6.00001 6.99976C5.44772 6.99976 5.00001 6.55204 5.00001 5.99976C5.00001 5.44747 5.44772 4.99976 6.00001 4.99976C6.55229 4.99976 7.00001 5.44747 7.00001 5.99976Z" stroke="black" stroke-width="0.5" stroke-linejoin="round"/>
<path d="M10 5.99976C10 6.55204 9.55228 6.99976 9 6.99976C8.44772 6.99976 8 6.55204 8 5.99976C8 5.44747 8.44772 4.99976 9 4.99976C9.55228 4.99976 10 5.44747 10 5.99976Z" stroke="black" stroke-width="0.5" stroke-linejoin="round"/>
</svg>
