<svg width="24" height="24" viewBox="0 0 24 24" fill="none" xmlns="http://www.w3.org/2000/svg">
<path d="M9.06749 20.1493C9.06749 21.2622 7.71427 22.1643 6.04499 22.1643C4.37571 22.1643 3.02249 21.2622 3.02249 20.1493C3.02249 19.0364 4.37571 18.1343 6.04499 18.1343C7.71427 18.1343 9.06749 19.0364 9.06749 20.1493ZM9.06749 20.1493V10.0743M20.15 18.1343V6.0443M20.15 18.1343C20.15 19.2472 18.7968 20.1493 17.1275 20.1493C15.4582 20.1493 14.105 19.2471 14.105 18.1343C14.105 17.0214 15.4582 16.1193 17.1275 16.1193C18.7968 16.1193 20.15 17.0214 20.15 18.1343ZM20.15 6.0443V3.45271C20.15 2.75354 19.4553 2.26693 18.7982 2.50587L9.73069 5.80314C9.33253 5.94792 9.06749 6.32632 9.06749 6.74998V10.0743M20.15 6.0443L9.06749 10.0743" stroke="black" stroke-width="1.0075" stroke-linejoin="round"/>
</svg>
