<svg width="32" height="32" viewBox="0 0 32 32" fill="none" xmlns="http://www.w3.org/2000/svg">
<path d="M12.09 26.8659C12.09 28.3497 10.2857 29.5526 8.06 29.5526C5.83429 29.5526 4.03 28.3497 4.03 26.8659C4.03 25.3821 5.83429 24.1792 8.06 24.1792C10.2857 24.1792 12.09 25.3821 12.09 26.8659ZM12.09 26.8659V13.4326M26.8667 24.1792V8.05923M26.8667 24.1792C26.8667 25.663 25.0624 26.8659 22.8367 26.8659C20.611 26.8659 18.8067 25.663 18.8067 24.1792C18.8067 22.6954 20.611 21.4925 22.8367 21.4925C25.0624 21.4925 26.8667 22.6954 26.8667 24.1792ZM26.8667 8.05923V4.60378C26.8667 3.67155 25.9404 3.02274 25.0643 3.34132L12.9743 7.73768C12.4434 7.93073 12.09 8.43526 12.09 9.00014V13.4326M26.8667 8.05923L12.09 13.4326" stroke="black" stroke-width="1.34333" stroke-linejoin="round"/>
</svg>
