<svg width="16" height="16" viewBox="0 0 16 16" fill="none" xmlns="http://www.w3.org/2000/svg">
<path d="M8.06 3.35791C4.70167 3.35791 4.03 6.04458 4.03 7.38791V10.0746M8.06 3.35791C9.11603 3.35791 9.90641 3.62357 10.4938 4.02958M8.06 3.35791L8.06 2.01465M6.38083 12.7612C6.38083 14.1046 7.0525 14.7762 8.06 14.7762C9.0675 14.7762 9.73917 14.1046 9.73917 12.7612M6.38083 12.7612H9.73917M6.38083 12.7612H5.0375M9.73917 12.7612H12.3466C12.8459 12.7612 13.1706 12.2358 12.9473 11.7892L12.09 10.0746V7.38791C12.09 6.96844 12.0245 6.41798 11.8322 5.85925M14.105 2.01514L2.015 14.1051" stroke="black" stroke-width="0.671667" stroke-linecap="round" stroke-linejoin="round"/>
</svg>
