<svg width="48" height="48" viewBox="0 0 48 48" fill="none" xmlns="http://www.w3.org/2000/svg">
<path d="M38.285 2.01562L38.285 20.1506M38.285 20.1506L46.345 12.0906M38.285 20.1506L30.225 12.0906M14.1346 34.2845C7.77723 27.9271 2.71517 20.2744 4.05807 13.8456C5.16247 8.55847 7.97877 5.85933 10.3786 4.34027C11.2067 3.81612 12.2815 4.08069 12.8675 4.86624L18.4166 12.3056C19.0149 13.1078 18.9339 14.2276 18.2262 14.9352L14.2776 18.8839C14.2776 18.8839 15.5252 22.7221 20.6111 27.808C25.697 32.8939 29.5353 34.1416 29.5353 34.1416L33.484 30.1929C34.1916 29.4853 35.3114 29.4042 36.1136 30.0026L43.5529 35.5517C44.3384 36.1376 44.603 37.2125 44.0788 38.0405C42.5598 40.4404 39.8606 43.2567 34.5736 44.3611C28.1447 45.704 20.492 40.6419 14.1346 34.2845Z" stroke="black" stroke-width="2.015" stroke-linecap="round" stroke-linejoin="round"/>
</svg>
