<svg width="8" height="8" viewBox="0 0 8 8" fill="none" xmlns="http://www.w3.org/2000/svg">
<g clip-path="url(#clip0_1_2604)">
<path d="M6.33333 3.33301V0.333008M6.33333 0.333008L4.99999 1.66634M6.33333 0.333008L7.66666 1.66634M2.33822 5.67108C1.28654 4.6194 0.449146 3.35346 0.671296 2.28996C0.853993 1.41533 1.31988 0.968827 1.71688 0.717535C1.85386 0.630827 2.03167 0.674594 2.1286 0.804544L3.04657 2.03521C3.14555 2.16791 3.13214 2.35315 3.01508 2.47021L2.36186 3.12343C2.36186 3.12343 2.56826 3.75837 3.4096 4.59971C4.25093 5.44105 4.88589 5.64745 4.88589 5.64745L5.5391 4.99424C5.65617 4.87717 5.84141 4.86376 5.97411 4.96275L7.20476 5.88071C7.33471 5.97764 7.37848 6.15545 7.29177 6.29243C7.04048 6.68943 6.59397 7.15532 5.71935 7.33801C4.65586 7.56016 3.3899 6.72276 2.33822 5.67108Z" stroke="black" stroke-width="0.333333" stroke-linecap="round" stroke-linejoin="round"/>
</g>
<defs>
<clipPath id="clip0_1_2604">
<rect width="8" height="8" fill="white"/>
</clipPath>
</defs>
</svg>
