<svg width="32" height="32" viewBox="0 0 32 32" fill="none" xmlns="http://www.w3.org/2000/svg">
<path d="M3.35835 16.119C3.35835 16.49 3.65906 16.7907 4.03001 16.7907C4.40097 16.7907 4.70168 16.49 4.70168 16.119H3.35835ZM27.5002 10.8505V11.5222C27.8711 11.5222 28.1718 11.2215 28.1718 10.8505H27.5002ZM28.1718 3.25146C28.1718 2.88051 27.8711 2.5798 27.5002 2.5798C27.1292 2.5798 26.8285 2.88051 26.8285 3.25146H28.1718ZM19.9011 10.1788C19.5302 10.1788 19.2295 10.4796 19.2295 10.8505C19.2295 11.2215 19.5302 11.5222 19.9011 11.5222V10.1788ZM28.8817 16.1192C28.8817 15.7482 28.581 15.4475 28.21 15.4475C27.8391 15.4475 27.5383 15.7482 27.5383 16.1192L28.8817 16.1192ZM16.12 28.2092L16.12 27.5375L16.12 28.2092ZM4.73987 21.3872L4.73987 20.7155C4.56174 20.7155 4.3909 20.7863 4.26493 20.9123C4.13897 21.0382 4.06821 21.2091 4.06821 21.3872L4.73987 21.3872ZM4.06821 28.9862C4.06821 29.3572 4.36892 29.6579 4.73987 29.6579C5.11082 29.6579 5.41154 29.3572 5.41154 28.9862L4.06821 28.9862ZM12.3389 22.0589C12.7099 22.0589 13.0106 21.7582 13.0106 21.3872C13.0106 21.0163 12.7099 20.7155 12.3389 20.7155L12.3389 22.0589ZM4.70168 16.119C4.70168 9.81284 9.81384 4.70068 16.12 4.70068V3.35735C9.07194 3.35735 3.35835 9.07094 3.35835 16.119H4.70168ZM16.12 4.70068C20.6023 4.70068 24.4826 7.28324 26.3518 11.0446L27.5548 10.4468C25.4674 6.24635 21.1317 3.35735 16.12 3.35735V4.70068ZM28.1718 10.8505V3.25146H26.8285V10.8505H28.1718ZM19.9011 11.5222H27.5002V10.1788H19.9011V11.5222ZM27.5383 16.1192C27.5383 22.4254 22.4262 27.5375 16.12 27.5375L16.12 28.8809C23.1681 28.8809 28.8817 23.1673 28.8817 16.1192L27.5383 16.1192ZM16.12 27.5375C11.6377 27.5375 7.75744 24.955 5.88821 21.1936L4.68523 21.7914C6.77266 25.9918 11.1083 28.8809 16.12 28.8809L16.12 27.5375ZM4.06821 21.3872L4.06821 28.9862L5.41154 28.9862L5.41154 21.3872L4.06821 21.3872ZM12.3389 20.7155L4.73987 20.7155L4.73987 22.0589L12.3389 22.0589L12.3389 20.7155Z" fill="black"/>
</svg>
