<svg width="16" height="16" viewBox="0 0 16 16" fill="none" xmlns="http://www.w3.org/2000/svg">
<path d="M1.67915 8.06048C1.67915 8.24596 1.82951 8.39632 2.01498 8.39632C2.20046 8.39632 2.35082 8.24596 2.35082 8.06048H1.67915ZM13.7501 5.42647V5.76231C13.9355 5.76231 14.0859 5.61195 14.0859 5.42647H13.7501ZM14.0859 1.62695C14.0859 1.44148 13.9355 1.29112 13.7501 1.29112C13.5646 1.29112 13.4142 1.44148 13.4142 1.62695H14.0859ZM9.95055 5.09064C9.76507 5.09064 9.61471 5.241 9.61471 5.42647C9.61471 5.61195 9.76507 5.76231 9.95055 5.76231V5.09064ZM14.4408 8.06081C14.4408 7.87534 14.2905 7.72498 14.105 7.72498C13.9195 7.72498 13.7691 7.87534 13.7691 8.06081L14.4408 8.06081ZM8.05998 14.1058L8.05998 13.77L8.05998 14.1058ZM2.36991 10.6943L2.36991 10.3585C2.28085 10.3585 2.19543 10.3939 2.13244 10.4569C2.06946 10.5198 2.03408 10.6053 2.03408 10.6943L2.36991 10.6943ZM2.03408 14.4939C2.03408 14.6793 2.18444 14.8297 2.36991 14.8297C2.55539 14.8297 2.70575 14.6793 2.70575 14.4939L2.03408 14.4939ZM6.16943 11.0302C6.35491 11.0302 6.50527 10.8798 6.50527 10.6943C6.50527 10.5089 6.35491 10.3585 6.16943 10.3585L6.16943 11.0302ZM2.35082 8.06048C2.35082 4.9074 4.9069 2.35132 8.05998 2.35132V1.67965C4.53595 1.67965 1.67915 4.53645 1.67915 8.06048H2.35082ZM8.05998 2.35132C10.3011 2.35132 12.2413 3.6426 13.1759 5.52327L13.7774 5.22436C12.7337 3.12415 10.5658 1.67965 8.05998 1.67965V2.35132ZM14.0859 5.42647V1.62695H13.4142V5.42647H14.0859ZM9.95055 5.76231H13.7501V5.09064H9.95055V5.76231ZM13.7691 8.06081C13.7691 11.2139 11.2131 13.77 8.05998 13.77L8.05998 14.4416C11.584 14.4416 14.4408 11.5849 14.4408 8.06081L13.7691 8.06081ZM8.05998 13.77C5.81885 13.77 3.8787 12.4787 2.94408 10.598L2.34259 10.8969C3.38631 12.9971 5.55414 14.4416 8.05998 14.4416L8.05998 13.77ZM2.03408 10.6943L2.03408 14.4939L2.70575 14.4939L2.70575 10.6943L2.03408 10.6943ZM6.16943 10.3585L2.36991 10.3585L2.36991 11.0302L6.16943 11.0302L6.16943 10.3585Z" fill="black"/>
</svg>
