<svg width="48" height="48" viewBox="0 0 48 48" fill="none" xmlns="http://www.w3.org/2000/svg">
<path d="M11.4609 27.2411L42.4041 16.3562M20.9467 36.7264L31.8315 5.7832M11.4609 27.2427C9.53341 28.3556 7.0687 27.6952 5.95584 25.7676C4.84299 23.8401 5.50341 21.3754 7.43093 20.2626C9.35844 19.1497 11.8232 19.8101 12.936 21.7376C14.0489 23.6652 13.3884 26.1299 11.4609 27.2427ZM27.9269 40.7574C26.8141 42.6849 24.3493 43.3453 22.4218 42.2325C20.4943 41.1196 19.8339 38.6549 20.9467 36.7274C22.0596 34.7999 24.5243 34.1394 26.4518 35.2523C28.3793 36.3652 29.0398 38.8299 27.9269 40.7574Z" stroke="black" stroke-width="2.015" stroke-linecap="round" stroke-linejoin="round"/>
</svg>
