<svg width="24" height="24" viewBox="0 0 24 24" fill="none" xmlns="http://www.w3.org/2000/svg">
<path d="M10.5788 2.01465V1.5109C10.3247 1.5109 10.1104 1.70007 10.0789 1.95217L10.5788 2.01465ZM13.6013 2.01465L14.1011 1.95217C14.0696 1.70007 13.8553 1.5109 13.6013 1.5109V2.01465ZM14.105 6.04465V6.5484C14.2495 6.5484 14.387 6.48635 14.4827 6.37803C14.5783 6.26971 14.6228 6.12554 14.6049 5.98217L14.105 6.04465ZM10.075 6.04465L9.57514 5.98217C9.55722 6.12554 9.60173 6.26971 9.69735 6.37803C9.79298 6.48635 9.93051 6.5484 10.075 6.5484V6.04465ZM13.6013 22.165V22.6688C13.8553 22.6688 14.0696 22.4796 14.1011 22.2275L13.6013 22.165ZM10.5788 22.165L10.0789 22.2275C10.1104 22.4796 10.3247 22.6688 10.5788 22.6688V22.165ZM10.075 18.135V17.6313C9.93054 17.6313 9.79301 17.6933 9.69738 17.8017C9.60176 17.91 9.55725 18.0541 9.57517 18.1975L10.075 18.135ZM14.105 18.135L14.6049 18.1975C14.6228 18.0541 14.5783 17.91 14.4827 17.8017C14.3871 17.6933 14.2495 17.6313 14.105 17.6313V18.135ZM22.165 10.5789H22.6688C22.6688 10.3249 22.4796 10.1106 22.2275 10.0791L22.165 10.5789ZM22.165 13.6014L22.2275 14.1013C22.4796 14.0698 22.6688 13.8555 22.6688 13.6014H22.165ZM18.135 14.1052H17.6313C17.6313 14.2497 17.6933 14.3872 17.8016 14.4828C17.91 14.5785 18.0541 14.623 18.1975 14.6051L18.135 14.1052ZM18.135 10.0752L18.1975 9.57534C18.0541 9.55741 17.91 9.60192 17.8016 9.69754C17.6933 9.79317 17.6313 9.9307 17.6313 10.0752H18.135ZM2.01502 13.6017L1.51127 13.6017C1.51127 13.8558 1.70045 14.0701 1.95254 14.1016L2.01502 13.6017ZM2.01502 10.5792L1.95254 10.0794C1.70045 10.1109 1.51127 10.3252 1.51127 10.5792L2.01502 10.5792ZM6.04502 10.0755L6.54877 10.0755C6.54877 9.93098 6.48673 9.79344 6.37841 9.69782C6.27008 9.60219 6.12592 9.55769 5.98254 9.57561L6.04502 10.0755ZM6.04502 14.1055L5.98254 14.6053C6.12592 14.6233 6.27008 14.5787 6.37841 14.4831C6.48673 14.3875 6.54877 14.25 6.54877 14.1055L6.04502 14.1055ZM20.2827 18.1462L20.639 18.5024C20.8186 18.3228 20.8364 18.0375 20.6804 17.837L20.2827 18.1462ZM18.1455 20.2835L17.8362 20.6811C18.0368 20.8371 18.3221 20.8193 18.5017 20.6397L18.1455 20.2835ZM14.9397 17.79L14.5835 17.4338C14.4813 17.536 14.4279 17.6771 14.4369 17.8213C14.4459 17.9656 14.5163 18.099 14.6304 18.1877L14.9397 17.79ZM17.7893 14.9404L18.1869 14.6311C18.0982 14.5171 17.9648 14.4466 17.8206 14.4376C17.6764 14.4286 17.5353 14.482 17.4331 14.5842L17.7893 14.9404ZM3.89729 6.03344L3.54108 5.67724C3.36144 5.85688 3.34368 6.14218 3.49965 6.34272L3.89729 6.03344ZM6.03452 3.89621L6.34379 3.49858C6.14326 3.3426 5.85796 3.36037 5.67831 3.54001L6.03452 3.89621ZM9.24037 6.38965L9.59657 6.74585C9.69874 6.64368 9.75212 6.50256 9.74314 6.35835C9.73416 6.21414 9.66369 6.08072 9.54964 5.99201L9.24037 6.38965ZM6.39072 9.23929L5.99309 9.54856C6.0818 9.66262 6.21521 9.73309 6.35942 9.74207C6.50363 9.75104 6.64476 9.69766 6.74693 9.59549L6.39072 9.23929ZM6.03453 20.2825L5.67833 20.6387C5.85797 20.8183 6.14327 20.8361 6.34381 20.6801L6.03453 20.2825ZM3.8973 18.1452L3.49967 17.836C3.34369 18.0365 3.36146 18.3218 3.5411 18.5014L3.8973 18.1452ZM6.39074 14.9394L6.74694 14.5832C6.64477 14.481 6.50365 14.4276 6.35944 14.4366C6.21523 14.4456 6.08181 14.5161 5.9931 14.6301L6.39074 14.9394ZM9.24038 17.789L9.54965 18.1867C9.66371 18.098 9.73418 17.9645 9.74316 17.8203C9.75213 17.6761 9.69876 17.535 9.59658 17.4328L9.24038 17.789ZM18.1455 3.89624L18.5017 3.54004C18.3221 3.3604 18.0368 3.34263 17.8362 3.49861L18.1455 3.89624ZM20.2827 6.03347L20.6804 6.34275C20.8363 6.14221 20.8186 5.85691 20.6389 5.67727L20.2827 6.03347ZM17.7893 9.23932L17.4331 9.59552C17.5353 9.6977 17.6764 9.75107 17.8206 9.7421C17.9648 9.73312 18.0982 9.66265 18.1869 9.54859L17.7893 9.23932ZM14.9397 6.38968L14.6304 5.99204C14.5163 6.08075 14.4459 6.21417 14.4369 6.35838C14.4279 6.50259 14.4813 6.64371 14.5835 6.74588L14.9397 6.38968ZM19.6463 12.0903C19.6463 16.2635 16.2632 19.6465 12.09 19.6465V20.654C16.8197 20.654 20.6538 16.8199 20.6538 12.0903H19.6463ZM12.09 19.6465C7.91682 19.6465 4.53377 16.2635 4.53377 12.0903H3.52627C3.52627 16.8199 7.36039 20.654 12.09 20.654V19.6465ZM4.53377 12.0903C4.53377 7.91707 7.91682 4.53402 12.09 4.53402V3.52652C7.36039 3.52652 3.52627 7.36064 3.52627 12.0903H4.53377ZM12.09 4.53402C16.2632 4.53402 19.6463 7.91707 19.6463 12.0903H20.6538C20.6538 7.36064 16.8197 3.52652 12.09 3.52652V4.53402ZM10.5788 2.5184H13.6013V1.5109H10.5788V2.5184ZM13.1014 2.07713L13.6051 6.10713L14.6049 5.98217L14.1011 1.95217L13.1014 2.07713ZM14.105 5.5409H10.075V6.5484H14.105V5.5409ZM10.5749 6.10713L11.0786 2.07713L10.0789 1.95217L9.57514 5.98217L10.5749 6.10713ZM13.6013 21.6613H10.5788V22.6688H13.6013V21.6613ZM11.0786 22.1026L10.5749 18.0726L9.57517 18.1975L10.0789 22.2275L11.0786 22.1026ZM10.075 18.6388H14.105V17.6313H10.075V18.6388ZM13.6052 18.0726L13.1014 22.1026L14.1011 22.2275L14.6049 18.1975L13.6052 18.0726ZM21.6613 10.5789V13.6014H22.6688V10.5789H21.6613ZM22.1025 13.1016L18.0725 13.6053L18.1975 14.6051L22.2275 14.1013L22.1025 13.1016ZM18.6388 14.1052V10.0752H17.6313V14.1052H18.6388ZM18.0725 10.5751L22.1025 11.0788L22.2275 10.0791L18.1975 9.57534L18.0725 10.5751ZM2.51877 13.6017L2.51877 10.5792L1.51127 10.5792L1.51127 13.6017L2.51877 13.6017ZM2.07751 11.0791L6.10751 10.5753L5.98254 9.57561L1.95254 10.0794L2.07751 11.0791ZM5.54127 10.0755L5.54127 14.1055L6.54877 14.1055L6.54877 10.0755L5.54127 10.0755ZM6.10751 13.6056L2.0775 13.1019L1.95254 14.1016L5.98254 14.6053L6.10751 13.6056ZM19.9265 17.79L17.7893 19.9273L18.5017 20.6397L20.639 18.5024L19.9265 17.79ZM18.4548 19.8858L15.2489 17.3924L14.6304 18.1877L17.8362 20.6811L18.4548 19.8858ZM15.2959 18.1462L18.1455 15.2966L17.4331 14.5842L14.5835 17.4338L15.2959 18.1462ZM17.3917 15.2497L19.8851 18.4555L20.6804 17.837L18.1869 14.6311L17.3917 15.2497ZM4.25349 6.38965L6.39072 4.25242L5.67831 3.54001L3.54108 5.67724L4.25349 6.38965ZM5.72525 4.29385L8.93109 6.78729L9.54964 5.99201L6.34379 3.49858L5.72525 4.29385ZM8.88416 6.03344L6.03452 8.88308L6.74693 9.59549L9.59657 6.74585L8.88416 6.03344ZM6.78836 8.93002L4.29493 5.72417L3.49965 6.34272L5.99309 9.54856L6.78836 8.93002ZM6.39074 19.9263L4.25351 17.789L3.5411 18.5014L5.67833 20.6387L6.39074 19.9263ZM4.29494 18.4545L6.78838 15.2487L5.9931 14.6301L3.49967 17.836L4.29494 18.4545ZM6.03453 15.2956L8.88417 18.1452L9.59658 17.4328L6.74694 14.5832L6.03453 15.2956ZM8.93111 17.3914L5.72526 19.8848L6.34381 20.6801L9.54965 18.1867L8.93111 17.3914ZM17.7893 4.25245L19.9265 6.38968L20.6389 5.67727L18.5017 3.54004L17.7893 4.25245ZM19.8851 5.7242L17.3917 8.93005L18.1869 9.54859L20.6804 6.34275L19.8851 5.7242ZM18.1455 8.88311L15.2959 6.03347L14.5835 6.74588L17.4331 9.59552L18.1455 8.88311ZM15.2489 6.78732L18.4548 4.29388L17.8362 3.49861L14.6304 5.99204L15.2489 6.78732Z" fill="black"/>
<path d="M16.12 12.0896C16.12 14.3153 14.3157 16.1196 12.09 16.1196C9.86429 16.1196 8.06 14.3153 8.06 12.0896C8.06 9.86386 9.86429 8.05957 12.09 8.05957C14.3157 8.05957 16.12 9.86386 16.12 12.0896Z" stroke="black" stroke-width="1.0075" stroke-linejoin="round"/>
</svg>
