<svg width="24" height="24" viewBox="0 0 24 24" fill="none" xmlns="http://www.w3.org/2000/svg">
<path d="M15.1125 7.05371L8.56374 11.0837M8.56375 13.6016L15.1125 17.1278M9.06749 12.0902C9.06749 13.203 8.16534 14.1052 7.05249 14.1052C5.93964 14.1052 5.03749 13.203 5.03749 12.0902C5.03749 10.9773 5.93964 10.0752 7.05249 10.0752C8.16534 10.0752 9.06749 10.9773 9.06749 12.0902ZM19.1425 6.04576C19.1425 7.15862 18.2404 8.06076 17.1275 8.06076C16.0146 8.06076 15.1125 7.15862 15.1125 6.04576C15.1125 4.93291 16.0146 4.03076 17.1275 4.03076C18.2404 4.03076 19.1425 4.93291 19.1425 6.04576ZM19.1425 18.1351C19.1425 19.248 18.2404 20.1501 17.1275 20.1501C16.0146 20.1501 15.1125 19.248 15.1125 18.1351C15.1125 17.0223 16.0146 16.1201 17.1275 16.1201C18.2404 16.1201 19.1425 17.0223 19.1425 18.1351Z" stroke="black" stroke-width="1.0075" stroke-linejoin="round"/>
</svg>
