<svg width="24" height="25" viewBox="0 0 24 25" fill="none" xmlns="http://www.w3.org/2000/svg">
<path d="M11.6109 5.27777C11.7617 4.81366 12.4183 4.81366 12.5691 5.27777L14.0127 9.72067C14.0801 9.92823 14.2735 10.0688 14.4918 10.0688H19.1633C19.6513 10.0688 19.8542 10.6932 19.4594 10.98L15.6801 13.7259C15.5035 13.8542 15.4296 14.0816 15.4971 14.2891L16.9406 18.732C17.0914 19.1961 16.5603 19.5821 16.1655 19.2952L12.3861 16.5494C12.2095 16.4211 11.9705 16.4211 11.7939 16.5494L8.01454 19.2952C7.61975 19.5821 7.08855 19.1961 7.23935 18.732L8.68294 14.2891C8.75038 14.0816 8.6765 13.8542 8.49994 13.7259L4.72058 10.98C4.32579 10.6932 4.52868 10.0688 5.01668 10.0688H9.68822C9.90646 10.0688 10.0999 9.92823 10.1673 9.72067L11.6109 5.27777Z" stroke="black" stroke-width="1.0075" stroke-linecap="round" stroke-linejoin="round"/>
</svg>
