<svg width="16" height="17" viewBox="0 0 16 17" fill="none" xmlns="http://www.w3.org/2000/svg">
<path d="M10.5419 2.30588L10.1984 5.28997M8.01722 3.22385L7.67379 6.20793M5.49258 4.14279L5.14915 7.12688M2.96792 5.06271L2.62449 8.0468M2.01477 8.50458H13.4331C13.8041 8.50458 14.1048 8.8053 14.1048 9.17625V14.5496C14.1048 14.9205 13.8041 15.2213 13.4331 15.2213H2.68644C2.31549 15.2213 2.01477 14.9205 2.01477 14.5496V8.50458ZM1.07443 5.75068L11.8042 1.84538C12.1527 1.7185 12.5382 1.89823 12.665 2.24681L13.1245 3.50913C13.2514 3.85771 13.0716 4.24314 12.7231 4.37002L1.99333 8.27532L1.07443 5.75068Z" stroke="black" stroke-width="0.671667" stroke-linejoin="round"/>
</svg>
