<svg width="24" height="25" viewBox="0 0 24 25" fill="none" xmlns="http://www.w3.org/2000/svg">
<path d="M8.5788 14.7643C8.51132 15.0342 8.67542 15.3077 8.94533 15.3752C9.21523 15.4426 9.48874 15.2785 9.55621 15.0086L8.5788 14.7643ZM12.09 12.8714L12.09 12.3677L12.09 12.8714ZM14.6238 15.0086C14.6913 15.2785 14.9648 15.4426 15.2347 15.3752C15.5046 15.3077 15.6687 15.0342 15.6012 14.7643L14.6238 15.0086ZM16.6421 13.0056C16.7166 13.2737 16.9942 13.4307 17.2623 13.3562C17.5304 13.2817 17.6873 13.0041 17.6128 12.736L16.6421 13.0056ZM4.55389 10.7151C4.47599 10.9822 4.62936 11.2619 4.89644 11.3398C5.16353 11.4177 5.44319 11.2643 5.52109 10.9972L4.55389 10.7151ZM18.6589 10.9972C18.7368 11.2643 19.0165 11.4177 19.2835 11.3398C19.5506 11.2619 19.704 10.9822 19.6261 10.7151L18.6589 10.9972ZM9.0675 14.8864C9.55621 15.0086 9.55615 15.0089 9.55608 15.0092C9.55606 15.0092 9.55599 15.0095 9.55595 15.0097C9.55587 15.01 9.5558 15.0103 9.55574 15.0105C9.55561 15.011 9.5555 15.0114 9.55543 15.0117C9.55528 15.0123 9.55525 15.0124 9.55534 15.012C9.55552 15.0114 9.55619 15.0089 9.55738 15.0049C9.55976 14.9967 9.56423 14.982 9.57111 14.9617C9.58491 14.921 9.6082 14.8585 9.64351 14.7815C9.71451 14.6266 9.8316 14.4184 10.0133 14.2107C10.3653 13.8084 10.986 13.3752 12.09 13.3752L12.09 12.3677C10.6753 12.3677 9.78472 12.942 9.25511 13.5472C8.99607 13.8433 8.82979 14.1388 8.72763 14.3617C8.67636 14.4736 8.64062 14.5685 8.61703 14.638C8.60522 14.6728 8.5964 14.7014 8.59018 14.7228C8.58706 14.7334 8.58459 14.7423 8.58271 14.7493C8.58177 14.7528 8.58098 14.7558 8.58033 14.7583C8.58 14.7595 8.57971 14.7606 8.57946 14.7616C8.57933 14.7621 8.57921 14.7626 8.5791 14.7631C8.57905 14.7633 8.57897 14.7636 8.57894 14.7637C8.57887 14.764 8.5788 14.7643 9.0675 14.8864ZM12.09 13.3752C13.1941 13.3752 13.8147 13.8084 14.1667 14.2107C14.3484 14.4184 14.4655 14.6266 14.5365 14.7815C14.5718 14.8585 14.5951 14.921 14.6089 14.9617C14.6158 14.982 14.6203 14.9967 14.6226 15.0049C14.6238 15.0089 14.6245 15.0114 14.6247 15.012C14.6248 15.0124 14.6247 15.0123 14.6246 15.0117C14.6245 15.0114 14.6244 15.011 14.6243 15.0105C14.6242 15.0103 14.6241 15.01 14.6241 15.0097C14.624 15.0095 14.624 15.0092 14.6239 15.0092C14.6239 15.0089 14.6238 15.0086 15.1125 14.8864C15.6012 14.7643 15.6011 14.764 15.6011 14.7637C15.601 14.7636 15.601 14.7633 15.6009 14.7631C15.6008 14.7626 15.6007 14.7621 15.6006 14.7616C15.6003 14.7606 15.6 14.7595 15.5997 14.7583C15.599 14.7558 15.5982 14.7528 15.5973 14.7493C15.5954 14.7423 15.5929 14.7334 15.5898 14.7228C15.5836 14.7014 15.5748 14.6728 15.563 14.638C15.5394 14.5685 15.5036 14.4736 15.4524 14.3617C15.3502 14.1388 15.1839 13.8433 14.9249 13.5472C14.3953 12.942 13.5047 12.3677 12.09 12.3677L12.09 13.3752ZM7.05247 12.8708C7.53785 13.0056 7.53777 13.0059 7.53769 13.0062C7.53766 13.0063 7.53759 13.0066 7.53754 13.0067C7.53745 13.0071 7.53738 13.0073 7.53731 13.0076C7.53718 13.008 7.5371 13.0083 7.53707 13.0084C7.53701 13.0086 7.53715 13.0081 7.53749 13.007C7.53819 13.0047 7.53971 12.9997 7.54214 12.9922C7.54701 12.9772 7.55547 12.9522 7.56812 12.9186C7.59343 12.8515 7.63528 12.7506 7.69815 12.6272C7.8241 12.3798 8.03249 12.0457 8.35819 11.7107C8.99843 11.0522 10.1277 10.3521 12.09 10.3521L12.09 9.34457C9.85431 9.34457 8.46485 10.1557 7.63582 11.0084C7.22689 11.429 6.96301 11.8506 6.80036 12.17C6.71892 12.3299 6.66238 12.4651 6.62538 12.5632C6.60687 12.6124 6.5932 12.6523 6.58372 12.6816C6.57897 12.6962 6.57527 12.7082 6.57253 12.7173C6.57116 12.7219 6.57003 12.7257 6.56913 12.7289C6.56868 12.7304 6.56828 12.7318 6.56795 12.733C6.56778 12.7336 6.56762 12.7341 6.56748 12.7346C6.56741 12.7349 6.56732 12.7352 6.56728 12.7353C6.56719 12.7357 6.5671 12.736 7.05247 12.8708ZM12.09 10.3521C14.0522 10.3521 15.1815 11.0522 15.8218 11.7107C16.1475 12.0457 16.3558 12.3798 16.4818 12.6272C16.5447 12.7506 16.5865 12.8515 16.6118 12.9186C16.6245 12.9522 16.6329 12.9772 16.6378 12.9922C16.6402 12.9997 16.6418 13.0047 16.6425 13.007C16.6428 13.0081 16.6429 13.0086 16.6429 13.0084C16.6428 13.0083 16.6428 13.008 16.6426 13.0076C16.6426 13.0073 16.6425 13.0071 16.6424 13.0067C16.6424 13.0066 16.6423 13.0063 16.6423 13.0062C16.6422 13.0059 16.6421 13.0056 17.1275 12.8708C17.6128 12.736 17.6128 12.7357 17.6127 12.7353C17.6126 12.7352 17.6125 12.7349 17.6125 12.7346C17.6123 12.7341 17.6122 12.7336 17.612 12.733C17.6117 12.7318 17.6113 12.7304 17.6108 12.7289C17.6099 12.7257 17.6088 12.7219 17.6074 12.7173C17.6047 12.7082 17.601 12.6962 17.5962 12.6816C17.5868 12.6523 17.5731 12.6124 17.5546 12.5632C17.5176 12.4651 17.461 12.3299 17.3796 12.17C17.2169 11.8506 16.9531 11.429 16.5441 11.0084C15.7151 10.1557 14.3256 9.34457 12.09 9.34457L12.09 10.3521ZM5.03749 10.8562C5.52109 10.9972 5.521 10.9975 5.52092 10.9978C5.5209 10.9979 5.52082 10.9982 5.52077 10.9983C5.52068 10.9986 5.52061 10.9989 5.52056 10.999C5.52045 10.9994 5.52041 10.9995 5.52044 10.9994C5.5205 10.9992 5.52085 10.9981 5.52149 10.996C5.52278 10.992 5.52526 10.9843 5.52902 10.9732C5.53656 10.951 5.54923 10.9155 5.56787 10.8684C5.60516 10.7742 5.66613 10.6344 5.75721 10.464C5.93952 10.1231 6.24091 9.66284 6.71235 9.20103C7.64455 8.28786 9.28023 7.32992 12.09 7.32992L12.09 6.32242C9.02267 6.32242 7.1321 7.37949 6.00732 8.48131C5.45027 9.027 5.09049 9.57427 4.86875 9.98895C4.75781 10.1964 4.68103 10.3714 4.63109 10.4976C4.6061 10.5607 4.58778 10.6117 4.57523 10.6486C4.56895 10.6671 4.56411 10.682 4.56059 10.6932C4.55883 10.6988 4.5574 10.7034 4.55629 10.7071C4.55574 10.7089 4.55526 10.7105 4.55486 10.7118C4.55466 10.7125 4.55448 10.7131 4.55432 10.7137C4.55424 10.7139 4.55413 10.7143 4.55409 10.7144C4.55399 10.7148 4.55389 10.7151 5.03749 10.8562ZM12.09 7.32992C14.8997 7.32992 16.5354 8.28786 17.4676 9.20103C17.9391 9.66284 18.2405 10.1231 18.4228 10.464C18.5139 10.6344 18.5748 10.7742 18.6121 10.8684C18.6307 10.9155 18.6434 10.951 18.651 10.9732C18.6547 10.9843 18.6572 10.992 18.6585 10.996C18.6591 10.9981 18.6595 10.9992 18.6595 10.9994C18.6596 10.9995 18.6595 10.9994 18.6594 10.999C18.6594 10.9989 18.6593 10.9986 18.6592 10.9983C18.6592 10.9982 18.6591 10.9979 18.6591 10.9978C18.659 10.9975 18.6589 10.9972 19.1425 10.8562C19.6261 10.7151 19.626 10.7148 19.6259 10.7144C19.6259 10.7143 19.6257 10.7139 19.6257 10.7137C19.6255 10.7131 19.6253 10.7125 19.6251 10.7118C19.6247 10.7105 19.6242 10.7089 19.6237 10.7071C19.6226 10.7034 19.6211 10.6988 19.6194 10.6932C19.6159 10.682 19.611 10.6671 19.6048 10.6486C19.5922 10.6117 19.5739 10.5607 19.5489 10.4976C19.499 10.3714 19.4222 10.1964 19.3112 9.98895C19.0895 9.57427 18.7297 9.027 18.1727 8.48131C17.0479 7.37949 15.1573 6.32242 12.09 6.32242L12.09 7.32992ZM13.6012 17.9083C13.6012 18.7429 12.9246 19.4195 12.09 19.4195V20.427C13.4811 20.427 14.6087 19.2993 14.6087 17.9083H13.6012ZM12.09 19.4195C11.2554 19.4195 10.5787 18.7429 10.5787 17.9083H9.57125C9.57125 19.2993 10.6989 20.427 12.09 20.427V19.4195ZM10.5787 17.9083C10.5787 17.0736 11.2554 16.397 12.09 16.397V15.3895C10.6989 15.3895 9.57125 16.5172 9.57125 17.9083H10.5787ZM12.09 16.397C12.9246 16.397 13.6012 17.0736 13.6012 17.9083H14.6087C14.6087 16.5172 13.4811 15.3895 12.09 15.3895V16.397Z" fill="black"/>
</svg>
