<svg width="16" height="17" viewBox="0 0 16 17" fill="none" xmlns="http://www.w3.org/2000/svg">
<path d="M5.71919 10.1023C5.67421 10.2822 5.78361 10.4646 5.96355 10.5095C6.14348 10.5545 6.32582 10.4451 6.3708 10.2652L5.71919 10.1023ZM8.06 8.8404L8.06 9.17624L8.06 8.8404ZM9.74919 10.2652C9.79418 10.4451 9.97651 10.5545 10.1565 10.5095C10.3364 10.4646 10.4458 10.2822 10.4008 10.1023L9.74919 10.2652ZM11.0947 8.92987C11.1444 9.10858 11.3295 9.21321 11.5082 9.16357C11.6869 9.11393 11.7915 8.92881 11.7419 8.7501L11.0947 8.92987ZM3.03594 7.40318C2.984 7.58124 3.08625 7.76768 3.2643 7.81961C3.44236 7.87155 3.6288 7.7693 3.68074 7.59125L3.03594 7.40318ZM8.06 4.81055L8.06 4.47471L8.06 4.81055ZM12.4393 7.59125C12.4912 7.7693 12.6776 7.87155 12.8557 7.81961C13.0338 7.76768 13.136 7.58124 13.0841 7.40318L12.4393 7.59125ZM6.045 10.1837C6.3708 10.2652 6.37076 10.2654 6.37071 10.2655C6.3707 10.2656 6.37066 10.2658 6.37063 10.2659C6.37058 10.2661 6.37053 10.2663 6.37049 10.2665C6.3704 10.2668 6.37033 10.2671 6.37028 10.2672C6.37018 10.2676 6.37016 10.2677 6.37022 10.2675C6.37034 10.267 6.37079 10.2654 6.37158 10.2627C6.37317 10.2572 6.37615 10.2474 6.38074 10.2339C6.38993 10.2068 6.40546 10.1651 6.429 10.1138C6.47634 10.0105 6.55439 9.87168 6.67555 9.73322C6.91019 9.46506 7.32397 9.17624 8.06 9.17624L8.06 8.50457C7.11686 8.50457 6.52314 8.88742 6.17007 9.29092C5.99737 9.48829 5.88652 9.68531 5.81841 9.83391C5.78424 9.90848 5.76041 9.97177 5.74468 10.0181C5.73681 10.0413 5.73093 10.0604 5.72678 10.0746C5.7247 10.0817 5.72306 10.0877 5.7218 10.0923C5.72118 10.0946 5.72065 10.0966 5.72021 10.0983C5.72 10.0991 5.7198 10.0999 5.71963 10.1005C5.71955 10.1009 5.71947 10.1012 5.7194 10.1015C5.71936 10.1016 5.71931 10.1018 5.71929 10.1019C5.71924 10.1021 5.71919 10.1023 6.045 10.1837ZM8.06 9.17624C8.79603 9.17624 9.20981 9.46506 9.44445 9.73322C9.5656 9.87168 9.64366 10.0105 9.69099 10.1138C9.71454 10.1651 9.73006 10.2068 9.73926 10.2339C9.74385 10.2474 9.74683 10.2572 9.74842 10.2627C9.74921 10.2654 9.74965 10.267 9.74977 10.2675C9.74983 10.2677 9.74981 10.2676 9.74972 10.2672C9.74967 10.2671 9.7496 10.2668 9.74951 10.2665C9.74947 10.2663 9.74942 10.2661 9.74937 10.2659C9.74934 10.2658 9.7493 10.2656 9.74928 10.2655C9.74924 10.2654 9.74919 10.2652 10.075 10.1837C10.4008 10.1023 10.4008 10.1021 10.4007 10.1019C10.4007 10.1018 10.4006 10.1016 10.4006 10.1015C10.4005 10.1012 10.4004 10.1009 10.4004 10.1005C10.4002 10.0999 10.4 10.0991 10.3998 10.0983C10.3993 10.0966 10.3988 10.0946 10.3982 10.0923C10.3969 10.0877 10.3953 10.0817 10.3932 10.0746C10.3891 10.0604 10.3832 10.0413 10.3753 10.0181C10.3596 9.97177 10.3358 9.90848 10.3016 9.83391C10.2335 9.68531 10.1226 9.48829 9.94993 9.29092C9.59686 8.88742 9.00313 8.50457 8.06 8.50457L8.06 9.17624ZM4.70164 8.83999C5.02523 8.92987 5.02517 8.93007 5.02512 8.93026C5.0251 8.93031 5.02505 8.93049 5.02502 8.9306C5.02496 8.93081 5.02491 8.93099 5.02487 8.93114C5.02478 8.93145 5.02473 8.93164 5.02471 8.93171C5.02467 8.93185 5.02476 8.93153 5.02499 8.93076C5.02545 8.92922 5.02647 8.92589 5.02809 8.92089C5.03133 8.91088 5.03698 8.89423 5.04541 8.87187C5.06228 8.8271 5.09018 8.75984 5.13209 8.67755C5.21606 8.51266 5.35499 8.28993 5.57212 8.06659C5.99895 7.62757 6.75181 7.16082 8.05998 7.16082L8.05998 6.48915C6.56953 6.48915 5.64323 7.02991 5.09054 7.59838C4.81792 7.8788 4.642 8.15982 4.53357 8.37274C4.47927 8.47935 4.44158 8.56952 4.41692 8.63494C4.40457 8.66768 4.39546 8.69432 4.38914 8.71382C4.38598 8.72358 4.38351 8.73157 4.38168 8.73765C4.38077 8.7407 4.38001 8.74327 4.37941 8.74535C4.37911 8.74639 4.37885 8.7473 4.37863 8.7481C4.37851 8.74849 4.37841 8.74886 4.37832 8.74919C4.37827 8.74936 4.37821 8.74959 4.37818 8.74967C4.37812 8.74989 4.37806 8.7501 4.70164 8.83999ZM8.05998 7.16082C9.36815 7.16082 10.121 7.62757 10.5478 8.06659C10.765 8.28993 10.9039 8.51266 10.9879 8.67754C11.0298 8.75984 11.0577 8.8271 11.0746 8.87187C11.083 8.89423 11.0886 8.91088 11.0919 8.92089C11.0935 8.92589 11.0945 8.92922 11.095 8.93076C11.0952 8.93153 11.0953 8.93185 11.0952 8.93171C11.0952 8.93164 11.0952 8.93145 11.0951 8.93114C11.095 8.93099 11.095 8.93081 11.0949 8.9306C11.0949 8.93049 11.0949 8.93031 11.0948 8.93026C11.0948 8.93007 11.0947 8.92987 11.4183 8.83999C11.7419 8.7501 11.7418 8.74989 11.7418 8.74967C11.7418 8.74959 11.7417 8.74936 11.7416 8.74919C11.7415 8.74886 11.7414 8.74849 11.7413 8.7481C11.7411 8.7473 11.7408 8.74639 11.7405 8.74535C11.7399 8.74327 11.7392 8.7407 11.7383 8.73765C11.7364 8.73157 11.734 8.72358 11.7308 8.71382C11.7245 8.69431 11.7154 8.66768 11.703 8.63494C11.6784 8.56952 11.6407 8.47935 11.5864 8.37274C11.478 8.15982 11.302 7.8788 11.0294 7.59838C10.4767 7.02991 9.55042 6.48915 8.05998 6.48915L8.05998 7.16082ZM3.35834 7.49721C3.68074 7.59125 3.68068 7.59145 3.68062 7.59164C3.68061 7.59169 3.68055 7.59187 3.68052 7.59197C3.68047 7.59218 3.68042 7.59234 3.68038 7.59246C3.68031 7.5927 3.68028 7.59279 3.6803 7.59272C3.68034 7.59258 3.68058 7.59182 3.681 7.59046C3.68186 7.58774 3.68351 7.5826 3.68603 7.57523C3.69105 7.56047 3.6995 7.53676 3.71192 7.50537C3.73679 7.44256 3.77743 7.34934 3.83815 7.23578C3.95969 7.00848 4.16062 6.70166 4.47491 6.39379C5.09637 5.785 6.18683 5.14638 8.06 5.14638L8.06 4.47471C6.01512 4.47471 4.75474 5.17942 4.00489 5.91398C3.63352 6.27777 3.39367 6.64261 3.24584 6.91906C3.17188 7.05738 3.12069 7.17406 3.0874 7.25817C3.07074 7.30025 3.05853 7.33426 3.05016 7.35886C3.04598 7.37116 3.04275 7.38111 3.0404 7.38855C3.03923 7.39227 3.03828 7.39537 3.03754 7.39781C3.03717 7.39903 3.03685 7.40009 3.03658 7.40099C3.03645 7.40144 3.03633 7.40184 3.03622 7.40221C3.03617 7.40239 3.0361 7.40263 3.03607 7.40273C3.036 7.40296 3.03594 7.40318 3.35834 7.49721ZM8.06 5.14638C9.93318 5.14638 11.0236 5.785 11.6451 6.39379C11.9594 6.70166 12.1603 7.00848 12.2819 7.23578C12.3426 7.34934 12.3832 7.44256 12.4081 7.50537C12.4205 7.53676 12.429 7.56046 12.434 7.57523C12.4365 7.5826 12.4381 7.58773 12.439 7.59046C12.4394 7.59182 12.4397 7.59258 12.4397 7.59272C12.4397 7.59279 12.4397 7.5927 12.4396 7.59246C12.4396 7.59234 12.4395 7.59217 12.4395 7.59197C12.4395 7.59187 12.4394 7.59169 12.4394 7.59164C12.4393 7.59145 12.4393 7.59125 12.7617 7.49721C13.0841 7.40318 13.084 7.40296 13.0839 7.40273C13.0839 7.40263 13.0838 7.40239 13.0838 7.40221C13.0837 7.40184 13.0836 7.40144 13.0834 7.40099C13.0832 7.40009 13.0828 7.39903 13.0825 7.39781C13.0817 7.39537 13.0808 7.39227 13.0796 7.38855C13.0773 7.38111 13.074 7.37116 13.0698 7.35886C13.0615 7.33426 13.0493 7.30025 13.0326 7.25817C12.9993 7.17406 12.9481 7.05738 12.8742 6.91906C12.7263 6.64261 12.4865 6.27777 12.1151 5.91397C11.3653 5.17942 10.1049 4.47471 8.06 4.47471L8.06 5.14638ZM9.06749 12.1989C9.06749 12.7554 8.61642 13.2064 8.05999 13.2064V13.8781C8.98737 13.8781 9.73916 13.1263 9.73916 12.1989H9.06749ZM8.05999 13.2064C7.50357 13.2064 7.05249 12.7554 7.05249 12.1989H6.38083C6.38083 13.1263 7.13261 13.8781 8.05999 13.8781V13.2064ZM7.05249 12.1989C7.05249 11.6425 7.50357 11.1914 8.05999 11.1914V10.5198C7.13261 10.5198 6.38083 11.2716 6.38083 12.1989H7.05249ZM8.05999 11.1914C8.61642 11.1914 9.06749 11.6425 9.06749 12.1989H9.73916C9.73916 11.2716 8.98737 10.5198 8.05999 10.5198V11.1914Z" fill="black"/>
</svg>
