<svg width="16" height="17" viewBox="0 0 16 17" fill="none" xmlns="http://www.w3.org/2000/svg">
<g clip-path="url(#clip0_1_3585)">
<path d="M6.15845 15.4904L13.0543 8.59457C13.1986 8.45029 13.2694 8.24825 13.2469 8.04546L12.867 4.62589C12.8323 4.31367 12.5858 4.06719 12.2736 4.0325L8.854 3.65255C8.65121 3.63002 8.44916 3.70089 8.30489 3.84517L1.40905 10.741C1.14675 11.0033 1.14675 11.4286 1.40905 11.6909L5.20857 15.4904C5.47088 15.7527 5.89615 15.7527 6.15845 15.4904Z" stroke="black" stroke-width="0.671667" stroke-linejoin="round"/>
<path d="M10.4342 8.36659C9.90955 8.89119 9.059 8.89119 8.53439 8.36659C8.00979 7.84198 8.00979 6.99143 8.53439 6.46683C9.059 5.94222 9.90955 5.94222 10.4342 6.46683C10.9588 6.99143 10.9588 7.84198 10.4342 8.36659Z" stroke="black" stroke-width="0.671667" stroke-linejoin="round"/>
</g>
<defs>
<clipPath id="clip0_1_3585">
<rect width="16" height="16" fill="white" transform="translate(0 0.78125)"/>
</clipPath>
</defs>
</svg>
