<svg width="48" height="49" viewBox="0 0 48 49" fill="none" xmlns="http://www.w3.org/2000/svg">
<path d="M18.4754 44.9107L39.1629 24.2232C39.5957 23.7903 39.8084 23.1842 39.7408 22.5758L38.6009 12.3171C38.4968 11.3804 37.7574 10.641 36.8207 10.537L26.562 9.3971C25.9537 9.32951 25.3475 9.54212 24.9147 9.97496L4.2272 30.6625C3.4403 31.4494 3.4403 32.7252 4.22721 33.5121L15.6258 44.9107C16.4127 45.6976 17.6885 45.6976 18.4754 44.9107Z" stroke="black" stroke-width="2.015" stroke-linejoin="round"/>
<path d="M31.3025 23.5412C29.7287 25.115 27.177 25.115 25.6032 23.5412C24.0294 21.9674 24.0294 19.4157 25.6032 17.8419C27.177 16.2681 29.7287 16.2681 31.3025 17.8419C32.8763 19.4157 32.8763 21.9674 31.3025 23.5412Z" stroke="black" stroke-width="2.015" stroke-linejoin="round"/>
</svg>
