<svg width="24" height="25" viewBox="0 0 24 25" fill="none" xmlns="http://www.w3.org/2000/svg">
<path d="M9.2377 22.844L19.5814 12.5003C19.7979 12.2838 19.9042 11.9808 19.8704 11.6766L19.3004 6.54723C19.2484 6.0789 18.8787 5.70919 18.4104 5.65715L13.281 5.08722C12.9768 5.05342 12.6738 5.15973 12.4574 5.37615L2.1136 15.7199C1.72015 16.1134 1.72015 16.7513 2.1136 17.1447L7.81288 22.844C8.20634 23.2375 8.84425 23.2375 9.2377 22.844Z" stroke="black" stroke-width="1.0075" stroke-linejoin="round"/>
<path d="M15.6513 12.1588C14.8643 12.9457 13.5885 12.9457 12.8016 12.1588C12.0147 11.3719 12.0147 10.096 12.8016 9.30912C13.5885 8.52222 14.8643 8.52222 15.6513 9.30912C16.4382 10.096 16.4382 11.3719 15.6513 12.1588Z" stroke="black" stroke-width="1.0075" stroke-linejoin="round"/>
</svg>
