<svg width="32" height="33" viewBox="0 0 32 33" fill="none" xmlns="http://www.w3.org/2000/svg">
<path d="M12.3169 30.2005L26.1086 16.4089C26.3972 16.1203 26.5389 15.7162 26.4938 15.3106L25.7339 8.4715C25.6646 7.84706 25.1716 7.35411 24.5472 7.28473L17.708 6.52483C17.3024 6.47976 16.8984 6.62151 16.6098 6.91006L2.81814 20.7017C2.29353 21.2263 2.29353 22.0769 2.81814 22.6015L10.4172 30.2005C10.9418 30.7251 11.7923 30.7251 12.3169 30.2005Z" stroke="black" stroke-width="1.34333" stroke-linejoin="round"/>
<path d="M20.8683 15.9539C19.8191 17.0031 18.118 17.0031 17.0688 15.9539C16.0196 14.9047 16.0196 13.2036 17.0688 12.1544C18.118 11.1051 19.8191 11.1051 20.8683 12.1544C21.9175 13.2036 21.9175 14.9047 20.8683 15.9539Z" stroke="black" stroke-width="1.34333" stroke-linejoin="round"/>
</svg>
