<svg width="12" height="13" viewBox="0 0 12 13" fill="none" xmlns="http://www.w3.org/2000/svg">
<g clip-path="url(#clip0_1_3573)">
<path d="M4.58448 11.7314L9.71785 6.598C9.82525 6.4906 9.87801 6.34019 9.86124 6.18923L9.5784 3.64365C9.55257 3.41122 9.36909 3.22774 9.13667 3.20192L6.59109 2.91908C6.44012 2.9023 6.28972 2.95506 6.18232 3.06247L1.04894 8.19584C0.853681 8.3911 0.853681 8.70768 1.04894 8.90295L3.87737 11.7314C4.07263 11.9266 4.38921 11.9266 4.58448 11.7314Z" stroke="black" stroke-width="0.5" stroke-linejoin="round"/>
<path d="M7.76738 6.42875C7.37686 6.81927 6.74369 6.81927 6.35317 6.42875C5.96264 6.03822 5.96264 5.40506 6.35317 5.01453C6.74369 4.62401 7.37686 4.62401 7.76738 5.01453C8.1579 5.40506 8.1579 6.03822 7.76738 6.42875Z" stroke="black" stroke-width="0.5" stroke-linejoin="round"/>
</g>
<defs>
<clipPath id="clip0_1_3573">
<rect width="12" height="12" fill="white" transform="translate(0 0.78125)"/>
</clipPath>
</defs>
</svg>
