<svg width="24" height="24" viewBox="0 0 24 24" fill="none" xmlns="http://www.w3.org/2000/svg">
<path d="M12.09 6.96064C10.9816 5.54997 9.27308 4.13931 5.03868 4.0358C4.76055 4.029 4.53374 4.25491 4.53374 4.53312L4.53374 16.7212C4.53374 16.9994 4.76057 17.2179 5.03864 17.2269C9.27306 17.3654 10.9816 19.2428 12.09 20.6535M12.09 6.96064C13.1984 5.54997 14.9069 4.13931 19.1413 4.0358C19.4194 4.029 19.6462 4.24983 19.6462 4.52805V16.7205C19.6462 16.9987 19.4194 17.2179 19.1413 17.2269C14.9069 17.3654 13.1984 19.2428 12.09 20.6535M12.09 6.96064L12.09 20.6535M19.3796 6.04487H21.6612C21.9395 6.04487 22.165 6.2704 22.165 6.54861V19.6854C22.165 20.0931 21.6847 20.3638 21.3122 20.1983C20.5111 19.8423 19.1743 19.4075 17.4238 19.4075C14.4606 19.4075 12.09 21.1574 12.09 21.1574C12.09 21.1574 9.71941 19.4075 6.75618 19.4075C5.00572 19.4075 3.66887 19.8423 2.86781 20.1983C2.49526 20.3638 2.015 20.0931 2.015 19.6854V6.54862C2.015 6.2704 2.24054 6.04487 2.51875 6.04487H4.80044" stroke="black" stroke-width="1.0075" stroke-linejoin="round"/>
</svg>
