<svg width="48" height="49" viewBox="0 0 48 49" fill="none" xmlns="http://www.w3.org/2000/svg">
<path d="M23.2218 9.77722C23.5234 8.849 24.8366 8.849 25.1382 9.77722L28.0253 18.663C28.1602 19.0781 28.547 19.3592 28.9835 19.3592H38.3266C39.3026 19.3592 39.7084 20.6081 38.9188 21.1818L31.3601 26.6735C31.007 26.9301 30.8592 27.3848 30.9941 27.7999L33.8813 36.6857C34.1829 37.614 33.1205 38.3858 32.3309 37.8122L24.7722 32.3204C24.419 32.0639 23.9409 32.0639 23.5878 32.3204L16.0291 37.8122C15.2395 38.3858 14.1771 37.614 14.4787 36.6857L17.3658 27.7999C17.5007 27.3848 17.353 26.9301 16.9999 26.6735L9.44113 21.1818C8.65154 20.6081 9.05734 19.3592 10.0333 19.3592H19.3764C19.8129 19.3592 20.1997 19.0781 20.3346 18.663L23.2218 9.77722Z" stroke="black" stroke-width="2.015" stroke-linecap="round" stroke-linejoin="round"/>
</svg>
