<svg width="16" height="17" viewBox="0 0 16 17" fill="none" xmlns="http://www.w3.org/2000/svg">
<path d="M7.74059 3.77893C7.84113 3.46952 8.27885 3.46952 8.37939 3.77893L9.34178 6.74087C9.38674 6.87924 9.51568 6.97292 9.66117 6.97292H12.7755C13.1009 6.97292 13.2361 7.38923 12.9729 7.58045L10.4534 9.41103C10.3357 9.49654 10.2864 9.64813 10.3314 9.7865L11.2938 12.7484C11.3943 13.0578 11.0402 13.3151 10.777 13.1239L8.25739 11.2933C8.13968 11.2078 7.9803 11.2078 7.86259 11.2933L5.34302 13.1239C5.07982 13.3151 4.72569 13.0578 4.82623 12.7484L5.78862 9.7865C5.83358 9.64813 5.78432 9.49654 5.66662 9.41103L3.14704 7.58045C2.88385 7.38923 3.01911 6.97292 3.34444 6.97292H6.45881C6.6043 6.97292 6.73324 6.87924 6.7782 6.74087L7.74059 3.77893Z" stroke="black" stroke-width="0.671667" stroke-linecap="round" stroke-linejoin="round"/>
</svg>
