<svg width="24" height="24" viewBox="0 0 24 24" fill="none" xmlns="http://www.w3.org/2000/svg">
<path d="M18.8906 17.1277H20.15C20.7064 17.1277 21.1575 16.6767 21.1575 16.1202V8.06023C21.1575 7.50381 20.7064 7.05273 20.15 7.05273H4.02999C3.47356 7.05273 3.02249 7.50381 3.02249 8.06023V16.1202C3.02249 16.6767 3.47356 17.1277 4.02999 17.1277H5.28937M8.56375 13.6021H15.6163M8.56375 18.6387H15.6163M8.56375 16.1191H15.6163M7.05251 21.1575H17.1275C17.6839 21.1575 18.135 20.7064 18.135 20.15V12.09C18.135 11.5336 17.6839 11.0825 17.1275 11.0825H7.05251C6.49609 11.0825 6.04501 11.5336 6.04501 12.09V20.15C6.04501 20.7064 6.49609 21.1575 7.05251 21.1575ZM18.135 7.05295V4.03045C18.135 3.47402 17.6839 3.02295 17.1275 3.02295H7.05251C6.49609 3.02295 6.04501 3.47402 6.04501 4.03045V7.05295H18.135Z" stroke="black" stroke-width="1.0075" stroke-linecap="round" stroke-linejoin="round"/>
</svg>
