<svg width="16" height="16" viewBox="0 0 16 16" fill="none" xmlns="http://www.w3.org/2000/svg">
<path d="M12.5938 11.4193H13.4333C13.8043 11.4193 14.105 11.1186 14.105 10.7476V5.3743C14.105 5.00335 13.8043 4.70264 13.4333 4.70264H2.68667C2.31571 4.70264 2.015 5.00335 2.015 5.3743V10.7476C2.015 11.1186 2.31571 11.4193 2.68667 11.4193H3.52625M5.70917 9.06836H10.4108M5.70917 12.4258H10.4108M5.70917 10.7466H10.4108M4.70168 14.1053H11.4183C11.7893 14.1053 12.09 13.8046 12.09 13.4337V8.06034C12.09 7.68939 11.7893 7.38867 11.4183 7.38867H4.70168C4.33073 7.38867 4.03001 7.68939 4.03001 8.06034V13.4337C4.03001 13.8046 4.33073 14.1053 4.70168 14.1053ZM12.09 4.70229V2.68729C12.09 2.31634 11.7893 2.01562 11.4183 2.01562H4.70168C4.33073 2.01562 4.03001 2.31634 4.03001 2.68729V4.70229H12.09Z" stroke="black" stroke-width="0.671667" stroke-linecap="round" stroke-linejoin="round"/>
</svg>
