<svg width="24" height="24" viewBox="0 0 24 24" fill="none"><path d="M21.1575 12.0904C21.1575 17.0983 17.0978 21.1579 12.09 21.1579M21.1575 12.0904C21.1575 7.08261 17.0978 3.02295 12.09 3.02295M21.1575 12.0904C21.1575 12.0904 18.135 15.6167 12.09 15.6167C6.04499 15.6167 3.02249 12.0904 3.02249 12.0904M21.1575 12.0904C21.1575 12.0904 18.135 8.56359 12.09 8.56359C6.04499 8.56359 3.02249 12.0904 3.02249 12.0904M12.09 21.1579C7.08215 21.1579 3.02249 17.0983 3.02249 12.0904M12.09 21.1579C12.09 21.1579 8.56375 18.1355 8.56375 12.0904C8.56375 6.04545 12.09 3.02295 12.09 3.02295M12.09 21.1579C12.09 21.1579 15.6162 18.1355 15.6162 12.0904C15.6162 6.04545 12.09 3.02295 12.09 3.02295M3.02249 12.0904C3.02249 7.08261 7.08215 3.02295 12.09 3.02295" stroke="currentColor" stroke-width="1.0075" stroke-linejoin="round"/></svg>