<svg width="16" height="16" viewBox="0 0 16 16" fill="none"><path d="M8.06 4.64043C7.32107 3.69998 6.18205 2.75954 3.35912 2.69053C3.1737 2.686 3.02249 2.83661 3.02249 3.02208V11.1474C3.02249 11.3329 3.17371 11.4786 3.35909 11.4846C6.18204 11.5769 7.32107 12.8285 8.05999 13.769M8.06 4.64043C8.79891 3.69998 9.93793 2.75954 12.7609 2.69053C12.9463 2.686 13.0975 2.83322 13.0975 3.0187V11.147C13.0975 11.3325 12.9463 11.4786 12.7609 11.4846C9.93794 11.5769 8.79892 12.8285 8.05999 13.769M8.06 4.64043L8.05999 13.769M12.9197 4.02975H14.4408C14.6263 4.02975 14.7767 4.1801 14.7767 4.36558V13.1234C14.7767 13.3952 14.4565 13.5757 14.2081 13.4654C13.6741 13.2281 12.7828 12.9382 11.6159 12.9382C9.64038 12.9382 8.05999 14.1047 8.05999 14.1047C8.05999 14.1047 6.4796 12.9382 4.50411 12.9382C3.33713 12.9382 2.4459 13.2281 1.91187 13.4654C1.66349 13.5757 1.34332 13.3952 1.34332 13.1234V4.36558C1.34332 4.18011 1.49368 4.02975 1.67916 4.02975H3.20028" stroke="currentColor" stroke-width="0.671667" stroke-linejoin="round"/></svg>