<svg width="8" height="8" viewBox="0 0 8 8" fill="none"><path d="M4 2.30319C3.63329 1.83647 3.06802 1.36975 1.66706 1.3355C1.57504 1.33325 1.5 1.40799 1.5 1.50004V5.53248C1.5 5.62452 1.57505 5.69681 1.66705 5.69982C3.06802 5.74561 3.63329 6.36677 4 6.83349M4 2.30319C4.36671 1.83647 4.93198 1.36975 6.33294 1.3355C6.42496 1.33325 6.5 1.40631 6.5 1.49836V5.53226C6.5 5.62431 6.42495 5.69681 6.33295 5.69982C4.93198 5.74561 4.36671 6.36677 4 6.83349M4 2.30319L4 6.83349M6.41176 2.00024H7.16666C7.25871 2.00024 7.33333 2.07486 7.33333 2.16691V6.51323C7.33333 6.64812 7.17444 6.73769 7.05118 6.68292C6.78614 6.56516 6.34385 6.42129 5.7647 6.42129C4.78431 6.42129 4 7.00024 4 7.00024C4 7.00024 3.21568 6.42129 2.23529 6.42129C1.65615 6.42129 1.21385 6.56516 0.948819 6.68292C0.825558 6.73769 0.666664 6.64812 0.666664 6.51323V2.16691C0.666664 2.07486 0.741283 2.00024 0.833331 2.00024H1.58823" stroke="currentColor" stroke-width="0.333333" stroke-linejoin="round"/></svg>