<svg width="12" height="12" viewBox="0 0 12 12" fill="none"><path d="M6.00001 3.45429C5.44995 2.75421 4.60204 2.05413 2.5006 2.00276C2.36257 1.99939 2.25001 2.1115 2.25001 2.24957V8.29823C2.25001 8.4363 2.36258 8.54473 2.50058 8.54924C4.60203 8.61793 5.44994 9.54967 6.00001 10.2497M6.00001 3.45429C6.55007 2.75421 7.39798 2.05413 9.49941 2.00276C9.63744 1.99939 9.75001 2.10898 9.75001 2.24705V8.2979C9.75001 8.43597 9.63744 8.54473 9.49944 8.54924C7.39798 8.61793 6.55008 9.54967 6.00001 10.2497M6.00001 3.45429L6.00001 10.2497M9.61766 2.99975H10.75C10.8881 2.99975 11 3.11168 11 3.24975V9.76924C11 9.97156 10.7617 10.1059 10.5768 10.0238C10.1792 9.84713 9.51579 9.63133 8.64707 9.63133C7.17649 9.63133 6.00002 10.4997 6.00002 10.4997C6.00002 10.4997 4.82354 9.63133 3.35296 9.63133C2.48424 9.63133 1.8208 9.84713 1.42325 10.0238C1.23836 10.1059 1.00002 9.97156 1.00002 9.76924V3.24975C1.00002 3.11168 1.11194 2.99975 1.25002 2.99975H2.38237" stroke="currentColor" stroke-width="0.5" stroke-linejoin="round"/></svg>