<svg viewBox="0 0 12 12" fill="none"><path d="M1.5 4.13358V9.50024C1.5 9.77639 1.72386 10.0002 2 10.0002H10C10.2761 10.0002 10.5 9.77639 10.5 9.50024V4.13358M1.5 4.13358V2.50024C1.5 2.2241 1.72386 2.00024 2 2.00024H10C10.2761 2.00024 10.5 2.2241 10.5 2.50024V4.13358M1.5 4.13358H10.5M3.49999 1V2.5M8.50001 1V2.5M9.00001 5.50024H8.00001M9.00001 8.50073H8.00001M6.49998 5.50024H5.49998M6.49998 8.50073H5.49998M3.99999 5.50024H2.99999M3.99999 8.50073H2.99999M9.00001 7.00049H8.00001M6.49998 7.00049H5.49998M3.99999 7.00049H2.99999" stroke="currentColor" stroke-width="0.5" stroke-linecap="round" stroke-linejoin="round"/></svg>