<svg width="8" height="8" viewBox="0 0 8 8" fill="none"><path d="M1 2.75523V6.33301C1 6.5171 1.14924 6.66634 1.33333 6.66634H6.66667C6.85076 6.66634 7 6.5171 7 6.33301V2.75523M1 2.75523V1.66634C1 1.48225 1.14924 1.33301 1.33333 1.33301H6.66667C6.85076 1.33301 7 1.48225 7 1.66634V2.75523M1 2.75523H7M2.33334 0.666504V1.6665M5.66666 0.666504V1.6665M4.66667 4.66642C4.66667 5.03461 4.36819 5.33309 4 5.33309C3.63181 5.33309 3.33334 5.03461 3.33334 4.66642C3.33334 4.29823 3.63181 3.99976 4 3.99976C4.36819 3.99976 4.66667 4.29823 4.66667 4.66642Z" stroke="currentColor" stroke-width="0.333333" stroke-linecap="round" stroke-linejoin="round"/></svg>