<svg width="48" height="48" viewBox="0 0 48 48" fill="none"><path d="M6.04498 16.6593V38.287C6.04498 39.3999 6.94713 40.302 8.05998 40.302H40.3C41.4128 40.302 42.315 39.3999 42.315 38.287V16.6593M6.04498 16.6593V10.077C6.04498 8.96416 6.94713 8.06201 8.05998 8.06201H40.3C41.4128 8.06201 42.315 8.96416 42.315 10.077V16.6593M6.04498 16.6593H42.315M14.105 4.03027V10.0753M34.255 4.03027V10.0753M36.2701 22.1665H32.2401M36.2701 34.2573H32.2401M26.195 22.1665H22.165M26.195 34.2573H22.165M16.12 22.1665H12.09M16.12 34.2573H12.09M36.2701 28.2104H32.2401M26.195 28.2104H22.165M16.12 28.2104H12.09" stroke="currentColor" stroke-width="2.015" stroke-linecap="round" stroke-linejoin="round"/></svg>