<svg viewBox="0 0 8 8" fill="none"><path d="M1 2.75547V6.33325C1 6.51735 1.14924 6.66659 1.33333 6.66659H6.66667C6.85076 6.66659 7 6.51735 7 6.33325V2.75547M1 2.75547V1.66659C1 1.48249 1.14924 1.33325 1.33333 1.33325H6.66667C6.85076 1.33325 7 1.48249 7 1.66659V2.75547M1 2.75547H7M2.33334 0.666504V1.6665M5.66666 0.666504V1.6665M6 3.6665H5.33333M6 5.6665H5.33333M4.33334 3.6665H3.66667M4.33334 5.6665H3.66667M2.66666 3.6665H2M2.66666 5.6665H2M6 4.6665H5.33333M4.33334 4.6665H3.66667M2.66666 4.6665H2" stroke="currentColor" stroke-width="0.333333" stroke-linecap="round" stroke-linejoin="round"/></svg>