<svg width="12" height="12" viewBox="0 0 12 12" fill="none"><path d="M1.5 4.13358V9.50024C1.5 9.77639 1.72386 10.0002 2 10.0002H10C10.2761 10.0002 10.5 9.77639 10.5 9.50024V4.13358M1.5 4.13358V2.50024C1.5 2.2241 1.72386 2.00024 2 2.00024H10C10.2761 2.00024 10.5 2.2241 10.5 2.50024V4.13358M1.5 4.13358H10.5M3.49999 1V2.5M8.50001 1V2.5M7 7C7 7.55228 6.55228 8 6 8C5.44772 8 5 7.55228 5 7C5 6.44772 5.44772 6 6 6C6.55228 6 7 6.44772 7 7Z" stroke="currentColor" stroke-width="0.5" stroke-linecap="round" stroke-linejoin="round"/></svg>