<svg viewBox="0 0 24 24" fill="none"><path d="M3.02249 8.3287V19.1425C3.02249 19.699 3.47356 20.15 4.02999 20.15H20.15C20.7064 20.15 21.1575 19.699 21.1575 19.1425V8.3287M3.02249 8.3287V5.03753C3.02249 4.4811 3.47356 4.03003 4.02999 4.03003H20.15C20.7064 4.03003 21.1575 4.4811 21.1575 5.03753V8.3287M3.02249 8.3287H21.1575M7.05247 2.0144V5.0369M17.1275 2.0144V5.0369M14.105 14.1048C14.105 15.2177 13.2029 16.1198 12.09 16.1198C10.9771 16.1198 10.075 15.2177 10.075 14.1048C10.075 12.992 10.9771 12.0898 12.09 12.0898C13.2029 12.0898 14.105 12.992 14.105 14.1048Z" stroke="currentColor" stroke-width="1.0075" stroke-linecap="round" stroke-linejoin="round"/></svg>