<svg width="16" height="16" viewBox="0 0 16 16" fill="none"><path d="M2.01498 5.55255V12.7618C2.01498 13.1327 2.3157 13.4334 2.68665 13.4334H13.4333C13.8043 13.4334 14.105 13.1327 14.105 12.7618V5.55255M2.01498 5.55255V3.35843C2.01498 2.98748 2.3157 2.68677 2.68665 2.68677H13.4333C13.8043 2.68677 14.105 2.98748 14.105 3.35843V5.55255M2.01498 5.55255H14.105M4.70163 1.34326V3.35826M11.4183 1.34326V3.35826M12.09 7.38818H10.7467M12.09 11.4187H10.7467M8.73164 7.38818H7.38831M8.73164 11.4187H7.38831M5.37331 7.38818H4.02997M5.37331 11.4187H4.02997M12.09 9.40332H10.7467M8.73164 9.40332H7.38831M5.37331 9.40332H4.02997" stroke="currentColor" stroke-width="0.671667" stroke-linecap="round" stroke-linejoin="round"/></svg>