<svg width="48" height="48" viewBox="0 0 48 48" fill="none"><path d="M6.04498 16.6569V38.2846C6.04498 39.3974 6.94713 40.2996 8.05998 40.2996H40.3C41.4128 40.2996 42.315 39.3974 42.315 38.2846V16.6569M6.04498 16.6569V10.0746C6.04498 8.96172 6.94713 8.05957 8.05998 8.05957H40.3C41.4128 8.05957 42.315 8.96172 42.315 10.0746V16.6569M6.04498 16.6569H42.315M14.1049 4.02832V10.0733M34.255 4.02832V10.0733M28.21 28.2087C28.21 30.4344 26.4057 32.2387 24.18 32.2387C21.9543 32.2387 20.15 30.4344 20.15 28.2087C20.15 25.983 21.9543 24.1787 24.18 24.1787C26.4057 24.1787 28.21 25.983 28.21 28.2087Z" stroke="currentColor" stroke-width="2.015" stroke-linecap="round" stroke-linejoin="round"/></svg>