<svg width="12" height="12" viewBox="0 0 12 12" fill="none"><path d="M1.5 4C1.5 3.72386 1.72386 3.5 2 3.5H4.25L4.75 2H7.25L7.75 3.5H10C10.2761 3.5 10.5 3.72386 10.5 4V9.5C10.5 9.77614 10.2761 10 10 10H2C1.72386 10 1.5 9.77614 1.5 9.5V4Z" stroke="currentColor" stroke-width="0.5" stroke-linejoin="round"/><path d="M7.5 6.5C7.5 7.32843 6.82843 8 6 8C5.17157 8 4.5 7.32843 4.5 6.5C4.5 5.67157 5.17157 5 6 5C6.82843 5 7.5 5.67157 7.5 6.5Z" stroke="currentColor" stroke-width="0.5" stroke-linejoin="round"/></svg>