<svg width="48" height="48" viewBox="0 0 48 48" fill="none"><path d="M6.04498 16.1198C6.04498 15.007 6.94713 14.1048 8.05998 14.1048H17.1275L19.1425 8.05981H29.2175L31.2325 14.1048H40.3C41.4128 14.1048 42.315 15.007 42.315 16.1198V38.2848C42.315 39.3977 41.4128 40.2998 40.3 40.2998H8.05998C6.94713 40.2998 6.04498 39.3977 6.04498 38.2848V16.1198Z" stroke="currentColor" stroke-width="2.015" stroke-linejoin="round"/><path d="M30.2251 26.1947C30.2251 29.5332 27.5186 32.2397 24.1801 32.2397C20.8415 32.2397 18.1351 29.5332 18.1351 26.1947C18.1351 22.8561 20.8415 20.1497 24.1801 20.1497C27.5186 20.1497 30.2251 22.8561 30.2251 26.1947Z" stroke="currentColor" stroke-width="2.015" stroke-linejoin="round"/></svg>