<svg viewBox="0 0 24 24" fill="none"><path d="M20.2603 13.2221L19.7604 13.1597L19.7604 13.1597L20.2603 13.2221ZM21.0159 7.17714L20.5161 7.11466L20.5161 7.11466L21.0159 7.17714ZM2.015 3.52604C1.73679 3.52604 1.51125 3.75157 1.51125 4.02979C1.51125 4.308 1.73679 4.53354 2.015 4.53354V3.52604ZM5.23823 4.77536L4.7518 4.90632L4.7518 4.90632L5.23823 4.77536ZM8.36302 16.3817L8.84945 16.2507L8.84945 16.2507L8.36302 16.3817ZM19.1425 17.631C19.4207 17.631 19.6462 17.4055 19.6462 17.1273C19.6462 16.8491 19.4207 16.6235 19.1425 16.6235V17.631ZM20.7602 13.2846L21.5158 7.23963L20.5161 7.11466L19.7604 13.1597L20.7602 13.2846ZM20.0162 5.54093H5.37331V6.54843H20.0162V5.54093ZM21.5158 7.23963C21.6285 6.33763 20.9252 5.54093 20.0162 5.54093V6.54843C20.3192 6.54843 20.5536 6.814 20.5161 7.11466L21.5158 7.23963ZM19.7604 13.1597C19.7289 13.4117 19.5146 13.6009 19.2606 13.6009V14.6084C20.0227 14.6084 20.6656 14.0409 20.7602 13.2846L19.7604 13.1597ZM2.015 4.53354H4.26537V3.52604H2.015V4.53354ZM4.7518 4.90632L7.87659 16.5127L8.84945 16.2507L5.72466 4.6444L4.7518 4.90632ZM9.33588 17.631H19.1425V16.6235H9.33588V17.631ZM7.87659 16.5127C8.05424 17.1725 8.65255 17.631 9.33588 17.631V16.6235C9.1081 16.6235 8.90866 16.4707 8.84945 16.2507L7.87659 16.5127ZM4.26537 4.53354C4.49315 4.53354 4.69259 4.68638 4.7518 4.90632L5.72466 4.6444C5.54701 3.98457 4.9487 3.52604 4.26537 3.52604V4.53354ZM10.5788 20.1501C10.5788 20.4283 10.3532 20.6538 10.075 20.6538V21.6613C10.9096 21.6613 11.5863 20.9847 11.5863 20.1501H10.5788ZM10.075 20.6538C9.79679 20.6538 9.57125 20.4283 9.57125 20.1501H8.56375C8.56375 20.9847 9.24036 21.6613 10.075 21.6613V20.6538ZM9.57125 20.1501C9.57125 19.8719 9.79679 19.6463 10.075 19.6463V18.6388C9.24036 18.6388 8.56375 19.3154 8.56375 20.1501H9.57125ZM10.075 19.6463C10.3532 19.6463 10.5788 19.8719 10.5788 20.1501H11.5863C11.5863 19.3154 10.9096 18.6388 10.075 18.6388V19.6463ZM18.135 20.1501C18.135 20.4283 17.9095 20.6538 17.6312 20.6538V21.6613C18.4659 21.6613 19.1425 20.9847 19.1425 20.1501H18.135ZM17.6312 20.6538C17.353 20.6538 17.1275 20.4283 17.1275 20.1501H16.12C16.12 20.9847 16.7966 21.6613 17.6312 21.6613V20.6538ZM17.1275 20.1501C17.1275 19.8719 17.353 19.6463 17.6312 19.6463V18.6388C16.7966 18.6388 16.12 19.3154 16.12 20.1501H17.1275ZM17.6312 19.6463C17.9095 19.6463 18.135 19.8719 18.135 20.1501H19.1425C19.1425 19.3154 18.4659 18.6388 17.6312 18.6388V19.6463ZM8.05997 14.6084H19.2606V13.6009H8.05997V14.6084Z" fill="currentColor"/></svg>