<svg viewBox="0 0 16 16" fill="none"><path d="M13.5069 8.81476L13.8401 8.85642L13.8401 8.85642L13.5069 8.81476ZM14.0106 4.78476L13.6774 4.74311L13.6774 4.74311L14.0106 4.78476ZM1.34332 2.35069C1.15785 2.35069 1.00749 2.50105 1.00749 2.68652C1.00749 2.872 1.15785 3.02236 1.34332 3.02236V2.35069ZM3.49214 3.18357L3.81643 3.09627L3.81643 3.09627L3.49214 3.18357ZM5.57534 10.9211L5.89962 10.8338L5.89962 10.8338L5.57534 10.9211ZM12.7617 11.754C12.9471 11.754 13.0975 11.6037 13.0975 11.4182C13.0975 11.2327 12.9471 11.0824 12.7617 11.0824V11.754ZM13.8401 8.85642L14.3438 4.82642L13.6774 4.74311L13.1736 8.77311L13.8401 8.85642ZM13.3441 3.69395H3.5822V4.36562H13.3441V3.69395ZM14.3438 4.82642C14.419 4.22509 13.9501 3.69395 13.3441 3.69395V4.36562C13.5461 4.36562 13.7024 4.54266 13.6774 4.74311L14.3438 4.82642ZM13.1736 8.77311C13.1526 8.94117 13.0097 9.06728 12.8404 9.06728V9.73895C13.3485 9.73895 13.7771 9.3606 13.8401 8.85642L13.1736 8.77311ZM1.34332 3.02236H2.84357V2.35069H1.34332V3.02236ZM3.16786 3.27088L5.25105 11.0084L5.89962 10.8338L3.81643 3.09627L3.16786 3.27088ZM6.22391 11.754H12.7617V11.0824H6.22391V11.754ZM5.25105 11.0084C5.36948 11.4483 5.76835 11.754 6.22391 11.754V11.0824C6.07206 11.0824 5.9391 10.9805 5.89962 10.8338L5.25105 11.0084ZM2.84357 3.02236C2.99542 3.02236 3.12838 3.12425 3.16786 3.27088L3.81643 3.09627C3.698 2.65638 3.29912 2.35069 2.84357 2.35069V3.02236ZM7.05248 13.4334C7.05248 13.6189 6.90213 13.7692 6.71665 13.7692V14.4409C7.27308 14.4409 7.72415 13.9898 7.72415 13.4334H7.05248ZM6.71665 13.7692C6.53117 13.7692 6.38082 13.6189 6.38082 13.4334H5.70915C5.70915 13.9898 6.16022 14.4409 6.71665 14.4409V13.7692ZM6.38082 13.4334C6.38082 13.2479 6.53117 13.0976 6.71665 13.0976V12.4259C6.16022 12.4259 5.70915 12.877 5.70915 13.4334H6.38082ZM6.71665 13.0976C6.90212 13.0976 7.05248 13.2479 7.05248 13.4334H7.72415C7.72415 12.877 7.27308 12.4259 6.71665 12.4259V13.0976ZM12.09 13.4334C12.09 13.6189 11.9396 13.7692 11.7542 13.7692V14.4409C12.3106 14.4409 12.7617 13.9898 12.7617 13.4334H12.09ZM11.7542 13.7692C11.5687 13.7692 11.4183 13.6189 11.4183 13.4334H10.7467C10.7467 13.9898 11.1977 14.4409 11.7542 14.4409V13.7692ZM11.4183 13.4334C11.4183 13.2479 11.5687 13.0976 11.7542 13.0976V12.4259C11.1977 12.4259 10.7467 12.877 10.7467 13.4334H11.4183ZM11.7542 13.0976C11.9396 13.0976 12.09 13.2479 12.09 13.4334H12.7617C12.7617 12.877 12.3106 12.4259 11.7542 12.4259V13.0976ZM5.37331 9.73895H12.8404V9.06728H5.37331V9.73895Z" fill="currentColor"/></svg>