<svg width="48" height="48" viewBox="0 0 48 48" fill="none"><path d="M34.255 11.0821V23.1721M34.255 11.0821C34.255 8.85641 36.0593 7.05212 38.285 7.05212L40.3 7.05212C42.5257 7.05212 44.33 8.85642 44.33 11.0821V23.1721C44.33 25.3978 42.5257 27.2021 40.3 27.2021L38.285 27.2021C36.0593 27.2021 34.255 25.3978 34.255 23.1721M34.255 11.0821L30.7623 8.4633C30.4136 8.20171 29.9893 8.0603 29.5533 8.0603L15.9148 8.0603C14.7636 8.0603 13.6675 8.55256 12.9027 9.41292L7.06295 15.9826C6.40722 16.7203 6.04501 17.673 6.04501 18.66L6.04501 25.1878C6.04501 26.3007 6.94716 27.2028 8.06001 27.2028L20.15 27.2028C18.135 32.2403 18.135 34.2553 18.135 38.2853C18.135 42.3153 24.18 42.3153 24.18 38.2853C24.18 28.2103 32.24 23.1721 34.255 23.1721" stroke="currentColor" stroke-width="2.015" stroke-linecap="round" stroke-linejoin="round"/></svg>