<svg width="16" height="16" viewBox="0 0 16 16" fill="none"><path d="M11.4183 3.6942V7.72419M11.4183 3.6942C11.4183 2.95229 12.0197 2.35086 12.7616 2.35086L13.4333 2.35086C14.1752 2.35086 14.7766 2.95229 14.7766 3.69419V7.72419C14.7766 8.4661 14.1752 9.06753 13.4333 9.06753H12.7616C12.0197 9.06753 11.4183 8.4661 11.4183 7.72419M11.4183 3.6942L10.2541 2.82116C10.1378 2.73397 9.99642 2.68683 9.8511 2.68683L5.3049 2.68683C4.92119 2.68683 4.5558 2.85092 4.30088 3.1377L2.3543 5.32761C2.13572 5.57351 2.01498 5.89107 2.01498 6.22007L2.01498 8.396C2.01498 8.76695 2.3157 9.06767 2.68665 9.06767L6.71665 9.06767C6.04498 10.7468 6.04498 11.4185 6.04498 12.7618C6.04498 14.1052 8.05998 14.1052 8.05998 12.7618C8.05998 9.4035 10.7466 7.72419 11.4183 7.72419" stroke="currentColor" stroke-width="0.671667" stroke-linecap="round" stroke-linejoin="round"/></svg>