<svg viewBox="0 0 12 12" fill="none"><path d="M8.50001 2.75V5.75M8.50001 2.75C8.50001 2.19772 8.94772 1.75 9.50001 1.75L10 1.75C10.5523 1.75 11 2.19772 11 2.75V5.75C11 6.30228 10.5523 6.75 10 6.75H9.50001C8.94772 6.75 8.50001 6.30228 8.50001 5.75M8.50001 2.75L7.63335 2.09987C7.5468 2.03496 7.44153 1.99987 7.33335 1.99987L3.94908 1.99987C3.66344 1.99987 3.39144 2.12202 3.20167 2.33551L1.75261 3.96571C1.58989 4.14876 1.50002 4.38516 1.50002 4.63007L1.50002 6.24987C1.50002 6.52602 1.72387 6.74987 2.00002 6.74987L5.00001 6.74987C4.50001 7.99988 4.50001 8.49988 4.50001 9.49988C4.50001 10.4999 6.00001 10.4999 6.00001 9.49988C6.00001 6.99987 8.00001 5.75 8.50001 5.75" stroke="currentColor" stroke-width="0.5" stroke-linecap="round" stroke-linejoin="round"/></svg>