<svg width="32" height="32" viewBox="0 0 32 32" fill="none"><path d="M22.8366 7.38809V15.4481M22.8366 7.38809C22.8366 5.90428 24.0395 4.70142 25.5233 4.70142L26.8666 4.70142C28.3504 4.70142 29.5533 5.90428 29.5533 7.38808V15.4481C29.5533 16.9319 28.3504 18.1347 26.8666 18.1347H25.5233C24.0395 18.1347 22.8366 16.9319 22.8366 15.4481M22.8366 7.38809L20.5082 5.64239C20.2757 5.46799 19.9929 5.37372 19.7022 5.37372L10.6098 5.37372C9.84241 5.37372 9.11163 5.70189 8.60178 6.27546L4.70862 10.6553C4.27147 11.1471 4.03 11.7822 4.03 12.4402L4.03 16.7921C4.03 17.534 4.63143 18.1354 5.37333 18.1354L13.4333 18.1354C12.09 21.4937 12.09 22.8371 12.09 25.5237C12.09 28.2104 16.12 28.2104 16.12 25.5237C16.12 18.8071 21.4933 15.4481 22.8366 15.4481" stroke="currentColor" stroke-width="1.34333" stroke-linecap="round" stroke-linejoin="round"/></svg>