<svg width="8" height="8" viewBox="0 0 8 8" fill="none"><path d="M5.66667 1.83335V3.83335M5.66667 1.83335C5.66667 1.46516 5.96515 1.16669 6.33334 1.16669L6.66667 1.16669C7.03486 1.16669 7.33334 1.46516 7.33334 1.83335V3.83335C7.33334 4.20154 7.03486 4.50002 6.66667 4.50002L6.33334 4.50002C5.96515 4.50002 5.66667 4.20154 5.66667 3.83335M5.66667 1.83335L5.0889 1.39999C5.0312 1.35672 4.96102 1.33333 4.8889 1.33333L2.63272 1.33333C2.44229 1.33333 2.26096 1.41476 2.13445 1.55709L1.1684 2.64389C1.05993 2.76592 1.00001 2.92352 1.00001 3.0868L1.00001 4.16666C1.00001 4.35076 1.14925 4.5 1.33334 4.5L3.33334 4.5C3.00001 5.33333 3.00001 5.66666 3.00001 6.33333C3.00001 7 4.00001 7 4.00001 6.33333C4.00001 4.66666 5.33334 3.83335 5.66667 3.83335" stroke="currentColor" stroke-width="0.333333" stroke-linecap="round" stroke-linejoin="round"/></svg>