<svg width="16" height="16" viewBox="0 0 16 16" fill="none"><path d="M6.71668 4.0298C6.71668 4.21528 6.56632 4.36564 6.38085 4.36564C6.19537 4.36564 6.04501 4.21528 6.04501 4.0298C6.04501 3.84433 6.19537 3.69397 6.38085 3.69397C6.56632 3.69397 6.71668 3.84433 6.71668 4.0298Z" stroke="currentColor" stroke-width="0.671667" stroke-linecap="round" stroke-linejoin="round"/><path d="M6.71668 6.71614C6.71668 6.90162 6.56632 7.05198 6.38085 7.05198C6.19537 7.05198 6.04501 6.90162 6.04501 6.71614C6.04501 6.53067 6.19537 6.38031 6.38085 6.38031C6.56632 6.38031 6.71668 6.53067 6.71668 6.71614Z" stroke="currentColor" stroke-width="0.671667" stroke-linecap="round" stroke-linejoin="round"/><path d="M6.71668 9.40401C6.71668 9.58949 6.56632 9.73984 6.38085 9.73984C6.19537 9.73984 6.04501 9.58949 6.04501 9.40401C6.04501 9.21853 6.19537 9.06818 6.38085 9.06818C6.56632 9.06818 6.71668 9.21853 6.71668 9.40401Z" stroke="currentColor" stroke-width="0.671667" stroke-linecap="round" stroke-linejoin="round"/><path d="M6.71668 12.0902C6.71668 12.2756 6.56632 12.426 6.38085 12.426C6.19537 12.426 6.04501 12.2756 6.04501 12.0902C6.04501 11.9047 6.19537 11.7543 6.38085 11.7543C6.56632 11.7543 6.71668 11.9047 6.71668 12.0902Z" stroke="currentColor" stroke-width="0.671667" stroke-linecap="round" stroke-linejoin="round"/><path d="M10.075 4.02999C10.075 4.21546 9.92466 4.36582 9.73918 4.36582C9.55371 4.36582 9.40335 4.21546 9.40335 4.02999C9.40335 3.84451 9.55371 3.69415 9.73918 3.69415C9.92466 3.69415 10.075 3.84451 10.075 4.02999Z" stroke="currentColor" stroke-width="0.671667" stroke-linecap="round" stroke-linejoin="round"/><path d="M10.075 6.71614C10.075 6.90162 9.92466 7.05198 9.73918 7.05198C9.55371 7.05198 9.40335 6.90162 9.40335 6.71614C9.40335 6.53067 9.55371 6.38031 9.73918 6.38031C9.92466 6.38031 10.075 6.53067 10.075 6.71614Z" stroke="currentColor" stroke-width="0.671667" stroke-linecap="round" stroke-linejoin="round"/><path d="M10.075 9.40401C10.075 9.58949 9.92466 9.73984 9.73918 9.73984C9.55371 9.73984 9.40335 9.58949 9.40335 9.40401C9.40335 9.21853 9.55371 9.06818 9.73918 9.06818C9.92466 9.06818 10.075 9.21853 10.075 9.40401Z" stroke="currentColor" stroke-width="0.671667" stroke-linecap="round" stroke-linejoin="round"/><path d="M10.075 12.0902C10.075 12.2756 9.92466 12.426 9.73918 12.426C9.55371 12.426 9.40335 12.2756 9.40335 12.0902C9.40335 11.9047 9.55371 11.7543 9.73918 11.7543C9.92466 11.7543 10.075 11.9047 10.075 12.0902Z" stroke="currentColor" stroke-width="0.671667" stroke-linecap="round" stroke-linejoin="round"/></svg>