<svg width="12" height="12" viewBox="0 0 12 12" fill="none"><path d="M5 2.99988C5 3.13795 4.88807 3.24988 4.75 3.24988C4.61193 3.24988 4.5 3.13795 4.5 2.99988C4.5 2.86181 4.61193 2.74988 4.75 2.74988C4.88807 2.74988 5 2.86181 5 2.99988Z" stroke="currentColor" stroke-width="0.5" stroke-linecap="round" stroke-linejoin="round"/><path d="M5 4.99963C5 5.1377 4.88807 5.24963 4.75 5.24963C4.61193 5.24963 4.5 5.1377 4.5 4.99963C4.5 4.86156 4.61193 4.74963 4.75 4.74963C4.88807 4.74963 5 4.86156 5 4.99963Z" stroke="currentColor" stroke-width="0.5" stroke-linecap="round" stroke-linejoin="round"/><path d="M5 7.00024C5 7.13832 4.88807 7.25024 4.75 7.25024C4.61193 7.25024 4.5 7.13832 4.5 7.00024C4.5 6.86217 4.61193 6.75024 4.75 6.75024C4.88807 6.75024 5 6.86217 5 7.00024Z" stroke="currentColor" stroke-width="0.5" stroke-linecap="round" stroke-linejoin="round"/><path d="M5 8.99976C5 9.13783 4.88807 9.24976 4.75 9.24976C4.61193 9.24976 4.5 9.13783 4.5 8.99976C4.5 8.86168 4.61193 8.74976 4.75 8.74976C4.88807 8.74976 5 8.86168 5 8.99976Z" stroke="currentColor" stroke-width="0.5" stroke-linecap="round" stroke-linejoin="round"/><path d="M7.50001 2.99976C7.50001 3.13783 7.38808 3.24976 7.25001 3.24976C7.11194 3.24976 7.00001 3.13783 7.00001 2.99976C7.00001 2.86168 7.11194 2.74976 7.25001 2.74976C7.38808 2.74976 7.50001 2.86168 7.50001 2.99976Z" stroke="currentColor" stroke-width="0.5" stroke-linecap="round" stroke-linejoin="round"/><path d="M7.50001 4.99963C7.50001 5.1377 7.38808 5.24963 7.25001 5.24963C7.11194 5.24963 7.00001 5.1377 7.00001 4.99963C7.00001 4.86156 7.11194 4.74963 7.25001 4.74963C7.38808 4.74963 7.50001 4.86156 7.50001 4.99963Z" stroke="currentColor" stroke-width="0.5" stroke-linecap="round" stroke-linejoin="round"/><path d="M7.50001 7.00024C7.50001 7.13832 7.38808 7.25024 7.25001 7.25024C7.11194 7.25024 7.00001 7.13832 7.00001 7.00024C7.00001 6.86217 7.11194 6.75024 7.25001 6.75024C7.38808 6.75024 7.50001 6.86217 7.50001 7.00024Z" stroke="currentColor" stroke-width="0.5" stroke-linecap="round" stroke-linejoin="round"/><path d="M7.50001 8.99976C7.50001 9.13783 7.38808 9.24976 7.25001 9.24976C7.11194 9.24976 7.00001 9.13783 7.00001 8.99976C7.00001 8.86168 7.11194 8.74976 7.25001 8.74976C7.38808 8.74976 7.50001 8.86168 7.50001 8.99976Z" stroke="currentColor" stroke-width="0.5" stroke-linecap="round" stroke-linejoin="round"/></svg>