<svg width="32" height="32" viewBox="0 0 32 32" fill="none"><path d="M18.8067 17.4633C18.8067 18.9471 17.6038 20.1499 16.12 20.1499C14.6362 20.1499 13.4333 18.9471 13.4333 17.4633C13.4333 15.9795 14.6362 14.7766 16.12 14.7766C17.6038 14.7766 18.8067 15.9795 18.8067 17.4633Z" stroke="currentColor" stroke-width="1.34333" stroke-linecap="round" stroke-linejoin="round"/><path d="M16.12 10.075C10.3372 10.075 6.01298 14.8885 4.56025 16.745C4.22605 17.1721 4.22605 17.7545 4.56025 18.1816C6.01298 20.0381 10.3372 24.8516 16.12 24.8516C21.9028 24.8516 26.227 20.0381 27.6797 18.1816C28.0139 17.7545 28.0139 17.1721 27.6797 16.745C26.227 14.8885 21.9028 10.075 16.12 10.075Z" stroke="currentColor" stroke-width="1.34333" stroke-linecap="round" stroke-linejoin="round"/></svg>