<svg width="48" height="48" viewBox="0 0 48 48" fill="none"><path d="M28.21 26.1943C28.21 28.42 26.4057 30.2243 24.18 30.2243C21.9543 30.2243 20.15 28.42 20.15 26.1943C20.15 23.9686 21.9543 22.1643 24.18 22.1643C26.4057 22.1643 28.21 23.9686 28.21 26.1943Z" stroke="currentColor" stroke-width="2.015" stroke-linecap="round" stroke-linejoin="round"/><path d="M24.18 15.1118C15.5057 15.1118 9.01945 22.3321 6.84036 25.1168C6.33906 25.7575 6.33906 26.6312 6.84036 27.2718C9.01945 30.0566 15.5057 37.2768 24.18 37.2768C32.8542 37.2768 39.3405 30.0566 41.5196 27.2718C42.0209 26.6312 42.0209 25.7575 41.5196 25.1168C39.3405 22.3321 32.8542 15.1118 24.18 15.1118Z" stroke="currentColor" stroke-width="2.015" stroke-linecap="round" stroke-linejoin="round"/></svg>