<svg width="24" height="24" viewBox="0 0 24 24" fill="none"><path d="M4.03006 9.06753V6.52071C4.03006 6.20789 4.1029 5.89936 4.24279 5.61957L5.03756 4.03003H10.0751L11.0826 6.04503H21.1576C21.714 6.04503 22.1651 6.4961 22.1651 7.05253V18.135C22.1651 19.2479 21.2629 20.15 20.1501 20.15H18.1351M2.32661 9.06763H17.3655C17.8199 9.06763 18.218 9.37171 18.3375 9.81004L20.8105 18.8775C20.9853 19.5184 20.5028 20.1501 19.8385 20.1501H5.56909C4.66043 20.1501 3.86418 19.542 3.62509 18.6653L1.35461 10.3402C1.17982 9.69931 1.66229 9.06763 2.32661 9.06763Z" stroke="currentColor" stroke-width="1.0075" stroke-linecap="round" stroke-linejoin="round"/></svg>