<svg width="8" height="8" viewBox="0 0 8 8" fill="none"><path d="M1.33334 2.9998V2.15718C1.33334 2.05368 1.35744 1.9516 1.40372 1.85903L1.66667 1.33313H3.33334L3.66667 1.9998H7.00001C7.1841 1.9998 7.33334 2.14903 7.33334 2.33313V5.9998C7.33334 6.36799 7.03486 6.66646 6.66667 6.66646H6.00001M0.769755 2.99976H5.74541C5.89572 2.99976 6.02744 3.10036 6.06699 3.24538L6.88518 6.24538C6.94301 6.45743 6.78338 6.66642 6.56359 6.66642H1.84254C1.5419 6.66642 1.27846 6.46521 1.19936 6.17517L0.448168 3.4208C0.390337 3.20875 0.549964 2.99976 0.769755 2.99976Z" stroke="currentColor" stroke-width="0.333333" stroke-linecap="round" stroke-linejoin="round"/></svg>