<svg width="48" height="48" viewBox="0 0 48 48" fill="none"><path d="M8.0601 18.1351V13.0414C8.0601 12.4158 8.20576 11.7987 8.48556 11.2391L10.0751 8.06006H20.1501L22.1651 12.0901H42.3151C43.428 12.0901 44.3301 12.9922 44.3301 14.1051V36.2701C44.3301 38.4958 42.5258 40.3001 40.3001 40.3001H36.2701M4.65319 18.1353H34.731C35.6397 18.1353 36.4359 18.7434 36.675 19.6201L41.6209 37.7551C41.9705 39.0369 41.0056 40.3003 39.6769 40.3003H11.1382C9.32082 40.3003 7.72833 39.0839 7.25015 37.3306L2.7092 20.6804C2.35961 19.3986 3.32456 18.1353 4.65319 18.1353Z" stroke="currentColor" stroke-width="2.015" stroke-linecap="round" stroke-linejoin="round"/></svg>