<svg viewBox="0 0 32 32" fill="none"><path d="M12.09 28.2098H5.37333C4.63143 28.2098 4.03 27.6083 4.03 26.8664V16.6762C4.03 16.3199 4.17153 15.9782 4.42345 15.7263L15.1701 4.97963C15.6947 4.45503 16.5453 4.45503 17.0699 4.97963L27.8165 15.7263C28.0685 15.9782 28.21 16.3199 28.21 16.6762V26.8664C28.21 27.6083 27.6086 28.2098 26.8667 28.2098H20.15M12.09 28.2098H20.15M12.09 28.2098V20.1498C12.09 19.4079 12.6914 18.8064 13.4333 18.8064H18.8067C19.5486 18.8064 20.15 19.4079 20.15 20.1498V28.2098" stroke="currentColor" stroke-width="1.34333" stroke-linejoin="round"/></svg>