<svg width="48" height="48" viewBox="0 0 48 48" fill="none"><path d="M18.135 42.3145H8.05998C6.94713 42.3145 6.04498 41.4124 6.04498 40.2995V25.0142C6.04498 24.4797 6.25728 23.9672 6.63516 23.5893L22.7552 7.46933C23.5421 6.68242 24.8179 6.68242 25.6048 7.46933L41.7248 23.5893C42.1027 23.9672 42.315 24.4797 42.315 25.0142V40.2995C42.315 41.4124 41.4128 42.3145 40.3 42.3145H30.225M18.135 42.3145H30.225M18.135 42.3145V30.2245C18.135 29.1117 19.0371 28.2095 20.15 28.2095H28.21C29.3228 28.2095 30.225 29.1117 30.225 30.2245V42.3145" stroke="currentColor" stroke-width="2.015" stroke-linejoin="round"/></svg>