<svg viewBox="0 0 12 12" fill="none"><path d="M10.5 8V10C10.5 10.2761 10.2761 10.5 10 10.5H2C1.72386 10.5 1.5 10.2761 1.5 10V9M10.5 8V2C10.5 1.72386 10.2761 1.5 10 1.5H2C1.72386 1.5 1.5 1.72386 1.5 2V9M10.5 8L7.74143 6.16095C7.59213 6.06142 7.40096 6.04952 7.24047 6.12976L1.5 9M5.00002 4.5C5.00002 5.05228 4.5523 5.5 4.00002 5.5C3.44773 5.5 3.00002 5.05228 3.00002 4.5C3.00002 3.94772 3.44773 3.5 4.00002 3.5C4.5523 3.5 5.00002 3.94772 5.00002 4.5Z" stroke="currentColor" stroke-width="0.5" stroke-linejoin="round"/></svg>