<svg width="32" height="32" viewBox="0 0 32 32" fill="none"><path d="M28.21 21.4931V26.8665C28.21 27.6084 27.6086 28.2098 26.8667 28.2098H5.37333C4.63143 28.2098 4.03 27.6084 4.03 26.8665V24.1798M28.21 21.4931V5.37312C28.21 4.63122 27.6086 4.02979 26.8667 4.02979H5.37333C4.63143 4.02979 4.03 4.63122 4.03 5.37312V24.1798M28.21 21.4931L20.7986 16.5522C20.3975 16.2848 19.8839 16.2528 19.4527 16.4684L4.03 24.1798M13.4333 12.0902C13.4333 13.574 12.2305 14.7769 10.7467 14.7769C9.26287 14.7769 8.06001 13.574 8.06001 12.0902C8.06001 10.6064 9.26287 9.40356 10.7467 9.40356C12.2305 9.40356 13.4333 10.6064 13.4333 12.0902Z" stroke="currentColor" stroke-width="1.34333" stroke-linejoin="round"/></svg>