<svg viewBox="0 0 48 48" fill="none"><path d="M42.315 32.2394V40.2994C42.315 41.4123 41.4128 42.3144 40.3 42.3144H8.05998C6.94713 42.3144 6.04498 41.4123 6.04498 40.2994V36.2694M42.315 32.2394V8.05943C42.315 6.94658 41.4128 6.04443 40.3 6.04443H8.05998C6.94713 6.04443 6.04498 6.94658 6.04498 8.05943V36.2694M42.315 32.2394L31.1979 24.8281C30.5963 24.427 29.8258 24.379 29.1791 24.7024L6.04498 36.2694M20.15 18.1355C20.15 20.3612 18.3457 22.1655 16.12 22.1655C13.8943 22.1655 12.09 20.3612 12.09 18.1355C12.09 15.9098 13.8943 14.1055 16.12 14.1055C18.3457 14.1055 20.15 15.9098 20.15 18.1355Z" stroke="currentColor" stroke-width="2.015" stroke-linejoin="round"/></svg>