<svg width="8" height="8" viewBox="0 0 8 8" fill="none"><g clip-path="url(#a)"><path d="M7 5.33333V6.66667C7 6.85076 6.85076 7 6.66667 7H1.33333C1.14924 7 1 6.85076 1 6.66667V6M7 5.33333V1.33333C7 1.14924 6.85076 1 6.66667 1H1.33333C1.14924 1 1 1.14924 1 1.33333V6M7 5.33333L5.16095 4.1073C5.06142 4.04095 4.93397 4.03301 4.82698 4.08651L1 6M3.33333 2.99992C3.33333 3.36811 3.03486 3.66659 2.66667 3.66659C2.29848 3.66659 2 3.36811 2 2.99992C2 2.63173 2.29848 2.33325 2.66667 2.33325C3.03486 2.33325 3.33333 2.63173 3.33333 2.99992Z" stroke="currentColor" stroke-width="0.333333" stroke-linejoin="round"/></g><defs><clipPath id="a"><rect width="8" height="8" fill="currentColor"/></clipPath></defs></svg>