<svg width="24" height="24" viewBox="0 0 24 24" fill="none"><path d="M21.1575 16.1197V20.1497C21.1575 20.7061 20.7064 21.1572 20.15 21.1572H4.02999C3.47356 21.1572 3.02249 20.7061 3.02249 20.1497V18.1347M21.1575 16.1197V4.02972C21.1575 3.47329 20.7064 3.02222 20.15 3.02222H4.02999C3.47356 3.02222 3.02249 3.47329 3.02249 4.02972V18.1347M21.1575 16.1197L15.599 12.414C15.2981 12.2135 14.9129 12.1895 14.5895 12.3512L3.02249 18.1347M10.075 9.06749C10.075 10.1803 9.17287 11.0825 8.06001 11.0825C6.94716 11.0825 6.04501 10.1803 6.04501 9.06749C6.04501 7.95464 6.94716 7.05249 8.06001 7.05249C9.17287 7.05249 10.075 7.95464 10.075 9.06749Z" stroke="currentColor" stroke-width="1.0075" stroke-linejoin="round"/></svg>