<svg width="16" height="16" viewBox="0 0 16 16" fill="none"><path d="M14.105 10.7468V13.4335C14.105 13.8044 13.8043 14.1051 13.4333 14.1051H2.68665C2.3157 14.1051 2.01498 13.8044 2.01498 13.4335V12.0901M14.105 10.7468V2.6868C14.105 2.31585 13.8043 2.01514 13.4333 2.01514H2.68665C2.3157 2.01514 2.01498 2.31585 2.01498 2.6868V12.0901M14.105 10.7468L10.3993 8.27635C10.1988 8.14265 9.94194 8.12666 9.72635 8.23445L2.01498 12.0901M6.71667 6.04524C6.71667 6.78714 6.11523 7.38857 5.37333 7.38857C4.63143 7.38857 4.03 6.78714 4.03 6.04524C4.03 5.30334 4.63143 4.7019 5.37333 4.7019C6.11523 4.7019 6.71667 5.30334 6.71667 6.04524Z" stroke="currentColor" stroke-width="0.671667" stroke-linejoin="round"/></svg>