<svg viewBox="0 0 16 16" fill="none"><path d="M5.37332 12.4258V8.39582M5.37332 12.4258C5.37332 13.1677 4.77189 13.7692 4.02998 13.7692H3.35832C2.61642 13.7692 2.01498 13.1677 2.01498 12.4258V8.39582C2.01498 7.65392 2.61641 7.05249 3.35832 7.05249H4.02998C4.77189 7.05249 5.37332 7.65392 5.37332 8.39582M5.37332 12.4258L6.53754 13.299C6.65381 13.3862 6.79521 13.4333 6.94054 13.4333H11.4867C11.8704 13.4333 12.2358 13.2693 12.4908 12.9825L14.4373 10.7926C14.6559 10.5467 14.7767 10.2291 14.7767 9.9001V7.72417C14.7767 7.35322 14.4759 7.0525 14.105 7.0525H10.075C10.7467 5.37333 10.7467 4.70167 10.7467 3.35833C10.7467 2.015 8.73165 2.015 8.73165 3.35833C8.73165 6.71667 6.04498 8.39582 5.37332 8.39582" stroke="currentColor" stroke-width="0.671667" stroke-linecap="round" stroke-linejoin="round"/></svg>