<svg width="12" height="12" viewBox="0 0 12 12" fill="none"><path d="M4 9.25024V6.25024M4 9.25024C4 9.80253 3.55228 10.2502 3 10.2502H2.5C1.94772 10.2502 1.5 9.80253 1.5 9.25024V6.25024C1.5 5.69796 1.94772 5.25024 2.5 5.25024H3C3.55228 5.25024 4 5.69796 4 6.25024M4 9.25024L4.86667 9.90025C4.95321 9.96516 5.05848 10.0003 5.16667 10.0003H8.55093C8.83657 10.0003 9.10858 9.8781 9.29834 9.66462L10.7474 8.03441C10.9101 7.85136 11 7.61496 11 7.37005V5.75025C11 5.47411 10.7761 5.25025 10.5 5.25025H7.5C8 4.00025 8 3.50025 8 2.50025C8 1.50024 6.5 1.50024 6.5 2.50025C6.5 5.00025 4.5 6.25024 4 6.25024" stroke="currentColor" stroke-width="0.5" stroke-linecap="round" stroke-linejoin="round"/></svg>