<svg width="32" height="32" viewBox="0 0 32 32" fill="none"><path d="M19.9195 18.0216L25.6188 12.3223C25.6188 12.3223 27.5185 10.4225 24.6689 7.57289C21.8193 4.72326 19.9195 6.62301 19.9195 6.62301L14.2202 12.3223M22.2941 19.4464L26.0936 20.3963M20.8694 20.8712L23.7191 23.7208M19.4446 22.296L20.3945 26.0955M9.94563 12.7966L6.14611 11.8468M11.3706 11.3738L8.52094 8.52416M12.7955 9.94639L11.8456 6.14687M12.3205 14.2215L6.62126 19.9208C6.62126 19.9208 4.7215 21.8205 7.57114 24.6702C10.4208 27.5198 12.3205 25.62 12.3205 25.62L18.0198 19.9208" stroke="currentColor" stroke-width="1.34333" stroke-linecap="round" stroke-linejoin="round"/></svg>