<svg width="16" height="16" viewBox="0 0 16 16" fill="none"><path d="M9.95976 9.01091L12.8094 6.16127C12.8094 6.16127 13.7593 5.21138 12.3345 3.78657C10.9096 2.36175 9.95976 3.31163 9.95976 3.31163L7.11012 6.16126M11.1471 9.72341L13.0468 10.1983M10.4347 10.4358L11.8595 11.8606M9.72231 11.1484L10.1972 13.0481M4.97283 6.3982L3.07307 5.92326M5.6853 5.68678L4.26048 4.26196M6.39774 4.97324L5.9228 3.07348M6.16028 7.1107L3.31064 9.96034C3.31064 9.96034 2.36076 10.9102 3.78558 12.335C5.2104 13.7599 6.16028 12.81 6.16028 12.81L9.00992 9.96034" stroke="currentColor" stroke-width="0.671667" stroke-linecap="round" stroke-linejoin="round"/></svg>