<svg width="12" height="12" viewBox="0 0 12 12" fill="none"><path d="M7.4142 6.70864L9.53552 4.58732C9.53552 4.58732 10.2426 3.88021 9.18197 2.81955C8.12131 1.7589 7.4142 2.466 7.4142 2.466L5.29288 4.58732M8.29813 7.2384L9.71234 7.59195M7.76777 7.76878L8.82843 8.82944M7.23742 8.29942L7.59098 9.71363M3.70184 4.76412L2.28763 4.41056M4.2322 4.23411L3.17154 3.17345M4.76255 3.7031L4.409 2.28889M4.5858 5.29388L2.46448 7.4152C2.46448 7.4152 1.75737 8.12231 2.81804 9.18297C3.8787 10.2436 4.5858 9.53653 4.5858 9.53653L6.70712 7.41521" stroke="currentColor" stroke-width="0.5" stroke-linecap="round" stroke-linejoin="round"/></svg>