<svg viewBox="0 0 32 32" fill="none"><path d="M21.4933 13.433V8.73138C21.4933 6.87662 22.9969 5.37305 24.8517 5.37305C26.7064 5.37305 28.21 6.87662 28.21 8.73138V13.433M8.06001 14.7767V25.5233C8.06001 26.2653 8.66144 26.8667 9.40335 26.8667H22.8367C23.5786 26.8667 24.18 26.2653 24.18 25.5233V14.7767C24.18 14.0348 23.5786 13.4333 22.8367 13.4333H9.40335C8.66144 13.4333 8.06001 14.0348 8.06001 14.7767ZM18.8067 20.1505C18.8067 21.6343 17.6038 22.8372 16.12 22.8372C14.6362 22.8372 13.4333 21.6343 13.4333 20.1505C13.4333 18.6667 14.6362 17.4639 16.12 17.4639C17.6038 17.4639 18.8067 18.6667 18.8067 20.1505Z" stroke="currentColor" stroke-width="1.34333" stroke-linecap="round" stroke-linejoin="round"/></svg>