<svg width="32" height="32" viewBox="0 0 32 32" fill="none"><path d="M8.06001 25.5233V14.7767C8.06001 14.0348 8.66144 13.4333 9.40335 13.4333H22.8367C23.5786 13.4333 24.18 14.0348 24.18 14.7767V25.5233C24.18 26.2653 23.5786 26.8667 22.8367 26.8667H9.40335C8.66144 26.8667 8.06001 26.2653 8.06001 25.5233Z" stroke="currentColor" stroke-width="1.34333" stroke-linejoin="round"/><path d="M18.8067 20.1505C18.8067 21.6343 17.6038 22.8372 16.12 22.8372C14.6362 22.8372 13.4333 21.6343 13.4333 20.1505C13.4333 18.6667 14.6362 17.4639 16.12 17.4639C17.6038 17.4639 18.8067 18.6667 18.8067 20.1505Z" stroke="currentColor" stroke-width="1.34333" stroke-linejoin="round"/><path d="M10.7467 13.433V10.7464C10.7467 7.77877 13.1524 5.37305 16.12 5.37305C19.0876 5.37305 21.4933 7.77877 21.4933 10.7464V13.433H10.7467Z" stroke="currentColor" stroke-width="1.34333" stroke-linejoin="round"/></svg>