<svg viewBox="0 0 12 12" fill="none"><path d="M7.99998 4.99976V3.24976C7.99998 2.5594 8.55963 1.99976 9.24998 1.99976C9.94034 1.99976 10.5 2.5594 10.5 3.24976V4.99976M3.00001 5.49976V9.49976C3.00001 9.7759 3.22387 9.99976 3.50001 9.99976H8.50001C8.77615 9.99976 9.00001 9.7759 9.00001 9.49976V5.49976C9.00001 5.22361 8.77615 4.99976 8.50001 4.99976H3.50001C3.22387 4.99976 3.00001 5.22361 3.00001 5.49976ZM6.99999 7.5C6.99999 8.05228 6.55228 8.5 5.99999 8.5C5.44771 8.5 4.99999 8.05228 4.99999 7.5C4.99999 6.94772 5.44771 6.5 5.99999 6.5C6.55228 6.5 6.99999 6.94772 6.99999 7.5Z" stroke="currentColor" stroke-width="0.5" stroke-linecap="round" stroke-linejoin="round"/></svg>