<svg width="8" height="8" viewBox="0 0 8 8" fill="none"><path d="M5.33334 3.33325V2.16659C5.33334 1.70635 5.70643 1.33325 6.16667 1.33325C6.62691 1.33325 7 1.70635 7 2.16659V3.33325M2 3.66659V6.33325C2 6.51735 2.14924 6.66658 2.33333 6.66658H5.66667C5.85076 6.66658 6 6.51735 6 6.33325V3.66658C6 3.48249 5.85076 3.33325 5.66667 3.33325H2.33333C2.14924 3.33325 2 3.48249 2 3.66659ZM4.66667 4.99992C4.66667 5.36811 4.36819 5.66659 4 5.66659C3.63181 5.66659 3.33334 5.36811 3.33334 4.99992C3.33334 4.63173 3.63181 4.33325 4 4.33325C4.36819 4.33325 4.66667 4.63173 4.66667 4.99992Z" stroke="currentColor" stroke-width="0.333333" stroke-linecap="round" stroke-linejoin="round"/></svg>