<svg viewBox="0 0 48 48" fill="none"><path d="M12.09 38.2847V22.1647C12.09 21.0518 12.9922 20.1497 14.105 20.1497H34.255C35.3679 20.1497 36.27 21.0518 36.27 22.1647V38.2847C36.27 39.3975 35.3679 40.2997 34.255 40.2997H14.105C12.9922 40.2997 12.09 39.3975 12.09 38.2847Z" stroke="currentColor" stroke-width="2.015" stroke-linejoin="round"/><path d="M28.21 30.2258C28.21 32.4515 26.4057 34.2558 24.18 34.2558C21.9543 34.2558 20.15 32.4515 20.15 30.2258C20.15 28.0001 21.9543 26.1958 24.18 26.1958C26.4057 26.1958 28.21 28.0001 28.21 30.2258Z" stroke="currentColor" stroke-width="2.015" stroke-linejoin="round"/><path d="M16.12 20.1496V16.1196C16.12 11.6682 19.7286 8.05957 24.18 8.05957C28.6314 8.05957 32.24 11.6682 32.24 16.1196V20.1496H16.12Z" stroke="currentColor" stroke-width="2.015" stroke-linejoin="round"/></svg>