<svg width="8" height="8" viewBox="0 0 8 8" fill="none"><path d="M2 6.33325V3.66659C2 3.48249 2.14924 3.33325 2.33333 3.33325H5.66667C5.85076 3.33325 6 3.48249 6 3.66658V6.33325C6 6.51735 5.85076 6.66658 5.66667 6.66658H2.33333C2.14924 6.66658 2 6.51735 2 6.33325Z" stroke="currentColor" stroke-width="0.333333" stroke-linejoin="round"/><path d="M4.66667 4.99992C4.66667 5.36811 4.36819 5.66659 4 5.66659C3.63181 5.66659 3.33334 5.36811 3.33334 4.99992C3.33334 4.63173 3.63181 4.33325 4 4.33325C4.36819 4.33325 4.66667 4.63173 4.66667 4.99992Z" stroke="currentColor" stroke-width="0.333333" stroke-linejoin="round"/><path d="M2.66666 3.33325V2.66659C2.66666 1.93021 3.26362 1.33325 4 1.33325C4.73638 1.33325 5.33333 1.93021 5.33333 2.66659V3.33325H2.66666Z" stroke="currentColor" stroke-width="0.333333" stroke-linejoin="round"/></svg>