<svg viewBox="0 0 24 24" fill="none"><path d="M8.06 12.0902C8.06 13.203 7.15785 14.1052 6.045 14.1052C4.93214 14.1052 4.03 13.203 4.03 12.0902C4.03 10.9773 4.93214 10.0752 6.045 10.0752C7.15785 10.0752 8.06 10.9773 8.06 12.0902Z" stroke="currentColor" stroke-width="1.0075" stroke-linejoin="round"/><path d="M14.105 12.0902C14.105 13.203 13.2028 14.1052 12.09 14.1052C10.9771 14.1052 10.075 13.203 10.075 12.0902C10.075 10.9773 10.9771 10.0752 12.09 10.0752C13.2028 10.0752 14.105 10.9773 14.105 12.0902Z" stroke="currentColor" stroke-width="1.0075" stroke-linejoin="round"/><path d="M20.15 12.0902C20.15 13.203 19.2478 14.1052 18.135 14.1052C17.0221 14.1052 16.12 13.203 16.12 12.0902C16.12 10.9773 17.0221 10.0752 18.135 10.0752C19.2478 10.0752 20.15 10.9773 20.15 12.0902Z" stroke="currentColor" stroke-width="1.0075" stroke-linejoin="round"/></svg>