<svg width="16" height="16" viewBox="0 0 16 16" fill="none"><path d="M5.03748 8.06044C5.03748 8.24592 4.88712 8.39628 4.70165 8.39628C4.51617 8.39628 4.36581 8.24592 4.36581 8.06044C4.36581 7.87497 4.51617 7.72461 4.70165 7.72461C4.88712 7.72461 5.03748 7.87497 5.03748 8.06044Z" stroke="currentColor" stroke-width="0.671667" stroke-linecap="round" stroke-linejoin="round"/><path d="M8.39582 8.06044C8.39582 8.24592 8.24546 8.39628 8.05998 8.39628C7.87451 8.39628 7.72415 8.24592 7.72415 8.06044C7.72415 7.87497 7.87451 7.72461 8.05998 7.72461C8.24546 7.72461 8.39582 7.87497 8.39582 8.06044Z" stroke="currentColor" stroke-width="0.671667" stroke-linecap="round" stroke-linejoin="round"/><path d="M11.7542 8.06044C11.7542 8.24592 11.6038 8.39628 11.4183 8.39628C11.2328 8.39628 11.0825 8.24592 11.0825 8.06044C11.0825 7.87497 11.2328 7.72461 11.4183 7.72461C11.6038 7.72461 11.7542 7.87497 11.7542 8.06044Z" stroke="currentColor" stroke-width="0.671667" stroke-linecap="round" stroke-linejoin="round"/></svg>