<svg viewBox="0 0 24 24" fill="none"><path d="M12.09 7.55633C11.8118 7.55633 11.5863 7.33079 11.5863 7.05258C11.5863 6.77436 11.8118 6.54883 12.09 6.54883C12.3682 6.54883 12.5938 6.77436 12.5938 7.05258C12.5938 7.33079 12.3682 7.55633 12.09 7.55633Z" stroke="currentColor" stroke-width="1.0075" stroke-linecap="round" stroke-linejoin="round"/><path d="M12.09 12.5934C11.8118 12.5934 11.5863 12.3679 11.5863 12.0897C11.5863 11.8115 11.8118 11.5859 12.09 11.5859C12.3682 11.5859 12.5938 11.8115 12.5938 12.0897C12.5938 12.3679 12.3682 12.5934 12.09 12.5934Z" stroke="currentColor" stroke-width="1.0075" stroke-linecap="round" stroke-linejoin="round"/><path d="M12.09 17.6315C11.8118 17.6315 11.5863 17.406 11.5863 17.1278C11.5863 16.8496 11.8118 16.624 12.09 16.624C12.3682 16.624 12.5938 16.8496 12.5938 17.1278C12.5938 17.406 12.3682 17.6315 12.09 17.6315Z" stroke="currentColor" stroke-width="1.0075" stroke-linecap="round" stroke-linejoin="round"/></svg>