<svg viewBox="0 0 8 8" fill="none"><path d="M2.50001 3.99967C2.50001 4.09172 2.42539 4.16634 2.33334 4.16634C2.24129 4.16634 2.16667 4.09172 2.16667 3.99967C2.16667 3.90763 2.24129 3.83301 2.33334 3.83301C2.42539 3.83301 2.50001 3.90763 2.50001 3.99967Z" stroke="currentColor" stroke-width="0.333333" stroke-linecap="round" stroke-linejoin="round"/><path d="M4.16667 3.99967C4.16667 4.09172 4.09205 4.16634 4 4.16634C3.90796 4.16634 3.83334 4.09172 3.83334 3.99967C3.83334 3.90763 3.90796 3.83301 4 3.83301C4.09205 3.83301 4.16667 3.90763 4.16667 3.99967Z" stroke="currentColor" stroke-width="0.333333" stroke-linecap="round" stroke-linejoin="round"/><path d="M5.83333 3.99967C5.83333 4.09172 5.75871 4.16634 5.66667 4.16634C5.57462 4.16634 5.5 4.09172 5.5 3.99967C5.5 3.90763 5.57462 3.83301 5.66667 3.83301C5.75871 3.83301 5.83333 3.90763 5.83333 3.99967Z" stroke="currentColor" stroke-width="0.333333" stroke-linecap="round" stroke-linejoin="round"/></svg>