<svg width="8" height="8" viewBox="0 0 8 8" fill="none"><path d="M4 2.50033C3.90796 2.50033 3.83334 2.42571 3.83334 2.33366C3.83334 2.24161 3.90796 2.16699 4 2.16699C4.09205 2.16699 4.16667 2.24161 4.16667 2.33366C4.16667 2.42571 4.09205 2.50033 4 2.50033Z" stroke="currentColor" stroke-width="0.333333" stroke-linecap="round" stroke-linejoin="round"/><path d="M3.99999 4.16732C3.90795 4.16732 3.83333 4.0927 3.83333 4.00065C3.83333 3.9086 3.90795 3.83398 3.99999 3.83398C4.09204 3.83398 4.16666 3.9086 4.16666 4.00065C4.16666 4.0927 4.09204 4.16732 3.99999 4.16732Z" stroke="currentColor" stroke-width="0.333333" stroke-linecap="round" stroke-linejoin="round"/><path d="M3.99999 5.83382C3.90795 5.83382 3.83333 5.7592 3.83333 5.66716C3.83333 5.57511 3.90795 5.50049 3.99999 5.50049C4.09204 5.50049 4.16666 5.57511 4.16666 5.66716C4.16666 5.7592 4.09204 5.83382 3.99999 5.83382Z" stroke="currentColor" stroke-width="0.333333" stroke-linecap="round" stroke-linejoin="round"/></svg>