<svg width="32" height="32" viewBox="0 0 32 32" fill="none"><path d="M10.7467 16.1203C10.7467 17.6041 9.54382 18.8069 8.06002 18.8069C6.57621 18.8069 5.37335 17.6041 5.37335 16.1203C5.37335 14.6365 6.57621 13.4336 8.06002 13.4336C9.54382 13.4336 10.7467 14.6365 10.7467 16.1203Z" stroke="currentColor" stroke-width="1.34333" stroke-linejoin="round"/><path d="M18.8067 16.1203C18.8067 17.6041 17.6038 18.8069 16.12 18.8069C14.6362 18.8069 13.4333 17.6041 13.4333 16.1203C13.4333 14.6365 14.6362 13.4336 16.12 13.4336C17.6038 13.4336 18.8067 14.6365 18.8067 16.1203Z" stroke="currentColor" stroke-width="1.34333" stroke-linejoin="round"/><path d="M26.8666 16.1203C26.8666 17.6041 25.6638 18.8069 24.18 18.8069C22.6962 18.8069 21.4933 17.6041 21.4933 16.1203C21.4933 14.6365 22.6962 13.4336 24.18 13.4336C25.6638 13.4336 26.8666 14.6365 26.8666 16.1203Z" stroke="currentColor" stroke-width="1.34333" stroke-linejoin="round"/></svg>