<svg width="48" height="48" viewBox="0 0 48 48" fill="none"><path d="M15.1125 24.1808C15.1125 24.7373 14.6614 25.1883 14.105 25.1883C13.5485 25.1883 13.0975 24.7373 13.0975 24.1808C13.0975 23.6244 13.5485 23.1733 14.105 23.1733C14.6614 23.1733 15.1125 23.6244 15.1125 24.1808Z" stroke="currentColor" stroke-width="2.015" stroke-linecap="round" stroke-linejoin="round"/><path d="M25.1875 24.1808C25.1875 24.7373 24.7364 25.1883 24.18 25.1883C23.6235 25.1883 23.1725 24.7373 23.1725 24.1808C23.1725 23.6244 23.6235 23.1733 24.18 23.1733C24.7364 23.1733 25.1875 23.6244 25.1875 24.1808Z" stroke="currentColor" stroke-width="2.015" stroke-linecap="round" stroke-linejoin="round"/><path d="M35.2625 24.1808C35.2625 24.7373 34.8114 25.1883 34.255 25.1883C33.6986 25.1883 33.2475 24.7373 33.2475 24.1808C33.2475 23.6244 33.6986 23.1733 34.255 23.1733C34.8114 23.1733 35.2625 23.6244 35.2625 24.1808Z" stroke="currentColor" stroke-width="2.015" stroke-linecap="round" stroke-linejoin="round"/></svg>