<svg width="12" height="12" viewBox="0 0 12 12" fill="none"><path d="M3.74999 6.00049C3.74999 6.13856 3.63806 6.25049 3.49999 6.25049C3.36192 6.25049 3.24999 6.13856 3.24999 6.00049C3.24999 5.86242 3.36192 5.75049 3.49999 5.75049C3.63806 5.75049 3.74999 5.86242 3.74999 6.00049Z" stroke="currentColor" stroke-width="0.5" stroke-linecap="round" stroke-linejoin="round"/><path d="M6.24998 6.00049C6.24998 6.13856 6.13806 6.25049 5.99998 6.25049C5.86191 6.25049 5.74998 6.13856 5.74998 6.00049C5.74998 5.86242 5.86191 5.75049 5.99998 5.75049C6.13806 5.75049 6.24998 5.86242 6.24998 6.00049Z" stroke="currentColor" stroke-width="0.5" stroke-linecap="round" stroke-linejoin="round"/><path d="M8.75 6.00049C8.75 6.13856 8.63807 6.25049 8.5 6.25049C8.36193 6.25049 8.25 6.13856 8.25 6.00049C8.25 5.86242 8.36193 5.75049 8.5 5.75049C8.63807 5.75049 8.75 5.86242 8.75 6.00049Z" stroke="currentColor" stroke-width="0.5" stroke-linecap="round" stroke-linejoin="round"/></svg>