<svg viewBox="0 0 16 16" fill="none"><path d="M8.06002 5.03788C7.87454 5.03788 7.72418 4.88752 7.72418 4.70204C7.72418 4.51657 7.87454 4.36621 8.06002 4.36621C8.24549 4.36621 8.39585 4.51657 8.39585 4.70204C8.39585 4.88752 8.24549 5.03788 8.06002 5.03788Z" stroke="currentColor" stroke-width="0.671667" stroke-linecap="round" stroke-linejoin="round"/><path d="M8.06002 8.39628C7.87454 8.39628 7.72418 8.24592 7.72418 8.06044C7.72418 7.87497 7.87454 7.72461 8.06002 7.72461C8.24549 7.72461 8.39585 7.87497 8.39585 8.06044C8.39585 8.24592 8.24549 8.39628 8.06002 8.39628Z" stroke="currentColor" stroke-width="0.671667" stroke-linecap="round" stroke-linejoin="round"/><path d="M8.06002 11.7547C7.87454 11.7547 7.72418 11.6043 7.72418 11.4188C7.72418 11.2334 7.87454 11.083 8.06002 11.083C8.24549 11.083 8.39585 11.2334 8.39585 11.4188C8.39585 11.6043 8.24549 11.7547 8.06002 11.7547Z" stroke="currentColor" stroke-width="0.671667" stroke-linecap="round" stroke-linejoin="round"/></svg>