<svg viewBox="0 0 8 8" fill="none"><path d="M3 6.6668C3 7.03499 2.55228 7.33347 2 7.33347C1.44772 7.33347 1 7.03499 1 6.6668C1 6.29861 1.44772 6.00014 2 6.00014C2.55228 6.00014 3 6.29861 3 6.6668ZM3 6.6668V3.33347M6.66667 6.00014V2.00014M6.66667 6.00014C6.66667 6.36833 6.21895 6.66713 5.66666 6.66713C5.11438 6.66713 4.66666 6.36865 4.66666 6.00046C4.66666 5.63227 5.11438 5.3338 5.66666 5.3338C6.21895 5.3338 6.66667 5.63195 6.66667 6.00014ZM6.66667 2.00014V1.1427C6.66667 0.911383 6.43681 0.750387 6.21942 0.82944L3.21942 1.92035C3.08769 1.96825 3 2.09344 3 2.23361V3.33347M6.66667 2.00014L3 3.33347" stroke="currentColor" stroke-width="0.333333" stroke-linejoin="round"/></svg>