<svg viewBox="0 0 16 16" fill="none"><path d="M6.04498 13.4327C6.04498 14.1746 5.14284 14.776 4.02998 14.776C2.91713 14.776 2.01498 14.1746 2.01498 13.4327C2.01498 12.6908 2.91713 12.0894 4.02998 12.0894C5.14284 12.0894 6.04498 12.6908 6.04498 13.4327ZM6.04498 13.4327V6.71604M13.4333 12.0894V4.02937M13.4333 12.0894C13.4333 12.8313 12.5312 13.4327 11.4183 13.4327C10.3055 13.4327 9.40332 12.8313 9.40332 12.0894C9.40332 11.3475 10.3055 10.746 11.4183 10.746C12.5312 10.746 13.4333 11.3475 13.4333 12.0894ZM13.4333 4.02937V2.30164C13.4333 1.83553 12.9702 1.51112 12.5321 1.67042L6.48711 3.8686C6.22168 3.96512 6.04498 4.21739 6.04498 4.49983V6.71604M13.4333 4.02937L6.04498 6.71604" stroke="currentColor" stroke-width="0.671667" stroke-linejoin="round"/></svg>