<svg width="24" height="24" viewBox="0 0 24 24" fill="none"><path d="M12.09 5.0376C7.05251 5.0376 6.04501 9.0676 6.04501 11.0826V15.1126M12.09 5.0376C13.6741 5.0376 14.8596 5.43608 15.7407 6.0451M12.09 5.0376L12.09 3.02246M9.57126 19.1426C9.57126 21.1576 10.5788 22.1651 12.09 22.1651C13.6013 22.1651 14.6088 21.1576 14.6088 19.1426M9.57126 19.1426H14.6088M9.57126 19.1426H7.55626M14.6088 19.1426H18.5198C19.2688 19.1426 19.7559 18.3544 19.421 17.6845L18.135 15.1126V11.0826C18.135 10.4534 18.0368 9.62771 17.7483 8.7896M21.1575 3.02246L3.02249 21.1575" stroke="currentColor" stroke-width="1.0075" stroke-linecap="round" stroke-linejoin="round"/></svg>