<svg width="8" height="8" viewBox="0 0 8 8" fill="none"><g clip-path="url(#a)"><path d="M4 1.6665C2.33333 1.6665 2 2.99984 2 3.6665V4.99984M4 1.6665C4.52409 1.6665 4.91633 1.79834 5.20783 1.99984M4 1.6665V1M3.16667 6.33317C3.16667 6.99984 3.5 7.33317 4 7.33317C4.5 7.33317 4.83333 6.99984 4.83333 6.33317M3.16667 6.33317H4.83333M3.16667 6.33317H2.5M4.83333 6.33317H6.12732C6.37512 6.33317 6.53628 6.0724 6.42546 5.85077L6 4.99984V3.6665C6 3.45833 5.9675 3.18515 5.87205 2.90786M7 1L1 7" stroke="currentColor" stroke-width="0.333333" stroke-linecap="round" stroke-linejoin="round"/></g><defs><clipPath id="a"><rect width="8" height="8" fill="currentColor"/></clipPath></defs></svg>