<svg width="12" height="12" viewBox="0 0 12 12" fill="none"><path d="M6.00001 2.5C3.50001 2.5 3.00001 4.5 3.00001 5.5V7.02821C3.00001 7.3387 2.92772 7.64458 2.78887 7.92229L2.36181 8.77639C2.19559 9.10884 2.43689 9.5 2.80858 9.5H4.75001M6.00001 2.5C8.50001 2.5 9.00001 4.5 9.00001 5.5V7.02821C9.00001 7.3387 9.0723 7.64458 9.21116 7.92229L9.63821 8.77639C9.80443 9.10884 9.56269 9.5 9.19099 9.5H7.25001M6.00001 2.5V1.5M4.75001 9.5C4.75001 10.5 5.25001 11 6.00001 11C6.75001 11 7.25001 10.5 7.25001 9.5M4.75001 9.5H7.25001" stroke="currentColor" stroke-width="0.5" stroke-linecap="round" stroke-linejoin="round"/></svg>