<svg width="32" height="32" viewBox="0 0 32 32" fill="none"><path d="M16.12 6.71631C9.40335 6.71631 8.06001 12.0896 8.06001 14.7763V20.1496M16.12 6.71631C18.2321 6.71631 19.8128 7.24762 20.9876 8.05964M16.12 6.71631L16.12 4.0293M12.7617 25.523C12.7617 28.2096 14.105 29.553 16.12 29.553C18.135 29.553 19.4783 28.2096 19.4783 25.523M12.7617 25.523H19.4783M12.7617 25.523H10.075M19.4783 25.523H24.6931C25.6917 25.523 26.3412 24.4721 25.8946 23.5789L24.18 20.1496V14.7763C24.18 13.9374 24.049 12.8365 23.6644 11.719M28.21 4.02979L4.02998 28.2098" stroke="currentColor" stroke-width="1.34333" stroke-linecap="round" stroke-linejoin="round"/></svg>