<svg viewBox="0 0 48 48" fill="none"><path d="M17.1275 36.2703H19.1425C20.2554 36.2703 21.1575 35.3682 21.1575 34.2553V14.1053C21.1575 12.9925 20.2554 12.0903 19.1425 12.0903H17.1275C16.0147 12.0903 15.1125 12.9925 15.1125 14.1053V34.2553C15.1125 35.3682 16.0147 36.2703 17.1275 36.2703Z" stroke="currentColor" stroke-width="2.015" stroke-linecap="round" stroke-linejoin="round"/><path d="M29.2175 36.2703H31.2325C32.3454 36.2703 33.2475 35.3682 33.2475 34.2553V14.1053C33.2475 12.9925 32.3454 12.0903 31.2325 12.0903H29.2175C28.1047 12.0903 27.2025 12.9925 27.2025 14.1053V34.2553C27.2025 35.3682 28.1047 36.2703 29.2175 36.2703Z" stroke="currentColor" stroke-width="2.015" stroke-linecap="round" stroke-linejoin="round"/></svg>