<svg viewBox="0 0 16 16" fill="none"><path d="M5.70917 12.0903H6.38084C6.75179 12.0903 7.05251 11.7896 7.05251 11.4186V4.70194C7.05251 4.33099 6.75179 4.03027 6.38084 4.03027H5.70917C5.33822 4.03027 5.03751 4.33099 5.03751 4.70194V11.4186C5.03751 11.7896 5.33822 12.0903 5.70917 12.0903Z" stroke="currentColor" stroke-width="0.671667" stroke-linecap="round" stroke-linejoin="round"/><path d="M9.73919 12.0903H10.4109C10.7818 12.0903 11.0825 11.7896 11.0825 11.4186V4.70194C11.0825 4.33099 10.7818 4.03027 10.4109 4.03027H9.73919C9.36824 4.03027 9.06752 4.33099 9.06752 4.70194V11.4186C9.06752 11.7896 9.36824 12.0903 9.73919 12.0903Z" stroke="currentColor" stroke-width="0.671667" stroke-linecap="round" stroke-linejoin="round"/></svg>