<svg width="32" height="32" viewBox="0 0 32 32" fill="none"><path d="M11.4183 24.1796H12.7617C13.5036 24.1796 14.105 23.5781 14.105 22.8362V9.4029C14.105 8.661 13.5036 8.05957 12.7617 8.05957H11.4183C10.6764 8.05957 10.075 8.661 10.075 9.4029V22.8362C10.075 23.5781 10.6764 24.1796 11.4183 24.1796Z" stroke="currentColor" stroke-width="1.34333" stroke-linecap="round" stroke-linejoin="round"/><path d="M19.4784 24.1796H20.8217C21.5636 24.1796 22.165 23.5781 22.165 22.8362V9.4029C22.165 8.661 21.5636 8.05957 20.8217 8.05957H19.4784C18.7365 8.05957 18.135 8.661 18.135 9.4029V22.8362C18.135 23.5781 18.7365 24.1796 19.4784 24.1796Z" stroke="currentColor" stroke-width="1.34333" stroke-linecap="round" stroke-linejoin="round"/></svg>