<svg viewBox="0 0 24 24" fill="none"><path d="M8.56374 18.1349H9.57124C10.1277 18.1349 10.5787 17.6839 10.5787 17.1274V7.05242C10.5787 6.49599 10.1277 6.04492 9.57124 6.04492H8.56374C8.00732 6.04492 7.55624 6.49599 7.55624 7.05242V17.1274C7.55624 17.6839 8.00732 18.1349 8.56374 18.1349Z" stroke="currentColor" stroke-width="1.0075" stroke-linecap="round" stroke-linejoin="round"/><path d="M14.6088 18.1349H15.6163C16.1727 18.1349 16.6238 17.6839 16.6238 17.1274V7.05242C16.6238 6.49599 16.1727 6.04492 15.6163 6.04492H14.6088C14.0523 6.04492 13.6013 6.49599 13.6013 7.05242V17.1274C13.6013 17.6839 14.0523 18.1349 14.6088 18.1349Z" stroke="currentColor" stroke-width="1.0075" stroke-linecap="round" stroke-linejoin="round"/></svg>