<svg viewBox="0 0 32 32" fill="none"><path d="M25.5233 13.4338V1.34375M25.5233 1.34375L20.15 6.71708M25.5233 1.34375L30.8967 6.71708M9.42302 22.8584C5.18475 18.6202 1.81004 13.5184 2.70531 9.23249C3.44157 5.70775 5.31911 3.90832 6.919 2.89562C7.47104 2.54619 8.1876 2.72257 8.57824 3.24627L12.2777 8.20585C12.6766 8.74064 12.6225 9.48715 12.1508 9.95891L9.5183 12.5914C9.5183 12.5914 10.3501 15.1502 13.7407 18.5408C17.1313 21.9314 19.6901 22.7632 19.6901 22.7632L22.3226 20.1307C22.7943 19.659 23.5409 19.6049 24.0756 20.0038L29.0352 23.7032C29.5589 24.0939 29.7353 24.8104 29.3858 25.3625C28.3731 26.9624 26.5737 28.8399 23.049 29.5762C18.7631 30.4714 13.6613 27.0967 9.42302 22.8584Z" stroke="currentColor" stroke-width="1.34333" stroke-linecap="round" stroke-linejoin="round"/></svg>