<svg width="48" height="48" viewBox="0 0 48 48" fill="none"><path d="M4.05804 13.8457C2.71514 20.2745 7.7772 27.9272 14.1346 34.2846C20.492 40.642 28.1447 45.7041 34.5735 44.3612C39.8606 43.2568 42.5597 40.4405 44.0788 38.0406C44.603 37.2126 44.3384 36.1377 43.5528 35.5518L36.1135 30.0027C35.3113 29.4043 34.1916 29.4854 33.4839 30.193L29.5352 34.1417C29.5352 34.1417 25.697 32.894 20.6111 27.8081C15.5252 22.7222 14.2775 18.884 14.2775 18.884L18.2262 14.9353C18.9339 14.2277 19.0149 13.1079 18.4166 12.3057L12.8674 4.86634C12.2815 4.08079 11.2066 3.81621 10.3786 4.34037C7.97874 5.85942 5.16244 8.55857 4.05804 13.8457Z" stroke="currentColor" stroke-width="2.015" stroke-linecap="round" stroke-linejoin="round"/></svg>