<svg width="48" height="48" viewBox="0 0 48 48" fill="none"><path d="M38.285 20.1506V2.01562M38.285 2.01562L30.225 10.0756M38.285 2.01562L46.345 10.0756M14.1345 34.2876C7.7771 27.9302 2.71505 20.2776 4.05794 13.8487C5.16235 8.56163 7.97865 5.86249 10.3785 4.34343C11.2066 3.81928 12.2814 4.08386 12.8673 4.86941L18.4165 12.3088C19.0148 13.111 18.9338 14.2307 18.2261 14.9384L14.2774 18.8871C14.2774 18.8871 15.5251 22.7253 20.611 27.8112C25.6969 32.8971 29.5352 34.1448 29.5352 34.1448L33.4838 30.1961C34.1915 29.4885 35.3113 29.4074 36.1134 30.0058L43.5528 35.5548C44.3383 36.1408 44.6029 37.2156 44.0787 38.0437C42.5597 40.4435 39.8605 43.2598 34.5734 44.3642C28.1446 45.7071 20.4919 40.645 14.1345 34.2876Z" stroke="currentColor" stroke-width="2.015" stroke-linecap="round" stroke-linejoin="round"/></svg>