<svg width="16" height="16" viewBox="0 0 16 16" fill="none"><path d="M1.35268 4.61506C0.905052 6.75801 2.5924 9.30889 4.71154 11.428C6.83067 13.5472 9.38157 15.2345 11.5245 14.7869C13.2869 14.4188 14.1866 13.48 14.6929 12.68C14.8677 12.404 14.7795 12.0457 14.5176 11.8504L12.0378 10.0007C11.7705 9.80128 11.3972 9.8283 11.1613 10.0642L9.84509 11.3804C9.84509 11.3804 8.56566 10.9645 6.87036 9.26921C5.17506 7.57391 4.75918 6.2945 4.75918 6.2945L6.07541 4.97827C6.31129 4.74239 6.33831 4.36913 6.13886 4.10174L4.28915 1.62195C4.09383 1.3601 3.73555 1.27191 3.45953 1.44663C2.65958 1.95298 1.72082 2.85269 1.35268 4.61506Z" stroke="currentColor" stroke-width="0.671667" stroke-linecap="round" stroke-linejoin="round"/></svg>