<svg width="32" height="32" viewBox="0 0 32 32" fill="none"><path d="M2.70537 9.23061C1.8101 13.5165 5.18481 18.6183 9.42308 22.8565C13.6613 27.0948 18.7631 30.4695 23.049 29.5743C26.5738 28.838 28.3732 26.9605 29.3859 25.3606C29.7353 24.8085 29.5589 24.092 29.0352 23.7013L24.0757 20.002C23.5409 19.603 22.7944 19.6571 22.3226 20.1289L19.6902 22.7613C19.6902 22.7613 17.1313 21.9295 13.7407 18.5389C10.3501 15.1483 9.51836 12.5895 9.51836 12.5895L12.1508 9.95703C12.6226 9.48527 12.6766 8.73876 12.2777 8.20397L8.5783 3.24439C8.18766 2.72069 7.47111 2.54431 6.91906 2.89374C5.31917 3.90644 3.44164 5.70587 2.70537 9.23061Z" stroke="currentColor" stroke-width="1.34333" stroke-linecap="round" stroke-linejoin="round"/></svg>