<svg width="24" height="24" viewBox="0 0 24 24" fill="none"><path d="M19.1425 10.0753V1.00781M19.1425 1.00781L15.1125 5.03781M19.1425 1.00781L23.1725 5.03781M7.06725 17.1436C3.88855 13.9649 1.35752 10.1386 2.02897 6.92413C2.58117 4.28057 3.98932 2.931 5.18924 2.17147C5.60328 1.9094 6.14069 2.04168 6.43367 2.43446L9.20823 6.15415C9.50741 6.55523 9.46688 7.11512 9.11306 7.46894L7.13872 9.44329C7.13872 9.44329 7.76253 11.3624 10.3055 13.9053C12.8484 16.4483 14.7676 17.0721 14.7676 17.0721L16.7419 15.0978C17.0957 14.744 17.6556 14.7035 18.0567 15.0026L21.7764 17.7772C22.1692 18.0701 22.3014 18.6076 22.0394 19.0216C21.2798 20.2215 19.9303 21.6297 17.2867 22.1819C14.0723 22.8533 10.246 20.3223 7.06725 17.1436Z" stroke="currentColor" stroke-width="1.0075" stroke-linecap="round" stroke-linejoin="round"/></svg>