<svg width="8" height="8" viewBox="0 0 8 8" fill="none"><g clip-path="url(#a)"><path d="M6.33333 0.333008V3.33301M6.33333 3.33301L7.66667 1.99967M6.33333 3.33301L5 1.99967M2.33824 5.67108C1.28656 4.6194 0.449161 3.35346 0.671311 2.28996C0.854008 1.41534 1.3199 0.968827 1.71689 0.717535C1.85388 0.630827 2.03168 0.674594 2.12861 0.804544L3.04658 2.03521C3.14557 2.16791 3.13216 2.35315 3.0151 2.47021L2.36188 3.12343C2.36188 3.12343 2.56827 3.75837 3.40961 4.59971C4.25095 5.44105 4.8859 5.64745 4.8859 5.64745L5.53912 4.99424C5.65618 4.87717 5.84142 4.86377 5.97412 4.96275L7.20478 5.88071C7.33473 5.97764 7.3785 6.15545 7.29179 6.29243C7.04049 6.68943 6.59399 7.15532 5.71937 7.33801C4.65587 7.56016 3.38992 6.72276 2.33824 5.67108Z" stroke="currentColor" stroke-width="0.333333" stroke-linecap="round" stroke-linejoin="round"/></g><defs><clipPath id="a"><rect width="8" height="8" fill="currentColor"/></clipPath></defs></svg>