<svg width="24" height="24" viewBox="0 0 24 24" fill="none"><path d="M19.1425 1.00781L19.1425 10.0753M19.1425 10.0753L23.1725 6.04531M19.1425 10.0753L15.1125 6.04531M7.06732 17.1425C3.88861 13.9638 1.35759 10.1375 2.02903 6.92303C2.58123 4.27948 3.98938 2.92991 5.1893 2.17038C5.60334 1.9083 6.14075 2.04059 6.43373 2.43337L9.20829 6.15305C9.50747 6.55414 9.46694 7.11403 9.11312 7.46785L7.13878 9.44219C7.13878 9.44219 7.76259 11.3613 10.3055 13.9043C12.8485 16.4472 14.7676 17.0711 14.7676 17.0711L16.742 15.0967C17.0958 14.7429 17.6557 14.7024 18.0568 15.0015L21.7764 17.7761C22.1692 18.0691 22.3015 18.6065 22.0394 19.0205C21.2799 20.2204 19.9303 21.6286 17.2868 22.1808C14.0724 22.8522 10.246 20.3212 7.06732 17.1425Z" stroke="currentColor" stroke-width="1.0075" stroke-linecap="round" stroke-linejoin="round"/></svg>