<svg width="16" height="16" viewBox="0 0 16 16" fill="none"><g clip-path="url(#a)"><path d="M12.7617 6.71688V0.671875M12.7617 0.671875L10.075 3.35854M12.7617 0.671875L15.4483 3.35854M4.71151 11.4282C2.59237 9.3091 0.905021 6.75822 1.35265 4.61527C1.72079 2.8529 2.65955 1.95319 3.4595 1.44683C3.73552 1.27212 4.0938 1.36031 4.28912 1.62216L6.13883 4.10195C6.33828 4.36934 6.31126 4.7426 6.07538 4.97848L4.75915 6.29471C4.75915 6.29471 5.17503 7.57412 6.87033 9.26942C8.56563 10.9647 9.84506 11.3806 9.84506 11.3806L11.1613 10.0644C11.3972 9.82851 11.7704 9.80149 12.0378 10.0009L14.5176 11.8506C14.7794 12.046 14.8676 12.4042 14.6929 12.6803C14.1866 13.4802 13.2868 14.419 11.5245 14.7871C9.38154 15.2347 6.83064 13.5474 4.71151 11.4282Z" stroke="currentColor" stroke-width="0.671667" stroke-linecap="round" stroke-linejoin="round"/></g><defs><clipPath id="a"><rect width="16" height="16" fill="currentColor"/></clipPath></defs></svg>