<svg width="12" height="12" viewBox="0 0 12 12" fill="none"><g clip-path="url(#a)"><path d="M9.50001 0.500488V5.00049M9.50001 5.00049L11.5 3.00049M9.50001 5.00049L7.50001 3.00049M3.50738 8.50687C1.92986 6.92935 0.673768 5.03043 1.00699 3.43518C1.28104 2.12325 1.97987 1.45348 2.57537 1.07655C2.78084 0.946484 3.04755 1.01214 3.19295 1.20706L4.5699 3.05306C4.71838 3.25211 4.69826 3.52997 4.52267 3.70556L3.54285 4.68539C3.54285 4.68539 3.85243 5.6378 5.11444 6.89981C6.37645 8.16182 7.32888 8.47142 7.32888 8.47142L8.30871 7.4916C8.4843 7.316 8.76216 7.29589 8.96121 7.44437L10.8072 8.82131C11.0021 8.96671 11.0678 9.23342 10.9377 9.4389C10.5608 10.0344 9.89101 10.7332 8.57908 11.0073C6.98383 11.3405 5.0849 10.0844 3.50738 8.50687Z" stroke="currentColor" stroke-width="0.5" stroke-linecap="round" stroke-linejoin="round"/></g><defs><clipPath id="a"><rect width="12" height="12" fill="currentColor"/></clipPath></defs></svg>