<svg width="48" height="48" viewBox="0 0 48 48" fill="none"><path d="M36.27 18.1344C36.27 27.6981 28.7048 37.2617 25.5431 40.841C24.8064 41.6751 23.5537 41.6751 22.8169 40.841C19.6552 37.2617 12.09 27.6981 12.09 18.1344C12.09 14.1044 15.1125 6.04443 24.18 6.04443C33.2475 6.04443 36.27 14.1044 36.27 18.1344Z" stroke="currentColor" stroke-width="2.015" stroke-linejoin="round"/><path d="M28.21 18.1345C28.21 20.3602 26.4057 22.1645 24.18 22.1645C21.9543 22.1645 20.15 20.3602 20.15 18.1345C20.15 15.9088 21.9543 14.1045 24.18 14.1045C26.4057 14.1045 28.21 15.9088 28.21 18.1345Z" stroke="currentColor" stroke-width="2.015" stroke-linejoin="round"/></svg>