<svg width="16" height="16" viewBox="0 0 16 16" fill="none"><path d="M12.09 6.04465C12.09 9.23253 9.56827 12.4204 8.51437 13.6135C8.26879 13.8915 7.85121 13.8915 7.60563 13.6135C6.55173 12.4204 4.03 9.23253 4.03 6.04465C4.03 4.70132 5.0375 2.01465 8.06 2.01465C11.0825 2.01465 12.09 4.70132 12.09 6.04465Z" stroke="currentColor" stroke-width="0.671667" stroke-linejoin="round"/><path d="M9.40331 6.04451C9.40331 6.78641 8.80188 7.38784 8.05998 7.38784C7.31808 7.38784 6.71664 6.78641 6.71664 6.04451C6.71664 5.3026 7.31808 4.70117 8.05998 4.70117C8.80188 4.70117 9.40331 5.3026 9.40331 6.04451Z" stroke="currentColor" stroke-width="0.671667" stroke-linejoin="round"/></svg>