<svg width="48" height="48" viewBox="0 0 48 48" fill="none"><path d="M37.7812 34.2564H40.3C41.4128 34.2564 42.315 33.3543 42.315 32.2414V16.1214C42.315 15.0086 41.4128 14.1064 40.3 14.1064H8.05998C6.94713 14.1064 6.04498 15.0086 6.04498 16.1214V32.2414C6.04498 33.3543 6.94713 34.2564 8.05998 34.2564H10.5787M17.1275 27.2051H31.2325M17.1275 37.2773H31.2325M17.1275 32.2397H31.2325M14.105 42.316H34.255C35.3679 42.316 36.27 41.4139 36.27 40.301V24.181C36.27 23.0682 35.3679 22.166 34.255 22.166H14.105C12.9922 22.166 12.09 23.0682 12.09 24.181V40.301C12.09 41.4139 12.9922 42.316 14.105 42.316ZM36.27 14.1069V8.06187C36.27 6.94902 35.3679 6.04688 34.255 6.04688H14.105C12.9922 6.04688 12.09 6.94902 12.09 8.06188V14.1069H36.27Z" stroke="currentColor" stroke-width="2.015" stroke-linecap="round" stroke-linejoin="round"/></svg>