<svg width="8" height="8" viewBox="0 0 8 8" fill="none"><g clip-path="url(#a)"><path d="M6.25 5.66683H6.66667C6.85076 5.66683 7 5.51759 7 5.3335V2.66683C7 2.48273 6.85076 2.3335 6.66667 2.3335H1.33333C1.14924 2.3335 1 2.48273 1 2.66683V5.3335C1 5.51759 1.14924 5.66683 1.33333 5.66683H1.75M2.83334 4.5H5.16667M2.83334 6.1665H5.16667M2.83334 5.3335H5.16667M2.33333 6.99984H5.66667C5.85076 6.99984 6 6.8506 6 6.6665V3.99984C6 3.81574 5.85076 3.6665 5.66667 3.6665H2.33333C2.14924 3.6665 2 3.81574 2 3.99984V6.6665C2 6.8506 2.14924 6.99984 2.33333 6.99984ZM6 2.33333V1.33333C6 1.14924 5.85076 1 5.66667 1H2.33333C2.14924 1 2 1.14924 2 1.33333V2.33333H6Z" stroke="currentColor" stroke-width="0.333333" stroke-linecap="round" stroke-linejoin="round"/></g><defs><clipPath id="a"><rect width="8" height="8" fill="currentColor"/></clipPath></defs></svg>