<svg viewBox="0 0 32 32" fill="none"><path d="M25.1875 22.8376H26.8667C27.6086 22.8376 28.21 22.2362 28.21 21.4943V10.7476C28.21 10.0057 27.6086 9.4043 26.8666 9.4043H5.37332C4.63141 9.4043 4.02998 10.0057 4.02998 10.7476V21.4943C4.02998 22.2362 4.63141 22.8376 5.37332 22.8376H7.05248M11.4183 18.1367H20.8217M11.4183 24.8521H20.8217M11.4183 21.4932H20.8217M9.40335 28.2107H22.8367C23.5786 28.2107 24.18 27.6092 24.18 26.8673V16.1207C24.18 15.3788 23.5786 14.7773 22.8367 14.7773H9.40335C8.66144 14.7773 8.06001 15.3788 8.06001 16.1207V26.8673C8.06001 27.6092 8.66144 28.2107 9.40335 28.2107ZM24.18 9.40458V5.37458C24.18 4.63268 23.5786 4.03125 22.8367 4.03125H9.40335C8.66144 4.03125 8.06001 4.63268 8.06001 5.37458V9.40458H24.18Z" stroke="currentColor" stroke-width="1.34333" stroke-linecap="round" stroke-linejoin="round"/></svg>