<svg width="48" height="48" viewBox="0 0 48 48" fill="none"><path d="M43.0579 27.3726C43.15 26.8238 42.7798 26.3044 42.231 26.2123C41.6822 26.1202 41.1628 26.4904 41.0707 27.0392L43.0579 27.3726ZM41.2502 16.2799V17.2874C41.8066 17.2874 42.2577 16.8363 42.2577 16.2799H41.2502ZM42.2577 4.88135C42.2577 4.32492 41.8066 3.87385 41.2502 3.87385C40.6938 3.87385 40.2427 4.32492 40.2427 4.88135H42.2577ZM29.8517 15.2724C29.2952 15.2724 28.8442 15.7235 28.8442 16.2799C28.8442 16.8363 29.2952 17.2874 29.8517 17.2874V15.2724ZM24.18 41.3109C14.7208 41.3109 7.05254 33.6427 7.05254 24.1834H5.03754C5.03754 34.7555 13.6079 43.3259 24.18 43.3259V41.3109ZM7.05254 24.1834C7.05254 14.7241 14.7208 7.0559 24.18 7.0559V5.0409C13.6079 5.0409 5.03754 13.6113 5.03754 24.1834H7.05254ZM24.18 7.0559C30.9034 7.0559 36.7239 10.9297 39.5277 16.5718L41.3322 15.675C38.2011 9.37441 31.6975 5.0409 24.18 5.0409V7.0559ZM41.0707 27.0392C39.7118 35.1389 32.6657 41.3109 24.18 41.3109V43.3259C33.6661 43.3259 41.5389 36.4269 43.0579 27.3726L41.0707 27.0392ZM42.2577 16.2799V4.88135H40.2427V16.2799H42.2577ZM29.8517 17.2874H41.2502V15.2724H29.8517V17.2874Z" fill="currentColor"/></svg>