<svg viewBox="0 0 48 48" fill="none"><path d="M5.03754 24.179C5.03754 24.7354 5.48862 25.1865 6.04504 25.1865C6.60147 25.1865 7.05254 24.7354 7.05254 24.179H5.03754ZM41.2503 16.277V17.2845C41.8067 17.2845 42.2578 16.8334 42.2578 16.277H41.2503ZM42.2578 4.87842C42.2578 4.32199 41.8067 3.87092 41.2503 3.87092C40.6938 3.87092 40.2428 4.32199 40.2428 4.87842H42.2578ZM29.8517 15.2695C29.2953 15.2695 28.8442 15.7206 28.8442 16.277C28.8442 16.8334 29.2953 17.2845 29.8517 17.2845V15.2695ZM43.3225 24.18C43.3225 23.6236 42.8715 23.1725 42.315 23.1725C41.7586 23.1725 41.3075 23.6236 41.3075 24.18L43.3225 24.18ZM24.18 42.315L24.18 43.3225L24.18 42.315ZM7.10983 32.0806L7.10983 31.0731C6.84263 31.0731 6.58637 31.1792 6.39742 31.3682C6.20848 31.5571 6.10233 31.8134 6.10233 32.0806L7.10983 32.0806ZM6.10233 43.4791C6.10233 44.0356 6.55341 44.4866 7.10983 44.4866C7.66626 44.4866 8.11733 44.0356 8.11733 43.4791L6.10233 43.4791ZM18.5084 33.0881C19.0648 33.0881 19.5159 32.637 19.5159 32.0806C19.5159 31.5241 19.0648 31.0731 18.5084 31.0731L18.5084 33.0881ZM7.05254 24.179C7.05254 14.7198 14.7208 7.05151 24.18 7.05151V5.03651C13.6079 5.03651 5.03754 13.6069 5.03754 24.179H7.05254ZM24.18 7.05151C30.9034 7.05151 36.7239 10.9253 39.5277 16.5674L41.3322 15.6706C38.2011 9.37001 31.6975 5.03651 24.18 5.03651V7.05151ZM42.2578 16.277V4.87842H40.2428V16.277H42.2578ZM29.8517 17.2845H41.2503V15.2695H29.8517V17.2845ZM41.3075 24.18C41.3075 33.6393 33.6393 41.3075 24.18 41.3075L24.18 43.3225C34.7521 43.3225 43.3225 34.7521 43.3225 24.18L41.3075 24.18ZM24.18 41.3075C17.4566 41.3075 11.6362 37.4337 8.83233 31.7916L7.02787 32.6884C10.159 38.989 16.6625 43.3225 24.18 43.3225L24.18 41.3075ZM6.10233 32.0806L6.10233 43.4791L8.11733 43.4791L8.11733 32.0806L6.10233 32.0806ZM18.5084 31.0731L7.10983 31.0731L7.10983 33.0881L18.5084 33.0881L18.5084 31.0731Z" fill="currentColor"/></svg>