<svg width="16" height="16" viewBox="0 0 16 16" fill="none"><path d="M14.3526 9.12404C14.3833 8.94112 14.2599 8.76795 14.077 8.73727C13.8941 8.70658 13.7209 8.82999 13.6902 9.01291L14.3526 9.12404ZM13.7501 5.42647V5.76231C13.9355 5.76231 14.0859 5.61195 14.0859 5.42647H13.7501ZM14.0859 1.62695C14.0859 1.44148 13.9355 1.29112 13.7501 1.29112C13.5646 1.29112 13.4142 1.44148 13.4142 1.62695H14.0859ZM9.95055 5.09064C9.76507 5.09064 9.61471 5.241 9.61471 5.42647C9.61471 5.61195 9.76507 5.76231 9.95055 5.76231V5.09064ZM8.06001 13.7701C4.90693 13.7701 2.35085 11.2141 2.35085 8.06097H1.67918C1.67918 11.585 4.53598 14.4418 8.06001 14.4418V13.7701ZM2.35085 8.06097C2.35085 4.90789 4.90693 2.3518 8.06001 2.3518V1.68014C4.53598 1.68014 1.67918 4.53693 1.67918 8.06097H2.35085ZM8.06001 2.3518C10.3011 2.3518 12.2413 3.64309 13.1759 5.52376L13.7774 5.22485C12.7337 3.12464 10.5658 1.68014 8.06001 1.68014V2.3518ZM13.6902 9.01291C13.2373 11.7128 10.8886 13.7701 8.06001 13.7701V14.4418C11.222 14.4418 13.8463 12.1421 14.3526 9.12404L13.6902 9.01291ZM14.0859 5.42647V1.62695H13.4142V5.42647H14.0859ZM9.95055 5.76231H13.7501V5.09064H9.95055V5.76231Z" fill="currentColor"/></svg>