<svg width="12" height="12" viewBox="0 0 12 12" fill="none"><path d="M1.25 5.99966C1.25 6.13773 1.36193 6.24966 1.5 6.24966C1.63807 6.24966 1.75 6.13773 1.75 5.99966H1.25ZM10.2358 4.03888V4.28888C10.3739 4.28888 10.4858 4.17695 10.4858 4.03888H10.2358ZM10.4858 1.21045C10.4858 1.07238 10.3739 0.960449 10.2358 0.960449C10.0977 0.960449 9.98579 1.07238 9.98579 1.21045H10.4858ZM7.40736 3.78888C7.26929 3.78888 7.15736 3.90081 7.15736 4.03888C7.15736 4.17695 7.26929 4.28888 7.40736 4.28888V3.78888ZM10.75 6.00015C10.75 5.86208 10.6381 5.75015 10.5 5.75015C10.3619 5.75015 10.25 5.86208 10.25 6.00015L10.75 6.00015ZM6 10.5002L6 10.2502L6 10.5002ZM1.76423 7.96094L1.76423 7.71094C1.69792 7.71094 1.63433 7.73728 1.58745 7.78416C1.54057 7.83104 1.51423 7.89463 1.51423 7.96094L1.76423 7.96094ZM1.51423 10.7894C1.51423 10.9274 1.62616 11.0394 1.76423 11.0394C1.9023 11.0394 2.01423 10.9274 2.01423 10.7894L1.51423 10.7894ZM4.59265 8.21094C4.73073 8.21094 4.84265 8.09901 4.84265 7.96094C4.84265 7.82287 4.73073 7.71094 4.59265 7.71094L4.59265 8.21094ZM1.75 5.99966C1.75 3.65245 3.65279 1.74966 6 1.74966V1.24966C3.37665 1.24966 1.25 3.37631 1.25 5.99966H1.75ZM6 1.74966C7.66834 1.74966 9.11262 2.71091 9.80836 4.11092L10.2561 3.8884C9.47916 2.32497 7.86539 1.24966 6 1.24966V1.74966ZM10.4858 4.03888V1.21045H9.98579V4.03888H10.4858ZM7.40736 4.28888H10.2358V3.78888H7.40736V4.28888ZM10.25 6.00015C10.25 8.34736 8.34721 10.2502 6 10.2502L6 10.7502C8.62335 10.7502 10.75 8.6235 10.75 6.00015L10.25 6.00015ZM6 10.2502C4.33166 10.2502 2.88738 9.2889 2.19164 7.88889L1.74388 8.11141C2.52084 9.67484 4.13461 10.7502 6 10.7502L6 10.2502ZM1.51423 7.96094L1.51423 10.7894L2.01423 10.7894L2.01423 7.96094L1.51423 7.96094ZM4.59265 7.71094L1.76423 7.71094L1.76423 8.21094L4.59265 8.21094L4.59265 7.71094Z" fill="currentColor"/></svg>