<svg viewBox="0 0 32 32" fill="none"><path d="M7.64038 18.1607L28.2692 10.9041M13.9643 24.4849C13.2224 25.7699 13.6626 27.4131 14.9477 28.155C16.2327 28.8969 17.8758 28.4566 18.6177 27.1716C19.3596 25.8866 18.9193 24.2434 17.6343 23.5015C16.3493 22.7596 14.7062 23.1999 13.9643 24.4849ZM13.9643 24.4849L21.2208 3.85547M7.64037 18.1618C6.35536 18.9037 4.71222 18.4634 3.97032 17.1784C3.22842 15.8934 3.66869 14.2503 4.95371 13.5084C6.23872 12.7665 7.88186 13.2067 8.62376 14.4918C9.36566 15.7768 8.92539 17.4199 7.64037 18.1618Z" stroke="currentColor" stroke-width="1.34333" stroke-linecap="round" stroke-linejoin="round"/></svg>