<svg width="16" height="16" viewBox="0 0 16 16" fill="none"><path d="M3.82035 9.08042C3.17785 9.45137 2.35628 9.23123 1.98533 8.58872C1.61438 7.94622 1.83451 7.12465 2.47702 6.7537C3.11953 6.38275 3.9411 6.60289 4.31205 7.24539C4.683 7.8879 4.46286 8.70947 3.82035 9.08042ZM3.82035 9.08042L14.1347 5.45158M6.9823 12.2425C6.61134 12.885 6.83148 13.7065 7.47399 14.0775C8.1165 14.4484 8.93807 14.2283 9.30902 13.5858C9.67997 12.9433 9.45983 12.1217 8.81732 11.7508C8.17482 11.3798 7.35325 11.6 6.9823 12.2425ZM6.9823 12.2425L10.6106 1.92725" stroke="currentColor" stroke-width="0.671667" stroke-linecap="round" stroke-linejoin="round"/></svg>