<svg width="16" height="16" viewBox="0 0 16 16" fill="none"><path d="M13.1959 13.672C13.327 13.8031 13.5396 13.8031 13.6708 13.672C13.802 13.5408 13.802 13.3282 13.6708 13.197L13.1959 13.672ZM11.0825 7.05333C11.0825 9.27904 9.27822 11.0833 7.05251 11.0833V11.755C9.64917 11.755 11.7542 9.64999 11.7542 7.05333H11.0825ZM7.05251 11.0833C4.8268 11.0833 3.02251 9.27904 3.02251 7.05333H2.35084C2.35084 9.64999 4.45585 11.755 7.05251 11.755V11.0833ZM3.02251 7.05333C3.02251 4.82763 4.8268 3.02333 7.05251 3.02333V2.35167C4.45585 2.35167 2.35084 4.45667 2.35084 7.05333H3.02251ZM7.05251 3.02333C9.27822 3.02333 11.0825 4.82763 11.0825 7.05333H11.7542C11.7542 4.45667 9.64917 2.35167 7.05251 2.35167V3.02333ZM13.6708 13.197L10.3125 9.8387L9.83753 10.3136L13.1959 13.672L13.6708 13.197Z" fill="currentColor"/></svg>