<svg viewBox="0 0 24 24" fill="none"><path d="M19.7938 20.507C19.9905 20.7037 20.3095 20.7037 20.5062 20.507C20.7029 20.3103 20.7029 19.9913 20.5062 19.7946L19.7938 20.507ZM16.6237 10.579C16.6237 13.9176 13.9173 16.624 10.5787 16.624V17.6315C14.4737 17.6315 17.6312 14.474 17.6312 10.579H16.6237ZM10.5787 16.624C7.24019 16.624 4.53375 13.9176 4.53375 10.579H3.52625C3.52625 14.474 6.68376 17.6315 10.5787 17.6315V16.624ZM4.53375 10.579C4.53375 7.24046 7.24019 4.53402 10.5787 4.53402V3.52652C6.68376 3.52652 3.52625 6.68404 3.52625 10.579H4.53375ZM10.5787 4.53402C13.9173 4.53402 16.6237 7.24046 16.6237 10.579H17.6312C17.6312 6.68404 14.4737 3.52652 10.5787 3.52652V4.53402ZM20.5062 19.7946L15.4687 14.7571L14.7563 15.4695L19.7938 20.507L20.5062 19.7946Z" fill="currentColor"/></svg>