<svg viewBox="0 0 12 12" fill="none"><g clip-path="url(#a)"><path d="M5.25002 0.999512V0.749512C5.12393 0.749512 5.01758 0.843396 5.00195 0.968503L5.25002 0.999512ZM6.75002 0.999512L6.99808 0.968503C6.98245 0.843396 6.8761 0.749512 6.75002 0.749512V0.999512ZM7.00002 2.99951V3.24951C7.07172 3.24951 7.13998 3.21872 7.18743 3.16496C7.23489 3.1112 7.25698 3.03966 7.24808 2.9685L7.00002 2.99951ZM5.00002 2.99951L4.75195 2.9685C4.74305 3.03966 4.76514 3.1112 4.8126 3.16496C4.86005 3.21872 4.92831 3.24951 5.00002 3.24951V2.99951ZM6.75002 10.999V11.249C6.8761 11.249 6.98245 11.1551 6.99808 11.03L6.75002 10.999ZM5.25002 10.999L5.00195 11.03C5.01758 11.1551 5.12393 11.249 5.25002 11.249V10.999ZM5.00002 8.99902V8.74902C4.92831 8.74902 4.86005 8.77982 4.8126 8.83357C4.76514 8.88733 4.74305 8.95888 4.75195 9.03003L5.00002 8.99902ZM7.00002 8.99902L7.24808 9.03003C7.25698 8.95888 7.23489 8.88733 7.18743 8.83357C7.13998 8.77982 7.07172 8.74902 7.00002 8.74902V8.99902ZM11 5.25H11.25C11.25 5.12392 11.1561 5.01757 11.031 5.00193L11 5.25ZM11 6.75L11.031 6.99807C11.1561 6.98243 11.25 6.87608 11.25 6.75H11ZM9.00002 7H8.75002C8.75002 7.07171 8.78081 7.13996 8.83456 7.18742C8.88832 7.23488 8.95987 7.25696 9.03102 7.24807L9.00002 7ZM9.00002 5L9.03102 4.75193C8.95987 4.74304 8.88832 4.76512 8.83456 4.81258C8.78081 4.86004 8.75002 4.92829 8.75002 5H9.00002ZM1.00002 6.74951L0.750015 6.74951C0.750015 6.87559 0.843899 6.98194 0.969007 6.99758L1.00002 6.74951ZM1.00002 5.24951L0.969007 5.00144C0.8439 5.01708 0.750016 5.12343 0.750016 5.24951L1.00002 5.24951ZM3.00002 4.99951L3.25002 4.99951C3.25002 4.9278 3.21922 4.85955 3.16547 4.81209C3.11171 4.76464 3.04016 4.74255 2.96901 4.75144L3.00002 4.99951ZM3.00002 6.99951L2.96901 7.24758C3.04016 7.25648 3.11171 7.23439 3.16547 7.18693C3.21922 7.13948 3.25002 7.07122 3.25002 6.99951L3.00002 6.99951ZM10.0659 9.0049L10.2427 9.18168C10.3318 9.09253 10.3406 8.95094 10.2632 8.85142L10.0659 9.0049ZM9.00522 10.0656L8.85173 10.2629C8.95125 10.3403 9.09284 10.3315 9.18199 10.2423L9.00522 10.0656ZM7.41423 8.82812L7.23745 8.65135C7.18674 8.70205 7.16025 8.77209 7.16471 8.84366C7.16916 8.91523 7.20414 8.98144 7.26074 9.02546L7.41423 8.82812ZM8.82844 7.41391L9.02578 7.26043C8.98175 7.20382 8.91554 7.16885 8.84397 7.16439C8.7724 7.15994 8.70237 7.18643 8.65166 7.23713L8.82844 7.41391ZM1.93414 2.99412L1.75736 2.81735C1.66821 2.9065 1.65939 3.04808 1.7368 3.14761L1.93414 2.99412ZM2.9948 1.93346L3.14828 1.73612C3.04876 1.65872 2.90718 1.66753 2.81802 1.75668L2.9948 1.93346ZM4.58579 3.1709L4.76257 3.34768C4.81327 3.29697 4.83976 3.22693 4.83531 3.15536C4.83085 3.0838 4.79588 3.01758 4.73927 2.97356L4.58579 3.1709ZM3.17158 4.58511L2.97424 4.7386C3.01826 4.7952 3.08447 4.83017 3.15604 4.83463C3.22761 4.83908 3.29765 4.81259 3.34835 4.76189L3.17158 4.58511ZM2.9948 10.0659L2.81802 10.2427C2.90718 10.3318 3.04876 10.3406 3.14829 10.2632L2.9948 10.0659ZM1.93414 9.00524L1.7368 8.85175C1.6594 8.95128 1.66821 9.09286 1.75736 9.18202L1.93414 9.00524ZM3.17158 7.41425L3.34835 7.23747C3.29765 7.18677 3.22761 7.16028 3.15604 7.16473C3.08447 7.16919 3.01826 7.20416 2.97424 7.26076L3.17158 7.41425ZM4.58579 8.82846L4.73928 9.0258C4.79588 8.98178 4.83085 8.91557 4.83531 8.844C4.83976 8.77243 4.81327 8.70239 4.76257 8.65169L4.58579 8.82846ZM9.00521 1.93361L9.18199 1.75684C9.09284 1.66768 8.95125 1.65887 8.85173 1.73627L9.00521 1.93361ZM10.0659 2.99427L10.2632 3.14776C10.3406 3.04824 10.3318 2.90665 10.2427 2.8175L10.0659 2.99427ZM8.82844 4.58526L8.65166 4.76204C8.70237 4.81274 8.7724 4.83924 8.84397 4.83478C8.91554 4.83032 8.98175 4.79535 9.02578 4.73875L8.82844 4.58526ZM7.41422 3.17105L7.26074 2.97371C7.20414 3.01774 7.16916 3.08395 7.16471 3.15552C7.16025 3.22708 7.18674 3.29712 7.23745 3.34783L7.41422 3.17105ZM9.75001 6C9.75001 8.07107 8.07108 9.75 6.00001 9.75V10.25C8.34722 10.25 10.25 8.34721 10.25 6H9.75001ZM6.00001 9.75C3.92894 9.75 2.25001 8.07107 2.25001 6H1.75001C1.75001 8.34721 3.6528 10.25 6.00001 10.25V9.75ZM2.25001 6C2.25001 3.92893 3.92894 2.25 6.00001 2.25V1.75C3.6528 1.75 1.75001 3.65279 1.75001 6H2.25001ZM6.00001 2.25C8.07108 2.25 9.75001 3.92893 9.75001 6H10.25C10.25 3.65279 8.34722 1.75 6.00001 1.75V2.25ZM5.25002 1.24951H6.75002V0.749512H5.25002V1.24951ZM6.50195 1.03052L6.75195 3.03052L7.24808 2.9685L6.99808 0.968503L6.50195 1.03052ZM7.00002 2.74951H5.00002V3.24951H7.00002V2.74951ZM5.24808 3.03052L5.49808 1.03052L5.00195 0.968503L4.75195 2.9685L5.24808 3.03052ZM6.75002 10.749H5.25002V11.249H6.75002V10.749ZM5.49808 10.968L5.24808 8.96801L4.75195 9.03003L5.00195 11.03L5.49808 10.968ZM5.00002 9.24902H7.00002V8.74902H5.00002V9.24902ZM6.75195 8.96801L6.50195 10.968L6.99808 11.03L7.24808 9.03003L6.75195 8.96801ZM10.75 5.25V6.75H11.25V5.25H10.75ZM10.969 6.50193L8.96901 6.75193L9.03102 7.24807L11.031 6.99807L10.969 6.50193ZM9.25002 7V5H8.75002V7H9.25002ZM8.96901 5.24807L10.969 5.49807L11.031 5.00193L9.03102 4.75193L8.96901 5.24807ZM1.25002 6.74951L1.25002 5.24951L0.750016 5.24951L0.750015 6.74951L1.25002 6.74951ZM1.03102 5.49758L3.03102 5.24758L2.96901 4.75144L0.969007 5.00144L1.03102 5.49758ZM2.75002 4.99951L2.75002 6.99951L3.25002 6.99951L3.25002 4.99951L2.75002 4.99951ZM3.03102 6.75144L1.03102 6.50144L0.969007 6.99758L2.96901 7.24758L3.03102 6.75144ZM9.8891 8.82813L8.82844 9.88879L9.18199 10.2423L10.2427 9.18168L9.8891 8.82813ZM9.1587 9.86822L7.56771 8.63079L7.26074 9.02546L8.85173 10.2629L9.1587 9.86822ZM7.591 9.0049L9.00522 7.59069L8.65166 7.23713L7.23745 8.65135L7.591 9.0049ZM8.6311 7.5674L9.86854 9.15839L10.2632 8.85142L9.02578 7.26043L8.6311 7.5674ZM2.11092 3.1709L3.17158 2.11024L2.81802 1.75668L1.75736 2.81735L2.11092 3.1709ZM2.84131 2.1308L4.4323 3.36824L4.73927 2.97356L3.14828 1.73612L2.84131 2.1308ZM4.40901 2.99412L2.9948 4.40834L3.34835 4.76189L4.76257 3.34768L4.40901 2.99412ZM3.36891 4.43163L2.13148 2.84064L1.7368 3.14761L2.97424 4.7386L3.36891 4.43163ZM3.17158 9.88912L2.11092 8.82846L1.75736 9.18202L2.81802 10.2427L3.17158 9.88912ZM2.13148 9.15872L3.36892 7.56773L2.97424 7.26076L1.7368 8.85175L2.13148 9.15872ZM2.9948 7.59103L4.40901 9.00524L4.76257 8.65169L3.34835 7.23747L2.9948 7.59103ZM4.43231 8.63112L2.84132 9.86856L3.14829 10.2632L4.73928 9.0258L4.43231 8.63112ZM8.82844 2.11039L9.8891 3.17105L10.2427 2.8175L9.18199 1.75684L8.82844 2.11039ZM9.86854 2.84079L8.6311 4.43178L9.02578 4.73875L10.2632 3.14776L9.86854 2.84079ZM9.00521 4.40849L7.591 2.99427L7.23745 3.34783L8.65166 4.76204L9.00521 4.40849ZM7.56771 3.36839L9.1587 2.13095L8.85173 1.73627L7.26074 2.97371L7.56771 3.36839Z" fill="currentColor"/><path d="M8 6C8 7.10457 7.10457 8 6 8C4.89543 8 4 7.10457 4 6C4 4.89543 4.89543 4 6 4C7.10457 4 8 4.89543 8 6Z" stroke="currentColor" stroke-width="0.5" stroke-linejoin="round"/></g><defs><clipPath id="a"><rect width="12" height="12" fill="currentColor"/></clipPath></defs></svg>