<svg viewBox="0 0 16 16" fill="none"><path d="M10.075 4.70264L5.70915 7.3893M5.70915 9.06787L10.075 11.4187M6.045 8.06062C6.045 8.80252 5.44357 9.40395 4.70167 9.40395C3.95977 9.40395 3.35834 8.80252 3.35834 8.06062C3.35834 7.31872 3.95977 6.71729 4.70167 6.71729C5.44357 6.71729 6.045 7.31872 6.045 8.06062ZM12.7617 4.03083C12.7617 4.77274 12.1602 5.37417 11.4183 5.37417C10.6764 5.37417 10.075 4.77274 10.075 4.03083C10.075 3.28893 10.6764 2.6875 11.4183 2.6875C12.1602 2.6875 12.7617 3.28893 12.7617 4.03083ZM12.7617 12.0909C12.7617 12.8328 12.1602 13.4342 11.4183 13.4342C10.6764 13.4342 10.075 12.8328 10.075 12.0909C10.075 11.349 10.6764 10.7476 11.4183 10.7476C12.1602 10.7476 12.7617 11.349 12.7617 12.0909Z" stroke="currentColor" stroke-width="0.671667" stroke-linejoin="round"/></svg>