<svg viewBox="0 0 12 13" fill="none"><path d="M5.76224 3.01259C5.83708 2.78226 6.16293 2.78226 6.23777 3.01259L6.95419 5.2175C6.98765 5.32051 7.08364 5.39025 7.19195 5.39025H9.51033C9.75251 5.39025 9.85321 5.70015 9.65728 5.8425L7.78167 7.20522C7.69405 7.26888 7.65738 7.38172 7.69085 7.48472L8.40727 9.68964C8.48211 9.91997 8.21849 10.1115 8.02256 9.96915L6.14695 8.60644C6.05933 8.54277 5.94068 8.54277 5.85305 8.60644L3.97744 9.96915C3.78151 10.1115 3.51789 9.91997 3.59273 9.68964L4.30915 7.48472C4.34262 7.38172 4.30596 7.26888 4.21833 7.20522L2.34272 5.8425C2.14679 5.70015 2.24749 5.39025 2.48967 5.39025H4.80805C4.91636 5.39025 5.01235 5.32051 5.04582 5.2175L5.76224 3.01259Z" stroke="currentColor" stroke-width="0.5" stroke-linecap="round" stroke-linejoin="round"/></svg>