<svg width="32" height="33" viewBox="0 0 32 33" fill="none"><path d="M15.4812 6.77759C15.6823 6.15877 16.5577 6.15877 16.7588 6.77759L18.6836 12.7015C18.7735 12.9782 19.0314 13.1656 19.3224 13.1656H25.5511C26.2018 13.1656 26.4723 13.9982 25.9459 14.3806L20.9067 18.0418C20.6713 18.2128 20.5728 18.516 20.6627 18.7927L22.5875 24.7166C22.7886 25.3354 22.0803 25.85 21.5539 25.4675L16.5148 21.8064C16.2794 21.6354 15.9606 21.6354 15.7252 21.8064L10.6861 25.4675C10.1597 25.85 9.4514 25.3354 9.65247 24.7166L11.5772 18.7927C11.6672 18.516 11.5687 18.2128 11.3333 18.0418L6.2941 14.3806C5.76771 13.9982 6.03824 13.1656 6.6889 13.1656H12.9176C13.2086 13.1656 13.4665 12.9782 13.5564 12.7015L15.4812 6.77759Z" stroke="currentColor" stroke-width="1.34333" stroke-linecap="round" stroke-linejoin="round"/></svg>