<svg viewBox="0 0 8 9" fill="none"><g clip-path="url(#a)"><path d="M3.05632 8.08101L6.47856 4.65876C6.55017 4.58715 6.58534 4.48689 6.57416 4.38624L6.38559 2.68919C6.36838 2.53424 6.24606 2.41192 6.09111 2.3947L4.39405 2.20614C4.29341 2.19496 4.19314 2.23013 4.12154 2.30173L0.699293 5.72398C0.569118 5.85416 0.569118 6.06521 0.699293 6.19539L2.58491 8.08101C2.71509 8.21118 2.92614 8.21118 3.05632 8.08101Z" stroke="currentColor" stroke-width="0.333333" stroke-linejoin="round"/><path d="M5.17826 4.54657C4.91791 4.80692 4.4958 4.80692 4.23545 4.54657C3.9751 4.28622 3.9751 3.86411 4.23545 3.60376C4.4958 3.34342 4.91791 3.34342 5.17826 3.60376C5.43861 3.86411 5.43861 4.28622 5.17826 4.54657Z" stroke="currentColor" stroke-width="0.333333" stroke-linejoin="round"/></g><defs><clipPath id="a"><rect width="8" height="8" fill="currentColor" transform="translate(0 0.78125)"/></clipPath></defs></svg>