<svg viewBox="0 0 16 17" fill="none"><path d="M11.4184 7.49742L14.105 5.48242V12.1991L11.4184 10.1841M10.075 12.8705H3.35835C2.61645 12.8705 2.01501 12.2691 2.01501 11.5272V6.15388C2.01501 5.41198 2.61645 4.81055 3.35835 4.81055H10.075C10.8169 4.81055 11.4183 5.41198 11.4183 6.15388V11.5272C11.4183 12.2691 10.8169 12.8705 10.075 12.8705ZM4.7017 7.16103C4.7017 7.3465 4.55134 7.49686 4.36586 7.49686C4.18039 7.49686 4.03003 7.3465 4.03003 7.16103C4.03003 6.97555 4.18039 6.8252 4.36586 6.8252C4.55134 6.8252 4.7017 6.97555 4.7017 7.16103Z" stroke="currentColor" stroke-width="0.671667" stroke-linejoin="round"/></svg>