<svg width="8" height="9" viewBox="0 0 8 9" fill="none"><path d="M5.66666 4.11426L7 3.11426V6.44759L5.66666 5.44759M5 6.78125H1.66667C1.29848 6.78125 1 6.48277 1 6.11458V3.44792C1 3.07973 1.29848 2.78125 1.66667 2.78125H5C5.36819 2.78125 5.66667 3.07973 5.66667 3.44792V6.11458C5.66667 6.48277 5.36819 6.78125 5 6.78125ZM2.33333 3.94792C2.33333 4.03996 2.25871 4.11458 2.16667 4.11458C2.07462 4.11458 2 4.03996 2 3.94792C2 3.85587 2.07462 3.78125 2.16667 3.78125C2.25871 3.78125 2.33333 3.85587 2.33333 3.94792Z" stroke="currentColor" stroke-width="0.333333" stroke-linejoin="round"/></svg>