<svg viewBox="0 0 12 13" fill="none"><path d="M8.50001 5.78125L10.5 4.28125V9.28125L8.50001 7.78125M7.5 9.78125H2.5C1.94772 9.78125 1.5 9.33354 1.5 8.78125V4.78125C1.5 4.22897 1.94772 3.78125 2.5 3.78125H7.5C8.05228 3.78125 8.5 4.22896 8.5 4.78125V8.78125C8.5 9.33353 8.05228 9.78125 7.5 9.78125ZM3.50002 5.53125C3.50002 5.66932 3.38809 5.78125 3.25002 5.78125C3.11194 5.78125 3.00002 5.66932 3.00002 5.53125C3.00002 5.39318 3.11194 5.28125 3.25002 5.28125C3.38809 5.28125 3.50002 5.39318 3.50002 5.53125Z" stroke="currentColor" stroke-width="0.5" stroke-linejoin="round"/></svg>