<svg viewBox="0 0 32 33" fill="none"><path d="M22.8367 14.2146L28.21 10.1846V23.6179L22.8367 19.5879M20.15 24.9598H6.7167C5.23289 24.9598 4.03003 23.757 4.03003 22.2732V11.5265C4.03003 10.0427 5.23289 8.83984 6.7167 8.83984H20.15C21.6338 8.83984 22.8367 10.0427 22.8367 11.5265V22.2732C22.8367 23.757 21.6338 24.9598 20.15 24.9598ZM9.40338 13.5418C9.40338 13.9127 9.10266 14.2135 8.73171 14.2135C8.36076 14.2135 8.06004 13.9127 8.06004 13.5418C8.06004 13.1708 8.36076 12.8701 8.73171 12.8701C9.10266 12.8701 9.40338 13.1708 9.40338 13.5418Z" stroke="currentColor" stroke-width="1.34333" stroke-linejoin="round"/></svg>