<svg width="24" height="25" viewBox="0 0 24 25" fill="none"><path d="M15.8131 3.06868L15.2979 7.54481M12.0261 4.44563L11.511 8.92177M8.23915 5.82454L7.72401 10.3007M4.45217 7.20345L3.93703 11.6796M3.02245 12.3672H20.15C20.7064 12.3672 21.1575 12.8183 21.1575 13.3747V21.4347C21.1575 21.9912 20.7064 22.4422 20.15 22.4422H4.02995C3.47352 22.4422 3.02245 21.9912 3.02245 21.4347V12.3672ZM1.61194 8.23637L17.7065 2.37842C18.2294 2.18811 18.8075 2.4577 18.9979 2.98057L19.687 4.87405C19.8773 5.39692 19.6077 5.97507 19.0849 6.16538L2.99028 12.0233L1.61194 8.23637Z" stroke="currentColor" stroke-width="1.0075" stroke-linejoin="round"/></svg>