<svg viewBox="0 0 12 13" fill="none"><path d="M7.84773 1.91673L7.59208 4.13813M5.96833 2.60032L5.71268 4.82173M4.08896 3.28489L3.83331 5.5063M2.20957 3.96849L1.95391 6.18989M1.50002 6.53121H10C10.2762 6.53121 10.5 6.75507 10.5 7.03121V11.0312C10.5 11.3074 10.2762 11.5312 10 11.5312H2.00002C1.72388 11.5312 1.50002 11.3074 1.50002 11.0312V6.53121ZM0.800026 4.48141L8.78741 1.57424C9.0469 1.47979 9.33382 1.61358 9.42827 1.87307L9.77029 2.81276C9.86473 3.07225 9.73094 3.35917 9.47145 3.45362L1.48407 6.36079L0.800026 4.48141Z" stroke="currentColor" stroke-width="0.5" stroke-linejoin="round"/></svg>