<svg width="32" height="33" viewBox="0 0 32 33" fill="none"><path d="M21.0839 3.83148L20.3971 9.79966M16.0347 5.66742L15.3478 11.6356M10.9854 7.50531L10.2985 13.4735M5.93606 9.3432L5.24921 15.3114M4.02975 16.2289H26.8664C27.6083 16.2289 28.2098 16.8303 28.2098 17.5722V28.3189C28.2098 29.0608 27.6083 29.6622 26.8664 29.6622H5.37309C4.63119 29.6622 4.02975 29.0608 4.02975 28.3189V16.2289ZM2.14908 10.7211L23.6085 2.91048C24.3057 2.65673 25.0765 3.01619 25.3303 3.71335L26.2492 6.238C26.5029 6.93516 26.1435 7.70602 25.4463 7.95976L3.98687 15.7704L2.14908 10.7211Z" stroke="currentColor" stroke-width="1.34333" stroke-linejoin="round"/></svg>