<svg viewBox="0 0 32 33" fill="none"><path d="M11.4384 19.4253C11.3484 19.7851 11.5672 20.1498 11.9271 20.2398C12.287 20.3298 12.6517 20.111 12.7416 19.7511L11.4384 19.4253ZM16.12 16.9015L16.12 17.5732L16.12 16.9015ZM19.4984 19.7511C19.5884 20.111 19.953 20.3298 20.3129 20.2398C20.6728 20.1498 20.8916 19.7851 20.8016 19.4253L19.4984 19.7511ZM22.1895 17.0804C22.2888 17.4379 22.659 17.6471 23.0164 17.5478C23.3738 17.4486 23.5831 17.0783 23.4838 16.7209L22.1895 17.0804ZM6.07186 14.0271C5.96799 14.3832 6.17248 14.7561 6.52859 14.8599C6.88471 14.9638 7.25759 14.7593 7.36146 14.4032L6.07186 14.0271ZM16.12 8.8418L16.12 8.17013L16.12 8.8418ZM24.8785 14.4032C24.9824 14.7593 25.3553 14.9638 25.7114 14.8599C26.0675 14.7561 26.272 14.3832 26.1681 14.0271L24.8785 14.4032ZM12.09 19.5882C12.7416 19.7511 12.7415 19.7514 12.7414 19.7518C12.7414 19.7519 12.7413 19.7522 12.7413 19.7525C12.7412 19.7529 12.7411 19.7533 12.741 19.7536C12.7408 19.7543 12.7407 19.7548 12.7406 19.7552C12.7404 19.7559 12.7403 19.7561 12.7405 19.7556C12.7407 19.7548 12.7416 19.7515 12.7432 19.7461C12.7464 19.7352 12.7523 19.7156 12.7615 19.6885C12.7799 19.6343 12.8109 19.551 12.858 19.4482C12.9527 19.2417 13.1088 18.9641 13.3511 18.6871C13.8204 18.1508 14.648 17.5732 16.12 17.5732L16.12 16.2298C14.2337 16.2298 13.0463 16.9955 12.3402 17.8025C11.9948 18.1973 11.7731 18.5913 11.6368 18.8885C11.5685 19.0377 11.5208 19.1642 11.4894 19.2569C11.4736 19.3033 11.4619 19.3415 11.4536 19.3699C11.4494 19.3842 11.4461 19.396 11.4436 19.4053C11.4424 19.4099 11.4413 19.4139 11.4404 19.4173C11.44 19.4189 11.4396 19.4204 11.4393 19.4218C11.4391 19.4224 11.439 19.4231 11.4388 19.4236C11.4387 19.4239 11.4386 19.4243 11.4386 19.4245C11.4385 19.4249 11.4384 19.4253 12.09 19.5882ZM16.12 17.5732C17.5921 17.5732 18.4196 18.1508 18.8889 18.6871C19.1312 18.9641 19.2873 19.2417 19.382 19.4482C19.4291 19.551 19.4601 19.6343 19.4785 19.6885C19.4877 19.7156 19.4937 19.7352 19.4968 19.7461C19.4984 19.7515 19.4993 19.7548 19.4996 19.7556C19.4997 19.7561 19.4996 19.7559 19.4994 19.7552C19.4993 19.7548 19.4992 19.7543 19.499 19.7536C19.4989 19.7533 19.4989 19.7529 19.4987 19.7525C19.4987 19.7522 19.4986 19.7519 19.4986 19.7518C19.4985 19.7514 19.4984 19.7511 20.15 19.5882C20.8016 19.4253 20.8015 19.4249 20.8014 19.4245C20.8014 19.4243 20.8013 19.4239 20.8012 19.4236C20.8011 19.4231 20.8009 19.4224 20.8007 19.4218C20.8004 19.4204 20.8 19.4189 20.7996 19.4173C20.7987 19.4139 20.7977 19.4099 20.7964 19.4053C20.7939 19.396 20.7906 19.3842 20.7864 19.3699C20.7781 19.3415 20.7664 19.3033 20.7506 19.2569C20.7192 19.1642 20.6715 19.0377 20.6032 18.8885C20.467 18.5913 20.2453 18.1973 19.8999 17.8025C19.1937 16.9955 18.0063 16.2298 16.12 16.2298L16.12 17.5732ZM9.40331 16.9007C10.0505 17.0804 10.0504 17.0808 10.0503 17.0812C10.0502 17.0813 10.0501 17.0817 10.0501 17.0819C10.0499 17.0823 10.0498 17.0827 10.0498 17.083C10.0496 17.0836 10.0495 17.084 10.0494 17.0841C10.0494 17.0844 10.0495 17.0838 10.05 17.0822C10.0509 17.0791 10.053 17.0725 10.0562 17.0625C10.0627 17.0425 10.074 17.0092 10.0908 16.9644C10.1246 16.8749 10.1804 16.7404 10.2642 16.5758C10.4321 16.246 10.71 15.8006 11.1443 15.3539C11.9979 14.4758 13.5036 13.5423 16.12 13.5423L16.12 12.199C13.1391 12.199 11.2865 13.2805 10.1811 14.4175C9.63585 14.9783 9.28402 15.5403 9.06715 15.9662C8.95856 16.1794 8.88318 16.3597 8.83385 16.4906C8.80916 16.5561 8.79094 16.6093 8.77829 16.6484C8.77197 16.6679 8.76703 16.6838 8.76338 16.696C8.76155 16.7021 8.76004 16.7072 8.75884 16.7114C8.75824 16.7135 8.75772 16.7153 8.75727 16.7169C8.75704 16.7177 8.75684 16.7184 8.75665 16.7191C8.75656 16.7194 8.75643 16.7199 8.75638 16.72C8.75626 16.7205 8.75614 16.7209 9.40331 16.9007ZM16.12 13.5423C18.7363 13.5423 20.242 14.4758 21.0957 15.3539C21.53 15.8006 21.8078 16.246 21.9757 16.5758C22.0596 16.7404 22.1154 16.8749 22.1491 16.9644C22.166 17.0092 22.1773 17.0425 22.1837 17.0625C22.187 17.0725 22.189 17.0791 22.1899 17.0822C22.1904 17.0838 22.1906 17.0844 22.1905 17.0841C22.1905 17.084 22.1904 17.0836 22.1902 17.083C22.1901 17.0827 22.19 17.0823 22.1899 17.0819C22.1898 17.0817 22.1897 17.0813 22.1897 17.0812C22.1896 17.0808 22.1895 17.0804 22.8366 16.9007C23.4838 16.7209 23.4837 16.7205 23.4836 16.72C23.4835 16.7199 23.4834 16.7194 23.4833 16.7191C23.4831 16.7184 23.4829 16.7177 23.4827 16.7169C23.4822 16.7153 23.4817 16.7135 23.4811 16.7114C23.4799 16.7072 23.4784 16.7021 23.4766 16.696C23.4729 16.6838 23.468 16.6679 23.4617 16.6484C23.449 16.6093 23.4308 16.5561 23.4061 16.4906C23.3568 16.3597 23.2814 16.1794 23.1728 15.9662C22.9559 15.5403 22.6041 14.9783 22.0588 14.4175C20.9535 13.2805 19.1009 12.199 16.12 12.199L16.12 13.5423ZM6.71666 14.2151C7.36146 14.4032 7.36134 14.4036 7.36123 14.404C7.3612 14.4041 7.36109 14.4044 7.36103 14.4046C7.36092 14.4051 7.36082 14.4054 7.36075 14.4056C7.3606 14.4061 7.36055 14.4063 7.36059 14.4061C7.36067 14.4059 7.36114 14.4044 7.36199 14.4016C7.36371 14.3962 7.36701 14.3859 7.37204 14.3712C7.38208 14.3416 7.39898 14.2942 7.42383 14.2315C7.47356 14.1058 7.55484 13.9194 7.67628 13.6923C7.91937 13.2377 8.32122 12.624 8.9498 12.0083C10.1927 10.7907 12.3736 9.51346 16.12 9.51346L16.12 8.17013C12.0302 8.17013 9.50947 9.57955 8.00977 11.0487C7.26703 11.7762 6.78732 12.5059 6.49167 13.0588C6.34375 13.3355 6.24137 13.5688 6.17479 13.737C6.14147 13.8212 6.11705 13.8892 6.10031 13.9384C6.09194 13.963 6.08548 13.9829 6.08079 13.9978C6.07845 14.0052 6.07654 14.0114 6.07506 14.0163C6.07432 14.0188 6.07368 14.0209 6.07315 14.0227C6.07288 14.0236 6.07264 14.0244 6.07243 14.0251C6.07232 14.0255 6.07218 14.026 6.07213 14.0262C6.07199 14.0266 6.07186 14.0271 6.71666 14.2151ZM16.12 9.51346C19.8663 9.51346 22.0473 10.7907 23.2902 12.0083C23.9188 12.624 24.3206 13.2377 24.5637 13.6923C24.6851 13.9194 24.7664 14.1058 24.8162 14.2315C24.841 14.2942 24.8579 14.3416 24.8679 14.3712C24.873 14.3859 24.8763 14.3962 24.878 14.4016C24.8788 14.4044 24.8793 14.4059 24.8794 14.4061C24.8794 14.4063 24.8794 14.4061 24.8792 14.4056C24.8792 14.4054 24.8791 14.4051 24.879 14.4046C24.8789 14.4044 24.8788 14.4041 24.8788 14.404C24.8786 14.4036 24.8785 14.4032 25.5233 14.2151C26.1681 14.0271 26.168 14.0266 26.1679 14.0262C26.1678 14.026 26.1677 14.0255 26.1676 14.0251C26.1673 14.0244 26.1671 14.0236 26.1668 14.0227C26.1663 14.0209 26.1657 14.0188 26.1649 14.0163C26.1634 14.0114 26.1615 14.0052 26.1592 13.9978C26.1545 13.9829 26.148 13.963 26.1397 13.9384C26.1229 13.8892 26.0985 13.8212 26.0652 13.737C25.9986 13.5688 25.8962 13.3355 25.7483 13.0588C25.4527 12.5059 24.973 11.7762 24.2302 11.0487C22.7305 9.57955 20.2098 8.17013 16.12 8.17013L16.12 9.51346ZM18.135 23.6186C18.135 24.7314 17.2328 25.6336 16.12 25.6336V26.9769C17.9747 26.9769 19.4783 25.4734 19.4783 23.6186H18.135ZM16.12 25.6336C15.0071 25.6336 14.105 24.7314 14.105 23.6186H12.7617C12.7617 25.4734 14.2652 26.9769 16.12 26.9769V25.6336ZM14.105 23.6186C14.105 22.5057 15.0071 21.6036 16.12 21.6036V20.2603C14.2652 20.2603 12.7617 21.7638 12.7617 23.6186H14.105ZM16.12 21.6036C17.2328 21.6036 18.135 22.5057 18.135 23.6186H19.4783C19.4783 21.7638 17.9747 20.2603 16.12 20.2603V21.6036Z" fill="currentColor"/></svg>