<svg width="8" height="9" viewBox="0 0 8 9" fill="none"><path d="M2.83831 5.40815C2.81598 5.49744 2.87028 5.58793 2.95958 5.61026C3.04888 5.63258 3.13937 5.57829 3.16169 5.48899L2.83831 5.40815ZM4 4.7819L4 4.61523L4 4.7819ZM4.83831 5.48899C4.86063 5.57829 4.95112 5.63258 5.04042 5.61026C5.12972 5.58793 5.18402 5.49744 5.16169 5.40815L4.83831 5.48899ZM4 3.78158L4 3.94824L4 3.78158ZM5.50608 4.82618C5.53072 4.91487 5.62259 4.9668 5.71128 4.94216C5.79997 4.91753 5.85189 4.82566 5.82726 4.73697L5.50608 4.82618ZM1.50666 4.06792C1.48089 4.15628 1.53163 4.24881 1.62 4.27458C1.70836 4.30036 1.80089 4.24962 1.82666 4.16125L1.50666 4.06792ZM4 2.78125L4 2.61458L4 2.78125ZM6.17333 4.16125C6.1991 4.24962 6.29163 4.30036 6.38 4.27458C6.46836 4.24881 6.5191 4.15628 6.49333 4.06792L6.17333 4.16125ZM3 5.44857C3.16169 5.48899 3.16167 5.48908 3.16165 5.48917C3.16164 5.48919 3.16162 5.48928 3.1616 5.48933C3.16158 5.48944 3.16155 5.48953 3.16153 5.48962C3.16149 5.48979 3.16146 5.48992 3.16143 5.49001C3.16138 5.4902 3.16137 5.49023 3.1614 5.49012C3.16146 5.4899 3.16168 5.4891 3.16208 5.48775C3.16286 5.48504 3.16434 5.48018 3.16662 5.47347C3.17118 5.46001 3.17889 5.43934 3.19057 5.41384C3.21406 5.36259 3.2528 5.2937 3.31293 5.22499C3.42938 5.0919 3.63472 4.94857 4 4.94857L4 4.61523C3.53194 4.61523 3.23729 4.80523 3.06207 5.00548C2.97636 5.10343 2.92135 5.20121 2.88755 5.27496C2.87059 5.31197 2.85876 5.34337 2.85096 5.36637C2.84705 5.37789 2.84414 5.38735 2.84208 5.39441C2.84104 5.39795 2.84023 5.40089 2.83961 5.40319C2.83929 5.40434 2.83903 5.40533 2.83882 5.40616C2.83871 5.40657 2.83861 5.40694 2.83853 5.40728C2.83849 5.40744 2.83845 5.4076 2.83841 5.40774C2.83839 5.40781 2.83837 5.40792 2.83836 5.40795C2.83833 5.40805 2.83831 5.40815 3 5.44857ZM4 4.94857C4.36528 4.94857 4.57062 5.0919 4.68707 5.22499C4.7472 5.2937 4.78594 5.36259 4.80943 5.41384C4.82111 5.43934 4.82882 5.46001 4.83338 5.47347C4.83566 5.48018 4.83714 5.48504 4.83792 5.48775C4.83832 5.4891 4.83854 5.4899 4.8386 5.49012C4.83863 5.49023 4.83862 5.4902 4.83857 5.49001C4.83854 5.48992 4.83851 5.48979 4.83847 5.48962C4.83845 5.48953 4.83842 5.48944 4.8384 5.48933C4.83838 5.48928 4.83836 5.48919 4.83835 5.48917C4.83833 5.48908 4.83831 5.48899 5 5.44857C5.16169 5.40815 5.16167 5.40805 5.16164 5.40795C5.16163 5.40792 5.16161 5.40781 5.16159 5.40774C5.16155 5.4076 5.16151 5.40744 5.16147 5.40728C5.16139 5.40694 5.16129 5.40657 5.16118 5.40616C5.16097 5.40533 5.16071 5.40434 5.16039 5.40319C5.15977 5.40089 5.15896 5.39795 5.15792 5.39441C5.15586 5.38735 5.15295 5.37789 5.14904 5.36637C5.14124 5.34337 5.12941 5.31197 5.11245 5.27496C5.07865 5.20121 5.02364 5.10343 4.93793 5.00548C4.76271 4.80523 4.46806 4.61523 4 4.61523L4 4.94857ZM2.33334 4.78158C2.49392 4.82618 2.4939 4.82628 2.49387 4.82637C2.49386 4.8264 2.49384 4.82649 2.49382 4.82654C2.49379 4.82665 2.49377 4.82674 2.49375 4.82681C2.4937 4.82697 2.49368 4.82706 2.49367 4.82709C2.49364 4.82717 2.49369 4.82701 2.4938 4.82662C2.49403 4.82586 2.49454 4.82421 2.49534 4.82173C2.49695 4.81676 2.49975 4.80849 2.50394 4.7974C2.51231 4.77518 2.52616 4.7418 2.54696 4.70096C2.58863 4.61913 2.65758 4.50859 2.76534 4.39776C2.97716 4.17988 3.35079 3.94824 4 3.94824L4 3.61491C3.26033 3.61491 2.80062 3.88327 2.52634 4.1654C2.39104 4.30456 2.30374 4.44402 2.24992 4.54969C2.22298 4.6026 2.20427 4.64735 2.19203 4.67981C2.18591 4.69606 2.18138 4.70928 2.17825 4.71896C2.17668 4.72381 2.17545 4.72777 2.17455 4.73079C2.17409 4.7323 2.17372 4.73357 2.17342 4.73461C2.17327 4.73512 2.17314 4.73558 2.17303 4.73597C2.17297 4.73617 2.17292 4.73635 2.17288 4.73652C2.17285 4.7366 2.17282 4.73671 2.17281 4.73675C2.17278 4.73686 2.17275 4.73697 2.33334 4.78158ZM4 3.94824C4.64922 3.94824 5.02285 4.17988 5.23467 4.39776C5.34243 4.50859 5.41138 4.61913 5.45305 4.70096C5.47385 4.7418 5.48769 4.77518 5.49607 4.7974C5.50025 4.80849 5.50305 4.81676 5.50466 4.82173C5.50547 4.82421 5.50597 4.82586 5.5062 4.82662C5.50631 4.82701 5.50636 4.82717 5.50634 4.82709C5.50633 4.82706 5.5063 4.82697 5.50626 4.82681C5.50624 4.82674 5.50621 4.82665 5.50618 4.82654C5.50617 4.82649 5.50614 4.8264 5.50614 4.82637C5.50611 4.82628 5.50608 4.82618 5.66667 4.78158C5.82726 4.73697 5.82723 4.73686 5.8272 4.73675C5.82718 4.73671 5.82715 4.7366 5.82713 4.73652C5.82708 4.73635 5.82703 4.73617 5.82698 4.73597C5.82686 4.73558 5.82673 4.73512 5.82659 4.73461C5.82629 4.73357 5.82591 4.7323 5.82546 4.73079C5.82455 4.72777 5.82333 4.72381 5.82176 4.71896C5.81862 4.70928 5.8141 4.69606 5.80797 4.67981C5.79573 4.64735 5.77703 4.6026 5.75008 4.54969C5.69627 4.44402 5.60896 4.30456 5.47367 4.1654C5.19938 3.88327 4.73968 3.61491 4 3.61491L4 3.94824ZM1.66666 4.11458C1.82666 4.16125 1.82663 4.16135 1.82661 4.16145C1.8266 4.16147 1.82657 4.16156 1.82656 4.16161C1.82653 4.16171 1.82651 4.16179 1.82649 4.16185C1.82645 4.16197 1.82644 4.16202 1.82645 4.16198C1.82647 4.16191 1.82658 4.16154 1.8268 4.16086C1.82722 4.15951 1.82804 4.15696 1.82929 4.1533C1.83178 4.14597 1.83597 4.13421 1.84214 4.11863C1.85448 4.08746 1.87465 4.0412 1.90478 3.98484C1.9651 3.87204 2.06482 3.71977 2.22079 3.56698C2.52921 3.26485 3.07038 2.94792 4 2.94792L4 2.61458C2.98517 2.61458 2.35967 2.96432 1.98753 3.32886C1.80323 3.5094 1.6842 3.69046 1.61084 3.82766C1.57413 3.89631 1.54873 3.95421 1.5322 3.99595C1.52394 4.01683 1.51788 4.03371 1.51372 4.04592C1.51165 4.05202 1.51005 4.05696 1.50888 4.06066C1.5083 4.0625 1.50783 4.06404 1.50746 4.06525C1.50727 4.06586 1.50712 4.06638 1.50698 4.06683C1.50692 4.06705 1.50686 4.06725 1.50681 4.06743C1.50678 4.06753 1.50674 4.06765 1.50673 4.06769C1.5067 4.06781 1.50666 4.06792 1.66666 4.11458ZM4 2.94792C4.92961 2.94792 5.47078 3.26485 5.7792 3.56698C5.93518 3.71977 6.03489 3.87204 6.09521 3.98484C6.12534 4.04119 6.14552 4.08746 6.15786 4.11863C6.16402 4.13421 6.16821 4.14597 6.17071 4.1533C6.17195 4.15696 6.17277 4.15951 6.1732 4.16086C6.17341 4.16154 6.17353 4.16191 6.17355 4.16198C6.17356 4.16202 6.17354 4.16197 6.17351 4.16185C6.17349 4.16179 6.17347 4.16171 6.17344 4.16161C6.17342 4.16156 6.17339 4.16147 6.17339 4.16144C6.17336 4.16135 6.17333 4.16125 6.33333 4.11458C6.49333 4.06792 6.4933 4.06781 6.49326 4.06769C6.49325 4.06765 6.49322 4.06753 6.49319 4.06743C6.49314 4.06725 6.49308 4.06705 6.49301 4.06683C6.49288 4.06638 6.49272 4.06586 6.49254 4.06525C6.49217 4.06404 6.4917 4.0625 6.49111 4.06066C6.48995 4.05696 6.48835 4.05202 6.48627 4.04592C6.48212 4.03371 6.47606 4.01683 6.46779 3.99595C6.45127 3.95421 6.42586 3.89631 6.38916 3.82766C6.3158 3.69046 6.19676 3.5094 6.01246 3.32886C5.64032 2.96432 5.01483 2.61458 4 2.61458L4 2.94792ZM4.5 6.44824C4.5 6.72438 4.27615 6.94824 4 6.94824V7.28158C4.46024 7.28158 4.83334 6.90848 4.83334 6.44824H4.5ZM4 6.94824C3.72386 6.94824 3.5 6.72438 3.5 6.44824H3.16667C3.16667 6.90848 3.53977 7.28158 4 7.28158V6.94824ZM3.5 6.44824C3.5 6.1721 3.72386 5.94824 4 5.94824V5.61491C3.53977 5.61491 3.16667 5.988 3.16667 6.44824H3.5ZM4 5.94824C4.27614 5.94824 4.5 6.1721 4.5 6.44824H4.83334C4.83334 5.988 4.46024 5.61491 4 5.61491V5.94824Z" fill="currentColor"/></svg>