<svg width="24" height="24" viewBox="0 0 24 24" fill="none" xmlns="http://www.w3.org/2000/svg">
<path d="M2.02903 6.92284C1.35759 10.1373 3.88861 13.9636 7.06732 17.1423C10.246 20.321 14.0724 22.852 17.2868 22.1806C19.9303 21.6284 21.2799 20.2202 22.0394 19.0203C22.3015 18.6063 22.1692 18.0689 21.7764 17.7759L18.0568 15.0013C17.6557 14.7022 17.0958 14.7427 16.742 15.0965L14.7676 17.0709C14.7676 17.0709 12.8485 16.447 10.3055 13.9041C7.76259 11.3611 7.13878 9.442 7.13878 9.442L9.11312 7.46765C9.46694 7.11383 9.50747 6.55395 9.20829 6.15286L6.43373 2.43317C6.14075 2.0404 5.60334 1.90811 5.1893 2.17018C3.98938 2.92971 2.58123 4.27928 2.02903 6.92284Z" stroke="black" stroke-width="1.0075" stroke-linecap="round" stroke-linejoin="round"/>
</svg>
