<svg width="12" height="12" viewBox="0 0 12 12" fill="none" xmlns="http://www.w3.org/2000/svg">
<g clip-path="url(#clip0_1_2543)">
<path d="M1.00697 3.4359C0.673745 5.03115 1.92984 6.93006 3.50736 8.50758C5.08488 10.0851 6.98381 11.3412 8.57905 11.008C9.89098 10.7339 10.5607 10.0351 10.9377 9.43961C11.0677 9.23413 11.0021 8.96742 10.8072 8.82202L8.96119 7.44508C8.76213 7.29661 8.48428 7.31672 8.30868 7.49231L7.32886 8.47214C7.32886 8.47214 6.37643 8.16253 5.11442 6.90052C3.85241 5.63851 3.54282 4.6861 3.54282 4.6861L4.52265 3.70628C4.69824 3.53068 4.71835 3.25283 4.56988 3.05377L3.19292 1.20778C3.04753 1.01285 2.78082 0.947199 2.57534 1.07726C1.97985 1.4542 1.28102 2.12396 1.00697 3.4359Z" stroke="black" stroke-width="0.5" stroke-linecap="round" stroke-linejoin="round"/>
</g>
<defs>
<clipPath id="clip0_1_2543">
<rect width="12" height="12" fill="white"/>
</clipPath>
</defs>
</svg>
