<svg width="8" height="8" viewBox="0 0 8 8" fill="none" xmlns="http://www.w3.org/2000/svg">
<g clip-path="url(#clip0_1_2547)">
<path d="M0.671311 2.29027C0.449161 3.35377 1.28656 4.61972 2.33824 5.6714C3.38992 6.72308 4.65587 7.56048 5.71937 7.33833C6.59399 7.15563 7.04049 6.68974 7.29179 6.29275C7.3785 6.15576 7.33473 5.97796 7.20478 5.88102L5.97412 4.96306C5.84142 4.86408 5.65618 4.87749 5.53912 4.99455L4.8859 5.64777C4.8859 5.64777 4.25095 5.44136 3.40961 4.60002C2.56827 3.75868 2.36188 3.12374 2.36188 3.12374L3.0151 2.47053C3.13216 2.35346 3.14557 2.16822 3.04658 2.03552L2.12861 0.804858C2.03168 0.674908 1.85388 0.63114 1.71689 0.717849C1.3199 0.969141 0.854008 1.41565 0.671311 2.29027Z" stroke="black" stroke-width="0.333333" stroke-linecap="round" stroke-linejoin="round"/>
</g>
<defs>
<clipPath id="clip0_1_2547">
<rect width="8" height="8" fill="white"/>
</clipPath>
</defs>
</svg>
