<svg width="12" height="12" viewBox="0 0 12 12" fill="none" xmlns="http://www.w3.org/2000/svg">
<path d="M2.00001 4.50049V3.23656C2.00001 3.08131 2.03615 2.9282 2.10558 2.78934L2.50001 2.00049H5.00001L5.50001 3.00049H10.5C10.7761 3.00049 11 3.22435 11 3.50049V9.00049C11 9.55277 10.5523 10.0005 10 10.0005H9.00001M1.15463 4.50024H8.61811C8.84359 4.50024 9.04117 4.65115 9.10049 4.86869L10.3278 9.36869C10.4145 9.68676 10.1751 10.0002 9.84538 10.0002H2.7638C2.31285 10.0002 1.91769 9.69842 1.79904 9.26336L0.672251 5.1318C0.585505 4.81373 0.824947 4.50024 1.15463 4.50024Z" stroke="black" stroke-width="0.5" stroke-linecap="round" stroke-linejoin="round"/>
</svg>
