<svg width="32" height="32" viewBox="0 0 32 32" fill="none" xmlns="http://www.w3.org/2000/svg">
<path d="M5.37339 12.0898V8.69407C5.37339 8.27698 5.4705 7.86562 5.65703 7.49256L6.71672 5.37317H13.4334L14.7767 8.05984H28.2101C28.952 8.05984 29.5534 8.66127 29.5534 9.40317V24.1798C29.5534 25.6636 28.3505 26.8665 26.8667 26.8665H24.1801M3.10212 12.09H23.154C23.7598 12.09 24.2906 12.4954 24.45 13.0798L27.7473 25.1698C27.9803 26.0244 27.337 26.8666 26.4513 26.8666H7.42543C6.21387 26.8666 5.15221 26.0557 4.83343 24.8869L1.80612 13.7868C1.57306 12.9322 2.21636 12.09 3.10212 12.09Z" stroke="black" stroke-width="1.34333" stroke-linecap="round" stroke-linejoin="round"/>
</svg>
