<svg width="24" height="24" viewBox="0 0 24 24" fill="none" xmlns="http://www.w3.org/2000/svg">
<path d="M6.04501 19.1422V11.0822C6.04501 10.5258 6.49609 10.0747 7.05251 10.0747H17.1275C17.6839 10.0747 18.135 10.5258 18.135 11.0822V19.1422C18.135 19.6986 17.6839 20.1497 17.1275 20.1497H7.05251C6.49609 20.1497 6.04501 19.6986 6.04501 19.1422Z" stroke="black" stroke-width="1.0075" stroke-linejoin="round"/>
<path d="M14.105 15.1129C14.105 16.2258 13.2029 17.1279 12.09 17.1279C10.9771 17.1279 10.075 16.2258 10.075 15.1129C10.075 14 10.9771 13.0979 12.09 13.0979C13.2029 13.0979 14.105 14 14.105 15.1129Z" stroke="black" stroke-width="1.0075" stroke-linejoin="round"/>
<path d="M8.06 10.0748V8.05978C8.06 5.83408 9.86429 4.02979 12.09 4.02979C14.3157 4.02979 16.12 5.83408 16.12 8.05979V10.0748H8.06Z" stroke="black" stroke-width="1.0075" stroke-linejoin="round"/>
</svg>
