<svg width="16" height="16" viewBox="0 0 16 16" fill="none" xmlns="http://www.w3.org/2000/svg">
<path d="M10.7466 6.71652V4.36569C10.7466 3.43831 11.4984 2.68652 12.4258 2.68652C13.3532 2.68652 14.105 3.43831 14.105 4.36569V6.71652M4.03 7.38846V12.7618C4.03 13.1327 4.33071 13.4335 4.70167 13.4335H11.4183C11.7893 13.4335 12.09 13.1327 12.09 12.7618V7.38846C12.09 7.01751 11.7893 6.7168 11.4183 6.7168H4.70167C4.33071 6.7168 4.03 7.01751 4.03 7.38846ZM9.40331 10.075C9.40331 10.8169 8.80188 11.4184 8.05998 11.4184C7.31808 11.4184 6.71664 10.8169 6.71664 10.075C6.71664 9.33312 7.31808 8.73169 8.05998 8.73169C8.80188 8.73169 9.40331 9.33312 9.40331 10.075Z" stroke="black" stroke-width="0.671667" stroke-linecap="round" stroke-linejoin="round"/>
</svg>
