<svg width="12" height="12" viewBox="0 0 12 12" fill="none" xmlns="http://www.w3.org/2000/svg">
<path d="M4.5 9.99947C4.5 10.5518 3.82843 10.9995 3 10.9995C2.17157 10.9995 1.5 10.5518 1.5 9.99947C1.5 9.44719 2.17157 8.99947 3 8.99947C3.82843 8.99947 4.5 9.44719 4.5 9.99947ZM4.5 9.99947V4.99947M10 8.99947V2.99947M10 8.99947C10 9.55176 9.32843 9.99947 8.50001 9.99947C7.67158 9.99947 7.00001 9.55176 7.00001 8.99947C7.00001 8.44719 7.67158 7.99947 8.50001 7.99947C9.32843 7.99947 10 8.44719 10 8.99947ZM10 2.99947V1.71332C10 1.36634 9.65522 1.12485 9.32913 1.24343L4.82913 2.87979C4.63153 2.95164 4.5 3.13944 4.5 3.34969V4.99947M10 2.99947L4.5 4.99947" stroke="black" stroke-width="0.5" stroke-linejoin="round"/>
</svg>
