<svg width="8" height="8" viewBox="0 0 8 8" fill="none" xmlns="http://www.w3.org/2000/svg">
<path d="M4 1.6665C2.33334 1.6665 2 2.99984 2 3.6665V4.68531C2 4.89231 1.95181 5.09622 1.85924 5.28136L1.57454 5.85077C1.46372 6.0724 1.62459 6.33317 1.87238 6.33317H3.16667M4 1.6665C5.66667 1.6665 6 2.99984 6 3.6665V4.68531C6 4.89231 6.0482 5.09622 6.14077 5.28136L6.42547 5.85077C6.53628 6.0724 6.37512 6.33317 6.12732 6.33317H4.83334M4 1.6665L4 1M3.16667 6.33317C3.16667 6.99984 3.5 7.33317 4 7.33317C4.5 7.33317 4.83334 6.99984 4.83334 6.33317M3.16667 6.33317H4.83334" stroke="black" stroke-width="0.333333" stroke-linecap="round" stroke-linejoin="round"/>
</svg>
