<svg width="32" height="32" viewBox="0 0 32 32" fill="none" xmlns="http://www.w3.org/2000/svg">
<path d="M25.5233 1.34375V13.4338M25.5233 13.4338L30.8967 8.06042M25.5233 13.4338L20.15 8.06042M9.42308 22.8563C5.18481 18.618 1.8101 13.5163 2.70537 9.23038C3.44164 5.70564 5.31917 3.90622 6.91906 2.89351C7.47111 2.54408 8.18766 2.72046 8.5783 3.24416L12.2777 8.20374C12.6766 8.73853 12.6226 9.48504 12.1508 9.9568L9.51836 12.5893C9.51836 12.5893 10.3501 15.1481 13.7407 18.5387C17.1313 21.9293 19.6902 22.7611 19.6902 22.7611L22.3226 20.1286C22.7944 19.6569 23.5409 19.6028 24.0757 20.0017L29.0352 23.7011C29.5589 24.0917 29.7353 24.8083 29.3859 25.3604C28.3732 26.9602 26.5738 28.8378 23.049 29.574C18.7631 30.4693 13.6613 27.0946 9.42308 22.8563Z" stroke="black" stroke-width="1.34333" stroke-linecap="round" stroke-linejoin="round"/>
</svg>
