<svg width="16" height="16" viewBox="0 0 16 16" fill="none" xmlns="http://www.w3.org/2000/svg">
<g clip-path="url(#clip0_1_2578)">
<path d="M12.7617 0.671875V6.71688M12.7617 6.71688L15.4483 4.03021M12.7617 6.71688L10.075 4.03021M4.71154 11.4277C2.5924 9.30853 0.905052 6.75765 1.35268 4.6147C1.72082 2.85233 2.65958 1.95262 3.45953 1.44627C3.73555 1.27155 4.09383 1.35974 4.28915 1.62159L6.13886 4.10138C6.33831 4.36878 6.31129 4.74203 6.07541 4.97791L4.75918 6.29414C4.75918 6.29414 5.17506 7.57355 6.87036 9.26885C8.56566 10.9641 9.84509 11.3801 9.84509 11.3801L11.1613 10.0638C11.3972 9.82794 11.7705 9.80092 12.0378 10.0004L14.5176 11.8501C14.7795 12.0454 14.8677 12.4037 14.6929 12.6797C14.1866 13.4796 13.2869 14.4184 11.5245 14.7865C9.38157 15.2342 6.83067 13.5468 4.71154 11.4277Z" stroke="black" stroke-width="0.671667" stroke-linecap="round" stroke-linejoin="round"/>
</g>
<defs>
<clipPath id="clip0_1_2578">
<rect width="16" height="16" fill="white"/>
</clipPath>
</defs>
</svg>
