<svg width="12" height="12" viewBox="0 0 12 12" fill="none" xmlns="http://www.w3.org/2000/svg">
<path d="M9.375 8.5H10C10.2761 8.5 10.5 8.27614 10.5 8V4C10.5 3.72386 10.2761 3.5 10 3.5H2C1.72386 3.5 1.5 3.72386 1.5 4V8C1.5 8.27614 1.72386 8.5 2 8.5H2.625M4.24999 6.75H7.74999M4.24999 9.25H7.74999M4.24999 8H7.74999M3.50002 10.5H8.50002C8.77616 10.5 9.00002 10.2761 9.00002 10V6C9.00002 5.72386 8.77616 5.5 8.50002 5.5H3.50002C3.22387 5.5 3.00002 5.72386 3.00002 6V10C3.00002 10.2761 3.22387 10.5 3.50002 10.5ZM9.00002 3.5V2C9.00002 1.72386 8.77616 1.5 8.50002 1.5H3.50002C3.22387 1.5 3.00002 1.72386 3.00002 2V3.5H9.00002Z" stroke="black" stroke-width="0.5" stroke-linecap="round" stroke-linejoin="round"/>
</svg>
