<svg width="12" height="12" viewBox="0 0 12 12" fill="none" xmlns="http://www.w3.org/2000/svg">
<path d="M10.6843 6.79103C10.7072 6.65486 10.6153 6.52595 10.4792 6.50311C10.343 6.48026 10.2141 6.57213 10.1912 6.7083L10.6843 6.79103ZM10.2358 4.03888V4.28888C10.3739 4.28888 10.4858 4.17695 10.4858 4.03888H10.2358ZM10.4858 1.21045C10.4858 1.07238 10.3739 0.960449 10.2358 0.960449C10.0977 0.960449 9.98579 1.07238 9.98579 1.21045H10.4858ZM7.40736 3.78888C7.26929 3.78888 7.15736 3.90081 7.15736 4.03888C7.15736 4.17695 7.26929 4.28888 7.40736 4.28888V3.78888ZM6.00001 10.2497C3.6528 10.2497 1.75001 8.34687 1.75001 5.99966H1.25001C1.25001 8.62301 3.37665 10.7497 6.00001 10.7497V10.2497ZM1.75001 5.99966C1.75001 3.65245 3.6528 1.74966 6.00001 1.74966V1.24966C3.37665 1.24966 1.25001 3.37631 1.25001 5.99966H1.75001ZM6.00001 1.74966C7.66834 1.74966 9.11262 2.71091 9.80837 4.11092L10.2561 3.8884C9.47917 2.32497 7.86539 1.24966 6.00001 1.24966V1.74966ZM10.1912 6.7083C9.85404 8.71816 8.10563 10.2497 6.00001 10.2497V10.7497C8.35388 10.7497 10.3074 9.03774 10.6843 6.79103L10.1912 6.7083ZM10.4858 4.03888V1.21045H9.98579V4.03888H10.4858ZM7.40736 4.28888H10.2358V3.78888H7.40736V4.28888Z" fill="black"/>
</svg>
