<svg width="12" height="12" viewBox="0 0 12 12" fill="none" xmlns="http://www.w3.org/2000/svg">
<path d="M9.82322 10.1768C9.92085 10.2744 10.0791 10.2744 10.1768 10.1768C10.2744 10.0791 10.2744 9.92085 10.1768 9.82322L9.82322 10.1768ZM8.25001 5.25049C8.25001 6.90734 6.90686 8.25049 5.25001 8.25049V8.75049C7.183 8.75049 8.75001 7.18348 8.75001 5.25049H8.25001ZM5.25001 8.25049C3.59315 8.25049 2.25001 6.90734 2.25001 5.25049H1.75001C1.75001 7.18348 3.31701 8.75049 5.25001 8.75049V8.25049ZM2.25001 5.25049C2.25001 3.59363 3.59315 2.25049 5.25001 2.25049V1.75049C3.31701 1.75049 1.75001 3.31749 1.75001 5.25049H2.25001ZM5.25001 2.25049C6.90686 2.25049 8.25001 3.59363 8.25001 5.25049H8.75001C8.75001 3.31749 7.183 1.75049 5.25001 1.75049V2.25049ZM10.1768 9.82322L7.67678 7.32322L7.32322 7.67678L9.82322 10.1768L10.1768 9.82322Z" fill="black"/>
</svg>
