<svg width="32" height="32" viewBox="0 0 32 32" fill="none" xmlns="http://www.w3.org/2000/svg">
<path d="M26.3917 27.3415C26.654 27.6038 27.0793 27.6038 27.3416 27.3415C27.6039 27.0792 27.6039 26.6539 27.3416 26.3916L26.3917 27.3415ZM22.165 14.1047C22.165 18.5561 18.5564 22.1647 14.105 22.1647V23.508C19.2983 23.508 23.5084 19.298 23.5084 14.1047H22.165ZM14.105 22.1647C9.6536 22.1647 6.04502 18.5561 6.04502 14.1047H4.70169C4.70169 19.298 8.9117 23.508 14.105 23.508V22.1647ZM6.04502 14.1047C6.04502 9.6533 9.6536 6.04471 14.105 6.04471V4.70138C8.9117 4.70138 4.70169 8.9114 4.70169 14.1047H6.04502ZM14.105 6.04471C18.5564 6.04471 22.165 9.6533 22.165 14.1047H23.5084C23.5084 8.9114 19.2983 4.70138 14.105 4.70138V6.04471ZM27.3416 26.3916L20.6249 19.675L19.6751 20.6248L26.3917 27.3415L27.3416 26.3916Z" fill="black"/>
</svg>
