<svg width="32" height="32" viewBox="0 0 32 32" fill="none" xmlns="http://www.w3.org/2000/svg">
<path d="M20.15 9.40283L11.4183 14.7762M11.4183 18.1362L20.15 22.8379M12.09 16.1198C12.09 17.6036 10.8871 18.8064 9.40331 18.8064C7.91951 18.8064 6.71664 17.6036 6.71664 16.1198C6.71664 14.636 7.91951 13.4331 9.40331 13.4331C10.8871 13.4331 12.09 14.636 12.09 16.1198ZM25.5233 8.05971C25.5233 9.54352 24.3205 10.7464 22.8366 10.7464C21.3528 10.7464 20.15 9.54352 20.15 8.05971C20.15 6.57591 21.3528 5.37305 22.8366 5.37305C24.3205 5.37305 25.5233 6.57591 25.5233 8.05971ZM25.5233 24.1789C25.5233 25.6627 24.3205 26.8655 22.8366 26.8655C21.3528 26.8655 20.15 25.6627 20.15 24.1789C20.15 22.695 21.3528 21.4922 22.8366 21.4922C24.3205 21.4922 25.5233 22.695 25.5233 24.1789Z" stroke="black" stroke-width="1.34333" stroke-linejoin="round"/>
</svg>
