<svg width="48" height="48" viewBox="0 0 48 48" fill="none" xmlns="http://www.w3.org/2000/svg">
<path d="M16.12 24.1804C16.12 26.4061 14.3157 28.2104 12.09 28.2104C9.86429 28.2104 8.06 26.4061 8.06 24.1804C8.06 21.9547 9.86429 20.1504 12.09 20.1504C14.3157 20.1504 16.12 21.9547 16.12 24.1804Z" stroke="black" stroke-width="2.015" stroke-linejoin="round"/>
<path d="M28.21 24.1804C28.21 26.4061 26.4057 28.2104 24.18 28.2104C21.9543 28.2104 20.15 26.4061 20.15 24.1804C20.15 21.9547 21.9543 20.1504 24.18 20.1504C26.4057 20.1504 28.21 21.9547 28.21 24.1804Z" stroke="black" stroke-width="2.015" stroke-linejoin="round"/>
<path d="M40.2999 24.1804C40.2999 26.4061 38.4956 28.2104 36.2699 28.2104C34.0442 28.2104 32.2399 26.4061 32.2399 24.1804C32.2399 21.9547 34.0442 20.1504 36.2699 20.1504C38.4956 20.1504 40.2999 21.9547 40.2999 24.1804Z" stroke="black" stroke-width="2.015" stroke-linejoin="round"/>
</svg>
