<svg width="24" height="24" viewBox="0 0 24 24" fill="none" xmlns="http://www.w3.org/2000/svg">
<path d="M3.02249 8.32894V19.1428C3.02249 19.6992 3.47356 20.1503 4.02999 20.1503H20.15C20.7064 20.1503 21.1575 19.6992 21.1575 19.1428V8.32894M3.02249 8.32894V5.03777C3.02249 4.48135 3.47356 4.03027 4.02999 4.03027H20.15C20.7064 4.03027 21.1575 4.48135 21.1575 5.03777V8.32894M3.02249 8.32894H21.1575M7.05249 2.01465V5.03715M17.1275 2.01465V5.03715M18.135 11.0825H16.12M18.135 17.1279H16.12M13.0975 11.0825H11.0825M13.0975 17.1279H11.0825M8.06 11.0825H6.045M8.06 17.1279H6.045M18.135 14.105H16.12M13.0975 14.105H11.0825M8.06 14.105H6.045" stroke="black" stroke-width="1.0075" stroke-linecap="round" stroke-linejoin="round"/>
</svg>
