<svg viewBox="0 0 32 32" fill="none"><path d="M28.21 16.1203C28.21 22.7974 22.7971 28.2103 16.12 28.2103M28.21 16.1203C28.21 9.44315 22.7971 4.03027 16.12 4.03027M28.21 16.1203C28.21 16.1203 24.18 20.8223 16.12 20.8223C8.05998 20.8223 4.02998 16.1203 4.02998 16.1203M16.12 28.2103C9.44286 28.2103 4.02998 22.7974 4.02998 16.1203M16.12 28.2103C16.12 28.2103 11.4183 24.1803 11.4183 16.1203C11.4183 8.06027 16.12 4.03027 16.12 4.03027M16.12 28.2103C16.12 28.2103 20.8217 24.1803 20.8217 16.1203C20.8217 8.06027 16.12 4.03027 16.12 4.03027M4.02998 16.1203C4.02998 9.44315 9.44286 4.03027 16.12 4.03027M4.02998 16.1191C4.02998 16.1191 8.05998 11.4175 16.12 11.4175C24.18 11.4175 28.21 16.1191 28.21 16.1191" stroke="currentColor" stroke-width="1.34333" stroke-linejoin="round"/></svg>