<svg viewBox="0 0 48 48" fill="none"><path d="M42.315 24.1809C42.315 34.1966 34.1957 42.3159 24.18 42.3159M42.315 24.1809C42.315 14.1652 34.1957 6.0459 24.18 6.0459M42.315 24.1809C42.315 24.1809 36.27 31.2339 24.18 31.2339C12.09 31.2339 6.04498 24.1809 6.04498 24.1809M24.18 42.3159C14.1643 42.3159 6.04498 34.1966 6.04498 24.1809M24.18 42.3159C24.18 42.3159 17.1275 36.2709 17.1275 24.1809C17.1275 12.0909 24.18 6.0459 24.18 6.0459M24.18 42.3159C24.18 42.3159 31.2325 36.2709 31.2325 24.1809C31.2325 12.0909 24.18 6.0459 24.18 6.0459M6.04498 24.1809C6.04498 14.1652 14.1643 6.0459 24.18 6.0459M6.04498 24.1792C6.04498 24.1792 12.09 17.1267 24.18 17.1267C36.27 17.1267 42.315 24.1792 42.315 24.1792" stroke="currentColor" stroke-width="2.015" stroke-linejoin="round"/></svg>