<svg viewBox="0 0 48 48" fill="none"><path d="M24.18 13.9213C21.9633 11.0999 18.5462 8.27862 10.0774 8.07159C9.52114 8.058 9.06751 8.50982 9.06751 9.06625L9.06751 33.4423C9.06751 33.9988 9.52117 34.4357 10.0773 34.4539C18.5462 34.7307 21.9632 38.4856 24.18 41.307M24.18 13.9213C26.3968 11.0999 29.8138 8.27862 38.2826 8.07159C38.8389 8.058 39.2925 8.49967 39.2925 9.05609V33.441C39.2925 33.9974 38.8388 34.4357 38.2827 34.4539C29.8138 34.7307 26.3968 38.4856 24.18 41.307M24.18 13.9213L24.18 41.307M38.7591 12.0897H43.3225C43.8789 12.0897 44.33 12.5408 44.33 13.0972V39.3708C44.33 40.1861 43.3695 40.7276 42.6244 40.3966C41.0223 39.6847 38.3486 38.815 34.8476 38.815C28.9212 38.815 24.18 42.3147 24.18 42.3147C24.18 42.3147 19.4388 38.815 13.5124 38.815C10.0114 38.815 7.33775 39.6847 5.73563 40.3966C4.99051 40.7276 4.03 40.1861 4.03 39.3708V13.0972C4.03 12.5408 4.48107 12.0897 5.0375 12.0897H9.60088" stroke="currentColor" stroke-width="2.015" stroke-linejoin="round"/></svg>