<svg viewBox="0 0 16 16" fill="none"><path d="M2.01498 5.55255V12.7618C2.01498 13.1327 2.3157 13.4334 2.68665 13.4334H13.4333C13.8043 13.4334 14.105 13.1327 14.105 12.7618V5.55255M2.01498 5.55255V3.35843C2.01498 2.98748 2.3157 2.68677 2.68665 2.68677H13.4333C13.8043 2.68677 14.105 2.98748 14.105 3.35843V5.55255M2.01498 5.55255H14.105M4.70163 1.34326V3.35826M11.4183 1.34326V3.35826M9.40331 9.40315C9.40331 10.1451 8.80188 10.7465 8.05998 10.7465C7.31808 10.7465 6.71664 10.1451 6.71664 9.40315C6.71664 8.66125 7.31808 8.05981 8.05998 8.05981C8.80188 8.05981 9.40331 8.66125 9.40331 9.40315Z" stroke="currentColor" stroke-width="0.671667" stroke-linecap="round" stroke-linejoin="round"/></svg>