<svg viewBox="0 0 32 32" fill="none"><path d="M4.02998 11.1063V25.5248C4.02998 26.2667 4.63142 26.8681 5.37332 26.8681H26.8667C27.6086 26.8681 28.21 26.2667 28.21 25.5248V11.1063M4.02998 11.1063V6.71809C4.02998 5.97619 4.63142 5.37476 5.37332 5.37476H26.8667C27.6086 5.37476 28.21 5.97619 28.21 6.71809V11.1063M4.02998 11.1063H28.21M9.40331 2.68701V6.71701M22.8367 2.68701V6.71701M24.1801 14.7778H21.4934M24.1801 22.8384H21.4934M17.4633 14.7778H14.7767M17.4633 22.8384H14.7767M10.7467 14.7778H8.05999M10.7467 22.8384H8.05999M24.1801 18.8071H21.4934M17.4633 18.8071H14.7767M10.7467 18.8071H8.05999" stroke="currentColor" stroke-width="1.34333" stroke-linecap="round" stroke-linejoin="round"/></svg>