<svg viewBox="0 0 48 48" fill="none"><path d="M40.5206 26.4445L39.5209 26.3196L39.5209 26.3196L40.5206 26.4445ZM42.0319 14.3545L41.0321 14.2296L41.0321 14.2296L42.0319 14.3545ZM4.03 7.05231C3.47357 7.05231 3.0225 7.50339 3.0225 8.05981C3.0225 8.61624 3.47357 9.06731 4.03 9.06731V7.05231ZM10.4765 9.55097L9.50361 9.81289L9.50361 9.81289L10.4765 9.55097ZM16.726 32.7637L17.6989 32.5017L17.6989 32.5017L16.726 32.7637ZM38.285 35.2623C38.8414 35.2623 39.2925 34.8112 39.2925 34.2548C39.2925 33.6984 38.8414 33.2473 38.285 33.2473V35.2623ZM41.5203 26.5695L43.0316 14.4795L41.0321 14.2296L39.5209 26.3196L41.5203 26.5695ZM40.0324 11.0821H10.7466V13.0971H40.0324V11.0821ZM43.0316 14.4795C43.2571 12.6755 41.8504 11.0821 40.0324 11.0821V13.0971C40.6384 13.0971 41.1073 13.6282 41.0321 14.2296L43.0316 14.4795ZM39.5209 26.3196C39.4579 26.8237 39.0293 27.2021 38.5212 27.2021V29.2171C40.0455 29.2171 41.3313 28.082 41.5203 26.5695L39.5209 26.3196ZM4.03 9.06731H8.53075V7.05231H4.03V9.06731ZM9.50361 9.81289L15.7532 33.0256L17.6989 32.5017L11.4493 9.28904L9.50361 9.81289ZM18.6718 35.2623H38.285V33.2473H18.6718V35.2623ZM15.7532 33.0256C16.1085 34.3452 17.3051 35.2623 18.6718 35.2623V33.2473C18.2162 33.2473 17.8173 32.9416 17.6989 32.5017L15.7532 33.0256ZM8.53075 9.06731C8.9863 9.06731 9.38517 9.373 9.50361 9.81289L11.4493 9.28904C11.094 7.96938 9.8974 7.05231 8.53075 7.05231V9.06731ZM21.1575 40.3004C21.1575 40.8568 20.7065 41.3079 20.15 41.3079V43.3229C21.8193 43.3229 23.1725 41.9697 23.1725 40.3004H21.1575ZM20.15 41.3079C19.5936 41.3079 19.1425 40.8568 19.1425 40.3004H17.1275C17.1275 41.9697 18.4808 43.3229 20.15 43.3229V41.3079ZM19.1425 40.3004C19.1425 39.744 19.5936 39.2929 20.15 39.2929V37.2779C18.4808 37.2779 17.1275 38.6311 17.1275 40.3004H19.1425ZM20.15 39.2929C20.7065 39.2929 21.1575 39.744 21.1575 40.3004H23.1725C23.1725 38.6311 21.8193 37.2779 20.15 37.2779V39.2929ZM36.27 40.3004C36.27 40.8568 35.819 41.3079 35.2625 41.3079V43.3229C36.9318 43.3229 38.285 41.9697 38.285 40.3004H36.27ZM35.2625 41.3079C34.7061 41.3079 34.255 40.8568 34.255 40.3004H32.24C32.24 41.9697 33.5932 43.3229 35.2625 43.3229V41.3079ZM34.255 40.3004C34.255 39.744 34.7061 39.2929 35.2625 39.2929V37.2779C33.5932 37.2779 32.24 38.6311 32.24 40.3004H34.255ZM35.2625 39.2929C35.819 39.2929 36.27 39.744 36.27 40.3004H38.285C38.285 38.6311 36.9318 37.2779 35.2625 37.2779V39.2929ZM16.12 29.2171H38.5212V27.2021H16.12V29.2171Z" fill="currentColor"/></svg>