<svg viewBox="0 0 8 8" fill="none"><path d="M6.70317 4.37492L6.53779 4.35425L6.53779 4.35425L6.70317 4.37492ZM6.95317 2.37492L6.78779 2.35425L6.78779 2.35425L6.95317 2.37492ZM0.666672 1.16683C0.574624 1.16683 0.500005 1.24145 0.500005 1.3335C0.500005 1.42554 0.574624 1.50016 0.666672 1.50016V1.16683ZM1.73308 1.58017L1.57215 1.6235L1.57215 1.6235L1.73308 1.58017ZM2.76693 5.42015L2.92786 5.37683L2.92786 5.37683L2.76693 5.42015ZM6.33334 5.8335C6.42539 5.8335 6.5 5.75888 6.5 5.66683C6.5 5.57478 6.42539 5.50016 6.33334 5.50016V5.8335ZM6.86855 4.39559L7.11855 2.3956L6.78779 2.35425L6.53779 4.35425L6.86855 4.39559ZM6.62241 1.83358H1.77778V2.16691H6.62241V1.83358ZM7.11855 2.3956C7.15585 2.09717 6.92316 1.83358 6.62241 1.83358V2.16691C6.72266 2.16691 6.80022 2.25477 6.78779 2.35425L7.11855 2.3956ZM6.53779 4.35425C6.52736 4.43765 6.45646 4.50024 6.37241 4.50024V4.83358C6.62457 4.83358 6.83727 4.64581 6.86855 4.39559L6.53779 4.35425ZM0.666672 1.50016H1.41121V1.16683H0.666672V1.50016ZM1.57215 1.6235L2.60599 5.46348L2.92786 5.37683L1.89402 1.53684L1.57215 1.6235ZM3.0888 5.8335H6.33334V5.50016H3.0888V5.8335ZM2.60599 5.46348C2.66476 5.68179 2.86272 5.8335 3.0888 5.8335V5.50016C3.01344 5.50016 2.94745 5.44959 2.92786 5.37683L2.60599 5.46348ZM1.41121 1.50016C1.48657 1.50016 1.55256 1.55073 1.57215 1.6235L1.89402 1.53684C1.83525 1.31854 1.63729 1.16683 1.41121 1.16683V1.50016ZM3.5 6.66683C3.5 6.75888 3.42538 6.8335 3.33333 6.8335V7.16683C3.60948 7.16683 3.83333 6.94297 3.83333 6.66683H3.5ZM3.33333 6.8335C3.24129 6.8335 3.16667 6.75888 3.16667 6.66683H2.83333C2.83333 6.94297 3.05719 7.16683 3.33333 7.16683V6.8335ZM3.16667 6.66683C3.16667 6.57478 3.24129 6.50016 3.33333 6.50016V6.16683C3.05719 6.16683 2.83333 6.39069 2.83333 6.66683H3.16667ZM3.33333 6.50016C3.42538 6.50016 3.5 6.57478 3.5 6.66683H3.83333C3.83333 6.39069 3.60948 6.16683 3.33333 6.16683V6.50016ZM6 6.66683C6 6.75888 5.92538 6.8335 5.83333 6.8335V7.16683C6.10948 7.16683 6.33333 6.94297 6.33333 6.66683H6ZM5.83333 6.8335C5.74129 6.8335 5.66667 6.75888 5.66667 6.66683H5.33333C5.33333 6.94297 5.55719 7.16683 5.83333 7.16683V6.8335ZM5.66667 6.66683C5.66667 6.57478 5.74129 6.50016 5.83333 6.50016V6.16683C5.55719 6.16683 5.33333 6.39069 5.33333 6.66683H5.66667ZM5.83333 6.50016C5.92538 6.50016 6 6.57478 6 6.66683H6.33333C6.33333 6.39069 6.10948 6.16683 5.83333 6.16683V6.50016ZM2.66667 4.83358H6.37241V4.50024H2.66667V4.83358Z" fill="currentColor"/></svg>