<svg viewBox="0 0 12 12" fill="none"><path d="M10.0547 6.56202L9.80668 6.53101L9.80668 6.53101L10.0547 6.56202ZM10.4297 3.56202L10.1817 3.53101L10.1817 3.53101L10.4297 3.56202ZM1.00001 1.75C0.861936 1.75 0.750008 1.86193 0.750008 2C0.750008 2.13807 0.861936 2.25 1.00001 2.25V1.75ZM2.59963 2.37001L2.35822 2.43501L2.35822 2.43501L2.59963 2.37001ZM4.15039 8.12999L4.39179 8.06499L4.39179 8.06499L4.15039 8.12999ZM9.50001 8.75C9.63808 8.75 9.75001 8.63807 9.75001 8.5C9.75001 8.36193 9.63808 8.25 9.50001 8.25V8.75ZM10.3028 6.59303L10.6778 3.59303L10.1817 3.53101L9.80668 6.53101L10.3028 6.59303ZM9.93361 2.75H2.66666V3.25H9.93361V2.75ZM10.6778 3.59303C10.7338 3.14539 10.3847 2.75 9.93361 2.75V3.25C10.084 3.25 10.2003 3.3818 10.1817 3.53101L10.6778 3.59303ZM9.80668 6.53101C9.79104 6.65612 9.68469 6.75 9.55861 6.75V7.25C9.93685 7.25 10.2559 6.96835 10.3028 6.59303L9.80668 6.53101ZM1.00001 2.25H2.11682V1.75H1.00001V2.25ZM2.35822 2.43501L3.90898 8.19498L4.39179 8.06499L2.84103 2.30502L2.35822 2.43501ZM4.6332 8.75H9.50001V8.25H4.6332V8.75ZM3.90898 8.19498C3.99715 8.52244 4.29408 8.75 4.6332 8.75V8.25C4.52016 8.25 4.42118 8.17415 4.39179 8.06499L3.90898 8.19498ZM2.11682 2.25C2.22986 2.25 2.32884 2.32585 2.35822 2.43501L2.84103 2.30502C2.75287 1.97756 2.45594 1.75 2.11682 1.75V2.25ZM5.25001 10.0002C5.25001 10.1383 5.13808 10.2502 5.00001 10.2502V10.7502C5.41422 10.7502 5.75001 10.4145 5.75001 10.0002H5.25001ZM5.00001 10.2502C4.86194 10.2502 4.75001 10.1383 4.75001 10.0002H4.25001C4.25001 10.4145 4.58579 10.7502 5.00001 10.7502V10.2502ZM4.75001 10.0002C4.75001 9.86217 4.86194 9.75024 5.00001 9.75024V9.25024C4.58579 9.25024 4.25001 9.58603 4.25001 10.0002H4.75001ZM5.00001 9.75024C5.13808 9.75024 5.25001 9.86217 5.25001 10.0002H5.75001C5.75001 9.58603 5.41422 9.25024 5.00001 9.25024V9.75024ZM9.00001 10.0002C9.00001 10.1383 8.88808 10.2502 8.75001 10.2502V10.7502C9.16422 10.7502 9.50001 10.4145 9.50001 10.0002H9.00001ZM8.75001 10.2502C8.61194 10.2502 8.50001 10.1383 8.50001 10.0002H8.00001C8.00001 10.4145 8.33579 10.7502 8.75001 10.7502V10.2502ZM8.50001 10.0002C8.50001 9.86217 8.61194 9.75024 8.75001 9.75024V9.25024C8.33579 9.25024 8.00001 9.58603 8.00001 10.0002H8.50001ZM8.75001 9.75024C8.88808 9.75024 9.00001 9.86217 9.00001 10.0002H9.50001C9.50001 9.58603 9.16422 9.25024 8.75001 9.25024V9.75024ZM4 7.25H9.55861V6.75H4V7.25Z" fill="currentColor"/></svg>