<svg viewBox="0 0 24 24" fill="none"><path fill-rule="evenodd" clip-rule="evenodd" d="M12 2.5C6.75329 2.5 2.5 6.75329 2.5 12C2.5 17.2467 6.75329 21.5 12 21.5C17.2467 21.5 21.5 17.2467 21.5 12C21.5 6.75329 17.2467 2.5 12 2.5ZM11.2657 6.7185C11.2657 6.48531 11.4547 6.29628 11.6879 6.29628H12.3121C12.5453 6.29628 12.7343 6.48531 12.7343 6.7185V13.6887C12.7343 13.9219 12.5453 14.1109 12.3121 14.1109H11.6879C11.4547 14.1109 11.2657 13.9219 11.2657 13.6887V6.7185ZM11.2657 16.0108C11.2657 15.7776 11.4547 15.5886 11.6879 15.5886H12.3121C12.5453 15.5886 12.7343 15.7776 12.7343 16.0108V16.6441C12.7343 16.8773 12.5453 17.0663 12.3121 17.0663H11.6879C11.4547 17.0663 11.2657 16.8773 11.2657 16.6441V16.0108Z" fill="currentColor"/></svg>