<svg viewBox="0 0 48 48" fill="none"><path fill-rule="evenodd" clip-rule="evenodd" d="M24 4.6438C13.3099 4.6438 4.64392 13.3098 4.64392 23.9999C4.64392 34.69 13.3099 43.356 24 43.356C34.6901 43.356 43.3561 34.69 43.3561 23.9999C43.3561 13.3098 34.6901 4.6438 24 4.6438ZM22.5039 13.239C22.5039 12.7639 22.889 12.3788 23.3641 12.3788H24.6358C25.1109 12.3788 25.4961 12.7639 25.4961 13.239V27.4406C25.4961 27.9158 25.1109 28.3009 24.6358 28.3009H23.3641C22.889 28.3009 22.5039 27.9158 22.5039 27.4406V13.239ZM22.1879 32.1719C22.1879 31.6968 22.573 31.3117 23.0481 31.3117L24.975 31.3117C25.4501 31.3117 25.8352 31.6968 25.8352 32.1719V34.0139C25.8352 34.489 25.4501 34.8742 24.975 34.8742L23.0481 34.8742C22.573 34.8742 22.1879 34.489 22.1879 34.0139V32.1719Z" fill="currentColor"/></svg>