<svg viewBox="0 0 24 24" fill="none"><path d="M14.105 13.0972C14.105 14.21 13.2029 15.1122 12.09 15.1122C10.9772 15.1122 10.075 14.21 10.075 13.0972C10.075 11.9843 10.9772 11.0822 12.09 11.0822C13.2029 11.0822 14.105 11.9843 14.105 13.0972Z" stroke="currentColor" stroke-width="1.0075" stroke-linecap="round" stroke-linejoin="round"/><path d="M12.09 7.55603C7.75288 7.55603 4.50974 11.1662 3.4202 12.5585C3.16955 12.8789 3.16955 13.3157 3.4202 13.636C4.50974 15.0284 7.75288 18.6385 12.09 18.6385C16.4271 18.6385 19.6703 15.0284 20.7598 13.636C21.0105 13.3157 21.0105 12.8789 20.7598 12.5585C19.6703 11.1662 16.4271 7.55603 12.09 7.55603Z" stroke="currentColor" stroke-width="1.0075" stroke-linecap="round" stroke-linejoin="round"/></svg>