<svg xmlns="http://www.w3.org/2000/svg" width="48" height="48" fill="none" viewBox="0 0 48 48">
  <g class="Size=xl">
    <path stroke="currentColor" stroke-linecap="round" stroke-linejoin="round" stroke-width="2.01" d="m34.761 11.281-21.57 30.475m7.156-4.889c1.221.298 2.501.468 3.832.468 8.674 0 15.16-7.22 17.34-10.004a1.732 1.732 0 0 0 0-2.155c-2.18-2.785-8.666-10.005-17.34-10.005S9.02 22.391 6.84 25.176a1.732 1.732 0 0 0 0 2.155c1.521 1.943 5.14 6.047 10.136 8.349m11.233-9.428a4.03 4.03 0 1 1-8.06 0 4.03 4.03 0 0 1 8.06 0Z" class="vector"/>
  </g>
</svg>
