<svg width="12" height="12" viewBox="0 0 12 12" fill="none" xmlns="http://www.w3.org/2000/svg">
<path d="M7 6.49976C7 7.05204 6.55229 7.49976 6 7.49976C5.44772 7.49976 5 7.05204 5 6.49976C5 5.94747 5.44772 5.49976 6 5.49976C6.55229 5.49976 7 5.94747 7 6.49976Z" stroke="black" stroke-width="0.5" stroke-linecap="round" stroke-linejoin="round"/>
<path d="M6 3.75C3.84758 3.75 2.23808 5.54163 1.69737 6.23264C1.57297 6.3916 1.57297 6.6084 1.69737 6.76736C2.23808 7.45837 3.84758 9.25 6 9.25C8.15242 9.25 9.76192 7.45837 10.3026 6.76736C10.427 6.6084 10.427 6.3916 10.3026 6.23264C9.76191 5.54163 8.15242 3.75 6 3.75Z" stroke="black" stroke-width="0.5" stroke-linecap="round" stroke-linejoin="round"/>
</svg>
