<svg xmlns="http://www.w3.org/2000/svg" width="12" height="12" fill="none" viewBox="0 0 12 12">
  <g class="Size=xs">
    <path stroke="currentColor" stroke-linecap="round" stroke-linejoin="round" stroke-width=".5" d="m8.626 2.785-5.353 7.562M5.05 9.134c.303.074.62.116.951.116 2.152 0 3.762-1.792 4.303-2.483a.43.43 0 0 0 0-.534C9.762 5.542 8.153 3.75 6 3.75c-2.152 0-3.762 1.792-4.303 2.483a.43.43 0 0 0 0 .534c.378.483 1.276 1.501 2.515 2.072M7 6.5a1 1 0 1 1-2 0 1 1 0 0 1 2 0Z" class="vector"/>
  </g>
</svg>
