<svg viewBox="0 0 32 32" fill="none"><path d="M28.21 16.1198C28.21 22.7969 22.7971 28.2098 16.12 28.2098M28.21 16.1198C28.21 9.44266 22.7971 4.02979 16.12 4.02979M28.21 16.1198H4.03M16.12 28.2098C9.44288 28.2098 4.03 22.7969 4.03 16.1198M16.12 28.2098C16.12 28.2098 11.4183 24.18 11.4183 16.12C11.4183 8.06003 16.12 4.02979 16.12 4.02979M16.12 28.2098C16.12 28.2098 20.8217 24.18 20.8217 16.12C20.8217 8.06003 16.12 4.02979 16.12 4.02979M4.03 16.1198C4.03 9.44266 9.44288 4.02979 16.12 4.02979M26.195 10.075H6.045M26.195 22.165H6.045" stroke="currentColor" stroke-width="1.34333" stroke-linejoin="round"/></svg>