<svg viewBox="0 0 24 24" fill="none"><path d="M21.1575 12.0897C21.1575 17.0976 17.0978 21.1572 12.09 21.1572M21.1575 12.0897C21.1575 7.08187 17.0978 3.02222 12.09 3.02222M21.1575 12.0897H3.02249M12.09 21.1572C7.08215 21.1572 3.02249 17.0976 3.02249 12.0897M12.09 21.1572C12.09 21.1572 8.56375 18.1347 8.56375 12.0897C8.56375 6.04472 12.09 3.02222 12.09 3.02222M12.09 21.1572C12.09 21.1572 15.6162 18.1347 15.6162 12.0897C15.6162 6.04472 12.09 3.02222 12.09 3.02222M3.02249 12.0897C3.02249 7.08187 7.08215 3.02222 12.09 3.02222M19.6463 7.55591H4.53375M19.6463 16.6235H4.53375" stroke="currentColor" stroke-width="1.0075" stroke-linejoin="round"/></svg>