<svg viewBox="0 0 32 32" fill="none"><path d="M10.7466 24.8509V16.7909M10.7466 24.8509C10.7466 26.3347 9.54377 27.5376 8.05997 27.5376H6.71664C5.23283 27.5376 4.02997 26.3347 4.02997 24.8509V16.7909C4.02997 15.3071 5.23283 14.1042 6.71663 14.1042H8.05997C9.54377 14.1042 10.7466 15.3071 10.7466 16.7909M10.7466 24.8509L13.0751 26.5975C13.3076 26.7719 13.5904 26.8662 13.8811 26.8662H22.9735C23.7409 26.8662 24.4717 26.538 24.9815 25.9644L28.8747 21.5846C29.3118 21.0928 29.5533 20.4577 29.5533 19.7997V15.4478C29.5533 14.7059 28.9519 14.1045 28.21 14.1045H20.15C21.4933 10.7462 21.4933 9.40284 21.4933 6.71618C21.4933 4.0295 17.4633 4.0295 17.4633 6.71618C17.4633 13.4329 12.09 16.7909 10.7466 16.7909" stroke="currentColor" stroke-width="1.34333" stroke-linecap="round" stroke-linejoin="round"/></svg>