<svg viewBox="0 0 48 48" fill="none"><path d="M29.8792 27.0322L38.4282 18.4833C38.4282 18.4833 41.2778 15.6337 37.0034 11.3592C32.7289 7.08477 29.8792 9.93439 29.8792 9.93439L21.3303 18.4833M33.441 29.1701L39.1403 30.5949M31.3041 31.3072L35.5786 35.5816M29.1669 33.4444L30.5917 39.1437M14.9184 19.1943L9.21914 17.7695M17.0559 17.0601L12.7814 12.7856M19.1932 14.9192L17.7683 9.21995M18.4808 21.3326L9.93187 29.8815C9.93187 29.8815 7.08223 32.7311 11.3567 37.0056C15.6312 41.2801 18.4808 38.4304 18.4808 38.4304L27.0297 29.8815" stroke="currentColor" stroke-width="2.015" stroke-linecap="round" stroke-linejoin="round"/></svg>