<svg viewBox="0 0 24 24" fill="none"><path d="M14.9396 13.5159L19.2141 9.24141C19.2141 9.24141 20.6389 7.81659 18.5017 5.67936C16.3645 3.54214 14.9396 4.96695 14.9396 4.96695L10.6652 9.24141M16.7206 14.5843L19.5702 15.2968M15.6521 15.6532L17.7893 17.7904M14.5834 16.7218L15.2959 19.5715M7.45896 9.59673L4.60932 8.88432M8.52794 8.52968L6.39071 6.39245M9.59659 7.45925L8.88418 4.60961M9.24041 10.6657L4.96595 14.9401C4.96595 14.9401 3.54113 16.365 5.67836 18.5022C7.81559 20.6394 9.24041 19.2146 9.24041 19.2146L13.5149 14.9401" stroke="currentColor" stroke-width="1.0075" stroke-linecap="round" stroke-linejoin="round"/></svg>