<svg viewBox="0 0 16 16" fill="none"><path d="M4.03 12.7618V7.38846C4.03 7.01751 4.33071 6.7168 4.70167 6.7168H11.4183C11.7893 6.7168 12.09 7.01751 12.09 7.38846V12.7618C12.09 13.1327 11.7893 13.4335 11.4183 13.4335H4.70167C4.33071 13.4335 4.03 13.1327 4.03 12.7618Z" stroke="currentColor" stroke-width="0.671667" stroke-linejoin="round"/><path d="M9.40331 10.075C9.40331 10.8169 8.80188 11.4184 8.05998 11.4184C7.31808 11.4184 6.71664 10.8169 6.71664 10.075C6.71664 9.33312 7.31808 8.73169 8.05998 8.73169C8.80188 8.73169 9.40331 9.33312 9.40331 10.075Z" stroke="currentColor" stroke-width="0.671667" stroke-linejoin="round"/><path d="M5.37332 6.71652V5.37319C5.37332 3.88938 6.57618 2.68652 8.05999 2.68652C9.54379 2.68652 10.7467 3.88939 10.7467 5.37319V6.71652H5.37332Z" stroke="currentColor" stroke-width="0.671667" stroke-linejoin="round"/></svg>