<svg viewBox="0 0 48 48" fill="none"><path d="M32.24 20.1496V13.0971C32.24 10.3149 34.4953 8.05957 37.2775 8.05957C40.0596 8.05957 42.315 10.3149 42.315 13.0971V20.1496M12.09 22.1647V38.2847C12.09 39.3975 12.9922 40.2997 14.105 40.2997H34.255C35.3679 40.2997 36.27 39.3975 36.27 38.2847V22.1647C36.27 21.0518 35.3679 20.1497 34.255 20.1497H14.105C12.9922 20.1497 12.09 21.0518 12.09 22.1647ZM28.21 30.2258C28.21 32.4515 26.4057 34.2558 24.18 34.2558C21.9543 34.2558 20.15 32.4515 20.15 30.2258C20.15 28.0001 21.9543 26.1958 24.18 26.1958C26.4057 26.1958 28.21 28.0001 28.21 30.2258Z" stroke="currentColor" stroke-width="2.015" stroke-linecap="round" stroke-linejoin="round"/></svg>