<svg viewBox="0 0 24 24" fill="none"><path d="M16.12 10.0748V6.54854C16.12 5.15747 17.2477 4.02979 18.6387 4.02979C20.0298 4.02979 21.1575 5.15747 21.1575 6.54854V10.0748M6.04501 11.0822V19.1422C6.04501 19.6986 6.49609 20.1497 7.05251 20.1497H17.1275C17.6839 20.1497 18.135 19.6986 18.135 19.1422V11.0822C18.135 10.5258 17.6839 10.0747 17.1275 10.0747H7.05251C6.49609 10.0747 6.04501 10.5258 6.04501 11.0822ZM14.105 15.1129C14.105 16.2258 13.2029 17.1279 12.09 17.1279C10.9771 17.1279 10.075 16.2258 10.075 15.1129C10.075 14 10.9771 13.0979 12.09 13.0979C13.2029 13.0979 14.105 14 14.105 15.1129Z" stroke="currentColor" stroke-width="1.0075" stroke-linecap="round" stroke-linejoin="round"/></svg>