<svg viewBox="0 0 24 24" fill="none"><path d="M7.55624 12.0907C7.55624 12.3689 7.3307 12.5944 7.05249 12.5944C6.77427 12.5944 6.54874 12.3689 6.54874 12.0907C6.54874 11.8125 6.77427 11.5869 7.05249 11.5869C7.3307 11.5869 7.55624 11.8125 7.55624 12.0907Z" stroke="currentColor" stroke-width="1.0075" stroke-linecap="round" stroke-linejoin="round"/><path d="M12.5937 12.0907C12.5937 12.3689 12.3682 12.5944 12.09 12.5944C11.8118 12.5944 11.5862 12.3689 11.5862 12.0907C11.5862 11.8125 11.8118 11.5869 12.09 11.5869C12.3682 11.5869 12.5937 11.8125 12.5937 12.0907Z" stroke="currentColor" stroke-width="1.0075" stroke-linecap="round" stroke-linejoin="round"/><path d="M17.6312 12.0907C17.6312 12.3689 17.4057 12.5944 17.1275 12.5944C16.8493 12.5944 16.6237 12.3689 16.6237 12.0907C16.6237 11.8125 16.8493 11.5869 17.1275 11.5869C17.4057 11.5869 17.6312 11.8125 17.6312 12.0907Z" stroke="currentColor" stroke-width="1.0075" stroke-linecap="round" stroke-linejoin="round"/></svg>