<svg viewBox="0 0 48 48" fill="none"><path d="M24.18 15.1131C23.6236 15.1131 23.1725 14.6621 23.1725 14.1056C23.1725 13.5492 23.6236 13.0981 24.18 13.0981C24.7364 13.0981 25.1875 13.5492 25.1875 14.1056C25.1875 14.6621 24.7364 15.1131 24.18 15.1131Z" stroke="currentColor" stroke-width="2.015" stroke-linecap="round" stroke-linejoin="round"/><path d="M24.18 25.1869C23.6236 25.1869 23.1725 24.7358 23.1725 24.1794C23.1725 23.6229 23.6236 23.1719 24.18 23.1719C24.7364 23.1719 25.1875 23.6229 25.1875 24.1794C25.1875 24.7358 24.7364 25.1869 24.18 25.1869Z" stroke="currentColor" stroke-width="2.015" stroke-linecap="round" stroke-linejoin="round"/><path d="M24.18 35.2621C23.6236 35.2621 23.1725 34.811 23.1725 34.2546C23.1725 33.6981 23.6236 33.2471 24.18 33.2471C24.7364 33.2471 25.1875 33.6981 25.1875 34.2546C25.1875 34.811 24.7364 35.2621 24.18 35.2621Z" stroke="currentColor" stroke-width="2.015" stroke-linecap="round" stroke-linejoin="round"/></svg>