<svg viewBox="0 0 48 48" fill="none"><path d="M18.135 40.2986C18.135 42.5243 15.4285 44.3286 12.09 44.3286C8.75142 44.3286 6.04498 42.5243 6.04498 40.2986C6.04498 38.0729 8.75142 36.2686 12.09 36.2686C15.4285 36.2686 18.135 38.0729 18.135 40.2986ZM18.135 40.2986V20.1486M40.3 36.2686V12.0886M40.3 36.2686C40.3 38.4943 37.5936 40.2986 34.255 40.2986C30.9165 40.2986 28.21 38.4943 28.21 36.2686C28.21 34.0429 30.9165 32.2386 34.255 32.2386C37.5936 32.2386 40.3 34.0429 40.3 36.2686ZM40.3 12.0886V6.90542C40.3 5.50708 38.9105 4.53386 37.5964 5.01174L19.4614 11.6063C18.6651 11.8958 18.135 12.6526 18.135 13.5V20.1486M40.3 12.0886L18.135 20.1486" stroke="currentColor" stroke-width="2.015" stroke-linejoin="round"/></svg>