<svg viewBox="0 0 32 32" fill="none"><path d="M16.12 6.71729C9.40333 6.71729 8.06 12.0906 8.06 14.7773V18.8831C8.06 19.7173 7.86578 20.5391 7.49272 21.2852L6.34538 23.5799C5.89879 24.473 6.54708 25.524 7.54569 25.524H12.7617M16.12 6.71729C22.8367 6.71729 24.18 12.0906 24.18 14.7773V18.8831C24.18 19.7173 24.3742 20.5391 24.7473 21.2852L25.8946 23.5799C26.3412 24.473 25.6917 25.524 24.6931 25.524H19.4783M16.12 6.71729L16.12 4.03125M12.7617 25.524C12.7617 28.2106 14.105 29.554 16.12 29.554C18.135 29.554 19.4783 28.2106 19.4783 25.524M12.7617 25.524H19.4783" stroke="currentColor" stroke-width="1.34333" stroke-linecap="round" stroke-linejoin="round"/></svg>