<svg viewBox="0 0 12 12" fill="none"><path d="M6.00001 2.5C3.50001 2.5 3.00001 4.5 3.00001 5.5V7.5M6.00001 2.5C6.78614 2.5 7.37451 2.69776 7.81175 3M6.00001 2.5L5.99999 1.5M4.75001 9.5C4.75001 10.5 5.25001 11 6.00001 11C6.75001 11 7.25001 10.5 7.25001 9.5M4.75001 9.5H7.25001M4.75001 9.5H3.75001M7.25001 9.5H9.19099C9.56268 9.5 9.80443 9.10884 9.6382 8.77639L9.00001 7.5V5.5C9.00001 5.18774 8.95125 4.77797 8.80807 4.36204M10.5 1.5L1.5 10.5" stroke="currentColor" stroke-width="0.5" stroke-linecap="round" stroke-linejoin="round"/></svg>