<svg viewBox="0 0 24 24" fill="none"><path d="M21.529 13.6861C21.575 13.4117 21.3899 13.1519 21.1155 13.1059C20.8411 13.0599 20.5814 13.245 20.5353 13.5194L21.529 13.6861ZM20.6251 8.13971V8.64346C20.9033 8.64346 21.1289 8.41792 21.1289 8.13971H20.6251ZM21.1289 2.44043C21.1289 2.16222 20.9033 1.93668 20.6251 1.93668C20.3469 1.93668 20.1214 2.16222 20.1214 2.44043H21.1289ZM14.9258 7.63596C14.6476 7.63596 14.4221 7.8615 14.4221 8.13971C14.4221 8.41792 14.6476 8.64346 14.9258 8.64346V7.63596ZM12.09 20.6552C7.36039 20.6552 3.52627 16.8211 3.52627 12.0915H2.51877C2.51877 17.3775 6.80397 21.6627 12.09 21.6627V20.6552ZM3.52627 12.0915C3.52627 7.36183 7.36039 3.52771 12.09 3.52771V2.52021C6.80397 2.52021 2.51877 6.8054 2.51877 12.0915H3.52627ZM12.09 3.52771C15.4517 3.52771 18.3619 5.46463 19.7639 8.28564L20.6661 7.83727C19.1005 4.68696 15.8488 2.52021 12.09 2.52021V3.52771ZM20.5353 13.5194C19.8559 17.5692 16.3329 20.6552 12.09 20.6552V21.6627C16.8331 21.6627 20.7694 18.2132 21.529 13.6861L20.5353 13.5194ZM21.1289 8.13971V2.44043H20.1214V8.13971H21.1289ZM14.9258 8.64346H20.6251V7.63596H14.9258V8.64346Z" fill="currentColor"/></svg>