<svg viewBox="0 0 24 24" fill="none"><path d="M2.51874 12.091C2.51874 12.3692 2.74428 12.5947 3.02249 12.5947C3.3007 12.5947 3.52624 12.3692 3.52624 12.091H2.51874ZM20.6251 8.13971V8.64346C20.9033 8.64346 21.1289 8.41792 21.1289 8.13971H20.6251ZM21.1289 2.44043C21.1289 2.16222 20.9033 1.93668 20.6251 1.93668C20.3469 1.93668 20.1214 2.16222 20.1214 2.44043H21.1289ZM14.9258 7.63596C14.6476 7.63596 14.4221 7.8615 14.4221 8.13971C14.4221 8.41792 14.6476 8.64346 14.9258 8.64346V7.63596ZM21.6613 12.0912C21.6613 11.813 21.4357 11.5875 21.1575 11.5875C20.8793 11.5875 20.6538 11.813 20.6538 12.0912L21.6613 12.0912ZM12.09 21.1587L12.09 21.6625L12.09 21.1587ZM3.5549 16.0415L3.5549 15.5378C3.4213 15.5378 3.29317 15.5908 3.1987 15.6853C3.10423 15.7798 3.05115 15.9079 3.05115 16.0415L3.5549 16.0415ZM3.05115 21.7408C3.05115 22.019 3.27669 22.2445 3.5549 22.2445C3.83311 22.2445 4.05865 22.019 4.05865 21.7408L3.05115 21.7408ZM9.25418 16.5453C9.5324 16.5453 9.75793 16.3197 9.75793 16.0415C9.75793 15.7633 9.5324 15.5378 9.25418 15.5378L9.25418 16.5453ZM3.52624 12.091C3.52624 7.36134 7.36036 3.52722 12.09 3.52722V2.51972C6.80394 2.51972 2.51874 6.80491 2.51874 12.091H3.52624ZM12.09 3.52722C15.4517 3.52722 18.3619 5.46414 19.7638 8.28515L20.6661 7.83678C19.1005 4.68647 15.8487 2.51972 12.09 2.51972V3.52722ZM21.1289 8.13971V2.44043H20.1214V8.13971H21.1289ZM14.9258 8.64346H20.6251V7.63596H14.9258V8.64346ZM20.6538 12.0912C20.6538 16.8209 16.8196 20.655 12.09 20.655L12.09 21.6625C17.3761 21.6625 21.6613 17.3773 21.6613 12.0912L20.6538 12.0912ZM12.09 20.655C8.7283 20.655 5.81808 18.718 4.41615 15.897L3.51392 16.3454C5.07949 19.4957 8.33125 21.6625 12.09 21.6625L12.09 20.655ZM3.05115 16.0415L3.05115 21.7408L4.05865 21.7408L4.05865 16.0415L3.05115 16.0415ZM9.25418 15.5378L3.5549 15.5378L3.5549 16.5453L9.25418 16.5453L9.25418 15.5378Z" fill="currentColor"/></svg>