<svg viewBox="0 0 8 8" fill="none"><g clip-path="url(#a)"><path d="M1.89568 4.50561C1.57682 4.68971 1.16909 4.58046 0.984997 4.26159C0.800902 3.94273 0.910152 3.53501 1.22901 3.35091C1.54788 3.16682 1.9556 3.27607 2.1397 3.59493C2.32379 3.91379 2.21454 4.32152 1.89568 4.50561ZM1.89568 4.50561L7.01449 2.70538M3.46488 6.07442C3.28079 6.39328 3.39004 6.80101 3.7089 6.9851C4.02776 7.1692 4.43549 7.05995 4.61958 6.74109C4.80368 6.42223 4.69443 6.0145 4.37557 5.8304C4.0567 5.64631 3.64898 5.75556 3.46488 6.07442ZM3.46488 6.07442L5.26552 0.955566" stroke="currentColor" stroke-width="0.333333" stroke-linecap="round" stroke-linejoin="round"/></g><defs><clipPath id="a"><rect width="8" height="8" fill="currentColor"/></clipPath></defs></svg>