<svg viewBox="0 0 48 48" fill="none"><path d="M39.5876 41.0115C39.981 41.405 40.6189 41.405 41.0124 41.0115C41.4058 40.6181 41.4058 39.9802 41.0124 39.5867L39.5876 41.0115ZM33.2475 21.1571C33.2475 27.8342 27.8346 33.2471 21.1575 33.2471V35.2621C28.9475 35.2621 35.2625 28.947 35.2625 21.1571H33.2475ZM21.1575 33.2471C14.4804 33.2471 9.0675 27.8342 9.0675 21.1571H7.0525C7.0525 28.947 13.3675 35.2621 21.1575 35.2621V33.2471ZM9.0675 21.1571C9.0675 14.4799 14.4804 9.06707 21.1575 9.06707V7.05207C13.3675 7.05207 7.0525 13.3671 7.0525 21.1571H9.0675ZM21.1575 9.06707C27.8346 9.06707 33.2475 14.4799 33.2475 21.1571H35.2625C35.2625 13.3671 28.9475 7.05207 21.1575 7.05207V9.06707ZM41.0124 39.5867L30.9374 29.5117L29.5126 30.9365L39.5876 41.0115L41.0124 39.5867Z" fill="currentColor"/></svg>