<svg viewBox="0 0 16 16" fill="none"><path d="M7.0525 1.34342V1.00759C6.88313 1.00759 6.74027 1.13371 6.71926 1.30177L7.0525 1.34342ZM9.0675 1.34342L9.40074 1.30177C9.37973 1.13371 9.23687 1.00759 9.0675 1.00759V1.34342ZM9.40333 4.03009V4.36592C9.49966 4.36592 9.59135 4.32456 9.6551 4.25235C9.71885 4.18013 9.74852 4.08402 9.73657 3.98844L9.40333 4.03009ZM6.71666 4.03009L6.38342 3.98844C6.37148 4.08402 6.40115 4.18013 6.4649 4.25235C6.52865 4.32456 6.62034 4.36592 6.71666 4.36592V4.03009ZM9.06751 14.777V15.1129C9.23688 15.1129 9.37974 14.9867 9.40075 14.8187L9.06751 14.777ZM7.05251 14.777L6.71927 14.8187C6.74027 14.9867 6.88314 15.1129 7.05251 15.1129V14.777ZM6.71667 12.0904V11.7545C6.62035 11.7545 6.52866 11.7959 6.46491 11.8681C6.40116 11.9403 6.37149 12.0364 6.38343 12.132L6.71667 12.0904ZM9.40334 12.0904L9.73658 12.132C9.74853 12.0364 9.71886 11.9403 9.65511 11.8681C9.59136 11.7959 9.49967 11.7545 9.40334 11.7545V12.0904ZM14.7767 7.05279H15.1125C15.1125 6.88342 14.9864 6.74056 14.8183 6.71955L14.7767 7.05279ZM14.7767 9.06779L14.8183 9.40103C14.9864 9.38003 15.1125 9.23716 15.1125 9.06779H14.7767ZM12.09 9.40363H11.7542C11.7542 9.49995 11.7955 9.59164 11.8677 9.65539C11.94 9.71914 12.0361 9.74881 12.1317 9.73687L12.09 9.40363ZM12.09 6.71696L12.1317 6.38372C12.0361 6.37177 11.94 6.40144 11.8677 6.46519C11.7955 6.52894 11.7542 6.62063 11.7542 6.71696H12.09ZM1.34333 9.06814L1.00749 9.06814C1.00749 9.23751 1.13361 9.38037 1.30167 9.40138L1.34333 9.06814ZM1.34333 7.05314L1.30167 6.7199C1.13361 6.74091 1.00749 6.88377 1.00749 7.05314L1.34333 7.05314ZM4.02999 6.7173L4.36583 6.7173C4.36583 6.62098 4.32446 6.52929 4.25225 6.46554C4.18004 6.40179 4.08392 6.37212 3.98834 6.38406L4.02999 6.7173ZM4.02999 9.40397L3.98834 9.73721C4.08392 9.74916 4.18004 9.71949 4.25225 9.65574C4.32446 9.59199 4.36583 9.5003 4.36583 9.40397L4.02999 9.40397ZM13.5218 12.098L13.7593 12.3355C13.8791 12.2157 13.8909 12.0255 13.7869 11.8918L13.5218 12.098ZM12.097 13.5228L11.8908 13.7879C12.0245 13.8919 12.2147 13.88 12.3345 13.7603L12.097 13.5228ZM9.95978 11.8605L9.72231 11.623C9.65419 11.6912 9.61861 11.7852 9.62459 11.8814C9.63058 11.9775 9.67756 12.0665 9.7536 12.1256L9.95978 11.8605ZM11.8595 9.96075L12.1246 9.75457C12.0655 9.67854 11.9765 9.63156 11.8804 9.62557C11.7843 9.61958 11.6902 9.65517 11.6221 9.72328L11.8595 9.96075ZM2.59818 4.02246L2.36071 3.78499C2.24095 3.90475 2.2291 4.09495 2.33309 4.22864L2.59818 4.02246ZM4.023 2.59764L4.22918 2.33255C4.09549 2.22857 3.90529 2.24041 3.78553 2.36017L4.023 2.59764ZM6.16023 4.25993L6.3977 4.4974C6.46581 4.42929 6.5014 4.3352 6.49541 4.23906C6.48943 4.14292 6.44245 4.05398 6.36641 3.99484L6.16023 4.25993ZM4.26047 6.15969L3.99538 6.36587C4.05452 6.44191 4.14346 6.48889 4.2396 6.49487C4.33574 6.50086 4.42982 6.46527 4.49794 6.39716L4.26047 6.15969ZM4.023 13.522L3.78553 13.7594C3.90529 13.8792 4.09549 13.891 4.22918 13.7871L4.023 13.522ZM2.59818 12.0972L2.33309 11.891C2.22911 12.0247 2.24095 12.2149 2.36071 12.3346L2.59818 12.0972ZM4.26047 9.95992L4.49794 9.72245C4.42983 9.65434 4.33575 9.61875 4.2396 9.62474C4.14346 9.63072 4.05452 9.6777 3.99538 9.75374L4.26047 9.95992ZM6.16023 11.8597L6.36641 12.1248C6.44245 12.0656 6.48943 11.9767 6.49542 11.8805C6.5014 11.7844 6.46582 11.6903 6.3977 11.6222L6.16023 11.8597ZM12.097 2.59798L12.3345 2.36051C12.2147 2.24075 12.0245 2.22891 11.8908 2.33289L12.097 2.59798ZM13.5218 4.0228L13.7869 4.22899C13.8909 4.09529 13.879 3.9051 13.7593 3.78533L13.5218 4.0228ZM11.8595 6.16003L11.622 6.3975C11.6902 6.46562 11.7842 6.5012 11.8804 6.49522C11.9765 6.48923 12.0655 6.44225 12.1246 6.36622L11.8595 6.16003ZM9.95976 4.26027L9.75358 3.99518C9.67754 4.05432 9.63056 4.14327 9.62457 4.23941C9.61859 4.33555 9.65417 4.42963 9.72229 4.49774L9.95976 4.26027ZM13.0975 8.06051C13.0975 10.8426 10.8421 13.098 8.06 13.098V13.7697C11.2131 13.7697 13.7692 11.2136 13.7692 8.06051H13.0975ZM8.06 13.098C5.27786 13.098 3.0225 10.8426 3.0225 8.06051H2.35083C2.35083 11.2136 4.90691 13.7697 8.06 13.7697V13.098ZM3.0225 8.06051C3.0225 5.27837 5.27786 3.02301 8.06 3.02301V2.35134C4.90691 2.35134 2.35083 4.90742 2.35083 8.06051H3.0225ZM8.06 3.02301C10.8421 3.02301 13.0975 5.27837 13.0975 8.06051H13.7692C13.7692 4.90742 11.2131 2.35134 8.06 2.35134V3.02301ZM7.0525 1.67926H9.0675V1.00759H7.0525V1.67926ZM8.73426 1.38508L9.07009 4.07175L9.73657 3.98844L9.40074 1.30177L8.73426 1.38508ZM9.40333 3.69426H6.71666V4.36592H9.40333V3.69426ZM7.0499 4.07175L7.38574 1.38508L6.71926 1.30177L6.38342 3.98844L7.0499 4.07175ZM9.06751 14.4412H7.05251V15.1129H9.06751V14.4412ZM7.38575 14.7354L7.04991 12.0487L6.38343 12.132L6.71927 14.8187L7.38575 14.7354ZM6.71667 12.4262H9.40334V11.7545H6.71667V12.4262ZM9.0701 12.0487L8.73427 14.7354L9.40075 14.8187L9.73658 12.132L9.0701 12.0487ZM14.4408 7.05279V9.06779H15.1125V7.05279H14.4408ZM14.735 8.73455L12.0483 9.07039L12.1317 9.73687L14.8183 9.40103L14.735 8.73455ZM12.4258 9.40363V6.71696H11.7542V9.40363H12.4258ZM12.0483 7.0502L14.735 7.38603L14.8183 6.71955L12.1317 6.38372L12.0483 7.0502ZM1.67916 9.06814L1.67916 7.05314L1.00749 7.05314L1.00749 9.06814L1.67916 9.06814ZM1.38498 7.38638L4.07165 7.05054L3.98834 6.38406L1.30167 6.7199L1.38498 7.38638ZM3.69416 6.7173L3.69416 9.40397L4.36583 9.40397L4.36583 6.7173L3.69416 6.7173ZM4.07165 9.07073L1.38498 8.7349L1.30167 9.40138L3.98834 9.73721L4.07165 9.07073ZM13.2844 11.8605L11.8595 13.2853L12.3345 13.7603L13.7593 12.3355L13.2844 11.8605ZM12.3032 13.2577L10.166 11.5954L9.7536 12.1256L11.8908 13.7879L12.3032 13.2577ZM10.1972 12.098L12.097 10.1982L11.6221 9.72328L9.72231 11.623L10.1972 12.098ZM11.5944 10.1669L13.2567 12.3042L13.7869 11.8918L12.1246 9.75457L11.5944 10.1669ZM2.83565 4.25993L4.26047 2.83511L3.78553 2.36017L2.36071 3.78499L2.83565 4.25993ZM3.81682 2.86273L5.95405 4.52502L6.36641 3.99484L4.22918 2.33255L3.81682 2.86273ZM5.92276 4.02246L4.023 5.92222L4.49794 6.39716L6.3977 4.4974L5.92276 4.02246ZM4.52556 5.95351L2.86327 3.81628L2.33309 4.22864L3.99538 6.36587L4.52556 5.95351ZM4.26047 13.2845L2.83565 11.8597L2.36071 12.3346L3.78553 13.7594L4.26047 13.2845ZM2.86327 12.3033L4.52556 10.1661L3.99538 9.75374L2.33309 11.891L2.86327 12.3033ZM4.023 10.1974L5.92276 12.0971L6.3977 11.6222L4.49794 9.72245L4.023 10.1974ZM5.95405 11.5946L3.81682 13.2569L4.22918 13.7871L6.36641 12.1248L5.95405 11.5946ZM11.8595 2.83545L13.2843 4.26027L13.7593 3.78533L12.3345 2.36051L11.8595 2.83545ZM13.2567 3.81662L11.5944 5.95385L12.1246 6.36622L13.7869 4.22899L13.2567 3.81662ZM12.097 5.92256L10.1972 4.0228L9.72229 4.49774L11.622 6.3975L12.097 5.92256ZM10.1659 4.52537L12.3032 2.86308L11.8908 2.33289L9.75358 3.99518L10.1659 4.52537Z" fill="currentColor"/><path d="M10.7467 8.05971C10.7467 9.54352 9.54381 10.7464 8.06 10.7464C6.5762 10.7464 5.37334 9.54352 5.37334 8.05971C5.37334 6.57591 6.5762 5.37305 8.06 5.37305C9.54381 5.37305 10.7467 6.57591 10.7467 8.05971Z" stroke="currentColor" stroke-width="0.671667" stroke-linejoin="round"/></svg>