<svg viewBox="0 0 12 12" fill="none"><path d="M7.49998 3.50049L4.24998 5.50049M4.24999 6.75L7.49999 8.5M4.49999 6.00049C4.49999 6.55277 4.05228 7.00049 3.49999 7.00049C2.94771 7.00049 2.49999 6.55277 2.49999 6.00049C2.49999 5.4482 2.94771 5.00049 3.49999 5.00049C4.05228 5.00049 4.49999 5.4482 4.49999 6.00049ZM9.5 3.00049C9.5 3.55277 9.05228 4.00049 8.5 4.00049C7.94772 4.00049 7.5 3.55277 7.5 3.00049C7.5 2.4482 7.94772 2.00049 8.5 2.00049C9.05228 2.00049 9.5 2.4482 9.5 3.00049ZM9.5 9.00049C9.5 9.55277 9.05228 10.0005 8.5 10.0005C7.94772 10.0005 7.5 9.55277 7.5 9.00049C7.5 8.4482 7.94772 8.00049 8.5 8.00049C9.05228 8.00049 9.5 8.4482 9.5 9.00049Z" stroke="currentColor" stroke-width="0.5" stroke-linejoin="round"/></svg>