<svg viewBox="0 0 8 9" fill="none"><path d="M3.84149 2.26946C3.89138 2.11591 4.10862 2.11591 4.15851 2.26946L4.63612 3.7394C4.65843 3.80807 4.72243 3.85457 4.79463 3.85457H6.34022C6.50167 3.85457 6.5688 4.06117 6.43818 4.15607L5.18778 5.06455C5.12936 5.10699 5.10492 5.18221 5.12723 5.25088L5.60484 6.72083C5.65474 6.87438 5.47899 7.00207 5.34837 6.90717L4.09796 5.99869C4.03955 5.95625 3.96045 5.95625 3.90203 5.99869L2.65163 6.90717C2.52101 7.00207 2.34526 6.87438 2.39515 6.72083L2.87277 5.25088C2.89508 5.18221 2.87064 5.10699 2.81222 5.06455L1.56181 4.15607C1.43119 4.06117 1.49832 3.85457 1.65978 3.85457H3.20537C3.27757 3.85457 3.34156 3.80807 3.36388 3.7394L3.84149 2.26946Z" stroke="currentColor" stroke-width="0.333333" stroke-linecap="round" stroke-linejoin="round"/></svg>