<svg viewBox="0 0 48 49" fill="none"><path d="M34.2551 20.9317L42.3151 14.8867V35.0367L34.2551 28.9917M30.225 37.0491H10.075C7.84933 37.0491 6.04504 35.2449 6.04504 33.0191V16.8991C6.04504 14.6734 7.84934 12.8691 10.075 12.8691H30.225C32.4508 12.8691 34.255 14.6734 34.255 16.8991V33.0191C34.255 35.2449 32.4508 37.0491 30.225 37.0491ZM14.1051 19.9216C14.1051 20.478 13.654 20.9291 13.0976 20.9291C12.5412 20.9291 12.0901 20.478 12.0901 19.9216C12.0901 19.3651 12.5412 18.9141 13.0976 18.9141C13.654 18.9141 14.1051 19.3651 14.1051 19.9216Z" stroke="currentColor" stroke-width="2.015" stroke-linejoin="round"/></svg>