<svg viewBox="0 0 48 49" fill="none"><path d="M31.6256 5.35611L30.5953 14.3084M24.0516 8.11002L23.0214 17.0623M16.4777 10.8669L15.4474 19.8191M8.90375 13.6237L7.87347 22.576M6.04428 23.9522H40.2993C41.4121 23.9522 42.3143 24.8544 42.3143 25.9672V42.0872C42.3143 43.2001 41.4121 44.1022 40.2993 44.1022H8.05928C6.94643 44.1022 6.04428 43.2001 6.04428 42.0872V23.9522ZM3.22327 15.6905L35.4124 3.97461C36.4582 3.59399 37.6145 4.13318 37.9951 5.17892L39.3734 8.96588C39.7541 10.0116 39.2149 11.1679 38.1691 11.5485L5.97995 23.2644L3.22327 15.6905Z" stroke="currentColor" stroke-width="2.015" stroke-linejoin="round"/></svg>