<svg viewBox="0 0 8 9" fill="none"><g clip-path="url(#a)"><path d="M5.23172 1.53791L5.06128 3.01885M3.97879 1.99397L3.80835 3.4749M2.72588 2.45002L2.55545 3.93096M1.47295 2.90608L1.30252 4.38701M0.999931 4.61456H6.6666C6.85069 4.61456 6.99993 4.7638 6.99993 4.94789V7.61456C6.99993 7.79865 6.85069 7.94789 6.6666 7.94789H1.33326C1.14917 7.94789 0.999931 7.79865 0.999931 7.61456V4.61456ZM0.533257 3.24835L5.85818 1.31023C6.03117 1.24727 6.22245 1.33646 6.28542 1.50946L6.51343 2.13592C6.5764 2.30891 6.4872 2.50019 6.31421 2.56316L0.989283 4.50127L0.533257 3.24835Z" stroke="currentColor" stroke-width="0.333333" stroke-linejoin="round"/></g><defs><clipPath id="a"><rect width="8" height="8" fill="currentColor" transform="translate(0 0.78125)"/></clipPath></defs></svg>