<svg viewBox="0 0 48 49" fill="none"><path d="M17.1576 28.7463C17.0226 29.2861 17.3508 29.8331 17.8907 29.9681C18.4305 30.103 18.9775 29.7748 19.1124 29.235L17.1576 28.7463ZM24.18 24.9607L24.18 23.9532L24.18 24.9607ZM29.2476 29.235C29.3825 29.7748 29.9296 30.103 30.4694 29.9681C31.0092 29.8331 31.3374 29.2861 31.2024 28.7463L29.2476 29.235ZM33.2842 25.2291C33.4331 25.7652 33.9885 26.0791 34.5246 25.9302C35.0607 25.7812 35.3746 25.2259 35.2257 24.6898L33.2842 25.2291ZM9.10778 20.649C8.95198 21.1832 9.25871 21.7425 9.79288 21.8983C10.3271 22.0541 10.8864 21.7474 11.0422 21.2132L9.10778 20.649ZM37.3178 21.2132C37.4736 21.7474 38.0329 22.0541 38.5671 21.8983C39.1013 21.7425 39.408 21.1832 39.2522 20.649L37.3178 21.2132ZM18.135 28.9907C19.1124 29.235 19.1123 29.2356 19.1122 29.2361C19.1121 29.2363 19.112 29.2368 19.1119 29.2371C19.1117 29.2377 19.1116 29.2383 19.1115 29.2388C19.1112 29.2398 19.111 29.2406 19.1109 29.2412C19.1106 29.2423 19.1105 29.2425 19.1107 29.2419C19.111 29.2405 19.1124 29.2357 19.1148 29.2275C19.1195 29.2112 19.1285 29.1818 19.1422 29.1412C19.1698 29.0599 19.2164 28.9349 19.287 28.7808C19.429 28.4709 19.6632 28.0545 20.0267 27.6391C20.7306 26.8346 21.9719 25.9682 24.18 25.9682L24.18 23.9532C21.3506 23.9532 19.5694 25.1017 18.5102 26.3122C17.9921 26.9043 17.6596 27.4954 17.4553 27.9412C17.3527 28.1649 17.2812 28.3548 17.2341 28.4938C17.2104 28.5634 17.1928 28.6206 17.1804 28.6633C17.1741 28.6847 17.1692 28.7024 17.1654 28.7163C17.1635 28.7233 17.162 28.7293 17.1607 28.7343C17.16 28.7368 17.1594 28.7391 17.1589 28.7411C17.1587 28.7421 17.1584 28.743 17.1582 28.7439C17.1581 28.7443 17.1579 28.7449 17.1579 28.7451C17.1577 28.7457 17.1576 28.7463 18.135 28.9907ZM24.18 25.9682C26.3881 25.9682 27.6294 26.8346 28.3334 27.6391C28.6968 28.0545 28.931 28.4709 29.073 28.7808C29.1436 28.9349 29.1902 29.0599 29.2178 29.1412C29.2316 29.1818 29.2405 29.2112 29.2453 29.2275C29.2476 29.2357 29.249 29.2405 29.2493 29.2419C29.2495 29.2425 29.2495 29.2423 29.2492 29.2412C29.249 29.2406 29.2488 29.2398 29.2485 29.2388C29.2484 29.2383 29.2483 29.2377 29.2481 29.2371C29.248 29.2368 29.2479 29.2363 29.2479 29.2361C29.2477 29.2356 29.2476 29.235 30.225 28.9907C31.2024 28.7463 31.2023 28.7457 31.2021 28.7451C31.2021 28.7449 31.2019 28.7443 31.2018 28.7439C31.2016 28.743 31.2014 28.7421 31.2011 28.7411C31.2006 28.7391 31.2 28.7368 31.1994 28.7343C31.1981 28.7293 31.1965 28.7233 31.1946 28.7163C31.1908 28.7024 31.1859 28.6847 31.1797 28.6633C31.1672 28.6206 31.1496 28.5634 31.126 28.4938C31.0788 28.3548 31.0073 28.1649 30.9048 27.9412C30.7004 27.4954 30.3679 26.9043 29.8498 26.3122C28.7906 25.1017 27.0094 23.9532 24.18 23.9532L24.18 25.9682ZM14.1049 24.9594C15.0757 25.2291 15.0755 25.2297 15.0754 25.2302C15.0753 25.2304 15.0752 25.2309 15.0751 25.2312C15.0749 25.2319 15.0748 25.2324 15.0746 25.2329C15.0744 25.2338 15.0742 25.2344 15.0741 25.2346C15.074 25.235 15.0743 25.234 15.075 25.2317C15.0764 25.2271 15.0794 25.2171 15.0843 25.2021C15.094 25.1721 15.1109 25.1221 15.1362 25.0551C15.1869 24.9208 15.2706 24.719 15.3963 24.4721C15.6482 23.9774 16.065 23.3092 16.7164 22.6392C17.9969 21.3222 20.2554 19.9219 24.1799 19.9219L24.1799 17.9069C19.7086 17.9069 16.9297 19.5292 15.2716 21.2346C14.4538 22.0758 13.926 22.9189 13.6007 23.5577C13.4378 23.8775 13.3248 24.148 13.2508 24.3443C13.2137 24.4425 13.1864 24.5224 13.1674 24.5809C13.1579 24.6102 13.1505 24.6342 13.1451 24.6524C13.1423 24.6615 13.1401 24.6693 13.1383 24.6755C13.1374 24.6786 13.1366 24.6814 13.1359 24.6837C13.1356 24.6849 13.1352 24.686 13.135 24.687C13.1348 24.6875 13.1346 24.6882 13.1346 24.6885C13.1344 24.6891 13.1342 24.6898 14.1049 24.9594ZM24.1799 19.9219C28.1045 19.9219 30.363 21.3222 31.6435 22.6392C32.2949 23.3092 32.7117 23.9774 32.9636 24.4721C33.0893 24.719 33.173 24.9208 33.2237 25.0551C33.2489 25.1221 33.2659 25.1721 33.2756 25.2021C33.2805 25.2171 33.2835 25.2271 33.2849 25.2317C33.2856 25.234 33.2859 25.235 33.2858 25.2346C33.2857 25.2344 33.2855 25.2338 33.2853 25.2329C33.2851 25.2324 33.285 25.2319 33.2848 25.2312C33.2847 25.2309 33.2846 25.2304 33.2845 25.2302C33.2844 25.2297 33.2842 25.2291 34.2549 24.9594C35.2257 24.6898 35.2255 24.6891 35.2253 24.6885C35.2253 24.6882 35.2251 24.6875 35.2249 24.687C35.2246 24.686 35.2243 24.6849 35.224 24.6837C35.2233 24.6814 35.2225 24.6786 35.2216 24.6755C35.2198 24.6693 35.2176 24.6615 35.2148 24.6524C35.2094 24.6342 35.202 24.6102 35.1925 24.5809C35.1735 24.5224 35.1462 24.4425 35.1091 24.3443C35.0351 24.148 34.9221 23.8775 34.7592 23.5577C34.4339 22.9189 33.9061 22.0758 33.0883 21.2346C31.4302 19.5292 28.6513 17.9069 24.1799 17.9069L24.1799 19.9219ZM10.075 20.9311C11.0422 21.2132 11.042 21.2138 11.0418 21.2144C11.0418 21.2145 11.0416 21.2151 11.0415 21.2154C11.0414 21.216 11.0412 21.2165 11.0411 21.2168C11.0409 21.2176 11.0408 21.2178 11.0409 21.2176C11.041 21.2172 11.0417 21.2149 11.043 21.2108C11.0456 21.2027 11.0505 21.1873 11.058 21.1651C11.0731 21.1208 11.0985 21.0497 11.1357 20.9556C11.2103 20.7671 11.3323 20.4875 11.5144 20.1468C11.879 19.4649 12.4818 18.5444 13.4247 17.6208C15.2891 15.7945 18.5605 13.8786 24.18 13.8786L24.18 11.8636C18.0453 11.8636 14.2642 13.9777 12.0146 16.1814C10.9005 17.2728 10.181 18.3673 9.7375 19.1966C9.51561 19.6116 9.36205 19.9616 9.26217 20.214C9.2122 20.3402 9.17557 20.4422 9.15046 20.516C9.1379 20.5529 9.12822 20.5828 9.12118 20.6051C9.11767 20.6163 9.11481 20.6256 9.11258 20.6329C9.11147 20.6366 9.11052 20.6397 9.10972 20.6424C9.10932 20.6438 9.10896 20.645 9.10864 20.6461C9.10847 20.6466 9.10826 20.6474 9.10818 20.6476C9.10798 20.6483 9.10778 20.649 10.075 20.9311ZM24.18 13.8786C29.7995 13.8786 33.0709 15.7945 34.9353 17.6208C35.8781 18.5444 36.4809 19.4649 36.8455 20.1468C37.0277 20.4875 37.1496 20.7671 37.2242 20.9556C37.2615 21.0497 37.2868 21.1208 37.3019 21.1651C37.3094 21.1873 37.3144 21.2027 37.317 21.2108C37.3183 21.2149 37.319 21.2172 37.3191 21.2176C37.3191 21.2178 37.3191 21.2176 37.3189 21.2168C37.3187 21.2165 37.3186 21.216 37.3184 21.2154C37.3183 21.2151 37.3182 21.2145 37.3181 21.2144C37.318 21.2138 37.3178 21.2132 38.285 20.9311C39.2522 20.649 39.252 20.6483 39.2518 20.6476C39.2517 20.6474 39.2515 20.6466 39.2513 20.6461C39.251 20.645 39.2506 20.6438 39.2502 20.6424C39.2494 20.6397 39.2485 20.6366 39.2474 20.6329C39.2452 20.6255 39.2423 20.6163 39.2388 20.6051C39.2317 20.5828 39.2221 20.5529 39.2095 20.516C39.1844 20.4422 39.1478 20.3402 39.0978 20.214C38.9979 19.9616 38.8444 19.6116 38.6225 19.1966C38.179 18.3673 37.4594 17.2728 36.3453 16.1814C34.0958 13.9777 30.3146 11.8636 24.18 11.8636L24.18 13.8786ZM27.2025 35.0363C27.2025 36.7056 25.8492 38.0588 24.18 38.0588V40.0738C26.9621 40.0738 29.2175 37.8184 29.2175 35.0363H27.2025ZM24.18 38.0588C22.5107 38.0588 21.1575 36.7056 21.1575 35.0363H19.1425C19.1425 37.8184 21.3978 40.0738 24.18 40.0738V38.0588ZM21.1575 35.0363C21.1575 33.367 22.5107 32.0138 24.18 32.0138V29.9988C21.3978 29.9988 19.1425 32.2542 19.1425 35.0363H21.1575ZM24.18 32.0138C25.8492 32.0138 27.2025 33.367 27.2025 35.0363H29.2175C29.2175 32.2542 26.9621 29.9988 24.18 29.9988V32.0138Z" fill="currentColor"/></svg>