<svg width="16" height="16" viewBox="0 0 16 16" fill="none" xmlns="http://www.w3.org/2000/svg">
<path d="M2.68668 6.04498V4.3471C2.68668 4.13855 2.73523 3.93287 2.8285 3.74634L3.35835 2.68665H6.71668L7.38835 4.02998H14.105C14.476 4.02998 14.7767 4.33069 14.7767 4.70165V12.09C14.7767 12.8319 14.1752 13.4333 13.4333 13.4333H12.09M1.55104 6.04504H11.577C11.8799 6.04504 12.1453 6.24777 12.225 6.53998L13.8736 12.585C13.9901 13.0123 13.6685 13.4334 13.2256 13.4334H3.7127C3.10692 13.4334 2.57609 13.0279 2.4167 12.4435L0.903045 6.89344C0.786516 6.46616 1.10817 6.04504 1.55104 6.04504Z" stroke="black" stroke-width="0.671667" stroke-linecap="round" stroke-linejoin="round"/>
</svg>
