<svg width="16" height="16" viewBox="0 0 16 16" fill="none" xmlns="http://www.w3.org/2000/svg">
<path d="M14.105 8.06014C14.105 11.3987 11.3985 14.1051 8.05998 14.1051M14.105 8.06014C14.105 4.72158 11.3985 2.01514 8.05998 2.01514M14.105 8.06014C14.105 8.06014 12.09 10.4106 8.05998 10.4106C4.02998 10.4106 2.01498 8.06014 2.01498 8.06014M14.105 8.06014C14.105 8.06014 12.09 5.70874 8.05998 5.70874C4.02998 5.70874 2.01498 8.06014 2.01498 8.06014M8.05998 14.1051C4.72142 14.1051 2.01498 11.3987 2.01498 8.06014M8.05998 14.1051C8.05998 14.1051 5.70914 12.0901 5.70914 8.06014C5.70914 4.03014 8.05998 2.01514 8.05998 2.01514M8.05998 14.1051C8.05998 14.1051 10.4108 12.0901 10.4108 8.06014C10.4108 4.03014 8.05998 2.01514 8.05998 2.01514M2.01498 8.06014C2.01498 4.72158 4.72142 2.01514 8.05998 2.01514" stroke="black" stroke-width="0.671667" stroke-linejoin="round"/>
</svg>
