<svg width="12" height="12" viewBox="0 0 12 12" fill="none" xmlns="http://www.w3.org/2000/svg">
<path d="M10.5 6.00049C10.5 8.48577 8.48528 10.5005 6 10.5005M10.5 6.00049C10.5 3.51521 8.48528 1.50049 6 1.50049M10.5 6.00049C10.5 6.00049 9 7.75049 6 7.75049C3 7.75049 1.5 6.00049 1.5 6.00049M10.5 6.00049C10.5 6.00049 9 4.25049 6 4.25049C3 4.25049 1.5 6.00049 1.5 6.00049M6 10.5005C3.51472 10.5005 1.5 8.48577 1.5 6.00049M6 10.5005C6 10.5005 4.24999 9.00049 4.24999 6.00049C4.24999 3.00049 6 1.50049 6 1.50049M6 10.5005C6 10.5005 7.75 9.00049 7.75 6.00049C7.75 3.00049 6 1.50049 6 1.50049M1.5 6.00049C1.5 3.51521 3.51472 1.50049 6 1.50049" stroke="black" stroke-width="0.5" stroke-linejoin="round"/>
</svg>
