<svg width="48" height="48" viewBox="0 0 48 48" fill="none" xmlns="http://www.w3.org/2000/svg">
<path d="M24.18 10.0752C14.105 10.0752 12.09 18.1352 12.09 22.1652V30.2252M24.18 10.0752C27.3481 10.0752 29.7193 10.8722 31.4814 12.0902M24.18 10.0752L24.18 6.04443M19.1425 38.2852C19.1425 42.3152 21.1575 44.3302 24.18 44.3302C27.2025 44.3302 29.2175 42.3152 29.2175 38.2852M19.1425 38.2852H29.2175M19.1425 38.2852H15.1125M29.2175 38.2852H37.0397C38.5376 38.2852 39.5118 36.7088 38.842 35.3691L36.27 30.2252V22.1652C36.27 20.9068 36.0735 19.2554 35.4965 17.5792M42.315 6.04492L6.04498 42.3149" stroke="black" stroke-width="2.015" stroke-linecap="round" stroke-linejoin="round"/>
</svg>
