<svg width="8" height="8" viewBox="0 0 8 8" fill="none" xmlns="http://www.w3.org/2000/svg">
<path d="M4.9428 4.47137L6.35701 3.05715C6.35701 3.05715 6.82841 2.58575 6.12131 1.87864C5.4142 1.17154 4.9428 1.64294 4.9428 1.64294L3.52859 3.05715M5.53205 4.82489L6.47486 5.0606M5.17851 5.17853L5.88562 5.88564M4.82495 5.53205L5.06066 6.47486M2.46793 3.17508L1.52512 2.93938M2.82148 2.82144L2.11437 2.11433M3.17504 2.46792L2.93933 1.52511M3.05719 3.52861L1.64297 4.94282C1.64297 4.94282 1.17157 5.41422 1.87867 6.12133C2.58578 6.82844 3.05719 6.35703 3.05719 6.35703L4.4714 4.94282" stroke="black" stroke-width="0.333333" stroke-linecap="round" stroke-linejoin="round"/>
</svg>
