<svg width="48" height="48" viewBox="0 0 48 48" fill="none" xmlns="http://www.w3.org/2000/svg">
<path d="M16.12 37.276V25.186M16.12 37.276C16.12 39.5017 14.3157 41.306 12.09 41.306H10.075C7.84927 41.306 6.04498 39.5017 6.04498 37.276V25.186C6.04498 22.9603 7.84928 21.156 10.075 21.156H12.09C14.3157 21.156 16.12 22.9603 16.12 25.186M16.12 37.276L19.6127 39.8963C19.9615 40.1579 20.3857 40.2993 20.8217 40.2993H34.4603C35.6114 40.2993 36.7076 39.807 37.4723 38.9467L43.3121 32.377C43.9678 31.6393 44.33 30.6866 44.33 29.6996V23.1718C44.33 22.0589 43.4278 21.1568 42.315 21.1568H30.225C32.24 16.1193 32.24 14.1043 32.24 10.0743C32.24 6.04426 26.195 6.04425 26.195 10.0743C26.195 20.1493 18.135 25.186 16.12 25.186" stroke="black" stroke-width="2.015" stroke-linecap="round" stroke-linejoin="round"/>
</svg>
