<svg width="12" height="12" viewBox="0 0 12 12" fill="none" xmlns="http://www.w3.org/2000/svg">
<path d="M3.96965 2.09127L1.28067 10.1582C1.15038 10.5491 1.52225 10.921 1.91313 10.7907L9.98006 8.10168M3.96965 2.09127L3.98831 2.03528C4.22339 1.33005 5.11845 1.11876 5.6441 1.64441L10.4269 6.42723C10.9526 6.95288 10.7413 7.84794 10.036 8.08302L9.98006 8.10168M3.96965 2.09127L9.98006 8.10168M5.5 5.74979C5.5 6.16401 5.16422 6.49979 4.75 6.49979C4.33579 6.49979 4 6.16401 4 5.74979C4 5.33558 4.33579 4.99979 4.75 4.99979C5.16422 4.99979 5.5 5.33558 5.5 5.74979ZM7 7.49979C7 7.77594 6.77614 7.99979 6.5 7.99979C6.22386 7.99979 6 7.77594 6 7.49979C6 7.22365 6.22386 6.99979 6.5 6.99979C6.77614 6.99979 7 7.22365 7 7.49979ZM4.25 8.24979C4.25 8.52594 4.02614 8.74979 3.75 8.74979C3.47386 8.74979 3.25 8.52594 3.25 8.24979C3.25 7.97365 3.47386 7.74979 3.75 7.74979C4.02614 7.74979 4.25 7.97365 4.25 8.24979Z" stroke="black" stroke-width="0.5" stroke-linejoin="round"/>
</svg>
