<svg width="32" height="32" viewBox="0 0 32 32" fill="none" xmlns="http://www.w3.org/2000/svg">
<path d="M10.6651 5.61855L3.44076 27.2917C3.09071 28.3419 4.0898 29.3409 5.13996 28.9909L26.8131 21.7665M10.6651 5.61855L10.7153 5.46813C11.3469 3.5734 13.7516 3.00572 15.1638 4.41797L28.0137 17.2678C29.4259 18.6801 28.8583 21.0848 26.9635 21.7164L26.8131 21.7665M10.6651 5.61855L26.8131 21.7665M14.7767 15.448C14.7767 16.5608 13.8745 17.463 12.7617 17.463C11.6488 17.463 10.7467 16.5608 10.7467 15.448C10.7467 14.3351 11.6488 13.433 12.7617 13.433C13.8745 13.433 14.7767 14.3351 14.7767 15.448ZM18.8067 20.1493C18.8067 20.8912 18.2052 21.4927 17.4633 21.4927C16.7214 21.4927 16.12 20.8912 16.12 20.1493C16.12 19.4074 16.7214 18.806 17.4633 18.806C18.2052 18.806 18.8067 19.4074 18.8067 20.1493ZM11.4183 22.165C11.4183 22.9069 10.8169 23.5083 10.075 23.5083C9.33309 23.5083 8.73166 22.9069 8.73166 22.165C8.73166 21.4231 9.33309 20.8216 10.075 20.8216C10.8169 20.8216 11.4183 21.4231 11.4183 22.165Z" stroke="black" stroke-width="1.34333" stroke-linejoin="round"/>
</svg>
