<svg width="16" height="16" viewBox="0 0 16 16" fill="none" xmlns="http://www.w3.org/2000/svg">
<path d="M5.33257 2.80928L1.72038 13.6458C1.54536 14.1709 2.0449 14.6705 2.56998 14.4954L13.4066 10.8833M5.33257 2.80928L5.35764 2.73406C5.67343 1.7867 6.8758 1.50286 7.58192 2.20898L14.0068 8.63391C14.713 9.34003 14.4291 10.5424 13.4818 10.8582L13.4066 10.8833M5.33257 2.80928L13.4066 10.8833M7.38835 7.72398C7.38835 8.28041 6.93728 8.73148 6.38085 8.73148C5.82443 8.73148 5.37335 8.28041 5.37335 7.72398C5.37335 7.16755 5.82443 6.71648 6.38085 6.71648C6.93728 6.71648 7.38835 7.16755 7.38835 7.72398ZM9.40335 10.0747C9.40335 10.4456 9.10263 10.7463 8.73168 10.7463C8.36073 10.7463 8.06001 10.4456 8.06001 10.0747C8.06001 9.70372 8.36073 9.403 8.73168 9.403C9.10263 9.403 9.40335 9.70372 9.40335 10.0747ZM5.70918 11.0825C5.70918 11.4534 5.40846 11.7541 5.03751 11.7541C4.66656 11.7541 4.36585 11.4534 4.36585 11.0825C4.36585 10.7115 4.66656 10.4108 5.03751 10.4108C5.40846 10.4108 5.70918 10.7115 5.70918 11.0825Z" stroke="black" stroke-width="0.671667" stroke-linejoin="round"/>
</svg>
