<svg width="48" height="48" viewBox="0 0 48 48" fill="none" xmlns="http://www.w3.org/2000/svg">
<path d="M15.9977 8.42783L5.16115 40.9375C4.63607 42.5128 6.1347 44.0114 7.70995 43.4863L40.2197 32.6498M15.9977 8.42783L16.0729 8.20219C17.0203 5.3601 20.6274 4.50858 22.7458 6.62695L42.0205 25.9017C44.1389 28.0201 43.2874 31.6272 40.4453 32.5746L40.2197 32.6498M15.9977 8.42783L40.2197 32.6498M22.165 23.1724C22.165 24.8417 20.8118 26.1949 19.1425 26.1949C17.4732 26.1949 16.12 24.8417 16.12 23.1724C16.12 21.5031 17.4732 20.1499 19.1425 20.1499C20.8118 20.1499 22.165 21.5031 22.165 23.1724ZM28.21 30.2245C28.21 31.3373 27.3079 32.2395 26.195 32.2395C25.0822 32.2395 24.18 31.3373 24.18 30.2245C24.18 29.1116 25.0822 28.2095 26.195 28.2095C27.3079 28.2095 28.21 29.1116 28.21 30.2245ZM17.1275 33.2479C17.1275 34.3608 16.2254 35.2629 15.1125 35.2629C13.9997 35.2629 13.0975 34.3608 13.0975 33.2479C13.0975 32.1351 13.9997 31.2329 15.1125 31.2329C16.2254 31.2329 17.1275 32.1351 17.1275 33.2479Z" stroke="black" stroke-width="2.015" stroke-linejoin="round"/>
</svg>
