<svg width="24" height="24" viewBox="0 0 24 24" fill="none" xmlns="http://www.w3.org/2000/svg">
<path d="M7.99884 4.21367L2.58056 20.4685C2.31802 21.2561 3.06734 22.0055 3.85496 21.7429L20.1098 16.3246M7.99884 4.21367L8.03645 4.10085C8.51013 2.67981 10.3137 2.25404 11.3729 3.31323L21.0103 12.9506C22.0694 14.0098 21.6437 15.8134 20.2226 16.287L20.1098 16.3246M7.99884 4.21367L20.1098 16.3246M11.0825 11.586C11.0825 12.4206 10.4059 13.0972 9.57125 13.0972C8.73661 13.0972 8.06 12.4206 8.06 11.586C8.06 10.7513 8.73661 10.0747 9.57125 10.0747C10.4059 10.0747 11.0825 10.7513 11.0825 11.586ZM14.105 15.112C14.105 15.6684 13.6539 16.1195 13.0975 16.1195C12.5411 16.1195 12.09 15.6684 12.09 15.112C12.09 14.5556 12.5411 14.1045 13.0975 14.1045C13.6539 14.1045 14.105 14.5556 14.105 15.112ZM8.56374 16.6237C8.56374 17.1801 8.11266 17.6312 7.55624 17.6312C6.99981 17.6312 6.54874 17.1801 6.54874 16.6237C6.54874 16.0673 6.99981 15.6162 7.55624 15.6162C8.11266 15.6162 8.56374 16.0673 8.56374 16.6237Z" stroke="black" stroke-width="1.0075" stroke-linejoin="round"/>
</svg>
