<svg width="8" height="8" viewBox="0 0 8 8" fill="none" xmlns="http://www.w3.org/2000/svg">
<g clip-path="url(#clip0_1_2669)">
<path d="M2.64644 1.39386L0.853787 6.77181C0.766925 7.03239 1.01484 7.28031 1.27542 7.19345L6.65338 5.40079M2.64644 1.39386L2.65888 1.35653C2.8156 0.886375 3.41231 0.745511 3.76274 1.09594L6.95129 4.28449C7.30172 4.63493 7.16086 5.23163 6.6907 5.38835L6.65338 5.40079M2.64644 1.39386L6.65338 5.40079M3.66666 3.8332C3.66666 4.10934 3.44281 4.3332 3.16666 4.3332C2.89052 4.3332 2.66666 4.10934 2.66666 3.8332C2.66666 3.55705 2.89052 3.3332 3.16666 3.3332C3.44281 3.3332 3.66666 3.55705 3.66666 3.8332ZM4.66667 4.99954C4.66667 5.18363 4.51743 5.33287 4.33333 5.33287C4.14924 5.33287 4 5.18363 4 4.99954C4 4.81544 4.14924 4.6662 4.33333 4.6662C4.51743 4.6662 4.66667 4.81544 4.66667 4.99954ZM2.83333 5.49954C2.83333 5.68363 2.68409 5.83287 2.5 5.83287C2.3159 5.83287 2.16666 5.68363 2.16666 5.49954C2.16666 5.31544 2.3159 5.1662 2.5 5.1662C2.68409 5.1662 2.83333 5.31544 2.83333 5.49954Z" stroke="black" stroke-width="0.333333" stroke-linejoin="round"/>
</g>
<defs>
<clipPath id="clip0_1_2669">
<rect width="8" height="8" fill="white"/>
</clipPath>
</defs>
</svg>
