<svg width="24" height="24" viewBox="0 0 24 24" fill="none" xmlns="http://www.w3.org/2000/svg">
<path d="M15 17.9996H19C20.6961 17.7569 22 16.2628 22 14.4996C22 12.7092 20.6556 11.2327 18.9212 11.0247C18.4555 8.17463 15.9818 5.99963 13 5.99963C10.7118 5.99963 8.72277 7.28053 7.71081 9.16443C7.32556 9.05703 6.91949 8.99963 6.5 8.99963C4.01472 8.99963 2 11.0143 2 13.4996C2 15.9849 4.01472 17.9996 6.5 17.9996H9M12.09 20.1498L12.09 11.0823M12.09 11.0823L8.06 15.1123M12.09 11.0823L16.12 15.1123" stroke="black" stroke-width="1.0075" stroke-linecap="round" stroke-linejoin="round"/>
</svg>
