<svg width="8" height="8" viewBox="0 0 8 8" fill="none" xmlns="http://www.w3.org/2000/svg">
<g clip-path="url(#clip0_1_11)">
<path d="M7 4C7 5.65685 5.65685 7 4 7M7 4C7 2.34315 5.65685 1 4 1M7 4C7 4 6 5.1665 4 5.1665C2 5.1665 1 4 1 4M7 4C7 4 6 2.83333 4 2.83333C2 2.83333 1 4 1 4M4 7C2.34315 7 1 5.65685 1 4M4 7C4 7 2.83334 6 2.83334 4C2.83334 2 4 1 4 1M4 7C4 7 5.16667 6 5.16667 4C5.16667 2 4 1 4 1M1 4C1 2.34315 2.34315 1 4 1" stroke="black" stroke-width="0.333333" stroke-linejoin="round"/>
</g>
<defs>
<clipPath id="clip0_1_11">
<rect width="8" height="8" fill="white"/>
</clipPath>
</defs>
</svg>
