<svg width="24" height="24" viewBox="0 0 24 24" fill="none" xmlns="http://www.w3.org/2000/svg">
<path d="M3.02249 8.06027C3.02249 7.50385 3.47356 7.05277 4.02999 7.05277H8.56374L9.57124 4.03027H14.6087L15.6162 7.05277H20.15C20.7064 7.05277 21.1575 7.50385 21.1575 8.06027V19.1428C21.1575 19.6992 20.7064 20.1503 20.15 20.1503H4.02999C3.47356 20.1503 3.02249 19.6992 3.02249 19.1428V8.06027Z" stroke="black" stroke-width="1.0075" stroke-linejoin="round"/>
<path d="M15.1125 13.0979C15.1125 14.7672 13.7593 16.1204 12.09 16.1204C10.4208 16.1204 9.06754 14.7672 9.06754 13.0979C9.06754 11.4287 10.4208 10.0754 12.09 10.0754C13.7593 10.0754 15.1125 11.4287 15.1125 13.0979Z" stroke="black" stroke-width="1.0075" stroke-linejoin="round"/>
</svg>
