<svg width="16" height="16" viewBox="0 0 16 16" fill="none" xmlns="http://www.w3.org/2000/svg">
<path d="M5.37334 8.06013C5.37334 8.80203 4.77191 9.40346 4.03001 9.40346C3.28811 9.40346 2.68668 8.80203 2.68668 8.06013C2.68668 7.31823 3.28811 6.7168 4.03001 6.7168C4.77191 6.7168 5.37334 7.31823 5.37334 8.06013Z" stroke="black" stroke-width="0.671667" stroke-linejoin="round"/>
<path d="M9.40333 8.06013C9.40333 8.80203 8.8019 9.40346 8.05999 9.40346C7.31809 9.40346 6.71666 8.80203 6.71666 8.06013C6.71666 7.31823 7.31809 6.7168 8.05999 6.7168C8.8019 6.7168 9.40333 7.31823 9.40333 8.06013Z" stroke="black" stroke-width="0.671667" stroke-linejoin="round"/>
<path d="M13.4333 8.06013C13.4333 8.80203 12.8319 9.40346 12.09 9.40346C11.3481 9.40346 10.7467 8.80203 10.7467 8.06013C10.7467 7.31823 11.3481 6.7168 12.09 6.7168C12.8319 6.7168 13.4333 7.31823 13.4333 8.06013Z" stroke="black" stroke-width="0.671667" stroke-linejoin="round"/>
</svg>
