<svg width="12" height="12" viewBox="0 0 12 12" fill="none" xmlns="http://www.w3.org/2000/svg">
<path d="M2.84373 6.7583L10.5219 4.05734M5.19753 9.1131C4.92139 9.59139 5.08526 10.203 5.56355 10.4791C6.04185 10.7553 6.65344 10.5914 6.92958 10.1131C7.20572 9.6348 7.04185 9.02321 6.56355 8.74707C6.08526 8.47093 5.47367 8.6348 5.19753 9.1131ZM5.19753 9.1131L7.89847 1.43408M2.84373 6.75939C2.36543 7.03554 1.75384 6.87166 1.4777 6.39337C1.20156 5.91508 1.36543 5.30349 1.84373 5.02734C2.32202 4.7512 2.93361 4.91508 3.20975 5.39337C3.48589 5.87166 3.32202 6.48325 2.84373 6.75939Z" stroke="black" stroke-width="0.5" stroke-linecap="round" stroke-linejoin="round"/>
</svg>
