<svg width="12" height="13" viewBox="0 0 12 13" fill="none" xmlns="http://www.w3.org/2000/svg">
<path d="M4.25746 7.72062C4.22397 7.85456 4.30541 7.9903 4.43936 8.02379C4.57331 8.05727 4.70904 7.97583 4.74253 7.84188L4.25746 7.72062ZM7.25746 7.84188C7.29094 7.97583 7.42668 8.05727 7.56063 8.02379C7.69457 7.9903 7.77602 7.85456 7.74253 7.72062L7.25746 7.84188ZM5.99998 5.28125L5.99998 5.53125L5.99998 5.28125ZM8.25911 6.84816C8.29606 6.9812 8.43386 7.05908 8.5669 7.02213C8.69993 6.98518 8.77782 6.84737 8.74086 6.71434L8.25911 6.84816ZM2.25999 5.71125C2.22133 5.8438 2.29744 5.98259 2.42999 6.02125C2.56254 6.05991 2.70133 5.9838 2.73999 5.85125L2.25999 5.71125ZM5.99999 3.78125L5.99999 3.53125L5.99999 3.78125ZM9.25999 5.85125C9.29865 5.9838 9.43744 6.05991 9.56999 6.02125C9.70254 5.98259 9.77865 5.8438 9.73999 5.71125L9.25999 5.85125ZM4.49999 7.78125C4.74253 7.84188 4.74249 7.84202 4.74246 7.84215C4.74245 7.84219 4.74242 7.84232 4.7424 7.8424C4.74236 7.84255 4.74232 7.8427 4.74229 7.84282C4.74223 7.84308 4.74218 7.84328 4.74214 7.84342C4.74207 7.8437 4.74205 7.84375 4.7421 7.84358C4.74218 7.84325 4.74251 7.84204 4.74311 7.84002C4.74429 7.83597 4.7465 7.82867 4.74992 7.81861C4.75677 7.79842 4.76833 7.7674 4.78585 7.72916C4.82109 7.65228 4.8792 7.54895 4.96939 7.44588C5.14406 7.24625 5.45208 7.03125 5.99999 7.03125L5.99999 6.53125C5.29791 6.53125 4.85593 6.81625 4.5931 7.11662C4.46454 7.26355 4.38202 7.41022 4.33132 7.52084C4.30588 7.57635 4.28814 7.62345 4.27643 7.65796C4.27057 7.67523 4.2662 7.68943 4.26311 7.70002C4.26156 7.70532 4.26033 7.70973 4.2594 7.71318C4.25893 7.7149 4.25854 7.71639 4.25822 7.71763C4.25806 7.71826 4.25791 7.71882 4.25779 7.71931C4.25772 7.71956 4.25766 7.71979 4.25761 7.72001C4.25758 7.72012 4.25754 7.72027 4.25753 7.72033C4.25749 7.72047 4.25746 7.72062 4.49999 7.78125ZM5.99999 7.03125C6.54791 7.03125 6.85593 7.24625 7.0306 7.44588C7.12079 7.54895 7.1789 7.65228 7.21413 7.72916C7.23166 7.7674 7.24322 7.79842 7.25006 7.81861C7.25348 7.82867 7.2557 7.83597 7.25688 7.84002C7.25747 7.84204 7.2578 7.84325 7.25789 7.84358C7.25793 7.84375 7.25792 7.8437 7.25785 7.84342C7.25781 7.84328 7.25776 7.84308 7.25769 7.84282C7.25766 7.8427 7.25763 7.84255 7.25759 7.8424C7.25757 7.84232 7.25753 7.84219 7.25752 7.84215C7.25749 7.84202 7.25746 7.84188 7.49999 7.78125C7.74253 7.72062 7.74249 7.72047 7.74246 7.72033C7.74244 7.72027 7.7424 7.72012 7.74238 7.72001C7.74232 7.71979 7.74226 7.71956 7.7422 7.71931C7.74207 7.71882 7.74193 7.71826 7.74177 7.71763C7.74144 7.71639 7.74105 7.7149 7.74058 7.71318C7.73965 7.70973 7.73843 7.70532 7.73688 7.70002C7.73379 7.68943 7.72941 7.67523 7.72355 7.65796C7.71185 7.62345 7.69411 7.57635 7.66866 7.52084C7.61796 7.41022 7.53545 7.26355 7.40689 7.11662C7.14406 6.81625 6.70208 6.53125 5.99999 6.53125L5.99999 7.03125ZM3.49998 6.78125C3.74086 6.84816 3.74082 6.84831 3.74078 6.84845C3.74077 6.84849 3.74074 6.84862 3.74071 6.8487C3.74067 6.84886 3.74063 6.84899 3.7406 6.84911C3.74053 6.84934 3.74049 6.84948 3.74048 6.84953C3.74045 6.84963 3.74052 6.8494 3.74069 6.84882C3.74103 6.84768 3.74179 6.8452 3.743 6.84148C3.74541 6.83403 3.74961 6.82163 3.75589 6.80498C3.76845 6.77166 3.78922 6.72159 3.82042 6.66033C3.88293 6.53758 3.98635 6.37178 4.14798 6.20552C4.46572 5.87871 5.02616 5.53125 5.99998 5.53125L5.99998 5.03125C4.89047 5.03125 4.20092 5.43379 3.78949 5.85698C3.58654 6.06572 3.45559 6.27492 3.37487 6.43342C3.33445 6.51279 3.30639 6.57991 3.28803 6.62861C3.27884 6.65298 3.27206 6.67281 3.26735 6.68733C3.265 6.6946 3.26316 6.70054 3.2618 6.70507C3.26112 6.70734 3.26056 6.70925 3.26011 6.7108C3.25989 6.71157 3.25969 6.71226 3.25952 6.71285C3.25944 6.71314 3.25936 6.71341 3.25929 6.71366C3.25926 6.71379 3.25921 6.71396 3.25919 6.71402C3.25915 6.71418 3.25911 6.71434 3.49998 6.78125ZM5.99998 5.53125C6.97381 5.53125 7.53425 5.87871 7.85199 6.20552C8.01362 6.37178 8.11704 6.53758 8.17955 6.66033C8.21075 6.72159 8.23152 6.77166 8.24408 6.80498C8.25036 6.82163 8.25456 6.83403 8.25697 6.84148C8.25818 6.8452 8.25894 6.84768 8.25928 6.84882C8.25945 6.8494 8.25952 6.84963 8.25949 6.84953C8.25948 6.84947 8.25944 6.84934 8.25937 6.84911C8.25934 6.84899 8.2593 6.84886 8.25926 6.8487C8.25923 6.84862 8.2592 6.84849 8.25919 6.84845C8.25915 6.84831 8.25911 6.84816 8.49998 6.78125C8.74086 6.71434 8.74082 6.71418 8.74077 6.71402C8.74076 6.71396 8.74071 6.71379 8.74068 6.71366C8.74061 6.71341 8.74053 6.71314 8.74045 6.71285C8.74028 6.71225 8.74008 6.71157 8.73986 6.7108C8.73941 6.70925 8.73885 6.70734 8.73817 6.70507C8.73681 6.70054 8.73497 6.6946 8.73262 6.68733C8.72791 6.67281 8.72113 6.65298 8.71194 6.62861C8.69358 6.57991 8.66552 6.51279 8.6251 6.43342C8.54438 6.27492 8.41343 6.06572 8.21048 5.85698C7.79905 5.43379 7.1095 5.03125 5.99998 5.03125L5.99998 5.53125ZM2.49999 5.78125C2.73999 5.85125 2.73995 5.8514 2.73991 5.85154C2.7399 5.85158 2.73986 5.85172 2.73983 5.85179C2.73979 5.85194 2.73975 5.85206 2.73973 5.85215C2.73967 5.85234 2.73965 5.8524 2.73967 5.85235C2.7397 5.85225 2.73987 5.85168 2.74019 5.85067C2.74083 5.84864 2.74206 5.84482 2.74393 5.83932C2.74767 5.82834 2.75396 5.81069 2.76321 5.78732C2.78172 5.74056 2.81197 5.67117 2.85717 5.58664C2.94765 5.41743 3.09722 5.18903 3.33119 4.95984C3.79382 4.50665 4.60557 4.03125 5.99999 4.03125L5.99999 3.53125C4.47775 3.53125 3.5395 4.05585 2.9813 4.60266C2.70484 4.87347 2.52629 5.14507 2.41625 5.35086C2.36119 5.45383 2.32309 5.54069 2.2983 5.6033C2.2859 5.63463 2.27681 5.65995 2.27058 5.67825C2.26747 5.68741 2.26506 5.69482 2.26332 5.70036C2.26245 5.70313 2.26174 5.70543 2.26118 5.70725C2.26091 5.70816 2.26067 5.70895 2.26047 5.70962C2.26037 5.70995 2.26028 5.71026 2.2602 5.71053C2.26016 5.71066 2.26011 5.71084 2.26009 5.71091C2.26004 5.71108 2.25999 5.71125 2.49999 5.78125ZM5.99999 4.03125C7.39441 4.03125 8.20617 4.50665 8.6688 4.95984C8.90276 5.18903 9.05233 5.41743 9.14281 5.58664C9.18801 5.67117 9.21827 5.74056 9.23678 5.78732C9.24603 5.81069 9.25232 5.82834 9.25606 5.83932C9.25792 5.84482 9.25915 5.84864 9.25979 5.85066C9.26011 5.85168 9.26028 5.85225 9.26032 5.85235C9.26033 5.8524 9.26031 5.85233 9.26026 5.85215C9.26023 5.85206 9.26019 5.85194 9.26015 5.85179C9.26013 5.85172 9.26009 5.85158 9.26008 5.85154C9.26004 5.8514 9.25999 5.85125 9.49999 5.78125C9.73999 5.71125 9.73994 5.71108 9.73989 5.71091C9.73987 5.71084 9.73982 5.71066 9.73978 5.71053C9.7397 5.71025 9.73961 5.70995 9.73951 5.70962C9.73931 5.70895 9.73908 5.70816 9.7388 5.70725C9.73825 5.70543 9.73754 5.70313 9.73667 5.70036C9.73492 5.69482 9.73252 5.68741 9.7294 5.67825C9.72317 5.65995 9.71408 5.63463 9.70168 5.6033C9.6769 5.54069 9.63879 5.45383 9.58373 5.35086C9.47369 5.14507 9.29514 4.87347 9.01869 4.60266C8.46048 4.05585 7.52224 3.53125 5.99999 3.53125L5.99999 4.03125ZM6.74999 9.28125C6.74999 9.69546 6.41421 10.0313 5.99999 10.0313V10.5312C6.69035 10.5312 7.24999 9.97161 7.24999 9.28125H6.74999ZM5.99999 10.0313C5.58578 10.0313 5.24999 9.69546 5.24999 9.28125H4.74999C4.74999 9.97161 5.30964 10.5312 5.99999 10.5312V10.0313ZM5.24999 9.28125C5.24999 8.86704 5.58578 8.53125 5.99999 8.53125V8.03125C5.30964 8.03125 4.74999 8.59089 4.74999 9.28125H5.24999ZM5.99999 8.53125C6.41421 8.53125 6.74999 8.86704 6.74999 9.28125H7.24999C7.24999 8.59089 6.69035 8.03125 5.99999 8.03125V8.53125Z" fill="black"/>
</svg>
