<svg width="48" height="48" viewBox="0 0 48 48" fill="none" xmlns="http://www.w3.org/2000/svg">
<path d="M42.315 24.1794C42.315 34.1951 34.1956 42.3144 24.18 42.3144M42.315 24.1794C42.315 14.1637 34.1956 6.04443 24.18 6.04443M42.315 24.1794H6.04495M24.18 42.3144C14.1643 42.3144 6.04495 34.1951 6.04495 24.1794M24.18 42.3144C24.18 42.3144 17.1275 36.2694 17.1275 24.1794C17.1275 12.0894 24.18 6.04443 24.18 6.04443M24.18 42.3144C24.18 42.3144 31.2325 36.2694 31.2325 24.1794C31.2325 12.0894 24.18 6.04443 24.18 6.04443M6.04495 24.1794C6.04495 14.1637 14.1643 6.04443 24.18 6.04443M39.2925 15.1118H9.06747M39.2925 33.2473H9.06747" stroke="black" stroke-width="2.015" stroke-linejoin="round"/>
</svg>
