<svg width="48" height="48" viewBox="0 0 48 48" fill="none" xmlns="http://www.w3.org/2000/svg">
<path d="M21.1575 4.02832V3.02082C20.6494 3.02082 20.2208 3.39917 20.1578 3.90336L21.1575 4.02832ZM27.2025 4.02832L28.2022 3.90336C28.1392 3.39917 27.7106 3.02082 27.2025 3.02082V4.02832ZM28.21 12.0883V13.0958C28.499 13.0958 28.7741 12.9717 28.9653 12.7551C29.1566 12.5384 29.2456 12.2501 29.2097 11.9634L28.21 12.0883ZM20.15 12.0883L19.1503 11.9634C19.1145 12.2501 19.2035 12.5384 19.3947 12.7551C19.586 12.9717 19.861 13.0958 20.15 13.0958V12.0883ZM27.2026 44.3291V45.3366C27.7107 45.3366 28.1392 44.9582 28.2023 44.4541L27.2026 44.3291ZM21.1576 44.3291L20.1578 44.4541C20.2209 44.9582 20.6494 45.3366 21.1576 45.3366V44.3291ZM20.1501 36.2691V35.2616C19.8611 35.2616 19.586 35.3857 19.3948 35.6023C19.2035 35.819 19.1145 36.1073 19.1503 36.3941L20.1501 36.2691ZM28.2101 36.2691L29.2098 36.3941C29.2456 36.1073 29.1566 35.819 28.9654 35.6023C28.7741 35.3857 28.499 35.2616 28.2101 35.2616V36.2691ZM44.33 21.1564H45.3375C45.3375 20.6483 44.9592 20.2197 44.455 20.1567L44.33 21.1564ZM44.33 27.2014L44.455 28.2011C44.9592 28.1381 45.3375 27.7095 45.3375 27.2014H44.33ZM36.27 28.2089H35.2625C35.2625 28.4979 35.3866 28.773 35.6032 28.9642C35.8199 29.1555 36.1082 29.2445 36.395 29.2086L36.27 28.2089ZM36.27 20.1489L36.395 19.1492C36.1082 19.1134 35.8199 19.2024 35.6032 19.3936C35.3866 19.5849 35.2625 19.8599 35.2625 20.1489H36.27ZM4.03003 27.2025L3.02253 27.2025C3.02253 27.7106 3.40088 28.1392 3.90506 28.2022L4.03003 27.2025ZM4.03003 21.1575L3.90506 20.1577C3.40088 20.2208 3.02253 20.6494 3.02253 21.1575L4.03003 21.1575ZM12.09 20.15L13.0975 20.15C13.0975 19.861 12.9734 19.5859 12.7568 19.3947C12.5402 19.2034 12.2518 19.1144 11.9651 19.1502L12.09 20.15ZM12.09 28.21L11.9651 29.2097C12.2518 29.2455 12.5402 29.1565 12.7568 28.9653C12.9734 28.774 13.0975 28.4989 13.0975 28.21L12.09 28.21ZM40.5655 36.292L41.2779 37.0044C41.6372 36.6451 41.6727 36.0745 41.3608 35.6735L40.5655 36.292ZM36.291 40.5665L35.6725 41.3617C36.0736 41.6737 36.6441 41.6382 37.0034 41.2789L36.291 40.5665ZM29.8793 35.5796L29.1669 34.8672C28.9626 35.0715 28.8558 35.3538 28.8738 35.6422C28.8917 35.9306 29.0327 36.1974 29.2608 36.3749L29.8793 35.5796ZM35.5786 29.8803L36.3739 29.2618C36.1965 29.0337 35.9296 28.8927 35.6412 28.8748C35.3528 28.8568 35.0705 28.9636 34.8662 29.1679L35.5786 29.8803ZM7.79456 12.0654L7.08215 11.353C6.72287 11.7123 6.68734 12.2829 6.99929 12.684L7.79456 12.0654ZM12.069 7.79096L12.6876 6.99569C12.2865 6.68374 11.7159 6.71927 11.3566 7.07855L12.069 7.79096ZM18.4807 12.7778L19.1931 13.4902C19.3975 13.2859 19.5042 13.0037 19.4863 12.7152C19.4683 12.4268 19.3274 12.16 19.0993 11.9826L18.4807 12.7778ZM12.7814 18.4771L11.9862 19.0957C12.1636 19.3238 12.4304 19.4647 12.7188 19.4827C13.0073 19.5006 13.2895 19.3939 13.4938 19.1895L12.7814 18.4771ZM12.0691 40.564L11.3566 41.2764C11.7159 41.6357 12.2865 41.6712 12.6876 41.3592L12.0691 40.564ZM7.79459 36.2895L6.99932 35.671C6.68737 36.072 6.7229 36.6426 7.08218 37.0019L7.79459 36.2895ZM12.7815 29.8778L13.4939 29.1654C13.2895 28.9611 13.0073 28.8543 12.7189 28.8723C12.4304 28.8902 12.1636 29.0312 11.9862 29.2593L12.7815 29.8778ZM18.4807 35.5771L19.0993 36.3724C19.3274 36.1949 19.4683 35.9281 19.4863 35.6397C19.5043 35.3513 19.3975 35.069 19.1932 34.8647L18.4807 35.5771ZM36.291 7.792L37.0034 7.07959C36.6441 6.72031 36.0735 6.68478 35.6724 6.99673L36.291 7.792ZM40.5655 12.0665L41.3607 12.685C41.6727 12.2839 41.6371 11.7133 41.2779 11.3541L40.5655 12.0665ZM35.5786 18.4782L34.8662 19.1906C35.0705 19.3949 35.3528 19.5017 35.6412 19.4837C35.9296 19.4657 36.1964 19.3248 36.3739 19.0967L35.5786 18.4782ZM29.8793 12.7789L29.2608 11.9836C29.0326 12.161 28.8917 12.4278 28.8737 12.7163C28.8558 13.0047 28.9625 13.2869 29.1669 13.4913L29.8793 12.7789ZM39.2925 24.1796C39.2925 32.526 32.5264 39.2921 24.18 39.2921V41.3071C33.6393 41.3071 41.3075 33.6388 41.3075 24.1796H39.2925ZM24.18 39.2921C15.8336 39.2921 9.06753 32.526 9.06753 24.1796H7.05253C7.05253 33.6388 14.7208 41.3071 24.18 41.3071V39.2921ZM9.06753 24.1796C9.06753 15.8332 15.8336 9.06707 24.18 9.06707V7.05207C14.7208 7.05207 7.05253 14.7203 7.05253 24.1796H9.06753ZM24.18 9.06707C32.5264 9.06707 39.2925 15.8332 39.2925 24.1796H41.3075C41.3075 14.7203 33.6393 7.05207 24.18 7.05207V9.06707ZM21.1575 5.03582H27.2025V3.02082H21.1575V5.03582ZM26.2028 4.15329L27.2103 12.2133L29.2097 11.9634L28.2022 3.90336L26.2028 4.15329ZM28.21 11.0808H20.15V13.0958H28.21V11.0808ZM21.1497 12.2133L22.1572 4.15329L20.1578 3.90336L19.1503 11.9634L21.1497 12.2133ZM27.2026 43.3216H21.1576V45.3366H27.2026V43.3216ZM22.1573 44.2041L21.1498 36.1441L19.1503 36.3941L20.1578 44.4541L22.1573 44.2041ZM20.1501 37.2766H28.2101V35.2616H20.1501V37.2766ZM27.2103 36.1441L26.2028 44.2041L28.2023 44.4541L29.2098 36.3941L27.2103 36.1441ZM43.3225 21.1564V27.2014H45.3375V21.1564H43.3225ZM44.2051 26.2017L36.145 27.2092L36.395 29.2086L44.455 28.2011L44.2051 26.2017ZM37.2775 28.2089V20.1489H35.2625V28.2089H37.2775ZM36.145 21.1486L44.2051 22.1561L44.455 20.1567L36.395 19.1492L36.145 21.1486ZM5.03753 27.2025L5.03753 21.1575L3.02253 21.1575L3.02253 27.2025L5.03753 27.2025ZM4.15499 22.1572L12.215 21.1497L11.9651 19.1502L3.90506 20.1577L4.15499 22.1572ZM11.0825 20.15L11.0825 28.21L13.0975 28.21L13.0975 20.15L11.0825 20.15ZM12.215 27.2102L4.15499 26.2027L3.90506 28.2022L11.9651 29.2097L12.215 27.2102ZM39.8531 35.5796L35.5786 39.854L37.0034 41.2789L41.2779 37.0044L39.8531 35.5796ZM36.9096 39.7712L30.4979 34.7843L29.2608 36.3749L35.6725 41.3617L36.9096 39.7712ZM30.5917 36.292L36.291 30.5927L34.8662 29.1679L29.1669 34.8672L30.5917 36.292ZM34.7833 30.4989L39.7702 36.9105L41.3608 35.6735L36.3739 29.2618L34.7833 30.4989ZM8.50697 12.7778L12.7814 8.50337L11.3566 7.07855L7.08215 11.353L8.50697 12.7778ZM11.4505 8.58623L17.8622 13.5731L19.0993 11.9826L12.6876 6.99569L11.4505 8.58623ZM17.7683 12.0654L12.069 17.7647L13.4938 19.1895L19.1931 13.4902L17.7683 12.0654ZM13.5767 17.8586L8.58983 11.4469L6.99929 12.684L11.9862 19.0957L13.5767 17.8586ZM12.7815 39.8515L8.507 35.5771L7.08218 37.0019L11.3566 41.2764L12.7815 39.8515ZM8.58986 36.908L13.5767 30.4964L11.9862 29.2593L6.99932 35.671L8.58986 36.908ZM12.0691 30.5902L17.7683 36.2895L19.1932 34.8647L13.4939 29.1654L12.0691 30.5902ZM17.8622 34.7818L11.4505 39.7687L12.6876 41.3592L19.0993 36.3724L17.8622 34.7818ZM35.5786 8.50441L39.853 12.7789L41.2779 11.3541L37.0034 7.07959L35.5786 8.50441ZM39.7702 11.4479L34.7833 17.8596L36.3739 19.0967L41.3607 12.685L39.7702 11.4479ZM36.291 17.7657L30.5917 12.0665L29.1669 13.4913L34.8662 19.1906L36.291 17.7657ZM30.4978 13.5741L36.9095 8.58727L35.6724 6.99673L29.2608 11.9836L30.4978 13.5741Z" fill="black"/>
<path d="M32.24 24.1791C32.24 28.6306 28.6314 32.2391 24.18 32.2391C19.7286 32.2391 16.12 28.6306 16.12 24.1791C16.12 19.7277 19.7286 16.1191 24.18 16.1191C28.6314 16.1191 32.24 19.7277 32.24 24.1791Z" stroke="black" stroke-width="2.015" stroke-linejoin="round"/>
</svg>
