<svg width="8" height="8" viewBox="0 0 8 8" fill="none" xmlns="http://www.w3.org/2000/svg">
<path d="M3.33333 2.00004C3.33333 2.09209 3.25871 2.16671 3.16667 2.16671C3.07462 2.16671 3 2.09209 3 2.00004C3 1.90799 3.07462 1.83337 3.16667 1.83337C3.25871 1.83337 3.33333 1.90799 3.33333 2.00004Z" stroke="black" stroke-width="0.333333" stroke-linecap="round" stroke-linejoin="round"/>
<path d="M3.33333 3.33323C3.33333 3.42528 3.25871 3.4999 3.16667 3.4999C3.07462 3.4999 3 3.42528 3 3.33323C3 3.24118 3.07462 3.16656 3.16667 3.16656C3.25871 3.16656 3.33333 3.24118 3.33333 3.33323Z" stroke="black" stroke-width="0.333333" stroke-linecap="round" stroke-linejoin="round"/>
<path d="M3.33333 4.66654C3.33333 4.75859 3.25871 4.83321 3.16667 4.83321C3.07462 4.83321 3 4.75859 3 4.66654C3 4.5745 3.07462 4.49988 3.16667 4.49988C3.25871 4.49988 3.33333 4.5745 3.33333 4.66654Z" stroke="black" stroke-width="0.333333" stroke-linecap="round" stroke-linejoin="round"/>
<path d="M3.33333 5.99986C3.33333 6.0919 3.25871 6.16652 3.16667 6.16652C3.07462 6.16652 3 6.0919 3 5.99986C3 5.90781 3.07462 5.83319 3.16667 5.83319C3.25871 5.83319 3.33333 5.90781 3.33333 5.99986Z" stroke="black" stroke-width="0.333333" stroke-linecap="round" stroke-linejoin="round"/>
<path d="M5 1.99986C5 2.09191 4.92538 2.16652 4.83333 2.16652C4.74128 2.16652 4.66666 2.09191 4.66666 1.99986C4.66666 1.90781 4.74128 1.83319 4.83333 1.83319C4.92538 1.83319 5 1.90781 5 1.99986Z" stroke="black" stroke-width="0.333333" stroke-linecap="round" stroke-linejoin="round"/>
<path d="M5 3.33323C5 3.42528 4.92538 3.4999 4.83333 3.4999C4.74128 3.4999 4.66666 3.42528 4.66666 3.33323C4.66666 3.24118 4.74128 3.16656 4.83333 3.16656C4.92538 3.16656 5 3.24118 5 3.33323Z" stroke="black" stroke-width="0.333333" stroke-linecap="round" stroke-linejoin="round"/>
<path d="M5 4.66654C5 4.75859 4.92538 4.83321 4.83333 4.83321C4.74128 4.83321 4.66666 4.75859 4.66666 4.66654C4.66666 4.5745 4.74128 4.49988 4.83333 4.49988C4.92538 4.49988 5 4.5745 5 4.66654Z" stroke="black" stroke-width="0.333333" stroke-linecap="round" stroke-linejoin="round"/>
<path d="M5 5.99986C5 6.0919 4.92538 6.16652 4.83333 6.16652C4.74128 6.16652 4.66666 6.0919 4.66666 5.99986C4.66666 5.90781 4.74128 5.83319 4.83333 5.83319C4.92538 5.83319 5 5.90781 5 5.99986Z" stroke="black" stroke-width="0.333333" stroke-linecap="round" stroke-linejoin="round"/>
</svg>
