<svg width="32" height="32" viewBox="0 0 32 32" fill="none" xmlns="http://www.w3.org/2000/svg">
<path d="M13.4334 8.05997C13.4334 8.43092 13.1326 8.73164 12.7617 8.73164C12.3907 8.73164 12.09 8.43092 12.09 8.05997C12.09 7.68902 12.3907 7.38831 12.7617 7.38831C13.1326 7.38831 13.4334 7.68902 13.4334 8.05997Z" stroke="black" stroke-width="1.34333" stroke-linecap="round" stroke-linejoin="round"/>
<path d="M13.4334 13.4322C13.4334 13.8032 13.1327 14.1039 12.7617 14.1039C12.3908 14.1039 12.09 13.8032 12.09 13.4322C12.09 13.0613 12.3908 12.7606 12.7617 12.7606C13.1327 12.7606 13.4334 13.0613 13.4334 13.4322Z" stroke="black" stroke-width="1.34333" stroke-linecap="round" stroke-linejoin="round"/>
<path d="M13.4334 18.8082C13.4334 19.1792 13.1327 19.4799 12.7617 19.4799C12.3908 19.4799 12.09 19.1792 12.09 18.8082C12.09 18.4373 12.3908 18.1365 12.7617 18.1365C13.1327 18.1365 13.4334 18.4373 13.4334 18.8082Z" stroke="black" stroke-width="1.34333" stroke-linecap="round" stroke-linejoin="round"/>
<path d="M13.4334 24.1803C13.4334 24.5512 13.1327 24.8519 12.7617 24.8519C12.3908 24.8519 12.09 24.5512 12.09 24.1803C12.09 23.8093 12.3908 23.5086 12.7617 23.5086C13.1327 23.5086 13.4334 23.8093 13.4334 24.1803Z" stroke="black" stroke-width="1.34333" stroke-linecap="round" stroke-linejoin="round"/>
<path d="M20.15 8.06016C20.15 8.43111 19.8493 8.73182 19.4784 8.73182C19.1074 8.73182 18.8067 8.43111 18.8067 8.06016C18.8067 7.6892 19.1074 7.38849 19.4784 7.38849C19.8493 7.38849 20.15 7.6892 20.15 8.06016Z" stroke="black" stroke-width="1.34333" stroke-linecap="round" stroke-linejoin="round"/>
<path d="M20.15 13.4322C20.15 13.8032 19.8493 14.1039 19.4784 14.1039C19.1074 14.1039 18.8067 13.8032 18.8067 13.4322C18.8067 13.0613 19.1074 12.7606 19.4784 12.7606C19.8493 12.7606 20.15 13.0613 20.15 13.4322Z" stroke="black" stroke-width="1.34333" stroke-linecap="round" stroke-linejoin="round"/>
<path d="M20.15 18.8082C20.15 19.1792 19.8493 19.4799 19.4784 19.4799C19.1074 19.4799 18.8067 19.1792 18.8067 18.8082C18.8067 18.4373 19.1074 18.1365 19.4784 18.1365C19.8493 18.1365 20.15 18.4373 20.15 18.8082Z" stroke="black" stroke-width="1.34333" stroke-linecap="round" stroke-linejoin="round"/>
<path d="M20.15 24.1803C20.15 24.5512 19.8493 24.8519 19.4784 24.8519C19.1074 24.8519 18.8067 24.5512 18.8067 24.1803C18.8067 23.8093 19.1074 23.5086 19.4784 23.5086C19.8493 23.5086 20.15 23.8093 20.15 24.1803Z" stroke="black" stroke-width="1.34333" stroke-linecap="round" stroke-linejoin="round"/>
</svg>
