<svg width="32" height="32" viewBox="0 0 32 32" fill="none" xmlns="http://www.w3.org/2000/svg">
<path d="M10.075 16.1209C10.075 16.4918 9.77428 16.7926 9.40333 16.7926C9.03237 16.7926 8.73166 16.4918 8.73166 16.1209C8.73166 15.7499 9.03237 15.4492 9.40333 15.4492C9.77428 15.4492 10.075 15.7499 10.075 16.1209Z" stroke="black" stroke-width="1.34333" stroke-linecap="round" stroke-linejoin="round"/>
<path d="M16.7917 16.1209C16.7917 16.4918 16.4909 16.7926 16.12 16.7926C15.749 16.7926 15.4483 16.4918 15.4483 16.1209C15.4483 15.7499 15.749 15.4492 16.12 15.4492C16.4909 15.4492 16.7917 15.7499 16.7917 16.1209Z" stroke="black" stroke-width="1.34333" stroke-linecap="round" stroke-linejoin="round"/>
<path d="M23.5083 16.1209C23.5083 16.4918 23.2076 16.7926 22.8367 16.7926C22.4657 16.7926 22.165 16.4918 22.165 16.1209C22.165 15.7499 22.4657 15.4492 22.8367 15.4492C23.2076 15.4492 23.5083 15.7499 23.5083 16.1209Z" stroke="black" stroke-width="1.34333" stroke-linecap="round" stroke-linejoin="round"/>
</svg>
