<svg width="32" height="32" viewBox="0 0 32 32" fill="none" xmlns="http://www.w3.org/2000/svg">
<path d="M16.12 10.0748C15.749 10.0748 15.4483 9.77406 15.4483 9.40311C15.4483 9.03216 15.749 8.73145 16.12 8.73145C16.491 8.73145 16.7917 9.03216 16.7917 9.40311C16.7917 9.77406 16.491 10.0748 16.12 10.0748Z" stroke="black" stroke-width="1.34333" stroke-linecap="round" stroke-linejoin="round"/>
<path d="M16.12 16.7906C15.749 16.7906 15.4483 16.4899 15.4483 16.1189C15.4483 15.748 15.749 15.4473 16.12 15.4473C16.491 15.4473 16.7917 15.748 16.7917 16.1189C16.7917 16.4899 16.491 16.7906 16.12 16.7906Z" stroke="black" stroke-width="1.34333" stroke-linecap="round" stroke-linejoin="round"/>
<path d="M16.12 23.5074C15.749 23.5074 15.4483 23.2067 15.4483 22.8357C15.4483 22.4648 15.749 22.1641 16.12 22.1641C16.491 22.1641 16.7917 22.4648 16.7917 22.8357C16.7917 23.2067 16.491 23.5074 16.12 23.5074Z" stroke="black" stroke-width="1.34333" stroke-linecap="round" stroke-linejoin="round"/>
</svg>
