<svg width="930" height="142" viewBox="0 0 930 142" fill="none" xmlns="http://www.w3.org/2000/svg">
<path d="M8.53 119.842L21.922 56.788H0.532001L1.462 52.138L23.596 50.65L30.478 25.726H36.802L31.594 50.65H56.704L55.774 57.532L30.106 56.788L17.272 117.796C16.776 119.78 16.342 121.764 15.97 123.748C15.598 125.732 15.412 127.406 15.412 128.77C15.412 131.87 17.086 133.42 20.434 133.42C23.286 133.42 26.448 132.118 29.92 129.514C33.392 126.786 37.05 123.066 40.894 118.354L43.684 120.586C39.84 126.166 35.562 131.064 30.85 135.28C26.138 139.372 20.93 141.418 15.226 141.418C12.87 141.418 10.824 140.674 9.088 139.186C7.476 137.698 6.67 135.652 6.67 133.048C6.67 131.064 6.794 129.204 7.042 127.468C7.29 125.608 7.786 123.066 8.53 119.842ZM61.9527 140.116L60.6507 139L79.4367 45.814C80.6767 39.862 81.8547 33.972 82.9707 28.144C84.0867 22.192 85.1407 16.24 86.1327 10.288L65.6727 9.54399L66.2307 5.824L94.8747 0.429988L96.7347 2.10399L82.7847 70.552C87.2487 66.212 91.8367 62.43 96.5487 59.206C101.385 55.982 106.035 53.44 110.499 51.58C114.963 49.72 118.869 48.79 122.217 48.79C126.185 48.79 129.161 49.906 131.145 52.138C133.253 54.246 134.307 57.222 134.307 61.066C134.307 64.042 133.935 66.956 133.191 69.808C132.571 72.66 131.889 75.822 131.145 79.294L122.031 117.796C121.535 119.904 121.039 122.012 120.543 124.12C120.047 126.104 119.799 127.778 119.799 129.142C119.799 131.994 121.349 133.42 124.449 133.42C127.301 133.42 130.463 132.056 133.935 129.328C137.531 126.6 141.189 122.942 144.909 118.354L147.699 120.586C143.979 126.166 139.701 131.064 134.865 135.28C130.029 139.372 124.821 141.418 119.241 141.418C116.761 141.418 114.715 140.674 113.103 139.186C111.615 137.822 110.871 136.024 110.871 133.792C110.871 131.436 111.057 129.328 111.429 127.468C111.925 125.608 112.545 123.066 113.289 119.842L122.403 81.526C123.023 78.426 123.643 75.45 124.263 72.598C124.883 69.746 125.193 67.204 125.193 64.972C125.193 61.872 124.573 59.702 123.333 58.462C122.093 57.222 120.233 56.602 117.753 56.602C113.537 56.602 108.515 58.152 102.687 61.252C96.9827 64.228 89.9147 69.312 81.4827 76.504L76.6467 100.312C75.4067 106.76 74.1047 113.208 72.7407 119.656C71.5007 126.104 70.3227 132.552 69.2067 139L61.9527 140.116ZM205.41 54.184C201.318 54.184 197.102 55.548 192.762 58.276C188.546 60.88 184.64 64.476 181.044 69.064C177.448 73.652 174.41 78.798 171.93 84.502C169.574 90.206 168.21 96.096 167.838 102.172C184.454 97.46 196.854 91.818 205.038 85.246C213.222 78.674 217.314 71.978 217.314 65.158C217.314 61.562 216.198 58.834 213.966 56.974C211.858 55.114 209.006 54.184 205.41 54.184ZM186.624 141.418C181.788 141.418 177.324 140.302 173.232 138.07C169.14 135.838 165.854 132.304 163.374 127.468C160.894 122.508 159.654 116.06 159.654 108.124C159.654 100.684 160.956 93.492 163.56 86.548C166.164 79.48 169.698 73.094 174.162 67.39C178.626 61.686 183.71 57.16 189.414 53.812C195.242 50.464 201.318 48.79 207.642 48.79C212.726 48.79 216.88 50.092 220.104 52.696C223.328 55.176 224.94 58.958 224.94 64.042C224.94 71.73 220.29 79.48 210.99 87.292C201.814 94.98 187.368 101.552 167.652 107.008C167.9 116.06 169.946 122.756 173.79 127.096C177.758 131.312 182.966 133.42 189.414 133.42C194.994 133.42 199.892 131.994 204.108 129.142C208.448 126.29 212.292 122.694 215.64 118.354L218.616 120.586C214.648 126.662 209.998 131.684 204.666 135.652C199.334 139.496 193.32 141.418 186.624 141.418ZM272.82 139V18.1H315.972C324.404 18.1 332.03 18.968 338.85 20.704C345.794 22.44 351.25 25.478 355.218 29.818C359.31 34.158 361.356 40.296 361.356 48.232C361.356 53.44 359.682 58.648 356.334 63.856C353.11 68.94 347.964 72.412 340.896 74.272V75.016C349.452 76.628 355.838 79.728 360.054 84.316C364.394 88.904 366.564 95.228 366.564 103.288C366.564 111.596 364.456 118.416 360.24 123.748C356.024 128.956 350.382 132.8 343.314 135.28C336.246 137.76 328.372 139 319.692 139H272.82ZM304.812 65.716H315.228C320.436 65.716 324.218 64.538 326.574 62.182C328.93 59.826 330.108 56.788 330.108 53.068C330.108 49.348 328.93 46.682 326.574 45.07C324.218 43.458 320.436 42.652 315.228 42.652H304.812V65.716ZM304.812 114.448H317.46C323.784 114.448 328.31 113.27 331.038 110.914C333.89 108.558 335.316 105.148 335.316 100.684C335.316 96.22 333.89 92.996 331.038 91.012C328.31 89.028 323.784 88.036 317.46 88.036H304.812V114.448ZM428.243 141.232C419.067 141.232 410.945 138.876 403.877 134.164C396.933 129.452 391.477 122.508 387.509 113.332C383.665 104.156 381.743 92.872 381.743 79.48C381.743 59.268 386.021 44.14 394.577 34.096C403.133 23.928 414.355 18.844 428.243 18.844C442.131 18.844 453.353 23.928 461.909 34.096C470.465 44.14 474.743 59.268 474.743 79.48C474.743 92.872 472.759 104.156 468.791 113.332C464.947 122.508 459.553 129.452 452.609 134.164C445.665 138.876 437.543 141.232 428.243 141.232ZM428.243 116.68C431.591 116.68 434.629 115.626 437.357 113.518C440.085 111.41 442.255 107.69 443.867 102.358C445.603 96.902 446.471 89.276 446.471 79.48C446.471 69.684 445.603 62.182 443.867 56.974C442.255 51.766 440.085 48.232 437.357 46.372C434.629 44.388 431.591 43.396 428.243 43.396C425.019 43.396 421.981 44.388 419.129 46.372C416.401 48.232 414.169 51.766 412.433 56.974C410.821 62.182 410.015 69.684 410.015 79.48C410.015 89.276 410.821 96.902 412.433 102.358C414.169 107.69 416.401 111.41 419.129 113.518C421.981 115.626 425.019 116.68 428.243 116.68ZM428.243 94.36C424.027 94.36 420.493 92.996 417.641 90.268C414.789 87.54 413.363 83.944 413.363 79.48C413.363 75.016 414.789 71.42 417.641 68.692C420.493 65.964 424.027 64.6 428.243 64.6C432.583 64.6 436.117 65.964 438.845 68.692C441.697 71.42 443.123 75.016 443.123 79.48C443.123 83.944 441.697 87.54 438.845 90.268C436.117 92.996 432.583 94.36 428.243 94.36ZM497.363 139V113.332H528.239V52.324H502.199V32.608C507.779 31.74 512.553 30.81 516.521 29.818C520.489 28.826 524.023 27.648 527.123 26.284C530.347 24.796 533.571 23.06 536.795 21.076H560.231V113.332H585.527V139H497.363ZM613.354 139V18.1H645.346V112.216H696.868V139H613.354ZM722.649 139V18.1H804.861V44.884H754.641V63.856H797.421V90.64H754.641V112.216H806.721V139H722.649ZM829.341 139V18.1H874.353C883.033 18.1 891.031 19.278 898.347 21.634C905.663 23.866 911.553 27.834 916.017 33.538C920.481 39.242 922.713 47.116 922.713 57.16C922.713 66.832 920.481 74.706 916.017 80.782C911.553 86.858 905.663 91.322 898.347 94.174C891.031 97.026 883.033 98.452 874.353 98.452H861.333V139H829.341ZM861.333 73.156H872.121C878.445 73.156 883.219 71.792 886.443 69.064C889.791 66.336 891.465 62.368 891.465 57.16C891.465 51.952 889.791 48.356 886.443 46.372C883.219 44.388 878.445 43.396 872.121 43.396H861.333V73.156ZM868.587 90.082L890.163 68.878L929.409 139H893.697L868.587 90.082Z" fill="#ffffff"/>
</svg>
