<svg width="24" height="24" viewBox="0 0 24 24" fill="none" xmlns="http://www.w3.org/2000/svg">
<path d="M12.09 5.03809C7.05249 5.03809 6.04499 9.06809 6.04499 11.0831V14.1624C6.04499 14.7881 5.89932 15.4044 5.61953 15.964L4.75902 17.685C4.42408 18.3549 4.9103 19.1431 5.65925 19.1431H9.57124M12.09 5.03809C17.1275 5.03809 18.135 9.06809 18.135 11.0831V14.1624C18.135 14.7881 18.2807 15.4044 18.5604 15.964L19.421 17.685C19.7559 18.3549 19.2688 19.1431 18.5198 19.1431H14.6087M12.09 5.03809L12.09 3.02344M9.57124 19.1431C9.57124 21.1581 10.5787 22.1656 12.09 22.1656C13.6012 22.1656 14.6087 21.1581 14.6087 19.1431M9.57124 19.1431H14.6087" stroke="black" stroke-width="1.0075" stroke-linecap="round" stroke-linejoin="round"/>
</svg>
