<svg width="16" height="16" viewBox="0 0 16 16" fill="none" xmlns="http://www.w3.org/2000/svg">
<path d="M8.06001 3.35889C4.70167 3.35889 4.03001 6.04555 4.03001 7.38889V9.44179C4.03001 9.85888 3.9329 10.2698 3.74637 10.6428L3.1727 11.7902C2.9494 12.2368 3.27355 12.7622 3.77285 12.7622H6.38084M8.06001 3.35889C11.4183 3.35889 12.09 6.04555 12.09 7.38889V9.44179C12.09 9.85888 12.1871 10.2698 12.3736 10.6428L12.9473 11.7902C13.1706 12.2368 12.8459 12.7622 12.3466 12.7622H9.73917M8.06001 3.35889L8.06001 2.01562M6.38084 12.7622C6.38084 14.1056 7.05251 14.7772 8.06001 14.7772C9.06751 14.7772 9.73917 14.1056 9.73917 12.7622M6.38084 12.7622H9.73917" stroke="black" stroke-width="0.671667" stroke-linecap="round" stroke-linejoin="round"/>
</svg>
