<svg width="32" height="32" viewBox="0 0 32 32" fill="none" xmlns="http://www.w3.org/2000/svg">
<path d="M4.03 10.7469C4.03 10.005 4.63143 9.40354 5.37333 9.40354H11.4183L12.7617 5.37354H19.4783L20.8217 9.40354H26.8667C27.6086 9.40354 28.21 10.005 28.21 10.7469V25.5235C28.21 26.2654 27.6086 26.8669 26.8667 26.8669H5.37333C4.63143 26.8669 4.03 26.2654 4.03 25.5235V10.7469Z" stroke="black" stroke-width="1.34333" stroke-linejoin="round"/>
<path d="M20.15 17.4636C20.15 19.6893 18.3458 21.4936 16.12 21.4936C13.8943 21.4936 12.09 19.6893 12.09 17.4636C12.09 15.2379 13.8943 13.4336 16.12 13.4336C18.3458 13.4336 20.15 15.2379 20.15 17.4636Z" stroke="black" stroke-width="1.34333" stroke-linejoin="round"/>
</svg>
