<svg width="16" height="16" viewBox="0 0 16 16" fill="none" xmlns="http://www.w3.org/2000/svg">
<path d="M2.01498 5.37368C2.01498 5.00273 2.3157 4.70201 2.68665 4.70201H5.70915L6.38082 2.68701H9.73915L10.4108 4.70201H13.4333C13.8043 4.70201 14.105 5.00273 14.105 5.37368V12.762C14.105 13.133 13.8043 13.4337 13.4333 13.4337H2.68665C2.3157 13.4337 2.01498 13.133 2.01498 12.762V5.37368Z" stroke="black" stroke-width="0.671667" stroke-linejoin="round"/>
<path d="M10.075 8.7318C10.075 9.84465 9.17287 10.7468 8.06001 10.7468C6.94716 10.7468 6.04501 9.84465 6.04501 8.7318C6.04501 7.61894 6.94716 6.7168 8.06001 6.7168C9.17287 6.7168 10.075 7.61894 10.075 8.7318Z" stroke="black" stroke-width="0.671667" stroke-linejoin="round"/>
</svg>
