<svg width="32" height="32" viewBox="0 0 32 32" fill="none" xmlns="http://www.w3.org/2000/svg">
<path d="M4.03 11.1046V25.523C4.03 26.2649 4.63143 26.8664 5.37333 26.8664H26.8667C27.6086 26.8664 28.21 26.2649 28.21 25.523V11.1046M4.03 11.1046V6.71638C4.03 5.97448 4.63143 5.37305 5.37333 5.37305H26.8667C27.6086 5.37305 28.21 5.97448 28.21 6.71638V11.1046M4.03 11.1046H28.21M9.40332 2.68555V6.71555M22.8367 2.68555V6.71555M18.8067 18.8058C18.8067 20.2896 17.6038 21.4925 16.12 21.4925C14.6362 21.4925 13.4333 20.2896 13.4333 18.8058C13.4333 17.322 14.6362 16.1191 16.12 16.1191C17.6038 16.1191 18.8067 17.322 18.8067 18.8058Z" stroke="black" stroke-width="1.34333" stroke-linecap="round" stroke-linejoin="round"/>
</svg>
