<svg width="12" height="12" viewBox="0 0 12 12" fill="none" xmlns="http://www.w3.org/2000/svg">
<path d="M4.25 9H4.75C5.02614 9 5.25 8.77614 5.25 8.5V3.5C5.25 3.22386 5.02614 3 4.75 3H4.25C3.97386 3 3.75 3.22386 3.75 3.5V8.5C3.75 8.77614 3.97386 9 4.25 9Z" stroke="black" stroke-width="0.5" stroke-linecap="round" stroke-linejoin="round"/>
<path d="M7.25002 9H7.75002C8.02616 9 8.25002 8.77614 8.25002 8.5V3.5C8.25002 3.22386 8.02616 3 7.75002 3H7.25002C6.97387 3 6.75002 3.22386 6.75002 3.5V8.5C6.75002 8.77614 6.97387 9 7.25002 9Z" stroke="black" stroke-width="0.5" stroke-linecap="round" stroke-linejoin="round"/>
</svg>
