<svg width="8" height="8" viewBox="0 0 8 8" fill="none" xmlns="http://www.w3.org/2000/svg">
<path d="M2.83333 6H3.16667C3.35076 6 3.5 5.85076 3.5 5.66667V2.33333C3.5 2.14924 3.35076 2 3.16667 2H2.83333C2.64924 2 2.5 2.14924 2.5 2.33333V5.66667C2.5 5.85076 2.64924 6 2.83333 6Z" stroke="black" stroke-width="0.333333" stroke-linecap="round" stroke-linejoin="round"/>
<path d="M4.83333 6H5.16667C5.35076 6 5.5 5.85076 5.5 5.66667V2.33333C5.5 2.14924 5.35076 2 5.16667 2H4.83333C4.64924 2 4.5 2.14924 4.5 2.33333V5.66667C4.5 5.85076 4.64924 6 4.83333 6Z" stroke="black" stroke-width="0.333333" stroke-linecap="round" stroke-linejoin="round"/>
</svg>
