<svg width="32" height="32" viewBox="0 0 32 32" fill="none" xmlns="http://www.w3.org/2000/svg">
<path d="M28.7053 18.2481C28.7666 17.8822 28.5198 17.5359 28.154 17.4745C27.7881 17.4132 27.4418 17.66 27.3804 18.0258L28.7053 18.2481ZM27.5001 10.8529V11.5246C27.8711 11.5246 28.1718 11.2239 28.1718 10.8529H27.5001ZM28.1718 3.25391C28.1718 2.88296 27.8711 2.58224 27.5001 2.58224C27.1292 2.58224 26.8284 2.88296 26.8284 3.25391H28.1718ZM19.9011 10.1813C19.5301 10.1813 19.2294 10.482 19.2294 10.8529C19.2294 11.2239 19.5301 11.5246 19.9011 11.5246V10.1813ZM16.12 27.5403C9.81384 27.5403 4.70168 22.4281 4.70168 16.1219H3.35835C3.35835 23.17 9.07194 28.8836 16.12 28.8836V27.5403ZM4.70168 16.1219C4.70168 9.81577 9.81384 4.70361 16.12 4.70361V3.36028C9.07194 3.36028 3.35835 9.07387 3.35835 16.1219H4.70168ZM16.12 4.70361C20.6023 4.70361 24.4826 7.28617 26.3518 11.0475L27.5548 10.4497C25.4674 6.24928 21.1317 3.36028 16.12 3.36028V4.70361ZM27.3804 18.0258C26.4745 23.4256 21.7771 27.5403 16.12 27.5403V28.8836C22.4441 28.8836 27.6926 24.2842 28.7053 18.2481L27.3804 18.0258ZM28.1718 10.8529V3.25391H26.8284V10.8529H28.1718ZM19.9011 11.5246H27.5001V10.1813H19.9011V11.5246Z" fill="black"/>
</svg>
