<svg width="8" height="8" viewBox="0 0 8 8" fill="none" xmlns="http://www.w3.org/2000/svg">
<g clip-path="url(#clip0_1_2888)">
<path d="M7.12289 4.52751C7.13812 4.43674 7.07688 4.3508 6.9861 4.33557C6.89532 4.32034 6.80938 4.38158 6.79415 4.47236L7.12289 4.52751ZM6.82385 2.69275V2.85941C6.9159 2.85941 6.99052 2.78479 6.99052 2.69275H6.82385ZM6.99052 0.807129C6.99052 0.715081 6.9159 0.640462 6.82385 0.640462C6.73181 0.640462 6.65719 0.715081 6.65719 0.807129H6.99052ZM4.93824 2.52608C4.84619 2.52608 4.77157 2.6007 4.77157 2.69275C4.77157 2.78479 4.84619 2.85941 4.93824 2.85941V2.52608ZM4 6.83327C2.43519 6.83327 1.16667 5.56475 1.16667 3.99994H0.833333C0.833333 5.74884 2.2511 7.1666 4 7.1666V6.83327ZM1.16667 3.99994C1.16667 2.43513 2.43519 1.1666 4 1.1666V0.833271C2.2511 0.833271 0.833333 2.25104 0.833333 3.99994H1.16667ZM4 1.1666C5.11222 1.1666 6.07508 1.80744 6.53891 2.74078L6.83741 2.59243C6.31944 1.55015 5.24359 0.833271 4 0.833271V1.1666ZM6.79415 4.47236C6.56936 5.81227 5.40375 6.83327 4 6.83327V7.1666C5.56925 7.1666 6.87161 6.02532 7.12289 4.52751L6.79415 4.47236ZM6.99052 2.69275V0.807129H6.65719V2.69275H6.99052ZM4.93824 2.85941H6.82385V2.52608H4.93824V2.85941Z" fill="black"/>
</g>
<defs>
<clipPath id="clip0_1_2888">
<rect width="8" height="8" fill="white"/>
</clipPath>
</defs>
</svg>
